<svg width="8" height="14" viewBox="0 0 8 14" fill="none" xmlns="http://www.w3.org/2000/svg">
<path d="M7.14011 6.63487C7.14204 6.80514 7.11365 6.97411 7.0566 7.1321C6.99954 7.29009 6.91493 7.43399 6.80761 7.55554L2.17574 12.7592C2.06777 12.8805 1.93931 12.977 1.79768 13.0431C1.65605 13.1093 1.50403 13.1438 1.3503 13.1447C1.19658 13.1457 1.04415 13.113 0.901726 13.0486C0.759302 12.9841 0.629672 12.8892 0.520236 12.7693C0.410799 12.6493 0.3237 12.5066 0.263911 12.3494C0.204122 12.1921 0.172815 12.0233 0.171777 11.8527C0.170738 11.6821 0.199987 11.513 0.257856 11.3551C0.315725 11.1971 0.401081 11.0533 0.509048 10.9321L4.34208 6.65191L0.608687 2.4049C0.488708 2.28661 0.391982 2.14215 0.324559 1.98055C0.257135 1.81895 0.220465 1.6437 0.21684 1.46575C0.213216 1.28779 0.242715 1.11097 0.303494 0.946337C0.364273 0.781705 0.455025 0.632805 0.570072 0.508947C0.685119 0.385089 0.821987 0.288938 0.972117 0.22651C1.12225 0.164081 1.28241 0.136718 1.44258 0.14613C1.60276 0.155541 1.75951 0.201527 1.90302 0.281209C2.04653 0.360892 2.17372 0.472556 2.27663 0.60922L6.80832 5.75707C7.01531 5.99242 7.13394 6.30627 7.14011 6.63487Z" fill="#448FFF"/>
</svg>
