<svg width="8" height="14" viewBox="0 0 8 14" fill="none" xmlns="http://www.w3.org/2000/svg">
<path d="M0.133325 6.63856C0.131401 6.4683 0.159782 6.29932 0.21684 6.14134C0.273898 5.98335 0.35851 5.83945 0.465827 5.7179L5.0977 0.514251C5.20567 0.392955 5.33413 0.296478 5.47576 0.230327C5.61739 0.164176 5.76941 0.129647 5.92313 0.12871C6.07686 0.127774 6.22929 0.16045 6.37171 0.224872C6.51414 0.289293 6.64377 0.384198 6.7532 0.504169C6.86264 0.624141 6.94974 0.766828 7.00953 0.924085C7.06932 1.08134 7.10062 1.25009 7.10166 1.42069C7.1027 1.59129 7.07345 1.76041 7.01558 1.91838C6.95771 2.07635 6.87236 2.22009 6.76439 2.34138L2.93136 6.62153L6.66475 10.8685C6.78473 10.9868 6.88145 11.1313 6.94888 11.2929C7.0163 11.4545 7.05297 11.6297 7.0566 11.8077C7.06022 11.9856 7.03072 12.1625 6.96994 12.3271C6.90916 12.4917 6.81841 12.6406 6.70336 12.7645C6.58832 12.8883 6.45145 12.9845 6.30132 13.0469C6.15119 13.1094 5.99103 13.1367 5.83085 13.1273C5.67068 13.1179 5.51393 13.0719 5.37042 12.9922C5.22691 12.9125 5.09972 12.8009 4.9968 12.6642L0.465119 7.51637C0.258122 7.28102 0.139495 6.96717 0.133325 6.63856Z" fill="#448FFF"/>
</svg>
