<svg width="11" height="6" viewBox="0 0 11 6" fill="none" xmlns="http://www.w3.org/2000/svg">
<path d="M1.68658 0.330998C1.39369 0.0381048 0.918813 0.0381048 0.62592 0.330998C0.333027 0.623891 0.333027 1.09876 0.62592 1.39166L1.68658 0.330998ZM5.40186 5.10694L4.87153 5.63727C5.16443 5.93017 5.6393 5.93017 5.93219 5.63727L5.40186 5.10694ZM10.1778 1.39166C10.4707 1.09876 10.4707 0.623891 10.1778 0.330998C9.88492 0.0381048 9.41004 0.0381048 9.11715 0.330998L10.1778 1.39166ZM0.62592 1.39166C0.629158 1.3949 0.6324 1.39814 0.635645 1.40138C0.638891 1.40463 0.64214 1.40788 0.645392 1.41113C0.648645 1.41438 0.6519 1.41764 0.65516 1.4209C0.658419 1.42416 0.661682 1.42742 0.664948 1.43069C0.668214 1.43395 0.671484 1.43722 0.674757 1.4405C0.67803 1.44377 0.681307 1.44705 0.684587 1.45033C0.687867 1.45361 0.69115 1.45689 0.694437 1.46018C0.697723 1.46346 0.701013 1.46675 0.704307 1.47005C0.7076 1.47334 0.710897 1.47664 0.714197 1.47994C0.717497 1.48324 0.7208 1.48654 0.724107 1.48985C0.727413 1.49315 0.730723 1.49646 0.734037 1.49977C0.73735 1.50309 0.740666 1.5064 0.743986 1.50972C0.747305 1.51304 0.750628 1.51637 0.753954 1.51969C0.75728 1.52302 0.76061 1.52635 0.763942 1.52968C0.767275 1.53301 0.77061 1.53635 0.773949 1.53969C0.777288 1.54303 0.78063 1.54637 0.783975 1.54971C0.78732 1.55306 0.790668 1.55641 0.794019 1.55976C0.797371 1.56311 0.800725 1.56646 0.804083 1.56982C0.80744 1.57318 0.810801 1.57654 0.814164 1.5799C0.817528 1.58327 0.820895 1.58663 0.824264 1.59C0.827634 1.59337 0.831007 1.59674 0.834382 1.60012C0.837758 1.6035 0.841137 1.60688 0.844518 1.61026C0.8479 1.61364 0.851285 1.61702 0.854672 1.62041C0.85806 1.6238 0.86145 1.62719 0.864844 1.63058C0.868237 1.63398 0.871633 1.63737 0.875033 1.64077C0.878432 1.64417 0.881834 1.64757 0.885239 1.65098C0.888644 1.65438 0.892052 1.65779 0.895463 1.6612C0.898873 1.66461 0.902287 1.66803 0.905703 1.67144C0.90912 1.67486 0.912539 1.67828 0.915961 1.6817C0.919383 1.68512 0.922807 1.68855 0.926235 1.69197C0.929662 1.6954 0.933093 1.69883 0.936526 1.70226C0.939959 1.7057 0.943394 1.70913 0.946833 1.71257C0.950271 1.71601 0.953712 1.71945 0.957156 1.72289C0.9606 1.72634 0.964046 1.72978 0.967496 1.73323C0.970945 1.73668 0.974396 1.74013 0.977851 1.74359C0.981305 1.74704 0.984762 1.7505 0.988222 1.75396C0.991682 1.75742 0.995144 1.76088 0.998609 1.76435C1.00207 1.76781 1.00554 1.77128 1.00901 1.77475C1.01248 1.77822 1.01595 1.78169 1.01943 1.78517C1.0229 1.78864 1.02638 1.79212 1.02986 1.7956C1.03334 1.79908 1.03682 1.80256 1.04031 1.80605C1.04379 1.80953 1.04728 1.81302 1.05077 1.81651C1.05426 1.82 1.05775 1.82349 1.06125 1.82699C1.06474 1.83048 1.06824 1.83398 1.07174 1.83748C1.07524 1.84098 1.07874 1.84448 1.08225 1.84798C1.08575 1.85149 1.08926 1.855 1.09277 1.85851C1.09628 1.86201 1.09979 1.86553 1.1033 1.86904C1.10681 1.87255 1.11033 1.87607 1.11385 1.87959C1.11737 1.88311 1.12089 1.88663 1.12441 1.89015C1.12793 1.89367 1.13146 1.8972 1.13499 1.90072C1.13851 1.90425 1.14204 1.90778 1.14558 1.91131C1.14911 1.91485 1.15264 1.91838 1.15618 1.92192C1.15971 1.92545 1.16325 1.92899 1.16679 1.93253C1.17033 1.93607 1.17388 1.93961 1.17742 1.94316C1.18097 1.9467 1.18451 1.95025 1.18806 1.9538C1.19161 1.95735 1.19516 1.9609 1.19872 1.96445C1.20227 1.96801 1.20582 1.97156 1.20938 1.97512C1.21294 1.97868 1.2165 1.98224 1.22006 1.9858C1.22362 1.98936 1.22719 1.99292 1.23075 1.99649C1.23432 2.00005 1.23788 2.00362 1.24145 2.00719C1.24502 2.01076 1.24859 2.01433 1.25217 2.01791C1.25574 2.02148 1.25932 2.02505 1.26289 2.02863C1.26647 2.03221 1.27005 2.03579 1.27363 2.03937C1.27721 2.04295 1.2808 2.04653 1.28438 2.05012C1.28797 2.0537 1.29155 2.05729 1.29514 2.06088C1.29873 2.06447 1.30232 2.06806 1.30591 2.07165C1.3095 2.07524 1.3131 2.07884 1.31669 2.08243C1.32029 2.08603 1.32389 2.08963 1.32749 2.09323C1.33109 2.09682 1.33469 2.10043 1.33829 2.10403C1.34189 2.10763 1.3455 2.11124 1.3491 2.11484C1.35271 2.11845 1.35632 2.12206 1.35993 2.12567C1.36354 2.12928 1.36715 2.13289 1.37076 2.1365C1.37438 2.14011 1.37799 2.14373 1.38161 2.14735C1.38522 2.15096 1.38884 2.15458 1.39246 2.1582C1.39608 2.16182 1.3997 2.16544 1.40332 2.16906C1.40695 2.17269 1.41057 2.17631 1.4142 2.17994C1.41782 2.18356 1.42145 2.18719 1.42508 2.19082C1.42871 2.19445 1.43234 2.19808 1.43597 2.20171C1.4396 2.20534 1.44324 2.20898 1.44687 2.21261C1.45051 2.21625 1.45414 2.21988 1.45778 2.22352C1.46142 2.22716 1.46506 2.2308 1.4687 2.23444C1.47234 2.23808 1.47598 2.24172 1.47963 2.24537C1.48327 2.24901 1.48692 2.25265 1.49056 2.2563C1.49421 2.25995 1.49786 2.2636 1.50151 2.26724C1.50516 2.27089 1.50881 2.27454 1.51246 2.2782C1.51611 2.28185 1.51976 2.2855 1.52342 2.28916C1.52707 2.29281 1.53073 2.29647 1.53438 2.30012C1.53804 2.30378 1.5417 2.30744 1.54536 2.3111C1.54902 2.31476 1.55268 2.31842 1.55634 2.32208C1.56 2.32574 1.56367 2.3294 1.56733 2.33307C1.57099 2.33673 1.57466 2.3404 1.57833 2.34407C1.58199 2.34773 1.58566 2.3514 1.58933 2.35507C1.593 2.35874 1.59667 2.36241 1.60034 2.36608C1.60401 2.36975 1.60768 2.37342 1.61136 2.3771C1.61503 2.38077 1.61871 2.38444 1.62238 2.38812C1.62606 2.3918 1.62973 2.39547 1.63341 2.39915C1.63709 2.40283 1.64077 2.40651 1.64445 2.41019C1.64813 2.41387 1.65181 2.41755 1.65549 2.42123C1.65917 2.42491 1.66285 2.42859 1.66654 2.43228C1.67022 2.43596 1.67391 2.43964 1.67759 2.44333C1.68128 2.44701 1.68496 2.4507 1.68865 2.45439C1.69234 2.45808 1.69603 2.46176 1.69971 2.46545C1.7034 2.46914 1.70709 2.47283 1.71078 2.47652C1.71448 2.48021 1.71817 2.4839 1.72186 2.4876C1.72555 2.49129 1.72924 2.49498 1.73294 2.49868C1.73663 2.50237 1.74033 2.50607 1.74402 2.50976C1.74772 2.51346 1.75142 2.51715 1.75511 2.52085C1.75881 2.52455 1.76251 2.52825 1.76621 2.53194C1.76991 2.53564 1.7736 2.53934 1.7773 2.54304C1.781 2.54674 1.78471 2.55044 1.78841 2.55414C1.79211 2.55785 1.79581 2.56155 1.79951 2.56525C1.80322 2.56895 1.80692 2.57266 1.81062 2.57636C1.81433 2.58006 1.81803 2.58377 1.82174 2.58747C1.82544 2.59118 1.82915 2.59488 1.83285 2.59859C1.83656 2.6023 1.84027 2.606 1.84397 2.60971C1.84768 2.61342 1.85139 2.61713 1.8551 2.62084C1.85881 2.62454 1.86251 2.62825 1.86622 2.63196C1.86993 2.63567 1.87364 2.63938 1.87735 2.64309C1.88106 2.6468 1.88477 2.65051 1.88849 2.65422C1.8922 2.65794 1.89591 2.66165 1.89962 2.66536C1.90333 2.66907 1.90704 2.67278 1.91076 2.6765C1.91447 2.68021 1.91818 2.68392 1.9219 2.68764C1.92561 2.69135 1.92932 2.69506 1.93304 2.69878C1.93675 2.70249 1.94047 2.70621 1.94418 2.70992C1.9479 2.71364 1.95161 2.71735 1.95533 2.72107C1.95904 2.72478 1.96276 2.7285 1.96647 2.73221C1.97019 2.73593 1.97391 2.73964 1.97762 2.74336C1.98134 2.74708 1.98506 2.75079 1.98877 2.75451C1.99249 2.75823 1.99621 2.76194 1.99992 2.76566C2.00364 2.76938 2.00736 2.7731 2.01108 2.77681C2.01479 2.78053 2.01851 2.78425 2.02223 2.78797C2.02595 2.79168 2.02966 2.7954 2.03338 2.79912C2.0371 2.80284 2.04082 2.80656 2.04453 2.81027C2.04825 2.81399 2.05197 2.81771 2.05569 2.82143C2.05941 2.82515 2.06313 2.82886 2.06684 2.83258C2.07056 2.8363 2.07428 2.84002 2.078 2.84374C2.08172 2.84745 2.08543 2.85117 2.08915 2.85489C2.09287 2.85861 2.09659 2.86233 2.10031 2.86604C2.10402 2.86976 2.10774 2.87348 2.11146 2.8772C2.11518 2.88092 2.1189 2.88463 2.12261 2.88835C2.12633 2.89207 2.13005 2.89579 2.13377 2.8995C2.13748 2.90322 2.1412 2.90694 2.14492 2.91066C2.14863 2.91437 2.15235 2.91809 2.15607 2.92181C2.15978 2.92552 2.1635 2.92924 2.16722 2.93296C2.17093 2.93667 2.17465 2.94039 2.17836 2.9441C2.18208 2.94782 2.1858 2.95153 2.18951 2.95525C2.19323 2.95896 2.19694 2.96268 2.20066 2.96639C2.20437 2.97011 2.20808 2.97382 2.2118 2.97754C2.21551 2.98125 2.21923 2.98496 2.22294 2.98868C2.22665 2.99239 2.23037 2.9961 2.23408 2.99982C2.23779 3.00353 2.2415 3.00724 2.24521 3.01095C2.24893 3.01466 2.25264 3.01838 2.25635 3.02209C2.26006 3.0258 2.26377 3.02951 2.26748 3.03322C2.27119 3.03693 2.2749 3.04064 2.27861 3.04435C2.28232 3.04806 2.28603 3.05176 2.28973 3.05547C2.29344 3.05918 2.29715 3.06289 2.30086 3.06659C2.30456 3.0703 2.30827 3.07401 2.31198 3.07771C2.31568 3.08142 2.31939 3.08513 2.32309 3.08883C2.3268 3.09253 2.3305 3.09624 2.3342 3.09994C2.33791 3.10365 2.34161 3.10735 2.34531 3.11105C2.34901 3.11475 2.35272 3.11845 2.35642 3.12216C2.36012 3.12586 2.36382 3.12956 2.36752 3.13326C2.37122 3.13696 2.37492 3.14065 2.37861 3.14435C2.38231 3.14805 2.38601 3.15175 2.38971 3.15544C2.3934 3.15914 2.3971 3.16284 2.40079 3.16653C2.40449 3.17023 2.40818 3.17392 2.41188 3.17761C2.41557 3.18131 2.41926 3.185 2.42295 3.18869C2.42665 3.19238 2.43034 3.19608 2.43403 3.19977C2.43772 3.20346 2.44141 3.20715 2.4451 3.21083C2.44878 3.21452 2.45247 3.21821 2.45616 3.2219C2.45985 3.22558 2.46353 3.22927 2.46722 3.23295C2.4709 3.23664 2.47458 3.24032 2.47827 3.24401C2.48195 3.24769 2.48563 3.25137 2.48931 3.25505C2.49299 3.25873 2.49667 3.26241 2.50035 3.26609C2.50403 3.26977 2.50771 3.27345 2.51139 3.27713C2.51506 3.2808 2.51874 3.28448 2.52241 3.28815C2.52609 3.29183 2.52976 3.2955 2.53344 3.29917C2.53711 3.30285 2.54078 3.30652 2.54445 3.31019C2.54812 3.31386 2.55179 3.31753 2.55546 3.3212C2.55913 3.32486 2.56279 3.32853 2.56646 3.3322C2.57012 3.33586 2.57379 3.33953 2.57745 3.34319C2.58112 3.34685 2.58478 3.35052 2.58844 3.35418C2.5921 3.35784 2.59576 3.3615 2.59942 3.36516C2.60308 3.36882 2.60674 3.37247 2.61039 3.37613C2.61405 3.37979 2.6177 3.38344 2.62136 3.38709C2.62501 3.39075 2.62866 3.3944 2.63231 3.39805C2.63596 3.4017 2.63961 3.40535 2.64326 3.409C2.64691 3.41265 2.65056 3.41629 2.6542 3.41994C2.65785 3.42359 2.66149 3.42723 2.66513 3.43087C2.66878 3.43451 2.67242 3.43816 2.67606 3.4418C2.6797 3.44544 2.68334 3.44907 2.68697 3.45271C2.69061 3.45635 2.69424 3.45998 2.69788 3.46362C2.70151 3.46725 2.70515 3.47088 2.70878 3.47451C2.71241 3.47815 2.71604 3.48178 2.71966 3.4854C2.72329 3.48903 2.72692 3.49266 2.73054 3.49628C2.73417 3.49991 2.73779 3.50353 2.74141 3.50715C2.74504 3.51077 2.74866 3.51439 2.75227 3.51801C2.75589 3.52163 2.75951 3.52525 2.76312 3.52886C2.76674 3.53248 2.77035 3.53609 2.77397 3.5397C2.77758 3.54332 2.78119 3.54693 2.7848 3.55053C2.7884 3.55414 2.79201 3.55775 2.79562 3.56135C2.79922 3.56496 2.80282 3.56856 2.80643 3.57216C2.81003 3.57577 2.81363 3.57937 2.81723 3.58296C2.82082 3.58656 2.82442 3.59016 2.82802 3.59375C2.83161 3.59735 2.8352 3.60094 2.83879 3.60453C2.84238 3.60812 2.84597 3.61171 2.84956 3.6153C2.85315 3.61889 2.85673 3.62247 2.86032 3.62606C2.8639 3.62964 2.86748 3.63322 2.87106 3.6368C2.87464 3.64038 2.87822 3.64396 2.8818 3.64753C2.88537 3.65111 2.88895 3.65468 2.89252 3.65826C2.89609 3.66183 2.89966 3.6654 2.90323 3.66897C2.9068 3.67253 2.91036 3.6761 2.91393 3.67966C2.91749 3.68323 2.92105 3.68679 2.92461 3.69035C2.92817 3.69391 2.93173 3.69747 2.93529 3.70102C2.93884 3.70458 2.9424 3.70813 2.94595 3.71169C2.9495 3.71524 2.95305 3.71879 2.9566 3.72234C2.96014 3.72588 2.96369 3.72943 2.96723 3.73297C2.97078 3.73651 2.97432 3.74006 2.97786 3.7436C2.9814 3.74713 2.98493 3.75067 2.98847 3.75421C2.992 3.75774 2.99553 3.76127 2.99906 3.7648C3.00259 3.76833 3.00612 3.77186 3.00965 3.77539C3.01317 3.77891 3.0167 3.78244 3.02022 3.78596C3.02374 3.78948 3.02726 3.793 3.03078 3.79651C3.03429 3.80003 3.03781 3.80355 3.04132 3.80706C3.04483 3.81057 3.04834 3.81408 3.05185 3.81759C3.05536 3.82109 3.05886 3.8246 3.06236 3.8281C3.06587 3.83161 3.06937 3.83511 3.07287 3.8386C3.07636 3.8421 3.07986 3.8456 3.08335 3.84909C3.08684 3.85258 3.09034 3.85607 3.09382 3.85956C3.09731 3.86305 3.1008 3.86654 3.10428 3.87002C3.10776 3.8735 3.11124 3.87698 3.11472 3.88046C3.1182 3.88394 3.12168 3.88742 3.12515 3.89089C3.12862 3.89436 3.13209 3.89783 3.13556 3.9013C3.13903 3.90477 3.1425 3.90823 3.14596 3.9117C3.14942 3.91516 3.15288 3.91862 3.15634 3.92208C3.1598 3.92554 3.16325 3.92899 3.16671 3.93244C3.17016 3.9359 3.17361 3.93935 3.17706 3.94279C3.1805 3.94624 3.18395 3.94969 3.18739 3.95313C3.19083 3.95657 3.19427 3.96001 3.19771 3.96344C3.20114 3.96688 3.20458 3.97032 3.20801 3.97375C3.21144 3.97718 3.21487 3.98061 3.21829 3.98403C3.22172 3.98746 3.22514 3.99088 3.22856 3.9943C3.23198 3.99772 3.2354 4.00114 3.23881 4.00455C3.24223 4.00796 3.24564 4.01138 3.24905 4.01479C3.25246 4.01819 3.25586 4.0216 3.25926 4.025C3.26267 4.02841 3.26607 4.03181 3.26946 4.0352C3.27286 4.0386 3.27626 4.04199 3.27965 4.04539C3.28304 4.04878 3.28643 4.05217 3.28981 4.05555C3.2932 4.05894 3.29658 4.06232 3.29996 4.0657C3.30334 4.06908 3.30672 4.07245 3.31009 4.07583C3.31346 4.0792 3.31683 4.08257 3.3202 4.08594C3.32357 4.08931 3.32693 4.09267 3.33029 4.09603C3.33366 4.09939 3.33701 4.10275 3.34037 4.10611C3.34372 4.10946 3.34708 4.11282 3.35043 4.11616C3.35378 4.11951 3.35712 4.12286 3.36046 4.1262C3.36381 4.12954 3.36715 4.13288 3.37048 4.13622C3.37382 4.13956 3.37715 4.14289 3.38048 4.14622C3.38381 4.14955 3.38714 4.15288 3.39046 4.1562C3.39379 4.15953 3.39711 4.16285 3.40043 4.16616C3.40374 4.16948 3.40706 4.1728 3.41037 4.17611C3.41368 4.17942 3.41699 4.18272 3.42029 4.18603C3.42359 4.18933 3.4269 4.19263 3.43019 4.19593C3.43349 4.19923 3.43678 4.20252 3.44008 4.20581C3.44337 4.20911 3.44665 4.21239 3.44994 4.21568C3.45322 4.21896 3.4565 4.22224 3.45978 4.22552C3.46306 4.2288 3.46633 4.23207 3.4696 4.23534C3.47287 4.23861 3.47614 4.24188 3.47941 4.24514C3.48267 4.24841 3.48593 4.25167 3.48919 4.25492C3.49244 4.25818 3.4957 4.26143 3.49895 4.26468C3.5022 4.26793 3.50544 4.27118 3.50869 4.27442C3.51193 4.27767 3.51517 4.28091 3.5184 4.28414C3.52164 4.28738 3.52487 4.29061 3.5281 4.29384C3.53133 4.29707 3.53455 4.30029 3.53778 4.30351C3.541 4.30674 3.54421 4.30995 3.54743 4.31317C3.55064 4.31638 3.55385 4.31959 3.55706 4.3228C3.56027 4.32601 3.56347 4.32921 3.56667 4.33241C3.56987 4.33561 3.57307 4.3388 3.57626 4.342C3.57945 4.34519 3.58264 4.34838 3.58582 4.35156C3.58901 4.35475 3.59219 4.35793 3.59537 4.3611C3.59854 4.36428 3.60172 4.36745 3.60489 4.37062C3.60806 4.37379 3.61122 4.37696 3.61438 4.38012C3.61755 4.38328 3.6207 4.38644 3.62386 4.3896C3.62701 4.39275 3.63016 4.3959 3.63331 4.39905C3.63646 4.40219 3.6396 4.40534 3.64274 4.40848C3.64588 4.41162 3.64901 4.41475 3.65214 4.41788C3.65527 4.42101 3.6584 4.42414 3.66152 4.42726C3.66465 4.43039 3.66777 4.43351 3.67088 4.43662C3.674 4.43974 3.67711 4.44285 3.68022 4.44595C3.68332 4.44906 3.68643 4.45216 3.68953 4.45526C3.69263 4.45836 3.69572 4.46146 3.69881 4.46455C3.7019 4.46764 3.70499 4.47073 3.70807 4.47381C3.71116 4.47689 3.71424 4.47997 3.71731 4.48305C3.72038 4.48612 3.72346 4.48919 3.72652 4.49226C3.72959 4.49533 3.73265 4.49839 3.73571 4.50145C3.73877 4.50451 3.74182 4.50756 3.74487 4.51061C3.74792 4.51366 3.75097 4.51671 3.75401 4.51975C3.75705 4.52279 3.76009 4.52583 3.76312 4.52886C3.76616 4.53189 3.76918 4.53492 3.77221 4.53795C3.77523 4.54097 3.77825 4.54399 3.78127 4.54701C3.78429 4.55002 3.7873 4.55304 3.79031 4.55604C3.79331 4.55905 3.79632 4.56205 3.79931 4.56505C3.80231 4.56805 3.80531 4.57105 3.8083 4.57404C3.81129 4.57703 3.81427 4.58001 3.81726 4.58299C3.82024 4.58598 3.82321 4.58895 3.82619 4.59192C3.82916 4.5949 3.83213 4.59787 3.83509 4.60083C3.83805 4.60379 3.84101 4.60675 3.84397 4.60971C3.84692 4.61266 3.84987 4.61561 3.85282 4.61856C3.85577 4.6215 3.85871 4.62444 3.86164 4.62738C3.86458 4.63032 3.86751 4.63325 3.87044 4.63618C3.87337 4.63911 3.87629 4.64203 3.87921 4.64495C3.88213 4.64787 3.88504 4.65078 3.88795 4.65369C3.89086 4.6566 3.89377 4.6595 3.89667 4.6624C3.89957 4.6653 3.90246 4.6682 3.90535 4.67109C3.90824 4.67398 3.91113 4.67687 3.91401 4.67975C3.91689 4.68263 3.91977 4.68551 3.92264 4.68838C3.92551 4.69125 3.92838 4.69412 3.93124 4.69698C3.93411 4.69984 3.93696 4.7027 3.93982 4.70556C3.94267 4.70841 3.94552 4.71126 3.94836 4.7141C3.95121 4.71694 3.95405 4.71978 3.95688 4.72262C3.95971 4.72545 3.96254 4.72828 3.96537 4.73111C3.96819 4.73393 3.97101 4.73675 3.97383 4.73956C3.97664 4.74238 3.97945 4.74519 3.98226 4.74799C3.98506 4.7508 3.98786 4.7536 3.99066 4.75639C3.99345 4.75919 3.99624 4.76198 3.99903 4.76476C4.00181 4.76755 4.00459 4.77033 4.00737 4.77311C4.01014 4.77588 4.01291 4.77865 4.01568 4.78142C4.01844 4.78418 4.0212 4.78694 4.02396 4.7897C4.02671 4.79245 4.02946 4.7952 4.03221 4.79795C4.03496 4.80069 4.0377 4.80343 4.04043 4.80617C4.04317 4.8089 4.0459 4.81163 4.04862 4.81436C4.05135 4.81708 4.05407 4.8198 4.05678 4.82252C4.0595 4.82523 4.06221 4.82794 4.06491 4.83065C4.06761 4.83335 4.07031 4.83605 4.07301 4.83875C4.0757 4.84144 4.07839 4.84413 4.08107 4.84681C4.08376 4.8495 4.08644 4.85218 4.08911 4.85485C4.09178 4.85752 4.09445 4.86019 4.09711 4.86285C4.09978 4.86552 4.10243 4.86817 4.10509 4.87083C4.10774 4.87348 4.11039 4.87612 4.11303 4.87877C4.11567 4.88141 4.11831 4.88404 4.12094 4.88668C4.12357 4.88931 4.12619 4.89193 4.12881 4.89455C4.13143 4.89717 4.13405 4.89979 4.13666 4.9024C4.13927 4.90501 4.14187 4.90761 4.14447 4.91021C4.14707 4.91281 4.14966 4.9154 4.15225 4.91799C4.15484 4.92058 4.15742 4.92316 4.16 4.92574C4.16258 4.92831 4.16515 4.93089 4.16771 4.93345C4.17028 4.93602 4.17284 4.93858 4.1754 4.94113C4.17795 4.94369 4.1805 4.94624 4.18304 4.94878C4.18559 4.95133 4.18813 4.95386 4.19066 4.9564C4.19319 4.95893 4.19572 4.96146 4.19824 4.96398C4.20076 4.9665 4.20328 4.96902 4.20579 4.97153C4.2083 4.97404 4.2108 4.97654 4.2133 4.97904C4.2158 4.98154 4.2183 4.98403 4.22078 4.98652C4.22327 4.98901 4.22575 4.99149 4.22823 4.99397C4.23071 4.99645 4.23318 4.99892 4.23564 5.00138C4.23811 5.00385 4.24057 5.00631 4.24302 5.00876C4.24547 5.01121 4.24792 5.01366 4.25036 5.0161C4.25281 5.01854 4.25524 5.02098 4.25767 5.02341C4.2601 5.02584 4.26253 5.02827 4.26495 5.03068C4.26737 5.0331 4.26978 5.03552 4.27219 5.03792C4.27459 5.04033 4.27699 5.04273 4.27939 5.04513C4.28178 5.04752 4.28417 5.04991 4.28656 5.0523C4.28894 5.05468 4.29132 5.05706 4.29369 5.05943C4.29606 5.0618 4.29843 5.06417 4.30079 5.06653C4.30315 5.06888 4.3055 5.07124 4.30785 5.07359C4.3102 5.07593 4.31254 5.07828 4.31487 5.08061C4.31721 5.08295 4.31954 5.08528 4.32186 5.0876C4.32419 5.08992 4.3265 5.09224 4.32882 5.09455C4.33113 5.09687 4.33343 5.09917 4.33573 5.10147C4.33803 5.10377 4.34033 5.10606 4.34261 5.10835C4.3449 5.11064 4.34718 5.11292 4.34946 5.11519C4.35173 5.11747 4.354 5.11974 4.35626 5.122C4.35852 5.12426 4.36078 5.12652 4.36303 5.12877C4.36528 5.13102 4.36753 5.13326 4.36976 5.1355C4.372 5.13774 4.37423 5.13997 4.37646 5.1422C4.37868 5.14442 4.3809 5.14664 4.38312 5.14885C4.38533 5.15107 4.38753 5.15327 4.38973 5.15547C4.39194 5.15767 4.39413 5.15987 4.39632 5.16205C4.3985 5.16424 4.40069 5.16642 4.40286 5.1686C4.40504 5.17077 4.4072 5.17294 4.40937 5.1751C4.41153 5.17727 4.41368 5.17942 4.41583 5.18157C4.41798 5.18372 4.42013 5.18586 4.42226 5.188C4.4244 5.19014 4.42653 5.19227 4.42865 5.19439C4.43078 5.19651 4.43289 5.19863 4.435 5.20074C4.43711 5.20285 4.43922 5.20496 4.44132 5.20705C4.44341 5.20915 4.4455 5.21124 4.44759 5.21333C4.44967 5.21541 4.45175 5.21749 4.45382 5.21956C4.45589 5.22163 4.45796 5.2237 4.46002 5.22576C4.46208 5.22781 4.46413 5.22987 4.46617 5.23191C4.46822 5.23396 4.47026 5.23599 4.47229 5.23803C4.47432 5.24006 4.47634 5.24208 4.47836 5.2441C4.48038 5.24612 4.48239 5.24813 4.4844 5.25014C4.4864 5.25214 4.4884 5.25414 4.49039 5.25613C4.49238 5.25812 4.49437 5.26011 4.49635 5.26209C4.49833 5.26406 4.5003 5.26604 4.50226 5.268C4.50423 5.26997 4.50618 5.27192 4.50814 5.27387C4.51009 5.27583 4.51203 5.27777 4.51397 5.27971C4.51591 5.28164 4.51784 5.28358 4.51976 5.2855C4.52168 5.28742 4.5236 5.28934 4.52551 5.29125C4.52742 5.29316 4.52932 5.29506 4.53122 5.29696C4.53312 5.29885 4.53501 5.30074 4.53689 5.30263C4.53877 5.30451 4.54065 5.30638 4.54251 5.30825C4.54438 5.31012 4.54624 5.31198 4.5481 5.31384C4.54995 5.31569 4.5518 5.31754 4.55364 5.31938C4.55548 5.32122 4.55732 5.32305 4.55914 5.32488C4.56097 5.32671 4.56279 5.32853 4.5646 5.33034C4.56641 5.33215 4.56822 5.33396 4.57002 5.33575C4.57181 5.33755 4.57361 5.33934 4.57539 5.34113C4.57717 5.34291 4.57895 5.34469 4.58072 5.34646C4.58249 5.34823 4.58425 5.34999 4.58601 5.35175C4.58776 5.3535 4.58951 5.35525 4.59125 5.35699C4.59299 5.35873 4.59473 5.36047 4.59645 5.36219C4.59818 5.36392 4.5999 5.36564 4.60161 5.36735C4.60332 5.36906 4.60503 5.37077 4.60673 5.37246C4.60842 5.37416 4.61011 5.37585 4.6118 5.37754C4.61348 5.37922 4.61516 5.38089 4.61682 5.38256C4.61849 5.38423 4.62015 5.38589 4.62181 5.38755C4.62346 5.3892 4.62511 5.39085 4.62675 5.39249C4.62839 5.39412 4.63002 5.39576 4.63164 5.39738C4.63327 5.399 4.63488 5.40062 4.63649 5.40223C4.6381 5.40384 4.6397 5.40544 4.6413 5.40704C4.64289 5.40863 4.64448 5.41022 4.64606 5.4118C4.64764 5.41338 4.64921 5.41495 4.65077 5.41651C4.65234 5.41808 4.6539 5.41963 4.65545 5.42118C4.65699 5.42273 4.65854 5.42427 4.66007 5.42581C4.66161 5.42734 4.66313 5.42887 4.66465 5.43039C4.66617 5.43191 4.66768 5.43342 4.66919 5.43492C4.67069 5.43643 4.67219 5.43792 4.67368 5.43941C4.67516 5.4409 4.67665 5.44238 4.67812 5.44386C4.67959 5.44533 4.68106 5.4468 4.68252 5.44825C4.68397 5.44971 4.68542 5.45116 4.68687 5.4526C4.68831 5.45405 4.68974 5.45548 4.69117 5.45691C4.6926 5.45834 4.69402 5.45976 4.69543 5.46117C4.69684 5.46258 4.69825 5.46398 4.69964 5.46538C4.70104 5.46678 4.70243 5.46816 4.70381 5.46954C4.70519 5.47092 4.70656 5.4723 4.70792 5.47366C4.70929 5.47503 4.71065 5.47638 4.71199 5.47773C4.71334 5.47908 4.71468 5.48042 4.71602 5.48176C4.71735 5.48309 4.71868 5.48441 4.71999 5.48573C4.72131 5.48705 4.72262 5.48836 4.72392 5.48966C4.72522 5.49096 4.72652 5.49226 4.7278 5.49354C4.72909 5.49483 4.73037 5.4961 4.73164 5.49737C4.7329 5.49864 4.73417 5.4999 4.73542 5.50116C4.73667 5.50241 4.73792 5.50366 4.73916 5.50489C4.74039 5.50613 4.74162 5.50736 4.74284 5.50858C4.74407 5.5098 4.74528 5.51102 4.74648 5.51222C4.74769 5.51343 4.74889 5.51462 4.75007 5.51581C4.75126 5.517 4.75244 5.51818 4.75362 5.51936C4.75479 5.52053 4.75595 5.52169 4.75711 5.52285C4.75827 5.524 4.75941 5.52515 4.76055 5.52629C4.76169 5.52743 4.76282 5.52856 4.76395 5.52969C4.76507 5.53081 4.76619 5.53192 4.76729 5.53303C4.7684 5.53414 4.7695 5.53524 4.77059 5.53633C4.77168 5.53742 4.77276 5.5385 4.77383 5.53957C4.77491 5.54065 4.77597 5.54171 4.77703 5.54277C4.77809 5.54382 4.77913 5.54487 4.78018 5.54591C4.78122 5.54695 4.78225 5.54799 4.78327 5.54901C4.78429 5.55003 4.78531 5.55105 4.78632 5.55205C4.78732 5.55306 4.78832 5.55406 4.78931 5.55505C4.7903 5.55604 4.79128 5.55702 4.79225 5.55799C4.79323 5.55896 4.79419 5.55993 4.79515 5.56088C4.7961 5.56184 4.79705 5.56279 4.79799 5.56373C4.79893 5.56466 4.79986 5.56559 4.80078 5.56652C4.8017 5.56744 4.80261 5.56835 4.80352 5.56926C4.80442 5.57016 4.80532 5.57106 4.8062 5.57194C4.80709 5.57283 4.80797 5.57371 4.80884 5.57458C4.80971 5.57545 4.81057 5.57631 4.81142 5.57716C4.81228 5.57802 4.81312 5.57886 4.81396 5.57969C4.81479 5.58053 4.81562 5.58136 4.81644 5.58217C4.81725 5.58299 4.81806 5.5838 4.81886 5.5846C4.81966 5.5854 4.82046 5.58619 4.82124 5.58698C4.82202 5.58776 4.8228 5.58853 4.82356 5.5893C4.82433 5.59006 4.82508 5.59082 4.82583 5.59157C4.82658 5.59232 4.82732 5.59306 4.82805 5.59379C4.82878 5.59452 4.8295 5.59524 4.83021 5.59595C4.83092 5.59666 4.83163 5.59737 4.83232 5.59806C4.83302 5.59875 4.8337 5.59944 4.83438 5.60012C4.83506 5.60079 4.83572 5.60146 4.83638 5.60212C4.83704 5.60278 4.83769 5.60343 4.83833 5.60407C4.83897 5.60471 4.8396 5.60534 4.84023 5.60597C4.84085 5.60659 4.84146 5.6072 4.84207 5.60781C4.84267 5.60841 4.84327 5.60901 4.84386 5.6096C4.84444 5.61018 4.84502 5.61076 4.84559 5.61133C4.84616 5.6119 4.84672 5.61246 4.84727 5.61301C4.84782 5.61356 4.84836 5.6141 4.84889 5.61463C4.84943 5.61516 4.84995 5.61569 4.85046 5.6162C4.85098 5.61671 4.85148 5.61722 4.85198 5.61771C4.85247 5.61821 4.85296 5.6187 4.85344 5.61917C4.85391 5.61965 4.85438 5.62012 4.85484 5.62058C4.8553 5.62104 4.85575 5.62149 4.85619 5.62193C4.85663 5.62237 4.85706 5.6228 4.85748 5.62322C4.8579 5.62364 4.85831 5.62405 4.85872 5.62446C4.85912 5.62486 4.85951 5.62525 4.8599 5.62564C4.86028 5.62602 4.86066 5.6264 4.86102 5.62676C4.86139 5.62713 4.86175 5.62748 4.86209 5.62783C4.86244 5.62818 4.86278 5.62851 4.8631 5.62884C4.86343 5.62917 4.86375 5.62949 4.86406 5.6298C4.86437 5.63011 4.86467 5.63041 4.86496 5.6307C4.86525 5.63099 4.86553 5.63127 4.8658 5.63154C4.86607 5.63181 4.86633 5.63207 4.86659 5.63233C4.86684 5.63258 4.86708 5.63282 4.86732 5.63305C4.86755 5.63329 4.86777 5.63351 4.86799 5.63372C4.8682 5.63394 4.8684 5.63414 4.8686 5.63434C4.86879 5.63453 4.86898 5.63472 4.86915 5.63489C4.86933 5.63507 4.8695 5.63523 4.86965 5.63539C4.86981 5.63555 4.86996 5.63569 4.87009 5.63583C4.87023 5.63597 4.87036 5.63609 4.87047 5.63621C4.87059 5.63633 4.8707 5.63644 4.8708 5.63654C4.87089 5.63663 4.87098 5.63672 4.87106 5.6368C4.87114 5.63688 4.87121 5.63695 4.87127 5.63701C4.87133 5.63707 4.87138 5.63711 4.87142 5.63715C4.87146 5.63719 4.87148 5.63722 4.8715 5.63724C4.87152 5.63726 4.87153 5.63727 5.40186 5.10694C5.93219 4.57661 5.93218 4.5766 5.93216 4.57658C5.93214 4.57656 5.93212 4.57653 5.93208 4.57649C5.93204 4.57645 5.93199 4.57641 5.93193 4.57635C5.93187 4.57629 5.9318 4.57622 5.93172 4.57614C5.93164 4.57606 5.93156 4.57597 5.93146 4.57588C5.93136 4.57578 5.93125 4.57567 5.93113 4.57555C5.93102 4.57543 5.93089 4.57531 5.93075 4.57517C5.93062 4.57503 5.93047 4.57489 5.93031 4.57473C5.93016 4.57457 5.92999 4.57441 5.92981 4.57423C5.92964 4.57406 5.92945 4.57387 5.92926 4.57368C5.92906 4.57348 5.92886 4.57328 5.92865 4.57306C5.92843 4.57285 5.92821 4.57263 5.92798 4.57239C5.92774 4.57216 5.9275 4.57192 5.92725 4.57167C5.92699 4.57141 5.92673 4.57115 5.92646 4.57088C5.92619 4.57061 5.92591 4.57033 5.92562 4.57004C5.92533 4.56975 5.92503 4.56945 5.92472 4.56914C5.92441 4.56883 5.92409 4.56851 5.92376 4.56818C5.92344 4.56785 5.9231 4.56752 5.92275 4.56717C5.92241 4.56682 5.92205 4.56647 5.92168 4.5661C5.92132 4.56574 5.92094 4.56536 5.92056 4.56498C5.92017 4.56459 5.91978 4.5642 5.91938 4.5638C5.91897 4.56339 5.91856 4.56298 5.91814 4.56256C5.91772 4.56214 5.91729 4.56171 5.91685 4.56127C5.91641 4.56083 5.91596 4.56038 5.9155 4.55992C5.91504 4.55946 5.91457 4.55899 5.9141 4.55851C5.91362 4.55804 5.91313 4.55755 5.91264 4.55705C5.91214 4.55656 5.91164 4.55605 5.91112 4.55554C5.91061 4.55503 5.91009 4.5545 5.90955 4.55397C5.90902 4.55344 5.90848 4.5529 5.90793 4.55235C5.90738 4.5518 5.90682 4.55124 5.90625 4.55067C5.90568 4.5501 5.9051 4.54952 5.90452 4.54893C5.90393 4.54835 5.90333 4.54775 5.90273 4.54715C5.90212 4.54654 5.90151 4.54593 5.90089 4.54531C5.90026 4.54468 5.89963 4.54405 5.89899 4.54341C5.89835 4.54277 5.8977 4.54212 5.89704 4.54146C5.89638 4.5408 5.89572 4.54013 5.89504 4.53946C5.89436 4.53878 5.89368 4.53809 5.89298 4.5374C5.89229 4.53671 5.89158 4.536 5.89087 4.53529C5.89016 4.53458 5.88944 4.53386 5.88871 4.53313C5.88798 4.5324 5.88724 4.53166 5.88649 4.53091C5.88574 4.53016 5.88499 4.5294 5.88422 4.52864C5.88346 4.52787 5.88268 4.5271 5.8819 4.52632C5.88112 4.52553 5.88032 4.52474 5.87952 4.52394C5.87872 4.52314 5.87791 4.52233 5.8771 4.52151C5.87628 4.5207 5.87545 4.51987 5.87462 4.51903C5.87378 4.5182 5.87294 4.51735 5.87208 4.5165C5.87123 4.51565 5.87037 4.51479 5.8695 4.51392C5.86863 4.51305 5.86775 4.51217 5.86686 4.51128C5.86598 4.5104 5.86508 4.5095 5.86418 4.50859C5.86327 4.50769 5.86236 4.50678 5.86144 4.50586C5.86052 4.50493 5.85959 4.504 5.85865 4.50307C5.85771 4.50213 5.85676 4.50118 5.85581 4.50022C5.85485 4.49927 5.85389 4.4983 5.85291 4.49733C5.85194 4.49636 5.85096 4.49538 5.84997 4.49439C5.84898 4.4934 5.84798 4.4924 5.84698 4.49139C5.84597 4.49039 5.84495 4.48937 5.84393 4.48835C5.84291 4.48733 5.84188 4.48629 5.84084 4.48525C5.8398 4.48421 5.83875 4.48316 5.83769 4.48211C5.83663 4.48105 5.83557 4.47999 5.83449 4.47891C5.83342 4.47784 5.83234 4.47676 5.83125 4.47567C5.83016 4.47458 5.82906 4.47348 5.82795 4.47237C5.82685 4.47126 5.82573 4.47015 5.82461 4.46903C5.82348 4.4679 5.82235 4.46677 5.82121 4.46563C5.82007 4.46449 5.81893 4.46334 5.81777 4.46219C5.81661 4.46103 5.81545 4.45987 5.81428 4.45869C5.8131 4.45752 5.81192 4.45634 5.81074 4.45515C5.80955 4.45396 5.80835 4.45277 5.80714 4.45156C5.80594 4.45036 5.80473 4.44914 5.8035 4.44792C5.80228 4.4467 5.80105 4.44547 5.79982 4.44423C5.79858 4.443 5.79733 4.44175 5.79608 4.4405C5.79483 4.43924 5.79357 4.43798 5.7923 4.43671C5.79103 4.43544 5.78975 4.43417 5.78846 4.43288C5.78718 4.4316 5.78588 4.4303 5.78458 4.429C5.78328 4.4277 5.78197 4.42639 5.78065 4.42507C5.77934 4.42375 5.77801 4.42243 5.77668 4.4211C5.77534 4.41976 5.774 4.41842 5.77265 4.41707C5.77131 4.41572 5.76995 4.41437 5.76858 4.413C5.76722 4.41164 5.76585 4.41026 5.76447 4.40888C5.76309 4.4075 5.7617 4.40612 5.7603 4.40472C5.75891 4.40332 5.7575 4.40192 5.75609 4.40051C5.75468 4.3991 5.75326 4.39768 5.75183 4.39625C5.7504 4.39482 5.74897 4.39339 5.74753 4.39194C5.74608 4.3905 5.74463 4.38905 5.74318 4.38759C5.74172 4.38614 5.74025 4.38467 5.73878 4.3832C5.73731 4.38172 5.73582 4.38024 5.73434 4.37875C5.73285 4.37726 5.73135 4.37577 5.72985 4.37426C5.72834 4.37276 5.72683 4.37125 5.72531 4.36973C5.72379 4.36821 5.72227 4.36668 5.72073 4.36515C5.7192 4.36361 5.71766 4.36207 5.71611 4.36052C5.71456 4.35897 5.713 4.35742 5.71143 4.35585C5.70987 4.35429 5.7083 4.35272 5.70672 4.35114C5.70514 4.34956 5.70355 4.34797 5.70196 4.34638C5.70036 4.34478 5.69876 4.34318 5.69715 4.34157C5.69554 4.33996 5.69393 4.33834 5.6923 4.33672C5.69068 4.3351 5.68905 4.33346 5.68741 4.33182C5.68577 4.33019 5.68412 4.32854 5.68247 4.32689C5.68081 4.32523 5.67915 4.32357 5.67748 4.3219C5.67582 4.32023 5.67414 4.31856 5.67246 4.31688C5.67077 4.31519 5.66908 4.3135 5.66739 4.3118C5.66569 4.31011 5.66398 4.3084 5.66227 4.30669C5.66056 4.30498 5.65884 4.30326 5.65711 4.30153C5.65539 4.29981 5.65365 4.29807 5.65191 4.29633C5.65017 4.29459 5.64842 4.29284 5.64667 4.29109C5.64491 4.28933 5.64315 4.28757 5.64138 4.2858C5.63961 4.28403 5.63783 4.28225 5.63605 4.28047C5.63427 4.27868 5.63247 4.27689 5.63068 4.27509C5.62888 4.2733 5.62707 4.27149 5.62526 4.26968C5.62345 4.26787 5.62163 4.26605 5.6198 4.26422C5.61798 4.26239 5.61614 4.26056 5.6143 4.25872C5.61246 4.25688 5.61061 4.25503 5.60876 4.25318C5.6069 4.25132 5.60504 4.24946 5.60317 4.24759C5.60131 4.24572 5.59943 4.24385 5.59755 4.24197C5.59567 4.24008 5.59378 4.23819 5.59188 4.2363C5.58998 4.2344 5.58808 4.2325 5.58617 4.23059C5.58426 4.22868 5.58234 4.22676 5.58042 4.22484C5.5785 4.22291 5.57657 4.22098 5.57463 4.21905C5.57269 4.21711 5.57075 4.21517 5.5688 4.21321C5.56684 4.21126 5.56489 4.20931 5.56292 4.20734C5.56096 4.20538 5.55899 4.2034 5.55701 4.20143C5.55503 4.19945 5.55304 4.19746 5.55105 4.19547C5.54906 4.19348 5.54706 4.19148 5.54506 4.18948C5.54305 4.18747 5.54104 4.18546 5.53902 4.18344C5.537 4.18142 5.53498 4.1794 5.53295 4.17737C5.53092 4.17533 5.52888 4.1733 5.52683 4.17125C5.52479 4.16921 5.52274 4.16715 5.52068 4.1651C5.51862 4.16304 5.51655 4.16097 5.51448 4.1589C5.51241 4.15683 5.51033 4.15475 5.50825 4.15267C5.50616 4.15058 5.50407 4.14849 5.50198 4.14639C5.49988 4.1443 5.49777 4.14219 5.49566 4.14008C5.49355 4.13797 5.49144 4.13585 5.48931 4.13373C5.48719 4.13161 5.48506 4.12948 5.48292 4.12734C5.48079 4.1252 5.47864 4.12306 5.47649 4.12091C5.47434 4.11876 5.47219 4.11661 5.47003 4.11444C5.46786 4.11228 5.4657 4.11011 5.46352 4.10794C5.46135 4.10576 5.45916 4.10358 5.45698 4.10139C5.45479 4.09921 5.4526 4.09701 5.4504 4.09481C5.44819 4.09261 5.44599 4.09041 5.44378 4.08819C5.44156 4.08598 5.43934 4.08376 5.43712 4.08154C5.43489 4.07931 5.43266 4.07708 5.43042 4.07484C5.42819 4.0726 5.42594 4.07036 5.42369 4.06811C5.42144 4.06586 5.41918 4.0636 5.41692 4.06134C5.41466 4.05908 5.41239 4.05681 5.41012 4.05453C5.40784 4.05226 5.40556 4.04998 5.40327 4.04769C5.40099 4.0454 5.39869 4.04311 5.39639 4.04081C5.39409 4.03851 5.39179 4.03621 5.38948 4.03389C5.38716 4.03158 5.38485 4.02926 5.38252 4.02694C5.3802 4.02462 5.37787 4.02229 5.37553 4.01995C5.3732 4.01762 5.37086 4.01527 5.36851 4.01293C5.36616 4.01058 5.36381 4.00822 5.36145 4.00587C5.35909 4.00351 5.35672 4.00114 5.35435 3.99877C5.35198 3.9964 5.3496 3.99402 5.34722 3.99164C5.34483 3.98925 5.34244 3.98686 5.34005 3.98447C5.33765 3.98207 5.33525 3.97967 5.33285 3.97726C5.33044 3.97486 5.32803 3.97244 5.32561 3.97002C5.32319 3.96761 5.32076 3.96518 5.31833 3.96275C5.3159 3.96032 5.31347 3.95788 5.31102 3.95544C5.30858 3.953 5.30613 3.95055 5.30368 3.9481C5.30123 3.94565 5.29877 3.94319 5.2963 3.94072C5.29384 3.93826 5.29137 3.93579 5.28889 3.93331C5.28641 3.93083 5.28393 3.92835 5.28144 3.92586C5.27896 3.92337 5.27646 3.92088 5.27396 3.91838C5.27146 3.91588 5.26896 3.91338 5.26645 3.91087C5.26394 3.90836 5.26142 3.90584 5.2589 3.90332C5.25638 3.9008 5.25385 3.89827 5.25132 3.89574C5.24879 3.8932 5.24625 3.89067 5.2437 3.88812C5.24116 3.88558 5.23861 3.88303 5.23606 3.88047C5.2335 3.87792 5.23094 3.87536 5.22837 3.87279C5.22581 3.87023 5.22324 3.86765 5.22066 3.86508C5.21808 3.8625 5.2155 3.85992 5.21291 3.85733C5.21032 3.85474 5.20773 3.85215 5.20513 3.84955C5.20253 3.84695 5.19993 3.84435 5.19732 3.84174C5.19471 3.83913 5.19209 3.83651 5.18947 3.83389C5.18685 3.83127 5.18423 3.82865 5.1816 3.82602C5.17897 3.82338 5.17633 3.82075 5.17369 3.81811C5.17105 3.81546 5.1684 3.81282 5.16575 3.81017C5.16309 3.80751 5.16044 3.80486 5.15777 3.80219C5.15511 3.79953 5.15244 3.79686 5.14977 3.79419C5.1471 3.79152 5.14442 3.78884 5.14173 3.78615C5.13905 3.78347 5.13636 3.78078 5.13367 3.77809C5.13097 3.77539 5.12827 3.77269 5.12557 3.76999C5.12287 3.76728 5.12016 3.76457 5.11744 3.76186C5.11473 3.75914 5.11201 3.75642 5.10928 3.7537C5.10656 3.75097 5.10383 3.74824 5.10109 3.74551C5.09836 3.74277 5.09562 3.74003 5.09287 3.73729C5.09013 3.73454 5.08737 3.73179 5.08462 3.72904C5.08186 3.72628 5.0791 3.72352 5.07634 3.72076C5.07357 3.71799 5.0708 3.71522 5.06803 3.71245C5.06525 3.70967 5.06247 3.70689 5.05969 3.7041C5.0569 3.70132 5.05411 3.69853 5.05132 3.69573C5.04852 3.69294 5.04572 3.69014 5.04292 3.68733C5.04011 3.68453 5.0373 3.68172 5.03449 3.6789C5.03167 3.67609 5.02885 3.67327 5.02603 3.67045C5.0232 3.66762 5.02037 3.66479 5.01754 3.66196C5.01471 3.65912 5.01187 3.65628 5.00902 3.65344C5.00618 3.6506 5.00333 3.64775 5.00048 3.6449C4.99762 3.64204 4.99477 3.63918 4.9919 3.63632C4.98904 3.63346 4.98617 3.63059 4.9833 3.62772C4.98043 3.62485 4.97755 3.62197 4.97467 3.61909C4.97179 3.61621 4.9689 3.61332 4.96601 3.61043C4.96312 3.60754 4.96023 3.60464 4.95733 3.60174C4.95443 3.59884 4.95152 3.59594 4.94861 3.59303C4.9457 3.59012 4.94279 3.58721 4.93987 3.58429C4.93695 3.58137 4.93403 3.57845 4.9311 3.57552C4.92817 3.57259 4.92524 3.56966 4.9223 3.56672C4.91937 3.56378 4.91643 3.56084 4.91348 3.5579C4.91053 3.55495 4.90758 3.552 4.90463 3.54905C4.90167 3.54609 4.89871 3.54313 4.89575 3.54017C4.89279 3.53721 4.88982 3.53424 4.88685 3.53126C4.88387 3.52829 4.8809 3.52531 4.87792 3.52233C4.87493 3.51935 4.87195 3.51637 4.86896 3.51338C4.86597 3.51039 4.86297 3.50739 4.85997 3.50439C4.85698 3.50139 4.85397 3.49839 4.85097 3.49538C4.84796 3.49238 4.84495 3.48936 4.84193 3.48635C4.83891 3.48333 4.83589 3.48031 4.83287 3.47729C4.82984 3.47426 4.82682 3.47123 4.82378 3.4682C4.82075 3.46517 4.81771 3.46213 4.81467 3.45909C4.81163 3.45605 4.80858 3.453 4.80553 3.44995C4.80248 3.4469 4.79943 3.44385 4.79637 3.44079C4.79331 3.43773 4.79025 3.43467 4.78718 3.4316C4.78412 3.42853 4.78104 3.42546 4.77797 3.42239C4.7749 3.41931 4.77182 3.41623 4.76873 3.41315C4.76565 3.41007 4.76256 3.40698 4.75947 3.40389C4.75638 3.4008 4.75329 3.3977 4.75019 3.3946C4.74709 3.3915 4.74398 3.3884 4.74088 3.38529C4.73777 3.38219 4.73466 3.37908 4.73154 3.37596C4.72843 3.37284 4.72531 3.36973 4.72218 3.3666C4.71906 3.36348 4.71593 3.36035 4.7128 3.35722C4.70967 3.35409 4.70654 3.35096 4.7034 3.34782C4.70026 3.34468 4.69712 3.34153 4.69397 3.33839C4.69082 3.33524 4.68767 3.33209 4.68452 3.32894C4.68136 3.32578 4.67821 3.32262 4.67504 3.31946C4.67188 3.3163 4.66872 3.31313 4.66555 3.30996C4.66238 3.30679 4.6592 3.30362 4.65603 3.30044C4.65285 3.29727 4.64967 3.29409 4.64648 3.2909C4.6433 3.28772 4.64011 3.28453 4.63692 3.28134C4.63373 3.27814 4.63053 3.27495 4.62733 3.27175C4.62413 3.26855 4.62093 3.26535 4.61772 3.26214C4.61451 3.25893 4.6113 3.25572 4.60809 3.25251C4.60487 3.24929 4.60166 3.24607 4.59844 3.24285C4.59521 3.23963 4.59199 3.23641 4.58876 3.23318C4.58553 3.22995 4.5823 3.22672 4.57906 3.22348C4.57583 3.22025 4.57259 3.21701 4.56935 3.21376C4.5661 3.21052 4.56286 3.20727 4.55961 3.20402C4.55636 3.20077 4.5531 3.19752 4.54985 3.19426C4.54659 3.19101 4.54333 3.18775 4.54007 3.18448C4.5368 3.18122 4.53353 3.17795 4.53026 3.17468C4.52699 3.17141 4.52372 3.16814 4.52044 3.16486C4.51716 3.16158 4.51388 3.1583 4.5106 3.15502C4.50731 3.15173 4.50403 3.14845 4.50074 3.14515C4.49745 3.14186 4.49415 3.13857 4.49085 3.13527C4.48756 3.13197 4.48425 3.12867 4.48095 3.12537C4.47765 3.12206 4.47434 3.11876 4.47103 3.11545C4.46772 3.11213 4.4644 3.10882 4.46109 3.1055C4.45777 3.10219 4.45445 3.09887 4.45112 3.09554C4.4478 3.09222 4.44447 3.08889 4.44114 3.08556C4.43781 3.08223 4.43448 3.0789 4.43114 3.07556C4.42781 3.07222 4.42447 3.06888 4.42112 3.06554C4.41778 3.0622 4.41444 3.05885 4.41109 3.0555C4.40774 3.05215 4.40438 3.0488 4.40103 3.04545C4.39767 3.04209 4.39432 3.03873 4.39095 3.03537C4.38759 3.03201 4.38423 3.02865 4.38086 3.02528C4.37749 3.02191 4.37412 3.01854 4.37075 3.01517C4.36738 3.01179 4.364 3.00842 4.36062 3.00504C4.35724 3.00166 4.35386 2.99828 4.35047 2.99489C4.34709 2.9915 4.3437 2.98812 4.34031 2.98473C4.33692 2.98133 4.33352 2.97794 4.33012 2.97454C4.32673 2.97115 4.32333 2.96775 4.31992 2.96434C4.31652 2.96094 4.31312 2.95753 4.30971 2.95412C4.3063 2.95072 4.30289 2.9473 4.29947 2.94389C4.29606 2.94048 4.29264 2.93706 4.28922 2.93364C4.2858 2.93022 4.28238 2.9268 4.27895 2.92337C4.27553 2.91995 4.2721 2.91652 4.26867 2.91309C4.26524 2.90966 4.2618 2.90622 4.25837 2.90278C4.25493 2.89935 4.25149 2.89591 4.24805 2.89247C4.24461 2.88903 4.24116 2.88558 4.23772 2.88213C4.23427 2.87869 4.23082 2.87524 4.22737 2.87178C4.22391 2.86833 4.22046 2.86488 4.217 2.86142C4.21354 2.85796 4.21008 2.8545 4.20662 2.85104C4.20316 2.84757 4.19969 2.84411 4.19622 2.84064C4.19275 2.83717 4.18928 2.8337 4.18581 2.83023C4.18234 2.82676 4.17886 2.82328 4.17538 2.8198C4.1719 2.81632 4.16842 2.81284 4.16494 2.80936C4.16146 2.80588 4.15797 2.80239 4.15448 2.7989C4.151 2.79541 4.1475 2.79192 4.14401 2.78843C4.14052 2.78494 4.13702 2.78144 4.13353 2.77794C4.13003 2.77445 4.12653 2.77094 4.12302 2.76744C4.11952 2.76394 4.11602 2.76043 4.11251 2.75693C4.109 2.75342 4.10549 2.74991 4.10198 2.7464C4.09847 2.74289 4.09495 2.73937 4.09144 2.73585C4.08792 2.73234 4.0844 2.72882 4.08088 2.7253C4.07736 2.72178 4.07383 2.71825 4.07031 2.71473C4.06678 2.7112 4.06326 2.70767 4.05972 2.70414C4.05619 2.70061 4.05266 2.69708 4.04913 2.69355C4.04559 2.69001 4.04206 2.68647 4.03852 2.68293C4.03498 2.6794 4.03144 2.67585 4.02789 2.67231C4.02435 2.66877 4.0208 2.66522 4.01726 2.66167C4.01371 2.65813 4.01016 2.65458 4.00661 2.65103C4.00306 2.64747 3.9995 2.64392 3.99595 2.64036C3.99239 2.63681 3.98883 2.63325 3.98527 2.62969C3.98171 2.62613 3.97815 2.62257 3.97459 2.619C3.97102 2.61544 3.96746 2.61187 3.96389 2.60831C3.96032 2.60474 3.95675 2.60117 3.95318 2.5976C3.94961 2.59402 3.94603 2.59045 3.94246 2.58687C3.93888 2.5833 3.9353 2.57972 3.93172 2.57614C3.92814 2.57256 3.92456 2.56898 3.92098 2.5654C3.91739 2.56181 3.91381 2.55823 3.91022 2.55464C3.90663 2.55105 3.90304 2.54746 3.89945 2.54387C3.89586 2.54028 3.89227 2.53669 3.88868 2.53309C3.88508 2.5295 3.88148 2.5259 3.87789 2.5223C3.87429 2.51871 3.87069 2.51511 3.86709 2.5115C3.86349 2.5079 3.85988 2.5043 3.85628 2.50069C3.85267 2.49709 3.84906 2.49348 3.84546 2.48987C3.84185 2.48627 3.83824 2.48266 3.83463 2.47904C3.83101 2.47543 3.8274 2.47182 3.82378 2.4682C3.82017 2.46459 3.81655 2.46097 3.81293 2.45735C3.80932 2.45373 3.8057 2.45011 3.80207 2.44649C3.79845 2.44287 3.79483 2.43925 3.7912 2.43562C3.78758 2.432 3.78395 2.42837 3.78032 2.42474C3.7767 2.42111 3.77307 2.41749 3.76944 2.41385C3.76581 2.41022 3.76217 2.40659 3.75854 2.40296C3.7549 2.39932 3.75127 2.39569 3.74763 2.39205C3.744 2.38841 3.74036 2.38478 3.73672 2.38114C3.73308 2.3775 3.72944 2.37385 3.72579 2.37021C3.72215 2.36657 3.71851 2.36292 3.71486 2.35928C3.71122 2.35563 3.70757 2.35199 3.70392 2.34834C3.70027 2.34469 3.69662 2.34104 3.69297 2.33739C3.68932 2.33374 3.68567 2.33009 3.68202 2.32643C3.67836 2.32278 3.67471 2.31913 3.67105 2.31547C3.6674 2.31181 3.66374 2.30816 3.66008 2.3045C3.65642 2.30084 3.65276 2.29718 3.6491 2.29352C3.64544 2.28986 3.64178 2.28619 3.63811 2.28253C3.63445 2.27887 3.63079 2.2752 3.62712 2.27154C3.62345 2.26787 3.61979 2.2642 3.61612 2.26054C3.61245 2.25687 3.60878 2.2532 3.60511 2.24953C3.60144 2.24586 3.59777 2.24219 3.5941 2.23851C3.59042 2.23484 3.58675 2.23117 3.58307 2.22749C3.5794 2.22382 3.57572 2.22014 3.57205 2.21646C3.56837 2.21279 3.56469 2.20911 3.56101 2.20543C3.55733 2.20175 3.55365 2.19807 3.54997 2.19439C3.54629 2.19071 3.54261 2.18703 3.53893 2.18335C3.53524 2.17966 3.53156 2.17598 3.52788 2.17229C3.52419 2.16861 3.52051 2.16492 3.51682 2.16124C3.51313 2.15755 3.50944 2.15386 3.50576 2.15017C3.50207 2.14649 3.49838 2.1428 3.49469 2.13911C3.491 2.13542 3.48731 2.13172 3.48361 2.12803C3.47992 2.12434 3.47623 2.12065 3.47254 2.11695C3.46884 2.11326 3.46515 2.10957 3.46145 2.10587C3.45776 2.10218 3.45406 2.09848 3.45037 2.09478C3.44667 2.09109 3.44297 2.08739 3.43927 2.08369C3.43558 2.07999 3.43188 2.0763 3.42818 2.0726C3.42448 2.0689 3.42078 2.0652 3.41708 2.0615C3.41338 2.05779 3.40967 2.05409 3.40597 2.05039C3.40227 2.04669 3.39857 2.04299 3.39486 2.03928C3.39116 2.03558 3.38746 2.03187 3.38375 2.02817C3.38005 2.02446 3.37634 2.02076 3.37264 2.01705C3.36893 2.01335 3.36522 2.00964 3.36152 2.00593C3.35781 2.00223 3.3541 1.99852 3.35039 1.99481C3.34669 1.9911 3.34298 1.9874 3.33927 1.98369C3.33556 1.97998 3.33185 1.97627 3.32814 1.97256C3.32443 1.96885 3.32072 1.96514 3.31701 1.96143C3.3133 1.95772 3.30959 1.954 3.30587 1.95029C3.30216 1.94658 3.29845 1.94287 3.29474 1.93916C3.29103 1.93544 3.28731 1.93173 3.2836 1.92802C3.27989 1.9243 3.27617 1.92059 3.27246 1.91688C3.26874 1.91316 3.26503 1.90945 3.26132 1.90573C3.2576 1.90202 3.25389 1.8983 3.25017 1.89459C3.24646 1.89087 3.24274 1.88716 3.23903 1.88344C3.23531 1.87973 3.23159 1.87601 3.22788 1.8723C3.22416 1.86858 3.22044 1.86486 3.21673 1.86115C3.21301 1.85743 3.20929 1.85371 3.20558 1.85C3.20186 1.84628 3.19814 1.84256 3.19443 1.83884C3.19071 1.83513 3.18699 1.83141 3.18327 1.82769C3.17956 1.82397 3.17584 1.82026 3.17212 1.81654C3.1684 1.81282 3.16468 1.8091 3.16097 1.80538C3.15725 1.80167 3.15353 1.79795 3.14981 1.79423C3.14609 1.79051 3.14238 1.78679 3.13866 1.78308C3.13494 1.77936 3.13122 1.77564 3.1275 1.77192C3.12379 1.7682 3.12007 1.76449 3.11635 1.76077C3.11263 1.75705 3.10891 1.75333 3.1052 1.74961C3.10148 1.7459 3.09776 1.74218 3.09404 1.73846C3.09032 1.73474 3.08661 1.73102 3.08289 1.72731C3.07917 1.72359 3.07545 1.71987 3.07174 1.71615C3.06802 1.71244 3.0643 1.70872 3.06058 1.705C3.05687 1.70128 3.05315 1.69757 3.04943 1.69385C3.04572 1.69013 3.042 1.68642 3.03828 1.6827C3.03457 1.67898 3.03085 1.67527 3.02713 1.67155C3.02342 1.66784 3.0197 1.66412 3.01599 1.66041C3.01227 1.65669 3.00856 1.65298 3.00484 1.64926C3.00113 1.64555 2.99741 1.64183 2.9937 1.63812C2.98998 1.6344 2.98627 1.63069 2.98256 1.62698C2.97884 1.62326 2.97513 1.61955 2.97142 1.61584C2.9677 1.61212 2.96399 1.60841 2.96028 1.6047C2.95657 1.60099 2.95286 1.59727 2.94915 1.59356C2.94543 1.58985 2.94172 1.58614 2.93801 1.58243C2.9343 1.57872 2.93059 1.57501 2.92688 1.5713C2.92317 1.56759 2.91947 1.56388 2.91576 1.56018C2.91205 1.55647 2.90834 1.55276 2.90463 1.54905C2.90093 1.54534 2.89722 1.54164 2.89351 1.53793C2.88981 1.53422 2.8861 1.53052 2.8824 1.52681C2.87869 1.52311 2.87499 1.5194 2.87128 1.5157C2.86758 1.512 2.86388 1.50829 2.86017 1.50459C2.85647 1.50089 2.85277 1.49719 2.84907 1.49348C2.84537 1.48978 2.84166 1.48608 2.83796 1.48238C2.83426 1.47868 2.83057 1.47498 2.82687 1.47128C2.82317 1.46759 2.81947 1.46389 2.81577 1.46019C2.81208 1.45649 2.80838 1.4528 2.80468 1.4491C2.80099 1.44541 2.79729 1.44171 2.7936 1.43802C2.78991 1.43432 2.78621 1.43063 2.78252 1.42694C2.77883 1.42324 2.77514 1.41955 2.77144 1.41586C2.76775 1.41217 2.76406 1.40848 2.76037 1.40479C2.75669 1.4011 2.753 1.39742 2.74931 1.39373C2.74562 1.39004 2.74194 1.38635 2.73825 1.38267C2.73457 1.37898 2.73088 1.3753 2.7272 1.37162C2.72351 1.36793 2.71983 1.36425 2.71615 1.36057C2.71247 1.35689 2.70879 1.3532 2.70511 1.34953C2.70143 1.34585 2.69775 1.34217 2.69407 1.33849C2.69039 1.33481 2.68672 1.33113 2.68304 1.32746C2.67937 1.32378 2.67569 1.32011 2.67202 1.31644C2.66834 1.31276 2.66467 1.30909 2.661 1.30542C2.65733 1.30175 2.65366 1.29808 2.64999 1.29441C2.64632 1.29074 2.64265 1.28707 2.63899 1.2834C2.63532 1.27974 2.63165 1.27607 2.62799 1.27241C2.62433 1.26874 2.62066 1.26508 2.617 1.26142C2.61334 1.25776 2.60968 1.2541 2.60602 1.25044C2.60236 1.24678 2.5987 1.24312 2.59504 1.23946C2.59139 1.23581 2.58773 1.23215 2.58408 1.22849C2.58042 1.22484 2.57677 1.22119 2.57312 1.21754C2.56947 1.21388 2.56582 1.21023 2.56217 1.20658C2.55852 1.20293 2.55487 1.19929 2.55122 1.19564C2.54758 1.19199 2.54393 1.18835 2.54029 1.18471C2.53664 1.18106 2.533 1.17742 2.52936 1.17378C2.52572 1.17014 2.52208 1.1665 2.51844 1.16286C2.5148 1.15922 2.51117 1.15559 2.50753 1.15195C2.5039 1.14832 2.50026 1.14468 2.49663 1.14105C2.493 1.13742 2.48937 1.13379 2.48574 1.13016C2.48211 1.12653 2.47848 1.1229 2.47486 1.11928C2.47123 1.11565 2.46761 1.11203 2.46398 1.1084C2.46036 1.10478 2.45674 1.10116 2.45312 1.09754C2.4495 1.09392 2.44588 1.0903 2.44227 1.08669C2.43865 1.08307 2.43504 1.07945 2.43142 1.07584C2.42781 1.07223 2.4242 1.06862 2.42059 1.06501C2.41698 1.0614 2.41337 1.05779 2.40976 1.05418C2.40616 1.05058 2.40255 1.04697 2.39895 1.04337C2.39535 1.03977 2.39175 1.03616 2.38815 1.03257C2.38455 1.02897 2.38095 1.02537 2.37735 1.02177C2.37376 1.01818 2.37016 1.01458 2.36657 1.01099C2.36298 1.0074 2.35939 1.00381 2.3558 1.00022C2.35221 0.99663 2.34863 0.993043 2.34504 0.989459C2.34146 0.985874 2.33787 0.982291 2.33429 0.97871C2.33071 0.975128 2.32713 0.971549 2.32355 0.967972C2.31998 0.964395 2.3164 0.960819 2.31283 0.957246C2.30925 0.953672 2.30568 0.950101 2.30211 0.946531C2.29854 0.942962 2.29498 0.939394 2.29141 0.935829C2.28785 0.932263 2.28428 0.9287 2.28072 0.925138C2.27716 0.921577 2.2736 0.918017 2.27004 0.91446C2.26648 0.910903 2.26293 0.907347 2.25938 0.903794C2.25582 0.900241 2.25227 0.896689 2.24872 0.89314C2.24517 0.889591 2.24163 0.886044 2.23808 0.882499C2.23454 0.878954 2.23099 0.875412 2.22745 0.871871C2.22391 0.86833 2.22037 0.864792 2.21684 0.861256C2.2133 0.85772 2.20977 0.854185 2.20624 0.850654C2.2027 0.847122 2.19917 0.843592 2.19565 0.840065C2.19212 0.836537 2.18859 0.833012 2.18507 0.829489C2.18155 0.825966 2.17803 0.822446 2.17451 0.818927C2.17099 0.815409 2.16747 0.811893 2.16396 0.808379C2.16045 0.804865 2.15694 0.801354 2.15343 0.797845C2.14992 0.794336 2.14641 0.790829 2.14291 0.787325C2.1394 0.78382 2.1359 0.780318 2.1324 0.776819C2.1289 0.773319 2.1254 0.769822 2.12191 0.766327C2.11841 0.762832 2.11492 0.75934 2.11143 0.75585C2.10794 0.75236 2.10445 0.748872 2.10097 0.745387C2.09748 0.741902 2.094 0.73842 2.09052 0.734939C2.08704 0.731459 2.08356 0.727982 2.08009 0.724507C2.07661 0.721032 2.07314 0.717559 2.06967 0.714089C2.0662 0.710619 2.06273 0.707152 2.05927 0.703687C2.0558 0.700222 2.05234 0.69676 2.04888 0.6933C2.04542 0.689841 2.04197 0.686383 2.03851 0.682929C2.03506 0.679475 2.0316 0.676023 2.02816 0.672574C2.02471 0.669124 2.02126 0.665678 2.01782 0.662234C2.01437 0.65879 2.01093 0.655349 2.00749 0.651911C2.00405 0.648472 2.00062 0.645037 1.99719 0.641604C1.99375 0.638171 1.99032 0.63474 1.9869 0.631313C1.98347 0.627885 1.98004 0.624461 1.97662 0.621039C1.9732 0.617617 1.96978 0.614198 1.96636 0.610781C1.96295 0.607365 1.95953 0.603951 1.95612 0.600541C1.95271 0.59713 1.9493 0.593722 1.9459 0.590317C1.94249 0.586912 1.93909 0.58351 1.93569 0.580111C1.93229 0.576712 1.9289 0.573315 1.9255 0.569922C1.92211 0.566528 1.91872 0.563138 1.91533 0.55975C1.91194 0.556363 1.90856 0.552978 1.90518 0.549596C1.9018 0.546215 1.89842 0.542836 1.89504 0.53946C1.89167 0.536085 1.88829 0.532712 1.88492 0.529342C1.88155 0.525973 1.87819 0.522606 1.87482 0.519242C1.87146 0.515879 1.8681 0.512518 1.86474 0.509161C1.86139 0.505803 1.85803 0.502449 1.85468 0.499098C1.85133 0.495746 1.84798 0.492398 1.84464 0.489053C1.84129 0.485708 1.83795 0.482366 1.83461 0.479027C1.83127 0.475688 1.82793 0.472353 1.8246 0.46902C1.82127 0.465688 1.81794 0.462359 1.81461 0.459032C1.81129 0.455706 1.80797 0.452384 1.80465 0.449064C1.80133 0.445744 1.79801 0.442428 1.7947 0.439115C1.79138 0.435802 1.78807 0.432492 1.78477 0.429185C1.78146 0.425878 1.77816 0.422575 1.77486 0.419275C1.77156 0.415975 1.76826 0.412678 1.76497 0.409385C1.76167 0.406092 1.75838 0.402802 1.7551 0.399515C1.75181 0.396228 1.74853 0.392945 1.74525 0.389665C1.74197 0.386385 1.73869 0.383108 1.73542 0.379835C1.73214 0.376562 1.72887 0.373293 1.72561 0.370026C1.72234 0.36676 1.71908 0.363497 1.71582 0.360238C1.71256 0.356979 1.7093 0.353723 1.70605 0.35047C1.7028 0.347218 1.69955 0.343969 1.69631 0.340724C1.69306 0.337478 1.68982 0.334236 1.68658 0.330998L0.62592 1.39166ZM5.93219 5.63727L10.1778 1.39166L9.11715 0.330998L4.87153 4.57661L5.93219 5.63727Z" fill="#5C9DFF"/>
</svg>
