<svg width="15" height="15" viewBox="0 0 15 15" fill="none" xmlns="http://www.w3.org/2000/svg">
<rect x="15" y="15" width="15" height="15" rx="5" transform="rotate(-180 15 15)" fill="#E3EEFF"/>
<path d="M11.3482 9.40714C11.514 9.57295 11.7828 9.57295 11.9486 9.40714C12.1144 9.24134 12.1144 8.97252 11.9486 8.80672L11.3482 9.40714ZM7.40282 4.86132L7.70303 4.56111C7.53723 4.39531 7.26841 4.39531 7.10261 4.56111L7.40282 4.86132ZM2.857 8.80672C2.6912 8.97252 2.6912 9.24134 2.857 9.40714C3.0228 9.57294 3.29162 9.57294 3.45742 9.40714L2.857 8.80672ZM11.9486 8.80672C11.9454 8.80349 11.9422 8.80024 11.9389 8.797C11.9357 8.79375 11.9324 8.7905 11.9292 8.78725C11.9259 8.784 11.9227 8.78074 11.9194 8.77748C11.9161 8.77422 11.9129 8.77096 11.9096 8.7677C11.9064 8.76443 11.9031 8.76116 11.8998 8.75789C11.8965 8.75461 11.8933 8.75134 11.89 8.74806C11.8867 8.74478 11.8834 8.74149 11.8801 8.73821C11.8768 8.73492 11.8736 8.73163 11.8703 8.72834C11.867 8.72504 11.8637 8.72175 11.8604 8.71845C11.8571 8.71515 11.8538 8.71184 11.8505 8.70854C11.8472 8.70523 11.8438 8.70192 11.8405 8.69861C11.8372 8.69529 11.8339 8.69198 11.8306 8.68866C11.8273 8.68534 11.8239 8.68201 11.8206 8.67869C11.8173 8.67536 11.814 8.67203 11.8106 8.6687C11.8073 8.66537 11.804 8.66203 11.8006 8.65869C11.7973 8.65536 11.7939 8.65201 11.7906 8.64867C11.7872 8.64532 11.7839 8.64198 11.7805 8.63862C11.7772 8.63527 11.7738 8.63192 11.7705 8.62856C11.7671 8.6252 11.7638 8.62184 11.7604 8.61848C11.757 8.61512 11.7537 8.61175 11.7503 8.60838C11.7469 8.60501 11.7436 8.60164 11.7402 8.59826C11.7368 8.59489 11.7334 8.59151 11.73 8.58812C11.7267 8.58474 11.7233 8.58136 11.7199 8.57797C11.7165 8.57458 11.7131 8.57119 11.7097 8.5678C11.7063 8.56441 11.7029 8.56101 11.6995 8.55761C11.6961 8.55421 11.6927 8.55081 11.6893 8.5474C11.6859 8.544 11.6825 8.54059 11.6791 8.53718C11.6757 8.53377 11.6723 8.53036 11.6689 8.52694C11.6654 8.52352 11.662 8.5201 11.6586 8.51668C11.6552 8.51326 11.6518 8.50984 11.6483 8.50641C11.6449 8.50298 11.6415 8.49955 11.638 8.49612C11.6346 8.49268 11.6312 8.48925 11.6277 8.48581C11.6243 8.48237 11.6209 8.47893 11.6174 8.47549C11.614 8.47204 11.6105 8.4686 11.6071 8.46515C11.6036 8.4617 11.6002 8.45825 11.5967 8.45479C11.5933 8.45134 11.5898 8.44788 11.5863 8.44442C11.5829 8.44096 11.5794 8.4375 11.576 8.43403C11.5725 8.43057 11.569 8.4271 11.5656 8.42363C11.5621 8.42016 11.5586 8.41669 11.5551 8.41321C11.5517 8.40974 11.5482 8.40626 11.5447 8.40278C11.5412 8.3993 11.5377 8.39582 11.5343 8.39233C11.5308 8.38885 11.5273 8.38536 11.5238 8.38187C11.5203 8.37838 11.5168 8.37489 11.5133 8.37139C11.5098 8.3679 11.5063 8.3644 11.5028 8.3609C11.4993 8.3574 11.4958 8.3539 11.4923 8.3504C11.4888 8.34689 11.4853 8.34339 11.4818 8.33988C11.4783 8.33637 11.4748 8.33286 11.4713 8.32934C11.4678 8.32583 11.4642 8.32231 11.4607 8.31879C11.4572 8.31528 11.4537 8.31176 11.4502 8.30823C11.4466 8.30471 11.4431 8.30118 11.4396 8.29766C11.4361 8.29413 11.4325 8.2906 11.429 8.28707C11.4255 8.28354 11.4219 8.28 11.4184 8.27647C11.4149 8.27293 11.4113 8.26939 11.4078 8.26585C11.4042 8.26231 11.4007 8.25877 11.3971 8.25522C11.3936 8.25168 11.3901 8.24813 11.3865 8.24458C11.383 8.24103 11.3794 8.23748 11.3759 8.23393C11.3723 8.23037 11.3687 8.22682 11.3652 8.22326C11.3616 8.2197 11.3581 8.21614 11.3545 8.21258C11.3509 8.20902 11.3474 8.20546 11.3438 8.20189C11.3403 8.19833 11.3367 8.19476 11.3331 8.19119C11.3295 8.18762 11.326 8.18405 11.3224 8.18048C11.3188 8.1769 11.3153 8.17333 11.3117 8.16975C11.3081 8.16617 11.3045 8.16259 11.3009 8.15901C11.2974 8.15543 11.2938 8.15185 11.2902 8.14826C11.2866 8.14468 11.283 8.14109 11.2794 8.1375C11.2758 8.13391 11.2722 8.13032 11.2687 8.12673C11.2651 8.12314 11.2615 8.11955 11.2579 8.11595C11.2543 8.11235 11.2507 8.10876 11.2471 8.10516C11.2435 8.10156 11.2399 8.09796 11.2363 8.09435C11.2327 8.09075 11.2291 8.08715 11.2255 8.08354C11.2219 8.07993 11.2182 8.07632 11.2146 8.07271C11.211 8.0691 11.2074 8.06549 11.2038 8.06188C11.2002 8.05827 11.1966 8.05465 11.193 8.05104C11.1893 8.04742 11.1857 8.0438 11.1821 8.04018C11.1785 8.03656 11.1749 8.03294 11.1712 8.02932C11.1676 8.0257 11.164 8.02207 11.1604 8.01845C11.1567 8.01482 11.1531 8.01119 11.1495 8.00756C11.1459 8.00393 11.1422 8.0003 11.1386 7.99667C11.135 7.99304 11.1313 7.98941 11.1277 7.98577C11.1241 7.98214 11.1204 7.9785 11.1168 7.97486C11.1131 7.97122 11.1095 7.96758 11.1059 7.96394C11.1022 7.9603 11.0986 7.95666 11.0949 7.95302C11.0913 7.94937 11.0877 7.94573 11.084 7.94208C11.0804 7.93843 11.0767 7.93479 11.0731 7.93114C11.0694 7.92749 11.0658 7.92384 11.0621 7.92019C11.0585 7.91653 11.0548 7.91288 11.0512 7.90923C11.0475 7.90557 11.0438 7.90192 11.0402 7.89826C11.0365 7.8946 11.0329 7.89094 11.0292 7.88728C11.0255 7.88363 11.0219 7.87996 11.0182 7.8763C11.0146 7.87264 11.0109 7.86898 11.0072 7.86531C11.0036 7.86165 10.9999 7.85798 10.9962 7.85432C10.9926 7.85065 10.9889 7.84698 10.9852 7.84331C10.9816 7.83964 10.9779 7.83597 10.9742 7.8323C10.9706 7.82863 10.9669 7.82496 10.9632 7.82129C10.9595 7.81761 10.9559 7.81394 10.9522 7.81026C10.9485 7.80659 10.9448 7.80291 10.9412 7.79923C10.9375 7.79555 10.9338 7.79188 10.9301 7.7882C10.9264 7.78452 10.9228 7.78084 10.9191 7.77715C10.9154 7.77347 10.9117 7.76979 10.908 7.76611C10.9043 7.76242 10.9007 7.75874 10.897 7.75505C10.8933 7.75137 10.8896 7.74768 10.8859 7.74399C10.8822 7.74031 10.8785 7.73662 10.8749 7.73293C10.8712 7.72924 10.8675 7.72555 10.8638 7.72186C10.8601 7.71817 10.8564 7.71448 10.8527 7.71078C10.849 7.70709 10.8453 7.7034 10.8416 7.6997C10.8379 7.69601 10.8342 7.69232 10.8305 7.68862C10.8268 7.68492 10.8232 7.68123 10.8195 7.67753C10.8158 7.67383 10.8121 7.67014 10.8084 7.66644C10.8047 7.66274 10.801 7.65904 10.7973 7.65534C10.7936 7.65164 10.7899 7.64794 10.7862 7.64424C10.7825 7.64054 10.7788 7.63683 10.7751 7.63313C10.7714 7.62943 10.7676 7.62572 10.7639 7.62202C10.7602 7.61832 10.7565 7.61461 10.7528 7.61091C10.7491 7.6072 10.7454 7.6035 10.7417 7.59979C10.738 7.59608 10.7343 7.59238 10.7306 7.58867C10.7269 7.58496 10.7232 7.58125 10.7195 7.57755C10.7158 7.57384 10.7121 7.57013 10.7083 7.56642C10.7046 7.56271 10.7009 7.559 10.6972 7.55529C10.6935 7.55158 10.6898 7.54787 10.6861 7.54416C10.6824 7.54045 10.6787 7.53673 10.6749 7.53302C10.6712 7.52931 10.6675 7.5256 10.6638 7.52189C10.6601 7.51817 10.6564 7.51446 10.6527 7.51075C10.649 7.50703 10.6452 7.50332 10.6415 7.4996C10.6378 7.49589 10.6341 7.49218 10.6304 7.48846C10.6267 7.48475 10.623 7.48103 10.6192 7.47732C10.6155 7.4736 10.6118 7.46988 10.6081 7.46617C10.6044 7.46245 10.6007 7.45874 10.5969 7.45502C10.5932 7.4513 10.5895 7.44759 10.5858 7.44387C10.5821 7.44015 10.5784 7.43644 10.5746 7.43272C10.5709 7.429 10.5672 7.42529 10.5635 7.42157C10.5598 7.41785 10.5561 7.41413 10.5523 7.41042C10.5486 7.4067 10.5449 7.40298 10.5412 7.39926C10.5375 7.39554 10.5338 7.39183 10.53 7.38811C10.5263 7.38439 10.5226 7.38067 10.5189 7.37695C10.5152 7.37324 10.5114 7.36952 10.5077 7.3658C10.504 7.36208 10.5003 7.35836 10.4966 7.35465C10.4929 7.35093 10.4891 7.34721 10.4854 7.34349C10.4817 7.33977 10.478 7.33605 10.4743 7.33234C10.4705 7.32862 10.4668 7.3249 10.4631 7.32118C10.4594 7.31746 10.4557 7.31375 10.452 7.31003C10.4482 7.30631 10.4445 7.30259 10.4408 7.29888C10.4371 7.29516 10.4334 7.29144 10.4297 7.28773C10.4259 7.28401 10.4222 7.28029 10.4185 7.27658C10.4148 7.27286 10.4111 7.26914 10.4074 7.26543C10.4036 7.26171 10.3999 7.25799 10.3962 7.25428C10.3925 7.25056 10.3888 7.24685 10.3851 7.24313C10.3813 7.23942 10.3776 7.2357 10.3739 7.23199C10.3702 7.22827 10.3665 7.22456 10.3628 7.22084C10.3591 7.21713 10.3553 7.21342 10.3516 7.2097C10.3479 7.20599 10.3442 7.20228 10.3405 7.19856C10.3368 7.19485 10.3331 7.19114 10.3294 7.18743C10.3256 7.18372 10.3219 7.18001 10.3182 7.17629C10.3145 7.17258 10.3108 7.16887 10.3071 7.16516C10.3034 7.16145 10.2997 7.15774 10.296 7.15403C10.2923 7.15033 10.2885 7.14662 10.2848 7.14291C10.2811 7.1392 10.2774 7.13549 10.2737 7.13179C10.27 7.12808 10.2663 7.12437 10.2626 7.12067C10.2589 7.11696 10.2552 7.11326 10.2515 7.10955C10.2478 7.10585 10.2441 7.10214 10.2404 7.09844C10.2367 7.09474 10.233 7.09103 10.2293 7.08733C10.2256 7.08363 10.2219 7.07993 10.2182 7.07623C10.2144 7.07253 10.2107 7.06882 10.2071 7.06513C10.2034 7.06143 10.1997 7.05773 10.196 7.05403C10.1923 7.05033 10.1886 7.04663 10.1849 7.04294C10.1812 7.03924 10.1775 7.03554 10.1738 7.03185C10.1701 7.02815 10.1664 7.02446 10.1627 7.02077C10.159 7.01707 10.1553 7.01338 10.1516 7.00969C10.1479 7.006 10.1442 7.00231 10.1405 6.99862C10.1368 6.99493 10.1332 6.99124 10.1295 6.98755C10.1258 6.98386 10.1221 6.98017 10.1184 6.97648C10.1147 6.9728 10.111 6.96911 10.1074 6.96543C10.1037 6.96174 10.1 6.95806 10.0963 6.95438C10.0926 6.95069 10.0889 6.94701 10.0853 6.94333C10.0816 6.93965 10.0779 6.93597 10.0742 6.93229C10.0705 6.92861 10.0669 6.92493 10.0632 6.92126C10.0595 6.91758 10.0558 6.9139 10.0522 6.91023C10.0485 6.90655 10.0448 6.90288 10.0411 6.89921C10.0375 6.89554 10.0338 6.89186 10.0301 6.88819C10.0264 6.88452 10.0228 6.88085 10.0191 6.87718C10.0154 6.87352 10.0118 6.86985 10.0081 6.86618C10.0044 6.86252 10.0008 6.85885 9.99711 6.85519C9.99345 6.85153 9.98979 6.84786 9.98613 6.8442C9.98247 6.84054 9.97881 6.83688 9.97515 6.83322C9.97149 6.82957 9.96783 6.82591 9.96418 6.82225C9.96052 6.8186 9.95687 6.81494 9.95321 6.81129C9.94956 6.80763 9.94591 6.80398 9.94226 6.80033C9.9386 6.79668 9.93496 6.79303 9.93131 6.78938C9.92766 6.78573 9.92401 6.78209 9.92037 6.77844C9.91672 6.7748 9.91308 6.77115 9.90943 6.76751C9.90579 6.76387 9.90215 6.76023 9.89851 6.75659C9.89487 6.75295 9.89123 6.74931 9.8876 6.74567C9.88396 6.74203 9.88032 6.7384 9.87669 6.73476C9.87306 6.73113 9.86942 6.7275 9.86579 6.72387C9.86216 6.72024 9.85853 6.71661 9.8549 6.71298C9.85128 6.70935 9.84765 6.70572 9.84402 6.7021C9.8404 6.69847 9.83678 6.69485 9.83315 6.69123C9.82953 6.68761 9.82591 6.68399 9.82229 6.68037C9.81868 6.67675 9.81506 6.67313 9.81144 6.66952C9.80783 6.6659 9.80421 6.66229 9.8006 6.65868C9.79699 6.65507 9.79338 6.65146 9.78977 6.64785C9.78616 6.64424 9.78256 6.64063 9.77895 6.63703C9.77535 6.63342 9.77174 6.62982 9.76814 6.62622C9.76454 6.62261 9.76094 6.61902 9.75734 6.61542C9.75374 6.61182 9.75015 6.60822 9.74655 6.60463C9.74296 6.60103 9.73937 6.59744 9.73577 6.59385C9.73218 6.59026 9.72859 6.58667 9.72501 6.58308C9.72142 6.5795 9.71783 6.57591 9.71425 6.57233C9.71067 6.56874 9.70709 6.56516 9.70351 6.56158C9.69993 6.558 9.69635 6.55442 9.69277 6.55085C9.6892 6.54727 9.68562 6.5437 9.68205 6.54013C9.67848 6.53655 9.67491 6.53298 9.67134 6.52942C9.66777 6.52585 9.66421 6.52228 9.66064 6.51872C9.65708 6.51515 9.65352 6.51159 9.64996 6.50803C9.6464 6.50447 9.64284 6.50091 9.63928 6.49736C9.63573 6.4938 9.63217 6.49025 9.62862 6.4867C9.62507 6.48314 9.62152 6.47959 9.61797 6.47605C9.61442 6.4725 9.61088 6.46895 9.60733 6.46541C9.60379 6.46187 9.60025 6.45833 9.59671 6.45479C9.59317 6.45125 9.58964 6.44771 9.5861 6.44418C9.58257 6.44064 9.57903 6.43711 9.5755 6.43358C9.57197 6.43005 9.56844 6.42652 9.56492 6.42299C9.56139 6.41947 9.55787 6.41594 9.55435 6.41242C9.55083 6.4089 9.54731 6.40538 9.54379 6.40187C9.54027 6.39835 9.53676 6.39484 9.53325 6.39132C9.52974 6.38781 9.52623 6.3843 9.52272 6.38079C9.51921 6.37729 9.51571 6.37378 9.5122 6.37028C9.5087 6.36678 9.5052 6.36328 9.5017 6.35978C9.4982 6.35628 9.49471 6.35278 9.49122 6.34929C9.48772 6.3458 9.48423 6.34231 9.48074 6.33882C9.47726 6.33533 9.47377 6.33185 9.47029 6.32836C9.4668 6.32488 9.46332 6.3214 9.45985 6.31792C9.45637 6.31444 9.45289 6.31097 9.44942 6.30749C9.44594 6.30402 9.44247 6.30055 9.43901 6.29708C9.43554 6.29361 9.43207 6.29015 9.42861 6.28668C9.42515 6.28322 9.42169 6.27976 9.41823 6.2763C9.41477 6.27285 9.41131 6.26939 9.40786 6.26594C9.40441 6.26248 9.40096 6.25903 9.39751 6.25559C9.39407 6.25214 9.39062 6.2487 9.38718 6.24525C9.38374 6.24181 9.3803 6.23837 9.37686 6.23494C9.37342 6.2315 9.36999 6.22807 9.36656 6.22464C9.36313 6.2212 9.3597 6.21778 9.35628 6.21435C9.35285 6.21092 9.34943 6.2075 9.34601 6.20408C9.34259 6.20066 9.33917 6.19724 9.33576 6.19383C9.33234 6.19042 9.32893 6.187 9.32552 6.1836C9.32211 6.18019 9.31871 6.17678 9.3153 6.17338C9.3119 6.16998 9.3085 6.16658 9.3051 6.16318C9.30171 6.15978 9.29831 6.15639 9.29492 6.153C9.29153 6.1496 9.28814 6.14622 9.28476 6.14283C9.28137 6.13945 9.27799 6.13606 9.27461 6.13268C9.27123 6.1293 9.26785 6.12593 9.26448 6.12255C9.26111 6.11918 9.25773 6.11581 9.25437 6.11244C9.251 6.10907 9.24764 6.10571 9.24427 6.10235C9.24091 6.09899 9.23755 6.09563 9.2342 6.09227C9.23084 6.08892 9.22749 6.08557 9.22414 6.08222C9.22079 6.07887 9.21745 6.07552 9.2141 6.07218C9.21076 6.06884 9.20742 6.0655 9.20409 6.06216C9.20075 6.05882 9.19742 6.05549 9.19409 6.05216C9.19075 6.04883 9.18743 6.0455 9.1841 6.04218C9.18078 6.03886 9.17746 6.03553 9.17414 6.03222C9.17083 6.0289 9.16751 6.02559 9.1642 6.02228C9.16089 6.01896 9.15758 6.01566 9.15428 6.01235C9.15097 6.00905 9.14767 6.00575 9.14437 6.00245C9.14108 5.99915 9.13778 5.99586 9.13449 5.99257C9.1312 5.98928 9.12791 5.98599 9.12463 5.9827C9.12134 5.97942 9.11806 5.97614 9.11479 5.97286C9.11151 5.96958 9.10823 5.96631 9.10496 5.96304C9.10169 5.95977 9.09843 5.9565 9.09516 5.95324C9.0919 5.94997 9.08864 5.94671 9.08538 5.94346C9.08212 5.9402 9.07887 5.93695 9.07562 5.9337C9.07237 5.93045 9.06913 5.9272 9.06588 5.92396C9.06264 5.92071 9.0594 5.91748 9.05616 5.91424C9.05293 5.911 9.0497 5.90777 9.04647 5.90454C9.04324 5.90131 9.04001 5.89809 9.03679 5.89487C9.03357 5.89165 9.03035 5.88843 9.02714 5.88521C9.02393 5.882 9.02071 5.87879 9.01751 5.87558C9.0143 5.87238 9.0111 5.86917 9.0079 5.86597C9.0047 5.86277 9.0015 5.85958 8.99831 5.85639C8.99512 5.85319 8.99193 5.85 8.98875 5.84682C8.98556 5.84364 8.98238 5.84045 8.9792 5.83728C8.97603 5.8341 8.97285 5.83093 8.96968 5.82776C8.96651 5.82459 8.96335 5.82142 8.96018 5.81826C8.95702 5.8151 8.95386 5.81194 8.95071 5.80878C8.94756 5.80563 8.9444 5.80248 8.94126 5.79933C8.93811 5.79619 8.93497 5.79304 8.93183 5.78991C8.92869 5.78677 8.92556 5.78363 8.92243 5.7805C8.91929 5.77737 8.91617 5.77424 8.91304 5.77112C8.90992 5.768 8.9068 5.76488 8.90369 5.76176C8.90057 5.75865 8.89746 5.75553 8.89435 5.75243C8.89124 5.74932 8.88814 5.74622 8.88504 5.74312C8.88194 5.74002 8.87885 5.73692 8.87576 5.73383C8.87267 5.73074 8.86958 5.72765 8.86649 5.72457C8.86341 5.72149 8.86033 5.71841 8.85726 5.71533C8.85418 5.71226 8.85111 5.70919 8.84805 5.70612C8.84498 5.70305 8.84192 5.69999 8.83886 5.69693C8.8358 5.69388 8.83275 5.69082 8.8297 5.68777C8.82665 5.68472 8.8236 5.68167 8.82056 5.67863C8.81752 5.67559 8.81448 5.67255 8.81145 5.66952C8.80841 5.66649 8.80538 5.66346 8.80236 5.66043C8.79933 5.65741 8.79631 5.65439 8.7933 5.65137C8.79028 5.64836 8.78727 5.64535 8.78426 5.64234C8.78126 5.63933 8.77825 5.63633 8.77525 5.63333C8.77225 5.63033 8.76926 5.62734 8.76627 5.62434C8.76328 5.62135 8.76029 5.61837 8.75731 5.61539C8.75433 5.61241 8.75135 5.60943 8.74838 5.60646C8.74541 5.60348 8.74244 5.60052 8.73948 5.59755C8.73651 5.59459 8.73355 5.59163 8.7306 5.58867C8.72764 5.58572 8.72469 5.58277 8.72175 5.57982C8.7188 5.57688 8.71586 5.57394 8.71292 5.571C8.70999 5.56806 8.70706 5.56513 8.70413 5.5622C8.7012 5.55928 8.69828 5.55635 8.69536 5.55343C8.69244 5.55051 8.68953 5.5476 8.68662 5.54469C8.68371 5.54178 8.6808 5.53888 8.6779 5.53598C8.675 5.53308 8.67211 5.53018 8.66922 5.52729C8.66632 5.5244 8.66344 5.52151 8.66056 5.51863C8.65768 5.51575 8.6548 5.51287 8.65193 5.51C8.64905 5.50713 8.64619 5.50426 8.64332 5.5014C8.64046 5.49854 8.6376 5.49568 8.63475 5.49283C8.6319 5.48997 8.62905 5.48712 8.62621 5.48428C8.62336 5.48144 8.62052 5.4786 8.61769 5.47576C8.61485 5.47293 8.61203 5.4701 8.6092 5.46728C8.60638 5.46445 8.60356 5.46163 8.60074 5.45882C8.59793 5.456 8.59512 5.45319 8.59231 5.45039C8.58951 5.44758 8.58671 5.44478 8.58391 5.44199C8.58112 5.43919 8.57833 5.4364 8.57554 5.43362C8.57276 5.43083 8.56998 5.42805 8.5672 5.42528C8.56443 5.4225 8.56166 5.41973 8.55889 5.41696C8.55612 5.4142 8.55336 5.41144 8.55061 5.40868C8.54785 5.40593 8.5451 5.40318 8.54236 5.40043C8.53961 5.39769 8.53687 5.39495 8.53414 5.39221C8.5314 5.38948 8.52867 5.38675 8.52595 5.38402C8.52322 5.3813 8.5205 5.37858 8.51779 5.37586C8.51507 5.37315 8.51236 5.37044 8.50966 5.36773C8.50695 5.36503 8.50425 5.36233 8.50156 5.35964C8.49887 5.35694 8.49618 5.35425 8.49349 5.35157C8.49081 5.34888 8.48813 5.34621 8.48546 5.34353C8.48278 5.34086 8.48012 5.33819 8.47745 5.33553C8.47479 5.33287 8.47213 5.33021 8.46948 5.32756C8.46683 5.3249 8.46418 5.32226 8.46154 5.31961C8.4589 5.31697 8.45626 5.31434 8.45363 5.31171C8.451 5.30907 8.44837 5.30645 8.44575 5.30383C8.44313 5.30121 8.44052 5.29859 8.43791 5.29598C8.4353 5.29337 8.4327 5.29077 8.4301 5.28817C8.4275 5.28557 8.4249 5.28298 8.42232 5.28039C8.41973 5.2778 8.41715 5.27522 8.41457 5.27264C8.41199 5.27007 8.40942 5.2675 8.40685 5.26493C8.40429 5.26236 8.40173 5.2598 8.39917 5.25725C8.39662 5.25469 8.39407 5.25214 8.39152 5.2496C8.38898 5.24705 8.38644 5.24452 8.38391 5.24198C8.38138 5.23945 8.37885 5.23692 8.37633 5.2344C8.37381 5.23188 8.37129 5.22936 8.36878 5.22685C8.36627 5.22434 8.36376 5.22184 8.36126 5.21934C8.35876 5.21684 8.35627 5.21435 8.35378 5.21186C8.3513 5.20937 8.34881 5.20689 8.34634 5.20441C8.34386 5.20194 8.34139 5.19946 8.33892 5.197C8.33646 5.19453 8.334 5.19208 8.33155 5.18962C8.32909 5.18717 8.32665 5.18472 8.3242 5.18228C8.32176 5.17984 8.31933 5.1774 8.3169 5.17497C8.31446 5.17254 8.31204 5.17012 8.30962 5.1677C8.3072 5.16528 8.30479 5.16286 8.30238 5.16046C8.29998 5.15805 8.29757 5.15565 8.29518 5.15325C8.29278 5.15086 8.29039 5.14847 8.28801 5.14609C8.28563 5.1437 8.28325 5.14132 8.28088 5.13895C8.27851 5.13658 8.27614 5.13422 8.27378 5.13186C8.27142 5.1295 8.26907 5.12714 8.26672 5.12479C8.26437 5.12245 8.26203 5.1201 8.25969 5.11777C8.25736 5.11543 8.25503 5.1131 8.2527 5.11078C8.25038 5.10846 8.24806 5.10614 8.24575 5.10383C8.24344 5.10152 8.24113 5.09921 8.23884 5.09691C8.23654 5.09461 8.23424 5.09232 8.23196 5.09003C8.22967 5.08774 8.22739 5.08546 8.22511 5.08319C8.22284 5.08091 8.22057 5.07864 8.21831 5.07638C8.21604 5.07412 8.21379 5.07186 8.21154 5.06961C8.20929 5.06736 8.20704 5.06512 8.2048 5.06288C8.20257 5.06064 8.20034 5.05841 8.19811 5.05618C8.19588 5.05396 8.19367 5.05174 8.19145 5.04953C8.18924 5.04731 8.18703 5.04511 8.18483 5.04291C8.18263 5.04071 8.18044 5.03851 8.17825 5.03633C8.17606 5.03414 8.17388 5.03196 8.17171 5.02978C8.16953 5.02761 8.16736 5.02544 8.1652 5.02328C8.16304 5.02111 8.16088 5.01896 8.15874 5.01681C8.15659 5.01466 8.15444 5.01252 8.15231 5.01038C8.15017 5.00825 8.14804 5.00612 8.14592 5.00399C8.14379 5.00187 8.14168 4.99975 8.13957 4.99764C8.13745 4.99553 8.13535 4.99343 8.13325 4.99133C8.13116 4.98923 8.12906 4.98714 8.12698 4.98505C8.12489 4.98297 8.12282 4.98089 8.12075 4.97882C8.11867 4.97675 8.11661 4.97468 8.11455 4.97263C8.11249 4.97057 8.11044 4.96852 8.1084 4.96647C8.10635 4.96443 8.10431 4.96239 8.10228 4.96036C8.10025 4.95832 8.09822 4.9563 8.09621 4.95428C8.09419 4.95226 8.09218 4.95025 8.09017 4.94824C8.08816 4.94624 8.08617 4.94424 8.08417 4.94225C8.08218 4.94026 8.0802 4.93827 8.07822 4.93629C8.07624 4.93432 8.07427 4.93235 8.07231 4.93038C8.07034 4.92842 8.06838 4.92646 8.06643 4.92451C8.06448 4.92256 8.06254 4.92061 8.0606 4.91867C8.05866 4.91674 8.05673 4.91481 8.05481 4.91288C8.05288 4.91096 8.05097 4.90904 8.04906 4.90713C8.04715 4.90522 8.04524 4.90332 8.04335 4.90142C8.04145 4.89953 8.03956 4.89764 8.03768 4.89575C8.0358 4.89387 8.03392 4.892 8.03205 4.89013C8.03019 4.88826 8.02832 4.8864 8.02647 4.88454C8.02461 4.88269 8.02277 4.88084 8.02093 4.879C8.01909 4.87716 8.01725 4.87533 8.01543 4.8735C8.0136 4.87167 8.01178 4.86986 8.00997 4.86804C8.00816 4.86623 8.00635 4.86442 8.00455 4.86263C8.00275 4.86083 8.00096 4.85904 7.99918 4.85725C7.99739 4.85547 7.99562 4.85369 7.99385 4.85192C7.99208 4.85015 7.99032 4.84839 7.98856 4.84664C7.98681 4.84488 7.98506 4.84313 7.98332 4.84139C7.98157 4.83965 7.97984 4.83792 7.97811 4.83619C7.97639 4.83446 7.97467 4.83274 7.97296 4.83103C7.97124 4.82932 7.96954 4.82761 7.96784 4.82592C7.96614 4.82422 7.96445 4.82253 7.96277 4.82085C7.96109 4.81916 7.95941 4.81749 7.95774 4.81582C7.95608 4.81415 7.95441 4.81249 7.95276 4.81084C7.95111 4.80918 7.94946 4.80754 7.94782 4.8059C7.94618 4.80426 7.94455 4.80263 7.94293 4.801C7.9413 4.79938 7.93969 4.79776 7.93808 4.79615C7.93647 4.79454 7.93486 4.79294 7.93327 4.79135C7.93168 4.78975 7.93009 4.78816 7.92851 4.78658C7.92693 4.785 7.92536 4.78343 7.92379 4.78187C7.92223 4.7803 7.92067 4.77875 7.91912 4.7772C7.91757 4.77565 7.91603 4.77411 7.9145 4.77257C7.91296 4.77104 7.91144 4.76951 7.90992 4.76799C7.9084 4.76647 7.90689 4.76496 7.90538 4.76346C7.90388 4.76195 7.90238 4.76046 7.90089 4.75897C7.8994 4.75748 7.89792 4.756 7.89645 4.75452C7.89498 4.75305 7.89351 4.75159 7.89205 4.75013C7.89059 4.74867 7.88914 4.74722 7.8877 4.74578C7.88626 4.74433 7.88482 4.7429 7.8834 4.74147C7.88197 4.74004 7.88055 4.73863 7.87914 4.73721C7.87773 4.7358 7.87632 4.7344 7.87493 4.733C7.87353 4.73161 7.87214 4.73022 7.87076 4.72884C7.86938 4.72746 7.86801 4.72608 7.86664 4.72472C7.86528 4.72335 7.86392 4.722 7.86257 4.72065C7.86122 4.7193 7.85988 4.71796 7.85855 4.71663C7.85722 4.71529 7.85589 4.71397 7.85457 4.71265C7.85326 4.71133 7.85195 4.71002 7.85065 4.70872C7.84934 4.70742 7.84805 4.70613 7.84677 4.70484C7.84548 4.70355 7.8442 4.70228 7.84293 4.70101C7.84166 4.69974 7.8404 4.69848 7.83915 4.69722C7.83789 4.69597 7.83665 4.69472 7.83541 4.69349C7.83417 4.69225 7.83294 4.69102 7.83172 4.6898C7.8305 4.68858 7.82929 4.68736 7.82808 4.68616C7.82688 4.68495 7.82568 4.68376 7.82449 4.68257C7.8233 4.68138 7.82212 4.6802 7.82095 4.67903C7.81978 4.67785 7.81861 4.67669 7.81746 4.67553C7.8163 4.67438 7.81515 4.67323 7.81401 4.67209C7.81287 4.67095 7.81174 4.66982 7.81062 4.66869C7.8095 4.66757 7.80838 4.66646 7.80727 4.66535C7.80617 4.66424 7.80507 4.66314 7.80398 4.66205C7.80289 4.66096 7.80181 4.65988 7.80073 4.65881C7.79966 4.65774 7.7986 4.65667 7.79754 4.65561C7.79648 4.65456 7.79543 4.65351 7.79439 4.65247C7.79335 4.65143 7.79232 4.6504 7.7913 4.64937C7.79027 4.64835 7.78926 4.64733 7.78825 4.64633C7.78725 4.64532 7.78625 4.64432 7.78526 4.64333C7.78427 4.64234 7.78329 4.64136 7.78231 4.64039C7.78134 4.63942 7.78038 4.63845 7.77942 4.6375C7.77847 4.63654 7.77752 4.63559 7.77658 4.63466C7.77564 4.63372 7.77471 4.63279 7.77379 4.63187C7.77287 4.63094 7.77196 4.63003 7.77105 4.62913C7.77015 4.62822 7.76925 4.62733 7.76836 4.62644C7.76748 4.62555 7.7666 4.62467 7.76573 4.6238C7.76486 4.62293 7.764 4.62207 7.76314 4.62122C7.76229 4.62037 7.76145 4.61952 7.76061 4.61869C7.75978 4.61785 7.75895 4.61703 7.75813 4.61621C7.75731 4.61539 7.7565 4.61458 7.7557 4.61378C7.7549 4.61298 7.75411 4.61219 7.75333 4.6114C7.75255 4.61062 7.75177 4.60985 7.75101 4.60908C7.75024 4.60832 7.74949 4.60756 7.74874 4.60681C7.74799 4.60606 7.74725 4.60533 7.74652 4.6046C7.74579 4.60387 7.74507 4.60314 7.74436 4.60243C7.74364 4.60172 7.74294 4.60102 7.74225 4.60032C7.74155 4.59963 7.74087 4.59894 7.74019 4.59826C7.73951 4.59759 7.73885 4.59692 7.73819 4.59626C7.73753 4.5956 7.73688 4.59495 7.73624 4.59431C7.7356 4.59367 7.73496 4.59304 7.73434 4.59242C7.73372 4.59179 7.7331 4.59118 7.7325 4.59057C7.73189 4.58997 7.7313 4.58937 7.73071 4.58879C7.73012 4.5882 7.72955 4.58762 7.72898 4.58705C7.72841 4.58648 7.72785 4.58592 7.7273 4.58537C7.72675 4.58482 7.72621 4.58428 7.72568 4.58375C7.72514 4.58322 7.72462 4.58269 7.72411 4.58218C7.72359 4.58167 7.72309 4.58116 7.72259 4.58067C7.7221 4.58017 7.72161 4.57968 7.72113 4.57921C7.72066 4.57873 7.72019 4.57826 7.71973 4.5778C7.71927 4.57735 7.71882 4.5769 7.71838 4.57646C7.71794 4.57602 7.71751 4.57558 7.71709 4.57516C7.71667 4.57474 7.71625 4.57433 7.71585 4.57393C7.71545 4.57352 7.71505 4.57313 7.71467 4.57274C7.71429 4.57236 7.71391 4.57198 7.71354 4.57162C7.71318 4.57125 7.71282 4.5709 7.71248 4.57055C7.71213 4.5702 7.71179 4.56987 7.71146 4.56954C7.71114 4.56921 7.71082 4.56889 7.71051 4.56858C7.7102 4.56827 7.7099 4.56797 7.70961 4.56768C7.70932 4.56739 7.70904 4.56711 7.70877 4.56684C7.7085 4.56657 7.70823 4.56631 7.70798 4.56606C7.70773 4.5658 7.70749 4.56556 7.70725 4.56533C7.70702 4.56509 7.7068 4.56487 7.70658 4.56466C7.70637 4.56444 7.70616 4.56424 7.70597 4.56404C7.70577 4.56385 7.70559 4.56366 7.70541 4.56349C7.70524 4.56331 7.70507 4.56315 7.70492 4.56299C7.70476 4.56283 7.70461 4.56269 7.70448 4.56255C7.70434 4.56241 7.70421 4.56229 7.70409 4.56217C7.70398 4.56205 7.70387 4.56194 7.70377 4.56185C7.70367 4.56175 7.70358 4.56166 7.70351 4.56158C7.70343 4.5615 7.70336 4.56143 7.7033 4.56137C7.70324 4.56132 7.70319 4.56127 7.70315 4.56123C7.70311 4.56119 7.70308 4.56116 7.70306 4.56114C7.70304 4.56112 7.70303 4.56111 7.40282 4.86132C7.10261 5.16153 7.10262 5.16154 7.10264 5.16156C7.10266 5.16158 7.10269 5.16161 7.10273 5.16165C7.10277 5.16169 7.10282 5.16174 7.10288 5.1618C7.10294 5.16185 7.10301 5.16192 7.10309 5.162C7.10316 5.16208 7.10325 5.16217 7.10335 5.16227C7.10345 5.16236 7.10356 5.16247 7.10367 5.16259C7.10379 5.16271 7.10392 5.16283 7.10406 5.16297C7.10419 5.16311 7.10434 5.16326 7.1045 5.16341C7.10465 5.16357 7.10482 5.16373 7.10499 5.16391C7.10517 5.16408 7.10535 5.16427 7.10555 5.16446C7.10574 5.16466 7.10595 5.16486 7.10616 5.16508C7.10638 5.16529 7.1066 5.16552 7.10683 5.16575C7.10707 5.16598 7.10731 5.16622 7.10756 5.16648C7.10781 5.16673 7.10807 5.16699 7.10835 5.16726C7.10862 5.16753 7.1089 5.16781 7.10919 5.1681C7.10948 5.16839 7.10978 5.16869 7.11009 5.169C7.1104 5.16931 7.11071 5.16963 7.11104 5.16996C7.11137 5.17029 7.11171 5.17062 7.11206 5.17097C7.1124 5.17132 7.11276 5.17167 7.11312 5.17204C7.11349 5.17241 7.11386 5.17278 7.11425 5.17316C7.11463 5.17355 7.11503 5.17394 7.11543 5.17435C7.11583 5.17475 7.11625 5.17516 7.11667 5.17558C7.11709 5.176 7.11752 5.17644 7.11796 5.17688C7.1184 5.17732 7.11885 5.17777 7.11931 5.17822C7.11977 5.17868 7.12023 5.17915 7.12071 5.17963C7.12119 5.18011 7.12168 5.18059 7.12217 5.18109C7.12267 5.18158 7.12317 5.18209 7.12369 5.1826C7.1242 5.18312 7.12472 5.18364 7.12525 5.18417C7.12579 5.1847 7.12633 5.18524 7.12688 5.18579C7.12743 5.18635 7.12799 5.1869 7.12856 5.18747C7.12913 5.18804 7.1297 5.18862 7.13029 5.18921C7.13088 5.18979 7.13147 5.19039 7.13208 5.19099C7.13268 5.1916 7.1333 5.19221 7.13392 5.19284C7.13454 5.19346 7.13518 5.19409 7.13582 5.19473C7.13646 5.19537 7.13711 5.19602 7.13777 5.19668C7.13842 5.19734 7.13909 5.19801 7.13977 5.19868C7.14045 5.19936 7.14113 5.20005 7.14183 5.20074C7.14252 5.20144 7.14322 5.20214 7.14394 5.20285C7.14465 5.20356 7.14537 5.20429 7.1461 5.20502C7.14683 5.20575 7.14757 5.20648 7.14832 5.20723C7.14906 5.20798 7.14982 5.20874 7.15059 5.2095C7.15135 5.21027 7.15213 5.21104 7.15291 5.21182C7.15369 5.21261 7.15448 5.2134 7.15528 5.2142C7.15608 5.215 7.15689 5.21581 7.15771 5.21663C7.15853 5.21745 7.15936 5.21827 7.16019 5.21911C7.16103 5.21994 7.16187 5.22079 7.16272 5.22164C7.16358 5.22249 7.16444 5.22335 7.16531 5.22422C7.16618 5.22509 7.16706 5.22597 7.16794 5.22686C7.16883 5.22775 7.16973 5.22864 7.17063 5.22955C7.17153 5.23045 7.17245 5.23136 7.17337 5.23229C7.17429 5.23321 7.17522 5.23414 7.17616 5.23508C7.1771 5.23601 7.17805 5.23696 7.179 5.23792C7.17996 5.23887 7.18092 5.23984 7.18189 5.24081C7.18287 5.24178 7.18385 5.24276 7.18484 5.24375C7.18583 5.24474 7.18683 5.24574 7.18783 5.24675C7.18884 5.24775 7.18985 5.24877 7.19088 5.24979C7.1919 5.25082 7.19293 5.25185 7.19397 5.25289C7.19501 5.25393 7.19606 5.25498 7.19712 5.25603C7.19817 5.25709 7.19924 5.25816 7.20031 5.25923C7.20139 5.2603 7.20247 5.26138 7.20356 5.26247C7.20465 5.26357 7.20575 5.26466 7.20685 5.26577C7.20796 5.26688 7.20908 5.26799 7.2102 5.26912C7.21132 5.27024 7.21245 5.27137 7.21359 5.27251C7.21473 5.27365 7.21588 5.2748 7.21704 5.27595C7.21819 5.27711 7.21936 5.27827 7.22053 5.27945C7.2217 5.28062 7.22288 5.2818 7.22407 5.28299C7.22526 5.28418 7.22646 5.28537 7.22766 5.28658C7.22887 5.28778 7.23008 5.289 7.2313 5.29022C7.23252 5.29144 7.23375 5.29267 7.23499 5.29391C7.23623 5.29514 7.23747 5.29639 7.23873 5.29764C7.23998 5.2989 7.24124 5.30016 7.24251 5.30143C7.24378 5.3027 7.24506 5.30398 7.24634 5.30526C7.24763 5.30655 7.24892 5.30784 7.25023 5.30914C7.25153 5.31044 7.25284 5.31175 7.25415 5.31307C7.25547 5.31439 7.2568 5.31571 7.25813 5.31705C7.25946 5.31838 7.2608 5.31972 7.26215 5.32107C7.2635 5.32242 7.26486 5.32377 7.26622 5.32514C7.26759 5.3265 7.26896 5.32788 7.27034 5.32926C7.27172 5.33064 7.27311 5.33203 7.27451 5.33342C7.2759 5.33482 7.27731 5.33622 7.27872 5.33763C7.28013 5.33905 7.28155 5.34046 7.28298 5.34189C7.2844 5.34332 7.28584 5.34475 7.28728 5.3462C7.28872 5.34764 7.29017 5.34909 7.29163 5.35055C7.29309 5.35201 7.29456 5.35347 7.29603 5.35494C7.2975 5.35642 7.29898 5.3579 7.30047 5.35939C7.30196 5.36088 7.30346 5.36237 7.30496 5.36388C7.30647 5.36538 7.30798 5.36689 7.3095 5.36841C7.31102 5.36993 7.31254 5.37146 7.31408 5.37299C7.31561 5.37453 7.31715 5.37607 7.3187 5.37762C7.32025 5.37917 7.32181 5.38072 7.32337 5.38229C7.32494 5.38385 7.32651 5.38543 7.32809 5.387C7.32967 5.38858 7.33126 5.39017 7.33285 5.39177C7.33444 5.39336 7.33605 5.39496 7.33766 5.39657C7.33927 5.39818 7.34088 5.3998 7.34251 5.40142C7.34413 5.40305 7.34576 5.40468 7.3474 5.40632C7.34904 5.40796 7.35069 5.4096 7.35234 5.41126C7.35399 5.41291 7.35565 5.41457 7.35732 5.41624C7.35899 5.41791 7.36067 5.41958 7.36235 5.42127C7.36403 5.42295 7.36572 5.42464 7.36742 5.42634C7.36912 5.42803 7.37082 5.42974 7.37254 5.43145C7.37425 5.43316 7.37597 5.43488 7.37769 5.43661C7.37942 5.43834 7.38115 5.44007 7.3829 5.44181C7.38464 5.44355 7.38638 5.4453 7.38814 5.44706C7.3899 5.44881 7.39166 5.45057 7.39343 5.45234C7.3952 5.45411 7.39697 5.45589 7.39876 5.45767C7.40054 5.45946 7.40233 5.46125 7.40413 5.46305C7.40593 5.46485 7.40773 5.46665 7.40955 5.46846C7.41136 5.47028 7.41318 5.47209 7.41501 5.47392C7.41683 5.47575 7.41867 5.47758 7.42051 5.47942C7.42235 5.48126 7.42419 5.48311 7.42605 5.48496C7.4279 5.48682 7.42976 5.48868 7.43163 5.49055C7.4335 5.49242 7.43538 5.49429 7.43726 5.49618C7.43914 5.49806 7.44103 5.49995 7.44293 5.50184C7.44482 5.50374 7.44673 5.50564 7.44864 5.50755C7.45055 5.50946 7.45246 5.51138 7.45439 5.5133C7.45631 5.51523 7.45824 5.51716 7.46018 5.51909C7.46212 5.52103 7.46406 5.52298 7.46601 5.52493C7.46796 5.52688 7.46992 5.52884 7.47189 5.5308C7.47385 5.53277 7.47582 5.53474 7.4778 5.53672C7.47978 5.53869 7.48176 5.54068 7.48375 5.54267C7.48575 5.54466 7.48774 5.54666 7.48975 5.54867C7.49175 5.55067 7.49377 5.55268 7.49578 5.5547C7.4978 5.55672 7.49983 5.55874 7.50186 5.56078C7.50389 5.56281 7.50593 5.56485 7.50798 5.56689C7.51002 5.56894 7.51207 5.57099 7.51413 5.57305C7.51619 5.5751 7.51825 5.57717 7.52033 5.57924C7.5224 5.58131 7.52447 5.58339 7.52656 5.58548C7.52864 5.58756 7.53073 5.58965 7.53283 5.59175C7.53493 5.59385 7.53703 5.59595 7.53914 5.59806C7.54126 5.60017 7.54337 5.60229 7.5455 5.60441C7.54762 5.60654 7.54975 5.60867 7.55189 5.6108C7.55402 5.61294 7.55617 5.61508 7.55831 5.61723C7.56046 5.61938 7.56262 5.62154 7.56478 5.6237C7.56694 5.62586 7.56911 5.62803 7.57129 5.6302C7.57346 5.63238 7.57564 5.63456 7.57783 5.63675C7.58002 5.63893 7.58221 5.64113 7.58441 5.64333C7.58661 5.64553 7.58882 5.64774 7.59103 5.64995C7.59324 5.65216 7.59546 5.65438 7.59769 5.65661C7.59991 5.65883 7.60215 5.66106 7.60438 5.6633C7.60662 5.66554 7.60887 5.66778 7.61112 5.67003C7.61337 5.67228 7.61562 5.67454 7.61789 5.6768C7.62015 5.67906 7.62242 5.68133 7.62469 5.68361C7.62697 5.68588 7.62925 5.68816 7.63153 5.69045C7.63382 5.69274 7.63612 5.69503 7.63841 5.69733C7.64071 5.69963 7.64302 5.70194 7.64533 5.70425C7.64764 5.70656 7.64996 5.70888 7.65228 5.7112C7.65461 5.71352 7.65694 5.71585 7.65927 5.71819C7.66161 5.72053 7.66395 5.72287 7.6663 5.72522C7.66865 5.72756 7.671 5.72992 7.67336 5.73228C7.67572 5.73464 7.67809 5.737 7.68046 5.73937C7.68283 5.74175 7.68521 5.74412 7.68759 5.74651C7.68997 5.74889 7.69236 5.75128 7.69476 5.75367C7.69715 5.75607 7.69955 5.75847 7.70196 5.76088C7.70437 5.76329 7.70678 5.7657 7.7092 5.76812C7.71162 5.77054 7.71404 5.77296 7.71647 5.77539C7.71891 5.77782 7.72134 5.78026 7.72378 5.7827C7.72623 5.78514 7.72867 5.78759 7.73113 5.79004C7.73358 5.7925 7.73604 5.79496 7.7385 5.79742C7.74097 5.79989 7.74344 5.80236 7.74592 5.80483C7.74839 5.80731 7.75088 5.80979 7.75336 5.81228C7.75585 5.81477 7.75834 5.81726 7.76084 5.81976C7.76334 5.82226 7.76585 5.82476 7.76836 5.82727C7.77087 5.82978 7.77338 5.8323 7.77591 5.83482C7.77843 5.83734 7.78096 5.83987 7.78349 5.8424C7.78602 5.84494 7.78856 5.84748 7.7911 5.85002C7.79365 5.85256 7.7962 5.85511 7.79875 5.85767C7.80131 5.86022 7.80387 5.86278 7.80643 5.86535C7.809 5.86792 7.81157 5.87049 7.81415 5.87306C7.81673 5.87564 7.81931 5.87822 7.8219 5.88081C7.82448 5.8834 7.82708 5.88599 7.82968 5.88859C7.83227 5.89119 7.83488 5.89379 7.83749 5.8964C7.8401 5.89901 7.84271 5.90163 7.84533 5.90425C7.84795 5.90687 7.85058 5.9095 7.85321 5.91213C7.85584 5.91476 7.85848 5.91739 7.86112 5.92004C7.86376 5.92268 7.86641 5.92532 7.86906 5.92798C7.87171 5.93063 7.87437 5.93329 7.87703 5.93595C7.8797 5.93861 7.88236 5.94128 7.88504 5.94395C7.88771 5.94663 7.89039 5.9493 7.89307 5.95199C7.89576 5.95467 7.89845 5.95736 7.90114 5.96006C7.90383 5.96275 7.90653 5.96545 7.90924 5.96815C7.91194 5.97086 7.91465 5.97357 7.91737 5.97628C7.92008 5.979 7.9228 5.98172 7.92553 5.98444C7.92825 5.98717 7.93098 5.9899 7.93372 5.99263C7.93645 5.99537 7.93919 5.99811 7.94194 6.00085C7.94468 6.0036 7.94743 6.00635 7.95019 6.0091C7.95294 6.01186 7.9557 6.01462 7.95847 6.01739C7.96123 6.02015 7.96401 6.02292 7.96678 6.0257C7.96956 6.02847 7.97234 6.03125 7.97512 6.03404C7.97791 6.03682 7.9807 6.03961 7.98349 6.04241C7.98629 6.0452 7.98909 6.048 7.99189 6.05081C7.9947 6.05361 7.99751 6.05642 8.00032 6.05924C8.00314 6.06205 8.00596 6.06487 8.00878 6.0677C8.0116 6.07052 8.01443 6.07335 8.01727 6.07618C8.0201 6.07902 8.02294 6.08186 8.02578 6.0847C8.02863 6.08754 8.03148 6.09039 8.03433 6.09325C8.03718 6.0961 8.04004 6.09896 8.0429 6.10182C8.04577 6.10468 8.04863 6.10755 8.05151 6.11042C8.05438 6.11329 8.05726 6.11617 8.06014 6.11905C8.06302 6.12193 8.0659 6.12482 8.0688 6.12771C8.07169 6.1306 8.07458 6.1335 8.07748 6.1364C8.08038 6.1393 8.08329 6.1422 8.0862 6.14511C8.08911 6.14802 8.09202 6.15094 8.09494 6.15385C8.09786 6.15677 8.10078 6.1597 8.10371 6.16262C8.10664 6.16555 8.10957 6.16848 8.1125 6.17142C8.11544 6.17436 8.11838 6.1773 8.12133 6.18024C8.12427 6.18319 8.12722 6.18614 8.13018 6.18909C8.13313 6.19205 8.13609 6.19501 8.13906 6.19797C8.14202 6.20094 8.14499 6.2039 8.14796 6.20688C8.15093 6.20985 8.15391 6.21283 8.15689 6.21581C8.15987 6.21879 8.16286 6.22178 8.16585 6.22477C8.16884 6.22776 8.17183 6.23075 8.17483 6.23375C8.17783 6.23675 8.18083 6.23975 8.18384 6.24276C8.18685 6.24577 8.18986 6.24878 8.19288 6.25179C8.19589 6.25481 8.19891 6.25783 8.20194 6.26085C8.20496 6.26388 8.20799 6.26691 8.21103 6.26994C8.21406 6.27297 8.2171 6.27601 8.22014 6.27905C8.22318 6.2821 8.22623 6.28514 8.22928 6.28819C8.23233 6.29124 8.23538 6.2943 8.23844 6.29735C8.2415 6.30041 8.24456 6.30347 8.24763 6.30654C8.25069 6.30961 8.25376 6.31268 8.25684 6.31575C8.25991 6.31883 8.26299 6.32191 8.26607 6.32499C8.26916 6.32807 8.27224 6.33116 8.27534 6.33425C8.27843 6.33734 8.28152 6.34044 8.28462 6.34354C8.28772 6.34664 8.29082 6.34974 8.29393 6.35285C8.29704 6.35595 8.30015 6.35907 8.30327 6.36218C8.30638 6.3653 8.3095 6.36842 8.31262 6.37154C8.31575 6.37466 8.31887 6.37779 8.322 6.38092C8.32514 6.38405 8.32827 6.38719 8.33141 6.39033C8.33455 6.39346 8.33769 6.39661 8.34084 6.39975C8.34398 6.4029 8.34713 6.40605 8.35029 6.40921C8.35344 6.41236 8.3566 6.41552 8.35976 6.41868C8.36293 6.42184 8.36609 6.42501 8.36926 6.42818C8.37243 6.43135 8.3756 6.43452 8.37878 6.4377C8.38196 6.44088 8.38514 6.44406 8.38832 6.44724C8.39151 6.45043 8.3947 6.45361 8.39789 6.45681C8.40108 6.46 8.40428 6.46319 8.40748 6.46639C8.41068 6.46959 8.41388 6.4728 8.41709 6.476C8.42029 6.47921 8.4235 6.48242 8.42672 6.48563C8.42993 6.48885 8.43315 6.49207 8.43637 6.49529C8.43959 6.49851 8.44282 6.50173 8.44605 6.50496C8.44928 6.50819 8.45251 6.51142 8.45574 6.51466C8.45898 6.5179 8.46222 6.52114 8.46546 6.52438C8.4687 6.52762 8.47195 6.53087 8.4752 6.53412C8.47845 6.53737 8.4817 6.54062 8.48496 6.54388C8.48822 6.54713 8.49148 6.55039 8.49474 6.55366C8.49801 6.55692 8.50127 6.56019 8.50454 6.56346C8.50781 6.56673 8.51109 6.57 8.51437 6.57328C8.51764 6.57656 8.52092 6.57984 8.52421 6.58312C8.52749 6.58641 8.53078 6.5897 8.53407 6.59299C8.53736 6.59628 8.54066 6.59957 8.54395 6.60287C8.54725 6.60617 8.55055 6.60947 8.55386 6.61277C8.55716 6.61608 8.56047 6.61938 8.56378 6.6227C8.56709 6.62601 8.5704 6.62932 8.57372 6.63264C8.57704 6.63596 8.58036 6.63928 8.58368 6.6426C8.58701 6.64592 8.59033 6.64925 8.59366 6.65258C8.59699 6.65591 8.60033 6.65924 8.60366 6.66258C8.607 6.66592 8.61034 6.66926 8.61368 6.6726C8.61703 6.67594 8.62037 6.67929 8.62372 6.68264C8.62707 6.68599 8.63042 6.68934 8.63378 6.69269C8.63713 6.69605 8.64049 6.69941 8.64385 6.70277C8.64721 6.70613 8.65058 6.7095 8.65395 6.71286C8.65731 6.71623 8.66068 6.7196 8.66406 6.72297C8.66743 6.72635 8.67081 6.72972 8.67419 6.7331C8.67757 6.73648 8.68095 6.73987 8.68433 6.74325C8.68772 6.74664 8.69111 6.75003 8.6945 6.75342C8.69789 6.75681 8.70129 6.7602 8.70468 6.7636C8.70808 6.767 8.71148 6.7704 8.71488 6.7738C8.71829 6.7772 8.72169 6.78061 8.7251 6.78402C8.72851 6.78743 8.73192 6.79084 8.73534 6.79425C8.73875 6.79767 8.74217 6.80108 8.74559 6.8045C8.74901 6.80792 8.75243 6.81135 8.75585 6.81477C8.75928 6.8182 8.76271 6.82162 8.76614 6.82506C8.76957 6.82849 8.773 6.83192 8.77644 6.83536C8.77988 6.83879 8.78332 6.84223 8.78676 6.84567C8.7902 6.84912 8.79364 6.85256 8.79709 6.85601C8.80054 6.85946 8.80399 6.86291 8.80744 6.86636C8.81089 6.86981 8.81435 6.87327 8.81781 6.87672C8.82126 6.88018 8.82473 6.88364 8.82819 6.8871C8.83165 6.89057 8.83512 6.89403 8.83859 6.8975C8.84205 6.90097 8.84552 6.90444 8.849 6.90791C8.85247 6.91139 8.85595 6.91486 8.85942 6.91834C8.8629 6.92182 8.86638 6.9253 8.86987 6.92878C8.87335 6.93227 8.87684 6.93575 8.88032 6.93924C8.88381 6.94273 8.8873 6.94622 8.8908 6.94971C8.89429 6.95321 8.89778 6.9567 8.90128 6.9602C8.90478 6.9637 8.90828 6.9672 8.91178 6.9707C8.91529 6.9742 8.91879 6.97771 8.9223 6.98121C8.92581 6.98472 8.92932 6.98823 8.93283 6.99174C8.93634 6.99526 8.93985 6.99877 8.94337 7.00229C8.94689 7.0058 8.95041 7.00932 8.95393 7.01284C8.95745 7.01637 8.96097 7.01989 8.9645 7.02341C8.96802 7.02694 8.97155 7.03047 8.97508 7.034C8.97861 7.03753 8.98215 7.04106 8.98568 7.0446C8.98921 7.04813 8.99275 7.05167 8.99629 7.05521C8.99983 7.05875 9.00337 7.06229 9.00691 7.06583C9.01046 7.06937 9.014 7.07292 9.01755 7.07647C9.0211 7.08001 9.02465 7.08356 9.0282 7.08712C9.03175 7.09067 9.03531 7.09422 9.03886 7.09778C9.04242 7.10133 9.04598 7.10489 9.04954 7.10845C9.0531 7.11201 9.05666 7.11557 9.06022 7.11914C9.06379 7.1227 9.06735 7.12627 9.07092 7.12984C9.07449 7.1334 9.07806 7.13697 9.08163 7.14055C9.0852 7.14412 9.08878 7.14769 9.09235 7.15127C9.09593 7.15484 9.09951 7.15842 9.10309 7.162C9.10667 7.16558 9.11025 7.16916 9.11383 7.17275C9.11741 7.17633 9.121 7.17992 9.12459 7.1835C9.12817 7.18709 9.13176 7.19068 9.13535 7.19427C9.13894 7.19786 9.14254 7.20145 9.14613 7.20505C9.14973 7.20864 9.15332 7.21224 9.15692 7.21584C9.16052 7.21944 9.16412 7.22304 9.16772 7.22664C9.17132 7.23024 9.17493 7.23384 9.17853 7.23745C9.18214 7.24105 9.18574 7.24466 9.18935 7.24827C9.19296 7.25188 9.19657 7.25549 9.20018 7.2591C9.20379 7.26271 9.20741 7.26632 9.21102 7.26994C9.21464 7.27355 9.21825 7.27717 9.22187 7.28079C9.22549 7.28441 9.22911 7.28803 9.23273 7.29165C9.23636 7.29527 9.23998 7.29889 9.2436 7.30252C9.24723 7.30614 9.25085 7.30977 9.25448 7.3134C9.25811 7.31703 9.26174 7.32066 9.26537 7.32429C9.269 7.32792 9.27263 7.33155 9.27627 7.33518C9.2799 7.33882 9.28354 7.34245 9.28717 7.34609C9.29081 7.34973 9.29445 7.35337 9.29809 7.35701C9.30173 7.36065 9.30537 7.36429 9.30901 7.36793C9.31266 7.37157 9.3163 7.37522 9.31995 7.37886C9.32359 7.38251 9.32724 7.38615 9.33089 7.3898C9.33453 7.39345 9.33818 7.3971 9.34183 7.40075C9.34549 7.4044 9.34914 7.40805 9.35279 7.41171C9.35644 7.41536 9.3601 7.41902 9.36376 7.42267C9.36741 7.42633 9.37107 7.42999 9.37473 7.43364C9.37839 7.4373 9.38205 7.44096 9.38571 7.44462C9.38937 7.44828 9.39303 7.45195 9.39669 7.45561C9.40036 7.45927 9.40402 7.46294 9.40769 7.4666C9.41135 7.47027 9.41502 7.47394 9.41869 7.47761C9.42236 7.48127 9.42603 7.48494 9.4297 7.48861C9.43337 7.49228 9.43704 7.49596 9.44071 7.49963C9.44438 7.5033 9.44806 7.50697 9.45173 7.51065C9.45541 7.51432 9.45908 7.518 9.46276 7.52168C9.46644 7.52535 9.47012 7.52903 9.47379 7.53271C9.47747 7.53639 9.48115 7.54007 9.48483 7.54375C9.48852 7.54743 9.4922 7.55111 9.49588 7.5548C9.49956 7.55848 9.50325 7.56216 9.50693 7.56585C9.51062 7.56953 9.5143 7.57322 9.51799 7.57691C9.52168 7.58059 9.52536 7.58428 9.52905 7.58797C9.53274 7.59166 9.53643 7.59535 9.54012 7.59904C9.54381 7.60273 9.5475 7.60642 9.55119 7.61011C9.55488 7.6138 9.55858 7.61749 9.56227 7.62119C9.56596 7.62488 9.56966 7.62857 9.57335 7.63227C9.57705 7.63597 9.58074 7.63966 9.58444 7.64336C9.58814 7.64705 9.59184 7.65075 9.59553 7.65445C9.59923 7.65815 9.60293 7.66185 9.60663 7.66555C9.61033 7.66925 9.61403 7.67295 9.61773 7.67665C9.62143 7.68035 9.62513 7.68405 9.62883 7.68775C9.63254 7.69145 9.63624 7.69516 9.63994 7.69886C9.64365 7.70256 9.64735 7.70627 9.65106 7.70997C9.65476 7.71368 9.65847 7.71738 9.66217 7.72109C9.66588 7.72479 9.66958 7.7285 9.67329 7.73221C9.677 7.73591 9.68071 7.73962 9.68441 7.74333C9.68812 7.74704 9.69183 7.75075 9.69554 7.75446C9.69925 7.75816 9.70296 7.76187 9.70667 7.76558C9.71038 7.76929 9.71409 7.773 9.7178 7.77671C9.72151 7.78043 9.72522 7.78414 9.72893 7.78785C9.73264 7.79156 9.73636 7.79527 9.74007 7.79899C9.74378 7.8027 9.74749 7.80641 9.75121 7.81012C9.75492 7.81384 9.75863 7.81755 9.76235 7.82126C9.76606 7.82498 9.76978 7.82869 9.77349 7.83241C9.77721 7.83612 9.78092 7.83984 9.78464 7.84355C9.78835 7.84727 9.79207 7.85098 9.79578 7.8547C9.7995 7.85841 9.80321 7.86213 9.80693 7.86585C9.81065 7.86956 9.81436 7.87328 9.81808 7.877C9.8218 7.88071 9.82551 7.88443 9.82923 7.88815C9.83295 7.89186 9.83666 7.89558 9.84038 7.8993C9.8441 7.90302 9.84782 7.90673 9.85153 7.91045C9.85525 7.91417 9.85897 7.91789 9.86269 7.9216C9.8664 7.92532 9.87012 7.92904 9.87384 7.93276C9.87756 7.93648 9.88128 7.94019 9.88499 7.94391C9.88871 7.94763 9.89243 7.95135 9.89615 7.95507C9.89987 7.95878 9.90359 7.9625 9.9073 7.96622C9.91102 7.96994 9.91474 7.97366 9.91846 7.97737C9.92218 7.98109 9.92589 7.98481 9.92961 7.98853C9.93333 7.99225 9.93705 7.99596 9.94077 7.99968C9.94448 8.0034 9.9482 8.00712 9.95192 8.01084C9.95564 8.01455 9.95935 8.01827 9.96307 8.02199C9.96679 8.02571 9.97051 8.02942 9.97422 8.03314C9.97794 8.03686 9.98166 8.04057 9.98537 8.04429C9.98909 8.04801 9.99281 8.05172 9.99652 8.05544C10.0002 8.05916 10.004 8.06287 10.0077 8.06659C10.0114 8.07031 10.0151 8.07402 10.0188 8.07774C10.0225 8.08145 10.0263 8.08517 10.03 8.08888C10.0337 8.0926 10.0374 8.09631 10.0411 8.10003C10.0448 8.10374 10.0485 8.10745 10.0523 8.11117C10.056 8.11488 10.0597 8.11859 10.0634 8.12231C10.0671 8.12602 10.0708 8.12973 10.0745 8.13344C10.0782 8.13716 10.082 8.14087 10.0857 8.14458C10.0894 8.14829 10.0931 8.152 10.0968 8.15571C10.1005 8.15942 10.1042 8.16313 10.1079 8.16684C10.1116 8.17055 10.1153 8.17426 10.1191 8.17797C10.1228 8.18168 10.1265 8.18538 10.1302 8.18909C10.1339 8.1928 10.1376 8.1965 10.1413 8.20021C10.145 8.20392 10.1487 8.20762 10.1524 8.21133C10.1561 8.21503 10.1598 8.21874 10.1635 8.22244C10.1672 8.22615 10.1709 8.22985 10.1746 8.23355C10.1783 8.23725 10.182 8.24096 10.1857 8.24466C10.1894 8.24836 10.1931 8.25206 10.1968 8.25576C10.2005 8.25946 10.2042 8.26316 10.2079 8.26686C10.2116 8.27056 10.2153 8.27425 10.219 8.27795C10.2227 8.28165 10.2264 8.28534 10.2301 8.28904C10.2338 8.29274 10.2375 8.29643 10.2412 8.30012C10.2449 8.30382 10.2486 8.30751 10.2523 8.3112C10.256 8.3149 10.2597 8.31859 10.2634 8.32228C10.2671 8.32597 10.2707 8.32966 10.2744 8.33335C10.2781 8.33704 10.2818 8.34073 10.2855 8.34441C10.2892 8.3481 10.2929 8.35179 10.2966 8.35547C10.3002 8.35916 10.3039 8.36284 10.3076 8.36653C10.3113 8.37021 10.315 8.37389 10.3187 8.37757C10.3223 8.38126 10.326 8.38494 10.3297 8.38862C10.3334 8.3923 10.3371 8.39597 10.3407 8.39965C10.3444 8.40333 10.3481 8.40701 10.3518 8.41068C10.3554 8.41436 10.3591 8.41803 10.3628 8.42171C10.3665 8.42538 10.3701 8.42905 10.3738 8.43272C10.3775 8.43639 10.3811 8.44006 10.3848 8.44373C10.3885 8.4474 10.3922 8.45107 10.3958 8.45474C10.3995 8.4584 10.4032 8.46207 10.4068 8.46573C10.4105 8.4694 10.4141 8.47306 10.4178 8.47672C10.4215 8.48038 10.4251 8.48405 10.4288 8.48771C10.4324 8.49136 10.4361 8.49502 10.4398 8.49868C10.4434 8.50234 10.4471 8.50599 10.4507 8.50965C10.4544 8.5133 10.458 8.51695 10.4617 8.52061C10.4653 8.52426 10.469 8.52791 10.4726 8.53156C10.4763 8.53521 10.4799 8.53885 10.4836 8.5425C10.4872 8.54615 10.4909 8.54979 10.4945 8.55344C10.4982 8.55708 10.5018 8.56072 10.5054 8.56436C10.5091 8.568 10.5127 8.57164 10.5164 8.57528C10.52 8.57892 10.5236 8.58256 10.5273 8.58619C10.5309 8.58983 10.5345 8.59346 10.5382 8.59709C10.5418 8.60072 10.5454 8.60435 10.5491 8.60798C10.5527 8.61161 10.5563 8.61524 10.5599 8.61887C10.5636 8.62249 10.5672 8.62612 10.5708 8.62974C10.5744 8.63336 10.5781 8.63698 10.5817 8.6406C10.5853 8.64422 10.5889 8.64784 10.5925 8.65146C10.5962 8.65507 10.5998 8.65869 10.6034 8.6623C10.607 8.66591 10.6106 8.66953 10.6142 8.67314C10.6178 8.67674 10.6214 8.68035 10.625 8.68396C10.6286 8.68757 10.6323 8.69117 10.6359 8.69477C10.6395 8.69838 10.6431 8.70198 10.6467 8.70558C10.6503 8.70918 10.6539 8.71277 10.6575 8.71637C10.661 8.71997 10.6646 8.72356 10.6682 8.72715C10.6718 8.73074 10.6754 8.73433 10.679 8.73792C10.6826 8.74151 10.6862 8.7451 10.6898 8.74868C10.6934 8.75227 10.6969 8.75585 10.7005 8.75943C10.7041 8.76301 10.7077 8.76659 10.7113 8.77017C10.7148 8.77375 10.7184 8.77732 10.722 8.7809C10.7256 8.78447 10.7291 8.78804 10.7327 8.79161C10.7363 8.79518 10.7398 8.79875 10.7434 8.80231C10.747 8.80588 10.7505 8.80944 10.7541 8.813C10.7576 8.81656 10.7612 8.82012 10.7648 8.82368C10.7683 8.82724 10.7719 8.83079 10.7754 8.83435C10.779 8.8379 10.7825 8.84145 10.7861 8.845C10.7896 8.84855 10.7932 8.8521 10.7967 8.85564C10.8003 8.85919 10.8038 8.86273 10.8074 8.86627C10.8109 8.86981 10.8144 8.87335 10.818 8.87689C10.8215 8.88042 10.825 8.88396 10.8286 8.88749C10.8321 8.89102 10.8356 8.89455 10.8392 8.89808C10.8427 8.9016 10.8462 8.90513 10.8497 8.90865C10.8533 8.91218 10.8568 8.9157 10.8603 8.91921C10.8638 8.92273 10.8673 8.92625 10.8708 8.92976C10.8744 8.93328 10.8779 8.93679 10.8814 8.9403C10.8849 8.94381 10.8884 8.94731 10.8919 8.95082C10.8954 8.95432 10.8989 8.95782 10.9024 8.96132C10.9059 8.96482 10.9094 8.96832 10.9129 8.97182C10.9164 8.97531 10.9199 8.9788 10.9234 8.98229C10.9269 8.98578 10.9304 8.98927 10.9338 8.99275C10.9373 8.99624 10.9408 8.99972 10.9443 9.0032C10.9478 9.00668 10.9512 9.01016 10.9547 9.01364C10.9582 9.01711 10.9617 9.02058 10.9651 9.02405C10.9686 9.02752 10.9721 9.03099 10.9755 9.03445C10.979 9.03792 10.9825 9.04138 10.9859 9.04484C10.9894 9.0483 10.9928 9.05176 10.9963 9.05521C10.9998 9.05867 11.0032 9.06212 11.0067 9.06557C11.0101 9.06902 11.0135 9.07246 11.017 9.07591C11.0204 9.07935 11.0239 9.08279 11.0273 9.08623C11.0308 9.08967 11.0342 9.09311 11.0376 9.09654C11.0411 9.09997 11.0445 9.1034 11.0479 9.10683C11.0513 9.11026 11.0548 9.11368 11.0582 9.1171C11.0616 9.12053 11.065 9.12394 11.0684 9.12736C11.0719 9.13078 11.0753 9.13419 11.0787 9.1376C11.0821 9.14101 11.0855 9.14442 11.0889 9.14782C11.0923 9.15123 11.0957 9.15463 11.0991 9.15803C11.1025 9.16143 11.1059 9.16483 11.1093 9.16822C11.1127 9.17161 11.1161 9.175 11.1195 9.17839C11.1229 9.18178 11.1262 9.18516 11.1296 9.18855C11.133 9.19193 11.1364 9.19531 11.1398 9.19868C11.1431 9.20206 11.1465 9.20543 11.1499 9.2088C11.1533 9.21217 11.1566 9.21554 11.16 9.2189C11.1633 9.22226 11.1667 9.22562 11.1701 9.22898C11.1734 9.23234 11.1768 9.23569 11.1801 9.23904C11.1835 9.2424 11.1868 9.24574 11.1902 9.24909C11.1935 9.25243 11.1969 9.25578 11.2002 9.25911C11.2035 9.26245 11.2069 9.26579 11.2102 9.26912C11.2135 9.27245 11.2169 9.27578 11.2202 9.27911C11.2235 9.28244 11.2268 9.28576 11.2302 9.28908C11.2335 9.2924 11.2368 9.29571 11.2401 9.29903C11.2434 9.30234 11.2467 9.30565 11.25 9.30896C11.2533 9.31226 11.2567 9.31557 11.26 9.31887C11.2633 9.32217 11.2665 9.32546 11.2698 9.32876C11.2731 9.33205 11.2764 9.33534 11.2797 9.33863C11.283 9.34191 11.2863 9.3452 11.2896 9.34848C11.2928 9.35176 11.2961 9.35503 11.2994 9.35831C11.3027 9.36158 11.3059 9.36485 11.3092 9.36812C11.3125 9.37138 11.3157 9.37464 11.319 9.3779C11.3222 9.38116 11.3255 9.38442 11.3288 9.38767C11.332 9.39092 11.3353 9.39417 11.3385 9.39742C11.3417 9.40066 11.345 9.40391 11.3482 9.40714L11.9486 8.80672ZM7.10261 4.56111L2.857 8.80672L3.45742 9.40714L7.70303 5.16153L7.10261 4.56111Z" fill="#5C9DFF"/>
</svg>
