<svg width="18" height="20" viewBox="0 0 18 20" fill="none" xmlns="http://www.w3.org/2000/svg">
<path d="M11.8303 0.314923C11.4428 0.314923 11.1287 0.629075 11.1287 1.0166C11.1287 1.40413 11.4428 1.71828 11.8303 1.71828V0.314923ZM16.5082 1.0166H17.2099C17.2099 0.629075 16.8957 0.314923 16.5082 0.314923V1.0166ZM16.5082 14.1146V14.8163C16.8957 14.8163 17.2099 14.5021 17.2099 14.1146H16.5082ZM1.0429 13.6184C0.768879 13.8925 0.768879 14.3367 1.0429 14.6108L5.50835 19.0762C5.78238 19.3502 6.22665 19.3502 6.50068 19.0762C6.7747 18.8022 6.7747 18.3579 6.50068 18.0839L2.53139 14.1146L6.50068 10.1453C6.7747 9.87128 6.7747 9.427 6.50068 9.15298C6.22665 8.87896 5.78238 8.87896 5.50835 9.15298L1.0429 13.6184ZM11.8303 1.71828H16.5082V0.314923H11.8303V1.71828ZM15.8065 1.0166V14.1146H17.2099V1.0166H15.8065ZM16.5082 13.4129H1.53906V14.8163H16.5082V13.4129Z" fill="#C4C4C4"/>
</svg>
