<svg width="44" height="40" viewBox="0 0 44 40" fill="none" xmlns="http://www.w3.org/2000/svg">
<path d="M42.7212 5.31855C41.4493 4.05259 40.1863 2.77778 38.9115 1.51477C38.736 1.34256 38.5373 1.19558 38.3213 1.07802C38.0081 0.900545 37.6409 0.843683 37.2887 0.918144C36.9365 0.992604 36.6237 1.19325 36.4091 1.48231C36.1829 1.76192 36.0652 2.11378 36.0777 2.47322C36.0901 2.83266 36.2319 3.17553 36.477 3.43879C36.682 3.68415 36.906 3.91306 37.1468 4.12341C37.5216 4.41851 37.4419 4.65459 37.1203 4.94378C36.6983 5.31855 36.3206 5.74054 35.9163 6.12417C35.1195 6.89732 35.3438 6.90322 34.5441 6.08875C33.4995 5.01756 32.8266 5.0087 31.7643 6.074C27.6772 10.1522 23.6078 14.2482 19.5001 18.3028C18.7092 19.0907 18.1279 19.8373 18.8863 21.0118C16.741 20.5898 15.0294 20.9675 14.0202 23.0509C13.7049 22.5472 13.359 22.0633 12.9844 21.6019C12.731 21.2986 12.4075 21.0616 12.0419 20.9115C11.6764 20.7613 11.2797 20.7026 10.8863 20.7403C10.1043 20.7727 9.24847 20.8229 8.62877 21.3039C7.50446 22.1892 6.5631 21.8941 5.45649 21.2537C4.06954 20.454 2.15437 20.7786 1.09793 21.7613C0.0414819 22.744 -0.294927 24.6886 0.274608 26.1435C0.628723 27.0465 1.37236 27.495 2.15732 27.914C2.55865 28.1295 2.66488 28.2741 2.20749 28.5957C1.23367 29.2774 0.811682 30.2483 0.826437 31.4493C0.852996 33.6124 0.826437 35.7754 0.826437 37.9414C0.826437 39.1218 0.850045 39.1365 2.03043 39.1365H39.8647C40.8769 39.1365 40.9742 39.0392 40.9742 38.0594C40.9742 36.0912 40.93 34.1258 40.989 32.1575C41.0392 30.5522 40.6939 29.18 39.1948 28.3213C39.2627 28.218 39.2892 28.1413 39.3453 28.1029C39.4977 27.9819 39.663 27.878 39.8381 27.7931C41.11 27.2471 41.6293 26.2054 41.8123 24.9041C42.0602 23.101 40.5345 20.7255 38.7433 20.7314C37.5579 20.7255 36.3978 21.0738 35.4117 21.7318C35.2247 21.8872 34.991 21.9752 34.7479 21.9816C34.5049 21.988 34.2668 21.9125 34.0719 21.7672C32.7204 20.9085 31.2744 20.5219 29.5068 21.1918C29.8403 20.8376 30.0203 20.6399 30.2091 20.4481C32.924 17.7096 35.6418 14.9702 38.3626 12.2297C39.0827 11.5038 39.124 10.7867 38.5456 10.0725C38.218 9.66827 37.4803 9.39973 37.5806 8.90692C37.6721 8.46428 38.2741 8.12196 38.6518 7.72654L38.7049 7.67342C39.6729 6.7055 39.6729 6.7055 40.7057 7.63801C40.7971 7.72414 40.8958 7.80214 41.0008 7.87113C41.208 8.01657 41.4486 8.10728 41.7002 8.13483C41.9519 8.16238 42.2064 8.12588 42.4402 8.02873C42.674 7.93157 42.8794 7.77691 43.0374 7.5791C43.1953 7.3813 43.3008 7.14678 43.3439 6.89732C43.3831 6.60292 43.3465 6.30338 43.2375 6.02709C43.1285 5.7508 42.9508 5.50692 42.7212 5.31855ZM19.3614 22.139C19.5473 21.9826 19.6919 21.7406 19.9516 22.0151C20.71 22.7823 21.4772 23.5407 22.2356 24.308C22.3034 24.3885 22.3646 24.4744 22.4186 24.5647C22.2731 24.7344 22.1185 24.8959 21.9553 25.0487C21.7635 25.2198 21.6602 25.028 21.5333 24.9159C20.8015 24.1929 20.0785 23.4581 19.3437 22.7381C19.1312 22.5079 19.1165 22.3338 19.3614 22.139ZM24.198 29.8823C24.3291 30.9565 24.2284 32.0462 23.9029 33.0782C23.7987 33.4686 23.5846 33.8209 23.2862 34.0934C23.2449 33.2405 23.18 32.4821 23.1711 31.7326C23.1428 30.5464 22.748 29.398 22.0409 28.4452C21.9266 28.2533 21.765 28.094 21.5715 27.9825C21.378 27.871 21.1591 27.8111 20.9358 27.8084C20.7125 27.8057 20.4923 27.8604 20.2962 27.9673C20.1001 28.0742 19.9347 28.2296 19.8159 28.4187C19.0445 29.4088 18.6148 30.6223 18.5912 31.8772C18.5912 32.5884 18.5912 33.2995 18.5912 34.1258C18.1029 33.7101 17.7872 33.1271 17.7059 32.491C17.5104 31.4773 17.4588 30.4412 17.5525 29.4131C17.6014 28.8829 17.5676 28.3483 17.4521 27.8285C17.3193 27.2176 18.0423 26.9432 18.4112 26.5773C18.7063 26.2822 18.8745 26.7042 19.0309 26.8724C19.4735 27.3268 19.866 27.3091 20.2792 26.8517C20.4769 26.6333 20.6982 26.4386 20.9018 26.2261C21.0405 26.0786 21.1644 26.0166 21.3238 26.1966C21.7517 26.6776 22.1058 26.4297 22.4275 26.0667C22.8435 25.5975 23.2183 25.1815 23.9443 25.6271C24.4046 25.9015 24.9004 25.6477 25.2869 25.2995C25.6735 24.9513 26.0689 24.5559 26.4673 24.187C26.5677 24.0955 26.6503 23.9303 26.8273 24.0099C27.0044 24.0896 26.9365 24.2194 26.9336 24.3345C26.9336 25.3054 26.7713 26.2556 25.7827 26.6953C24.3515 27.3357 24.021 28.4452 24.198 29.8823ZM18.3964 24.4998C18.5292 24.2696 18.6915 24.0689 19.0073 23.6617C19.4057 24.1486 19.6742 24.485 19.9575 24.8096C20.1523 25.0369 20.471 25.1815 20.0696 25.5503C19.7185 25.8749 19.4794 25.9044 19.1844 25.5267C19.0191 25.3202 18.7948 25.1579 18.6266 24.9365C18.5322 24.8185 18.2489 24.7447 18.3964 24.4998ZM17.5908 21.9177C17.8151 21.9177 17.9036 21.9679 17.8299 22.2128C17.7974 22.322 17.7738 22.5079 17.8299 22.5669C18.4968 23.2397 17.8476 23.5673 17.461 23.9155C16.9711 24.3552 16.8206 24.7742 17.4108 25.2228C17.8151 25.5179 17.7767 25.7864 17.3961 26.0579C17.3754 26.0579 17.3636 26.0963 17.343 26.111C16.98 26.353 16.8059 26.9963 16.2806 26.8488C15.9465 26.7577 15.6443 26.5752 15.4082 26.3218C15.172 26.0685 15.0112 25.7543 14.9438 25.4146C14.8878 25.1519 14.8582 24.8864 14.8464 24.8067C14.8464 22.8797 15.8734 21.8734 17.5908 21.9147V21.9177ZM2.47012 26.8606C1.21006 26.1907 0.796927 25.1608 1.12743 23.8004C1.52286 22.1685 2.5734 21.8203 4.30267 22.0062C5.24402 22.1066 5.99652 22.7558 6.82869 23.166C7.46893 23.5333 8.19458 23.7257 8.93272 23.7237C9.28389 23.703 9.73833 23.7237 9.72063 23.1719C9.70292 22.62 9.31635 22.6377 8.92682 22.6466C8.82944 22.6466 8.73206 22.6466 8.4163 22.6112C9.4816 21.9206 10.482 21.6078 11.4971 21.9147C12.4591 22.2098 12.9726 23.0332 13.0906 24.0247C13.247 25.2641 12.949 26.2645 11.7007 26.896C10.4525 27.5275 10.2872 28.1 10.3934 29.4692C10.5203 31.0775 10.5617 32.7153 9.45209 34.2616C9.3429 33.0281 9.51111 31.9451 9.29569 30.8768C9.12903 30.0581 8.80318 29.28 8.33663 28.5869C7.6402 27.5452 6.58966 27.5393 5.89323 28.5692C5.17488 29.5457 4.79465 30.7299 4.81023 31.9421C4.83679 32.6415 4.81023 33.3409 4.81023 34.2114C4.35327 33.7854 4.0433 33.2254 3.92494 32.612C3.69166 31.5062 3.64479 30.3691 3.78625 29.2479C3.91609 28.1354 3.44984 27.3917 2.47012 26.8606ZM39.9148 31.2339C39.9414 33.3468 39.9148 35.4626 39.9325 37.5755C39.9325 37.9621 39.7998 38.1185 39.4191 38.0801C39.2716 38.0727 39.1239 38.0727 38.9764 38.0801H2.84784C1.75304 38.0801 1.88878 38.207 1.88288 37.0797C1.88288 35.1646 1.88288 33.2435 1.88288 31.3313C1.86834 31.002 1.9328 30.674 2.0709 30.3747C2.209 30.0754 2.41671 29.8135 2.67669 29.6108C2.67669 31.0185 2.62652 32.3198 3.08097 33.571C3.28541 34.1267 3.60985 34.6305 4.03118 35.0465C4.18791 35.206 4.39122 35.3117 4.61182 35.3482C4.83242 35.3848 5.05894 35.3505 5.25878 35.2501C5.45495 35.1709 5.6193 35.0289 5.7261 34.8462C5.8329 34.6636 5.87611 34.4507 5.84897 34.2409C5.81061 32.9897 5.77224 31.7355 6.14406 30.5168C6.33293 29.9089 6.49228 29 7.05001 28.9587C7.68446 28.9115 7.82906 29.844 8.05924 30.4076C8.52844 31.5585 8.35433 32.7684 8.35433 33.9783C8.35433 34.5685 8.37204 35.1291 9.06847 35.3387C9.76489 35.5482 10.1013 35.1114 10.4643 34.6511C11.205 33.7127 11.4086 32.6149 11.444 31.47C11.4705 30.6614 11.4853 29.8469 11.444 29.0413C11.4013 28.8 11.4425 28.5514 11.5606 28.3367C11.6786 28.122 11.8666 27.9541 12.0932 27.8609C12.8959 27.4655 13.6306 26.9756 13.9494 25.9192C14.3772 26.6953 14.7727 27.2914 15.4543 27.6455C15.8055 27.8285 15.4543 28.0114 15.3245 28.1354C14.3241 29.1505 13.3119 30.1538 12.3057 31.1631C12.1817 31.284 12.0607 31.405 11.9427 31.5319C11.7096 31.7739 11.6299 32.066 11.8748 32.3169C12.1198 32.5677 12.4385 32.5293 12.7099 32.2549C13.7841 31.1709 14.8661 30.0948 15.956 29.0266C16.1213 28.8613 16.2511 28.6252 16.5669 28.5751C16.486 29.8188 16.5028 31.0669 16.617 32.308C16.7251 33.2883 17.125 34.2135 17.7649 34.9639C17.9135 35.1481 18.1195 35.2772 18.35 35.3307C18.5805 35.3841 18.8223 35.3589 19.0368 35.259C19.4854 35.1055 19.627 34.7219 19.627 34.2586C19.627 33.2287 19.5414 32.1929 19.7214 31.169C19.8629 30.4776 20.1289 29.8176 20.5064 29.2213C20.8015 28.7433 21.008 28.8229 21.3002 29.242C22.1855 30.5168 22.156 31.9687 22.1648 33.4205C22.1648 33.7156 22.1206 34.0107 22.1353 34.3058C22.1302 34.5416 22.2029 34.7725 22.3421 34.9629C22.4813 35.1533 22.6793 35.2926 22.9055 35.3593C23.1058 35.4246 23.322 35.4228 23.5212 35.3541C23.7204 35.2854 23.8917 35.1536 24.0092 34.9786C24.6495 34.238 25.1305 33.3969 25.1718 32.4084C25.222 31.228 25.4404 30.0476 25.2279 28.8672C25.1276 28.3183 25.4965 28.0498 25.9066 27.8521C26.3517 27.6696 26.7521 27.3932 27.0806 27.0418C27.4091 26.6904 27.6579 26.2723 27.81 25.8159C28.1494 27.0199 28.9904 27.4921 29.8403 27.9347C30.0274 28.0265 30.1803 28.1756 30.2769 28.3602C30.3735 28.5449 30.4087 28.7556 30.3773 28.9616C30.3449 29.9679 30.3596 30.9771 30.3773 31.9834C30.4091 33.0228 30.7848 34.0223 31.4456 34.8252C31.5857 35.0455 31.7979 35.2104 32.046 35.2916C32.2941 35.3729 32.5627 35.3655 32.806 35.2708C33.3194 35.0967 33.4375 34.6599 33.4581 34.1494C33.5024 33.0487 33.3253 31.9362 33.5998 30.8473C33.764 30.2287 34.0367 29.6442 34.4054 29.121C34.6149 28.8259 34.8215 28.8111 35.0251 29.121C35.5844 29.8755 35.9106 30.7772 35.9635 31.7149C35.9812 32.55 35.9871 33.3881 35.9635 34.2232C35.9635 34.7455 36.1288 35.135 36.6363 35.3239C36.8569 35.4084 37.0994 35.4165 37.3252 35.347C37.5509 35.2774 37.7468 35.1342 37.8816 34.9403C38.5806 34.1679 38.9904 33.1773 39.0414 32.1369C39.065 31.3578 39.0414 30.5788 39.0414 29.6404C39.3159 29.8053 39.5415 30.0405 39.695 30.3216C39.8486 30.6027 39.9244 30.9196 39.9148 31.2398V31.2339ZM32.5374 22.1774C33.166 22.4548 33.7591 22.8118 34.37 23.1246C35.0459 23.5315 35.8241 23.7363 36.6127 23.7148C36.9934 23.6824 37.4124 23.6145 37.3682 23.1246C37.3298 22.6968 36.9521 22.6377 36.5832 22.6554C36.4622 22.6554 36.3412 22.6554 36.0668 22.6554C37.5128 21.6049 39.3955 21.4514 40.2719 22.8236C41.1483 24.1958 40.7677 26.1081 39.3866 26.8163C38.342 27.3504 37.8492 28.0763 38.0026 29.2921C38.1363 30.3418 38.0984 31.4062 37.8905 32.4438C37.7826 33.0838 37.4723 33.6723 37.0052 34.1229C37.0052 33.3763 36.9904 32.6297 37.0052 31.8831C37.0094 30.645 36.6037 29.4403 35.8514 28.457C35.2405 27.5717 34.2018 27.5717 33.5821 28.457C32.8195 29.4331 32.4041 30.6356 32.4017 31.8742C32.4194 32.6002 32.4017 33.3232 32.4017 34.235C31.602 33.3733 31.4515 32.491 31.3984 31.5998C31.3433 30.7909 31.3502 29.979 31.419 29.1712C31.5164 28.0645 31.0826 27.253 30.0822 26.8871C28.7071 26.3825 28.2822 24.7005 28.9284 23.2663C29.4802 22.0475 31.1062 21.5488 32.5492 22.1833L32.5374 22.1774ZM37.5836 10.6067C37.9347 10.949 37.8964 11.1969 37.5659 11.5244C33.289 15.7994 29.0169 20.0773 24.7499 24.3581C24.4076 24.7005 24.1597 24.6945 23.838 24.3581C22.5278 23.0243 21.2058 21.7033 19.8719 20.395C19.5001 20.0291 19.5237 19.7546 19.8955 19.4212C20.4238 18.9431 20.89 18.111 21.4477 18.049C21.8992 18.0018 22.4511 18.8694 22.9557 19.3356C23.2508 19.6012 23.5459 20.0114 23.9265 19.5776C24.2482 19.2117 23.9915 18.8487 23.6787 18.5595C23.3931 18.2537 23.0917 17.9631 22.7757 17.689C22.2091 17.2699 22.2976 16.9571 22.7757 16.5086C23.1239 16.1869 23.3275 16.1958 23.5872 16.544C23.6314 16.603 23.6964 16.6443 23.7436 16.6975C23.9885 16.9925 24.2748 17.084 24.5699 16.8096C24.6348 16.7592 24.6862 16.6935 24.7195 16.6183C24.7528 16.5431 24.7668 16.4609 24.7604 16.3789C24.7539 16.297 24.7272 16.2179 24.6826 16.1489C24.638 16.0798 24.577 16.0229 24.5049 15.9833C23.8616 15.52 24.0416 15.1689 24.5492 14.7469C24.8118 14.5285 24.9623 14.4842 25.2102 14.7469C25.6499 15.2102 26.1221 15.6322 26.5736 16.0925C26.6508 16.1901 26.76 16.2575 26.8819 16.2828C27.0037 16.3082 27.1307 16.2899 27.2405 16.2312C27.3307 16.1887 27.4057 16.1194 27.4553 16.0329C27.5049 15.9463 27.5268 15.8466 27.5179 15.7472C27.4776 15.5537 27.3737 15.3791 27.2228 15.2515C26.8362 14.8708 26.4555 14.4872 26.066 14.1154C25.8093 13.8704 25.526 13.6609 25.9804 13.3275C26.3139 13.0796 26.5411 12.4953 27.0457 13.1356C27.2995 13.4602 27.6802 13.7258 28.0343 13.3363C28.3884 12.9468 28.0874 12.5838 27.7392 12.3389C27.267 11.9966 27.5061 11.7634 27.8071 11.4949C28.1081 11.2264 28.2969 10.8427 28.7189 11.3651C29.0811 11.7666 29.4632 12.1498 29.8639 12.513C30.1383 12.8081 30.4246 13.0737 30.7875 12.6841C31.1505 12.2946 30.8377 12.0172 30.5692 11.7487C30.2032 11.3828 29.8639 10.9903 29.4684 10.6627C29.073 10.3352 29.1733 10.0725 29.5068 9.79221C29.8019 9.54433 30.0291 9.12234 30.4187 9.66532C30.4814 9.7409 30.5505 9.81099 30.6252 9.87483C30.8967 10.1345 31.1977 10.1876 31.4692 9.90729C31.5238 9.85471 31.5652 9.78997 31.59 9.71835C31.6148 9.64673 31.6223 9.57026 31.612 9.49518C31.6016 9.42009 31.5736 9.34852 31.5304 9.28629C31.4871 9.22406 31.4297 9.17294 31.363 9.13709C30.6577 8.65314 30.941 8.29017 31.4249 7.86818C31.8476 7.49708 32.2495 7.10303 32.6289 6.6878C32.9653 6.32483 33.2545 6.29237 33.6175 6.66124C34.9376 7.9872 36.2635 9.30432 37.5954 10.6126L37.5836 10.6067ZM38.6253 6.25106C38.0705 6.80584 37.5039 7.34881 36.9668 7.91835C36.713 8.18689 36.5478 8.13967 36.3117 7.89769C36.0756 7.65571 36.0432 7.48456 36.3117 7.23668C36.8813 6.69665 37.4242 6.13007 37.982 5.57824C38.1177 5.44544 38.2564 5.25068 38.4659 5.4602C38.6164 5.6107 38.8289 5.71693 38.8672 5.98547C38.7964 6.07695 38.7197 6.17138 38.6371 6.25696L38.6253 6.25106ZM42.2166 6.80879C42.1805 6.88761 42.125 6.956 42.0554 7.0076C41.9857 7.0592 41.9041 7.09232 41.8182 7.10388C41.591 7.10388 41.4729 6.93568 41.3372 6.80879C40.0329 5.50741 38.7315 4.20014 37.4242 2.90172C37.1823 2.66269 36.9757 2.38825 37.3003 2.08725C37.6249 1.78625 37.8905 2.01348 38.1207 2.25546C39.4033 3.54208 40.689 4.82869 41.9776 6.11531C42.1664 6.30417 42.3818 6.49894 42.2284 6.81469L42.2166 6.80879Z" fill="#448FFF"/>
</svg>
