<svg width="53" height="52" viewBox="0 0 53 52" fill="none" xmlns="http://www.w3.org/2000/svg">
<path d="M45.4554 21.0806C45.2153 21.0207 44.9928 20.9047 44.8061 20.7422C44.6194 20.5798 44.4739 20.3754 44.3813 20.1459C43.1387 17.4714 41.2889 15.1239 38.9792 13.2903C38.4424 12.8643 38.0591 12.4491 38.0091 11.7097C37.9543 11.1367 37.733 10.5922 37.3724 10.1435C37.0137 9.68 37.0473 9.25761 37.1841 8.72824C37.4751 7.60934 37.3771 6.42477 36.9062 5.36889C36.4354 4.31301 35.6196 3.44854 34.5928 2.91732C33.5659 2.3861 32.389 2.21968 31.2551 2.44537C30.1213 2.67107 29.0978 3.27546 28.3526 4.1594C27.8194 4.8244 27.2713 5.48103 26.7654 6.17002C26.7235 6.24979 26.6657 6.32009 26.5956 6.37658C26.5254 6.43306 26.4444 6.47452 26.3575 6.49839C26.2706 6.52225 26.1798 6.528 26.0906 6.5153C26.0014 6.50259 25.9158 6.47169 25.8391 6.42451C24.625 5.94361 23.216 5.73732 22.2083 6.49654C20.6351 7.65219 19.6668 6.88992 18.594 5.91359C18.4451 5.78142 18.2782 5.66893 18.1172 5.54875C16.4001 4.29893 13.8881 4.23938 12.2654 5.41199C10.3145 6.81821 9.42972 9.04624 10.2678 11.1659C10.7326 12.3751 11.1364 13.4888 10.7163 14.7708C10.6371 15.018 10.6386 15.2839 10.7206 15.5301C10.9132 16.0433 10.6828 16.3882 10.3911 16.7655C8.53192 19.202 7.28556 22.0497 6.75699 25.0685C6.72517 25.341 6.62832 25.6018 6.47462 25.8291C6.32092 26.0563 6.11486 26.2432 5.87381 26.3742C3.87277 27.6109 3.06113 29.5322 3.35958 31.7755C3.65803 34.0188 4.99944 35.5603 7.18725 36.2467C7.4533 36.3111 7.7005 36.437 7.9089 36.6145C8.1173 36.792 8.28105 37.0159 8.38695 37.2683C12.1571 45.0975 20.4185 49.5868 29.2964 48.4298L31.2148 48.0261C31.3574 48.0071 31.4999 47.9881 31.6341 47.9323C39.5194 45.4672 44.2886 40.1665 45.9957 32.0991C46.0187 31.8776 46.0966 31.6654 46.2223 31.4816C46.348 31.2978 46.5176 31.1483 46.7157 31.0466C47.656 30.5219 48.4161 29.7257 48.8967 28.7621C49.3773 27.7985 49.5561 26.7124 49.4096 25.6456C49.0537 23.3339 47.7197 21.7707 45.4554 21.0806ZM27.8595 7.09862C28.457 6.39744 28.9533 5.63717 29.5608 4.95884C30.5821 3.83515 31.8777 3.39684 33.3423 3.86514C34.8069 4.33343 35.7247 5.36492 35.9714 7.19372C36.0443 7.76748 35.9304 8.34944 35.6465 8.85336C35.3382 9.44354 35.4349 9.85895 35.8497 10.3806C36.1984 10.7979 36.4491 11.288 36.5835 11.815C36.7179 12.3419 36.7324 12.8923 36.6261 13.4256C36.5198 13.9589 36.2954 14.4616 35.9692 14.8968C35.6431 15.3319 35.2236 15.6885 34.7415 15.9402C34.1841 16.2702 33.5445 16.4353 32.8969 16.4163C32.2494 16.3973 31.6206 16.195 31.0834 15.8328C30.298 15.3294 29.5919 14.6946 28.8341 14.1392C28.7664 14.1033 28.7072 14.0532 28.6605 13.9924C28.6138 13.9316 28.5808 13.8614 28.5636 13.7867C28.5465 13.712 28.5456 13.6345 28.5611 13.5594C28.5766 13.4843 28.6081 13.4134 28.6534 13.3516C29.5852 11.3729 29.3443 9.53638 27.9255 7.88077C27.6528 7.59585 27.5999 7.40601 27.8595 7.09862ZM23.6268 7.57885C24.5824 7.45528 25.5483 7.71289 26.3156 8.29595C27.0828 8.87901 27.5897 9.74065 27.7265 10.6945C27.8475 11.6657 27.5797 12.6453 26.9814 13.4198C26.3831 14.1942 25.5028 14.7007 24.5326 14.8289C24.0527 14.9025 23.5629 14.8773 23.0931 14.755C22.6233 14.6327 22.1834 14.4158 21.8003 14.1175C21.4173 13.8193 21.0991 13.446 20.8653 13.0205C20.6316 12.595 20.4871 12.1263 20.4407 11.6431C20.3641 11.1643 20.3871 10.6749 20.5085 10.2054C20.6299 9.73601 20.847 9.29672 21.1461 8.91512C21.4452 8.53353 21.82 8.21786 22.2469 7.98791C22.6737 7.75796 23.1435 7.6187 23.6268 7.57885ZM12.2974 12.0391C11.0508 10.4573 11.1261 8.42682 12.4773 7.08309C13.8286 5.73936 15.7667 5.61278 17.4335 6.84855C17.5645 6.9589 17.7015 7.06174 17.8441 7.15659C19.0504 7.89065 19.9099 8.58795 19.1108 10.3176C18.457 11.7378 19.11 13.2189 20.1318 14.4093C20.4355 14.7453 20.4672 14.9829 20.1693 15.3403C19.6173 15.994 19.1538 16.7153 18.5936 17.3597C18.1458 17.9219 17.5351 18.3317 16.8451 18.5329C16.1552 18.7342 15.4199 18.717 14.7401 18.4837C14.0591 18.3101 13.4476 17.932 12.9879 17.4004C12.5281 16.8688 12.2422 16.2091 12.1686 15.5102C12.0314 14.8009 12.1408 14.0661 12.4787 13.4277C12.609 13.2095 12.662 12.9539 12.6291 12.7019C12.5962 12.45 12.4794 12.2165 12.2974 12.0391ZM45.6682 30.0013C45.3824 30.1125 45.1352 30.3046 44.9567 30.554C44.7783 30.8035 44.6764 31.0995 44.6635 31.406C43.6972 38.5251 38.2787 44.6306 31.3556 46.4876C30.4987 46.7191 29.6297 46.8589 28.8468 46.9976C24.8911 47.5413 20.8657 46.7856 17.3765 44.8442C13.8873 42.9028 11.1229 39.8807 9.49947 36.2327C9.3871 35.8902 9.1793 35.5869 8.90051 35.3585C8.62172 35.1301 8.28351 34.9859 7.92563 34.9431C7.12035 34.786 6.38528 34.3785 5.8254 33.7787C5.26552 33.179 4.90946 32.4177 4.80805 31.6035C4.56514 29.7776 5.32148 28.1677 6.92419 27.4157C7.26062 27.2808 7.55078 27.0514 7.75961 26.7551C7.96843 26.4589 8.08698 26.1085 8.10092 25.7463C8.47663 23.0826 9.47356 20.5447 11.0112 18.3374C11.3027 17.9325 11.4258 17.7676 11.8497 18.2535C14.0935 20.8148 17.8198 20.6817 19.9369 18.0065C20.03 17.8981 20.1175 17.785 20.1992 17.6677C20.9708 16.484 21.7007 15.5061 23.4575 16.198C24.6103 16.6594 25.8969 16.1533 26.9114 15.3931C27.4137 15.0155 27.7072 15.118 28.151 15.4424C29.0885 16.1293 29.9283 16.9639 31.0352 17.4176C32.2465 17.9228 33.606 17.9408 34.8301 17.4677C36.0542 16.9947 37.0484 16.0672 37.6052 14.8788C37.9149 14.1952 38.1187 14.3511 38.5344 14.7241C40.5727 16.5211 42.1979 18.738 43.2984 21.2225C43.3912 21.5191 43.5678 21.7826 43.8068 21.9811C44.0459 22.1797 44.3372 22.305 44.6458 22.3419C45.4898 22.498 46.2627 22.9171 46.8541 23.5391C47.4454 24.1611 47.8248 24.9543 47.938 25.8051C48.0512 26.6559 47.8923 27.5206 47.4842 28.2756C47.0761 29.0307 46.4396 29.6372 45.6658 30.0085L45.6682 30.0013Z" fill="#448FFF"/>
<path d="M28.334 43.3734C24.7258 43.6151 21.7313 42.5249 19.6503 39.3962C19.3615 38.9649 19.0126 38.4449 19.6041 38.0623C20.1956 37.6796 20.5007 38.1295 20.8279 38.5902C22.6152 41.0948 25.0513 42.2973 28.1218 41.8819C31.1923 41.4665 33.3063 39.7036 34.3445 36.7333C34.5214 36.2193 34.7507 35.7881 35.35 35.9571C36.0028 36.1396 35.8789 36.688 35.717 37.1586C34.6446 40.2612 32.5479 42.2843 29.3465 43.1178L28.334 43.3734Z" fill="#448FFF"/>
<path d="M16.444 26.1314C16.0868 26.1637 15.7403 26.2699 15.4264 26.4434C15.1125 26.6168 14.8382 26.8537 14.6208 27.1389C14.4034 27.4242 14.2477 27.7515 14.1637 28.1001C14.0797 28.4488 14.0691 28.8111 14.1327 29.164C14.1729 29.5184 14.2853 29.8608 14.4627 30.1703C14.6402 30.4797 14.8791 30.7495 15.1647 30.9632C15.4503 31.1769 15.7766 31.3299 16.1235 31.4128C16.4704 31.4957 16.8307 31.5068 17.182 31.4454C17.5364 31.4029 17.8783 31.2884 18.1868 31.109C18.4953 30.9295 18.7638 30.6889 18.976 30.402C19.1882 30.115 19.3394 29.7877 19.4205 29.4401C19.5016 29.0926 19.5108 28.7321 19.4476 28.3809C19.4071 28.0321 19.2959 27.6952 19.1209 27.3908C18.9458 27.0863 18.7106 26.8208 18.4295 26.6103C18.1484 26.3998 17.8274 26.2487 17.486 26.1664C17.1447 26.0841 16.7901 26.0722 16.444 26.1314ZM16.9971 30.0298C16.6648 30.079 16.3264 29.9942 16.0566 29.794C15.7867 29.5938 15.6075 29.2946 15.5582 28.9623C15.5089 28.6299 15.5937 28.2916 15.7939 28.0217C15.9941 27.7518 16.2933 27.5726 16.6257 27.5233C16.9581 27.4741 17.2964 27.5588 17.5662 27.759C17.8361 27.9592 18.0154 28.2584 18.0646 28.5908C18.1139 28.9232 18.0291 29.2615 17.8289 29.5314C17.6287 29.8012 17.3295 29.9805 16.9971 30.0298Z" fill="#448FFF"/>
<path d="M35.4116 24.2821C35.0543 24.31 34.7067 24.4115 34.3905 24.5803C34.0744 24.749 33.7965 24.9812 33.5744 25.2625C33.3524 25.5438 33.1909 25.8679 33.1001 26.2146C33.0093 26.5612 32.9912 26.9229 33.0469 27.2769C33.0879 27.6312 33.1999 27.9735 33.3762 28.2834C33.5525 28.5934 33.7895 28.8647 34.0729 29.081C34.3564 29.2973 34.6806 29.4543 35.0261 29.5425C35.3716 29.6308 35.7313 29.6485 36.0838 29.5946C36.4312 29.5548 36.7671 29.446 37.0718 29.2745C37.3764 29.103 37.6438 28.8724 37.858 28.5961C38.0723 28.3198 38.2291 28.0035 38.3193 27.6657C38.4095 27.3279 38.4313 26.9755 38.3833 26.6292C38.3548 26.2749 38.2535 25.9304 38.0859 25.6171C37.9182 25.3038 37.6877 25.0284 37.4089 24.8081C37.13 24.5879 36.8087 24.4275 36.465 24.337C36.1214 24.2465 35.7628 24.2278 35.4116 24.2821ZM35.8876 28.1977C35.557 28.2172 35.2305 28.1164 34.9686 27.9137C34.7067 27.7111 34.5271 27.4204 34.463 27.0954C34.4336 26.753 34.5402 26.4128 34.7597 26.1484C34.9791 25.8839 35.2939 25.7164 35.6358 25.6822C35.9658 25.6536 36.2938 25.7564 36.5484 25.9683C36.803 26.1802 36.9636 26.4841 36.9952 26.8138C37.0181 27.1414 36.9168 27.4656 36.7116 27.722C36.5064 27.9784 36.2123 28.1482 35.8876 28.1977Z" fill="#448FFF"/>
</svg>
