<svg width="55" height="25" viewBox="0 0 55 25" fill="none" xmlns="http://www.w3.org/2000/svg">
<path d="M53.2329 13.8542C53.2256 13.2658 53.0839 12.6869 52.8187 12.1616C52.5535 11.6363 52.1718 11.1785 51.7027 10.8232C50.834 10.1172 50.7934 10.0433 51.784 9.58496C54.0018 8.56478 54.5119 6.72772 54.3234 4.5469C54.1533 2.48436 52.2867 0.50314 50.4127 0.414428C49.2668 0.36268 48.047 0.514228 47.134 1.17217C45.7294 2.19235 44.6095 1.97057 43.1827 1.17217C41.3124 0.115027 39.3348 0.299843 37.5421 1.61573C36.9064 2.08146 36.6476 2.82812 36.1671 3.46388C35.8029 2.75857 35.3535 2.10064 34.829 1.50484C34.5311 1.13043 34.1467 0.833929 33.7089 0.640784C33.2711 0.447639 32.793 0.363623 32.3155 0.395947C31.0773 0.440302 29.7984 0.60294 28.8041 1.36068C27.6952 2.21823 26.7304 2.15908 25.6992 1.36068C25.6738 1.34295 25.6465 1.32808 25.6178 1.31633C23.2929 -0.0476102 19.6224 0.255487 18.24 3.57477C17.8812 2.76215 17.3806 2.01993 16.7615 1.38286C16.4563 1.03203 16.0716 0.759366 15.6394 0.587669C15.2073 0.415972 14.7403 0.350232 14.2776 0.395947C12.9129 0.407097 11.5815 0.81835 10.4482 1.57876C9.67567 2.1406 9.0473 2.15908 8.23042 1.63421C6.95282 0.748275 5.38059 0.394324 3.8466 0.647296C1.85429 0.987356 0.545795 2.27367 0.0948456 4.53581C-0.0942566 5.44361 0.000857474 6.38763 0.367251 7.23946C0.733644 8.09129 1.35353 8.80959 2.1426 9.29665C2.58985 9.55539 3.11103 9.70694 3.46218 10.2244C1.46248 11.3814 1.05589 13.2258 1.11503 15.3549C1.19634 17.7834 1.11503 20.2192 1.11503 22.6514C1.11503 24.2778 1.1409 24.3074 2.75988 24.3074H52.2867C52.9631 24.3074 53.2699 23.9932 53.2662 23.2761C53.2329 20.1342 53.2736 16.9924 53.2329 13.8542ZM51.0521 8.4502C50.5093 8.67738 50.0585 9.08042 49.7723 9.59457C49.4861 10.1087 49.3809 10.7042 49.4738 11.2853C49.634 12.6914 49.6017 14.1128 49.3777 15.5101C49.2295 16.3749 48.8659 17.1885 48.3206 17.8758C48.1774 17.0523 48.1365 16.2143 48.1986 15.3808C48.2124 13.6776 47.6956 12.0124 46.7201 10.6162C45.7738 9.2523 44.4838 9.26708 43.5523 10.6569C42.6097 11.9994 42.1202 13.6077 42.1551 15.2477C42.1551 16.0757 42.1551 16.9037 42.1551 17.9867C41.5502 17.3862 41.1504 16.61 41.013 15.7689C40.7346 14.5374 40.6671 13.2675 40.8134 12.0134C41.098 10.2281 40.5029 8.9529 38.8321 8.20624C38.6392 8.11152 38.457 7.99627 38.2888 7.86249C38.1903 7.74747 38.1025 7.62375 38.0263 7.49286H42.5137C42.6652 7.49286 42.8426 7.51134 42.8574 7.71094C42.9313 8.62023 43.6262 8.52782 44.2287 8.55C44.8312 8.57218 45.5188 8.55 46.1656 8.55C46.7274 8.55 47.3115 8.55 47.3928 7.76638C47.415 7.53351 47.6035 7.49286 47.7994 7.49286H52.32C52.0007 7.92663 51.563 8.25904 51.0595 8.4502H51.0521ZM44.225 6.79795C44.2731 6.10304 44.8867 6.46159 45.2452 6.42832C45.5446 6.39875 46.0991 6.20284 46.0325 6.84231C45.966 7.48177 45.3561 6.99016 45.1196 7.23411C44.7647 7.09365 44.1881 7.41893 44.2324 6.79795H44.225ZM41.9222 2.09625C42.9276 2.28106 43.7482 2.95379 44.6427 3.42692C45.5372 3.90005 46.4724 4.30294 47.5258 4.25119C48.0101 4.22902 48.6347 4.29185 48.5941 3.57107C48.5719 2.98336 48.0581 2.90204 47.5739 2.92422C47.4002 2.92422 47.2043 2.99075 47.0638 2.83551C47.9324 1.92622 50.2131 1.46418 51.2222 1.98905C52.405 2.60634 53.2366 4.31034 53.0444 5.65949C52.9927 6.02912 52.8448 6.20284 52.4641 6.19915C50.956 6.19915 49.4516 6.19915 47.9435 6.19915C47.6811 6.19915 47.4224 6.16218 47.4039 5.82952C47.3521 5.09026 46.8309 5.09026 46.295 5.09026C45.467 5.09026 44.6353 5.09026 43.8074 5.09026C43.4562 5.09026 42.9905 5.12722 42.9794 5.50055C42.9572 6.36179 42.3917 6.19175 41.8964 6.19545C40.6064 6.19545 39.309 6.19545 38.0226 6.19545C37.5052 6.19545 37.3056 6.02542 37.313 5.50794C37.3388 2.61373 38.9615 1.5418 41.9222 2.09625ZM19.3156 5.32312C19.6261 2.55459 20.8718 1.55289 24.0026 2.10364C24.9747 2.27367 25.7805 2.92052 26.6343 3.40844C27.579 4.00031 28.681 4.2916 29.7947 4.2438C30.2678 4.21423 30.7003 4.07377 30.6596 3.52302C30.6263 3.0425 30.216 2.90574 29.7725 2.92052C29.5285 2.92052 29.2846 2.92052 29.0332 2.92052C29.5288 2.47348 30.1174 2.14211 30.7567 1.95033C31.3959 1.75856 32.0698 1.71119 32.7295 1.81163C34.1341 1.97797 35.5572 4.52102 35.0619 5.84061C34.9362 6.18067 34.6923 6.18806 34.3929 6.18806H30.0719C29.7281 6.18806 29.4657 6.13261 29.4361 5.71124C29.4029 5.18266 29.0295 5.08286 28.5897 5.08286H26.1871C25.5957 5.08286 24.9599 5.00524 24.9414 5.89975C24.9414 6.20654 24.6679 6.18436 24.4535 6.18436C22.9454 6.18436 21.4373 6.18436 19.9292 6.18436C19.2565 6.21024 19.2676 5.75189 19.3156 5.32312ZM31.5467 11.666C31.7978 13.3786 31.6291 15.1265 31.0551 16.7595C30.874 17.2468 30.5845 17.6866 30.2087 18.0458C30.2087 16.9037 30.1828 15.95 30.2087 15.0001C30.2678 13.285 29.6431 11.8101 28.6858 10.4499C27.8615 9.28556 26.5308 9.34101 25.7287 10.5201C24.7284 11.9012 24.2089 13.5725 24.2502 15.2773C24.2835 16.1311 24.2502 16.985 24.2502 18.0162C23.7473 17.542 23.3875 16.9363 23.2115 16.2679C22.8417 14.93 22.7165 13.5363 22.8419 12.1539C23.1154 9.93611 22.8419 9.35579 20.942 8.23951C20.5764 8.10107 20.2653 7.84827 20.0549 7.51873H24.5866C24.7899 7.51873 24.934 7.59266 24.9562 7.82922C25.0264 8.56848 25.5809 8.56848 26.1131 8.56848C26.8191 8.56848 27.5288 8.56848 28.2348 8.56848C28.7893 8.56848 29.3918 8.59435 29.4583 7.78856C29.4583 7.552 29.669 7.51134 29.8612 7.51134H34.3522C34.038 8.06578 33.5797 8.20624 33.1916 8.41324C31.872 9.12293 31.3471 10.1209 31.5467 11.666ZM26.2943 6.79425C26.2943 6.12522 26.882 6.42462 27.1999 6.42462C27.5177 6.42462 28.1018 6.11783 28.1018 6.79425C28.1018 7.47068 27.503 7.06408 27.1851 7.21563C26.8857 7.0493 26.2869 7.47437 26.2943 6.79425ZM1.35898 5.41553C1.61403 2.61373 2.91882 1.57137 5.95719 2.08885C6.96258 2.25889 7.80534 2.89835 8.68506 3.40104C9.5708 3.95773 10.596 4.25246 11.6421 4.25119C12.1559 4.25119 12.7325 4.18836 12.6992 3.51193C12.6697 2.92052 12.1337 2.87986 11.6421 2.91313C11.461 2.91313 11.2725 2.91313 11.0951 2.91313C12.3444 1.9484 13.749 1.40504 15.2016 1.98536C16.5323 2.51763 17.0757 3.77437 17.1792 5.18636C17.2346 5.90344 17.0202 6.25829 16.1997 6.21763C14.8801 6.1511 13.5531 6.19915 12.2298 6.19915C11.8898 6.19915 11.5349 6.23611 11.4906 5.72972C11.4462 5.22332 11.0951 5.09395 10.6589 5.09395H8.25629C7.66488 5.09395 7.05129 5.02003 6.99215 5.89975C6.96998 6.22133 6.6484 6.19545 6.40444 6.19545C4.95918 6.19545 3.51393 6.19545 2.06867 6.19545C1.46248 6.22133 1.31463 5.94041 1.35898 5.41553ZM10.1673 6.77947C10.1969 7.47068 9.59066 7.06778 9.28386 7.22302C8.97707 7.06408 8.38936 7.47437 8.36718 6.81274C8.345 6.1511 8.94011 6.4431 9.2506 6.4431C9.56109 6.4431 10.1414 6.12522 10.1673 6.77947ZM3.35868 8.46129C2.9447 8.23581 2.46048 8.09166 2.08346 7.51503C3.6396 7.51503 5.0405 7.51503 6.40814 7.51503C6.67057 7.51503 6.98846 7.4448 7.02542 7.88466C7.07717 8.51304 7.55769 8.57587 8.03082 8.58696C8.85879 8.60421 9.68923 8.60421 10.5221 8.58696C10.999 8.58696 11.4684 8.49455 11.5127 7.86618C11.5386 7.49655 11.8047 7.52982 12.0487 7.52982C13.4607 7.52982 14.8727 7.52982 16.3771 7.52982C16.1479 8.08426 15.6674 8.19515 15.2978 8.41324C13.6714 9.36688 13.4496 10.0248 13.6048 11.9025C13.7823 13.9836 13.7527 16.0831 12.2261 17.8795C12.2261 17.0145 12.1966 16.1496 12.2261 15.2921C12.2749 13.6193 11.7794 11.9759 10.8141 10.6088C9.94181 9.30774 8.6444 9.27817 7.76468 10.5571C6.7815 11.8738 6.26165 13.4789 6.28616 15.122C6.31573 16.0424 6.28616 16.9702 6.28616 18.0125C5.74657 17.5629 5.37737 16.9419 5.2401 16.2531C4.83495 14.7647 4.7257 13.2112 4.91853 11.6808C5.15509 10.1764 4.65239 9.15989 3.35868 8.46129ZM51.2776 22.9212C51.1237 22.912 50.9694 22.912 50.8156 22.9212C35.0792 22.9212 19.3452 22.9274 3.61373 22.9397C2.70813 22.9397 2.39764 22.7586 2.43091 21.7865C2.50853 19.3247 2.45679 16.863 2.45679 14.3939C2.42366 13.9314 2.49974 13.4676 2.67888 13.04C2.85802 12.6124 3.13521 12.2329 3.48805 11.9321C3.56568 13.0928 3.67287 14.1499 3.69874 15.1997C3.72831 16.6338 4.36408 17.7871 5.21793 18.8775C5.39583 19.1154 5.64919 19.2858 5.93656 19.361C6.22394 19.4362 6.52832 19.4117 6.79994 19.2915C7.06023 19.1905 7.28047 19.0074 7.42723 18.7699C7.574 18.5324 7.63927 18.2535 7.61313 17.9756C7.63901 16.534 7.4505 15.0814 7.77577 13.6509C7.97815 12.844 8.31963 12.0785 8.78486 11.3888C9.11014 10.875 9.42432 10.875 9.7496 11.3888C10.4739 12.4317 10.8832 13.6608 10.9287 14.9298C10.9287 15.9463 10.9287 16.9591 10.9287 17.9756C10.8963 18.2544 10.9585 18.5361 11.1053 18.7753C11.2521 19.0146 11.475 19.1977 11.7382 19.2952C12.0264 19.4094 12.3445 19.4246 12.6423 19.3383C12.94 19.252 13.2007 19.0691 13.3831 18.8183C14.6546 17.3805 14.8949 15.6321 14.9577 13.8283C15.0323 12.9998 15.0012 12.1651 14.8653 11.3444C14.7613 11.0003 14.7959 10.6292 14.9616 10.3102C15.1273 9.9912 15.4111 9.74953 15.7524 9.63671C16.3289 9.4156 16.8487 9.06857 17.274 8.62093C17.6992 8.17329 18.0192 7.63635 18.2104 7.0493C18.4257 7.65073 18.7683 8.19858 19.2149 8.65535C19.6615 9.11212 20.2014 9.46705 20.7979 9.69585C21.1077 9.80554 21.3643 10.0287 21.5159 10.3203C21.6676 10.6119 21.7029 10.9502 21.6147 11.2668C21.3153 12.7453 21.5815 14.2238 21.6702 15.6802C21.7441 16.9517 22.4094 18.0088 23.2226 18.9625C23.403 19.1787 23.6492 19.3297 23.9236 19.3925C24.198 19.4552 24.4855 19.4262 24.7418 19.3099C24.9893 19.2168 25.2003 19.0465 25.3434 18.8241C25.4865 18.6018 25.5543 18.3392 25.5365 18.0754C25.5661 16.6338 25.3887 15.1849 25.7029 13.7507C25.9144 12.915 26.2736 12.1239 26.7637 11.4146C27.1038 10.8787 27.3958 10.9267 27.7099 11.4405C28.4104 12.4597 28.8065 13.657 28.8521 14.8929C28.8521 15.9093 28.8965 16.9258 28.8521 17.9386C28.8299 18.615 29.0776 19.0993 29.6949 19.3173C29.9705 19.4226 30.2727 19.4359 30.5565 19.3553C30.8403 19.2747 31.0904 19.1045 31.2695 18.8701C32.5336 17.484 32.8367 15.8206 32.8811 14.0723C32.9311 13.0872 32.9311 12.1003 32.8811 11.1152C32.8277 10.7958 32.8884 10.4678 33.0526 10.1886C33.2169 9.90951 33.4741 9.6971 33.7793 9.58866C34.327 9.37533 34.8255 9.05259 35.2443 8.64013C35.6631 8.22767 35.9935 7.73417 36.2151 7.18976C36.655 8.50195 37.6456 9.1525 38.7545 9.67368C39.0626 9.78775 39.3169 10.013 39.4674 10.305C39.6179 10.5971 39.6537 10.9349 39.5677 11.252C39.2831 12.664 39.5677 14.076 39.6084 15.4843C39.6564 16.826 40.3476 17.946 41.183 18.9477C41.3618 19.1669 41.6074 19.3217 41.8823 19.3884C42.1572 19.4552 42.4464 19.4302 42.7059 19.3173C42.953 19.2237 43.163 19.0523 43.3043 18.829C43.4457 18.6057 43.5106 18.3425 43.4895 18.0791C43.508 16.7262 43.3675 15.3734 43.6078 14.0131C43.794 13.112 44.1489 12.2542 44.6538 11.4849C44.9976 10.9193 45.2859 10.8047 45.6925 11.4627C46.4082 12.5082 46.7945 13.7441 46.8014 15.0111C46.7792 15.9944 46.8014 16.9813 46.8014 17.9682C46.7732 18.2601 46.8458 18.5528 47.0072 18.7976C47.1686 19.0425 47.4091 19.2246 47.6885 19.3136C47.9658 19.4133 48.268 19.42 48.5494 19.3326C48.8309 19.2452 49.0762 19.0686 49.2483 18.8294C50.3979 17.4951 50.7675 15.9093 50.8082 14.209C50.8082 13.5067 50.8082 12.8008 50.8082 11.9617C51.1653 12.1669 51.4582 12.4676 51.654 12.8299C51.8499 13.1922 51.941 13.602 51.9171 14.0131C51.9503 16.7521 51.9171 19.4948 51.9392 22.2337C51.9577 22.7475 51.8062 22.9841 51.2776 22.9212Z" fill="#448FFF"/>
</svg>
