<svg width="49" height="51" viewBox="0 0 49 51" fill="none" xmlns="http://www.w3.org/2000/svg">
<path d="M40.5957 10.0042C38.6334 6.06837 35.2725 3.90875 30.9398 3.6505C26.4773 3.38264 22.9085 5.21409 20.4523 9.02406C19.3264 10.7481 18.7013 12.7509 18.6466 14.8092C18.6333 15.2563 18.5328 15.3778 18.0777 15.2573C17.2779 15.0311 16.456 14.8877 15.6516 14.6774C13.5944 14.1163 11.4129 14.2157 9.41526 14.9618C7.11227 15.8124 5.39634 17.2982 4.62396 19.6901C3.87803 21.9268 4.01998 24.3646 5.02047 26.4996C6.02832 28.7161 7.59431 30.3012 10.1209 30.7152C10.5168 30.7806 10.8946 30.9543 11.2893 31.026C13.0259 31.3501 13.895 32.3975 14.0981 34.1378C14.4299 36.8082 15.1875 39.4082 16.342 41.8389C17.3011 43.9177 18.5578 45.7719 20.5157 47.0538C20.8469 47.2931 21.2481 47.416 21.6565 47.4034C22.065 47.3907 22.4578 47.2433 22.7736 46.984C23.348 46.5344 23.5357 45.8336 23.2459 44.9947C22.4466 42.7548 21.922 40.4263 21.6834 38.0601C21.4798 35.7995 21.4262 33.5579 22.3027 31.3894C22.8589 30.0222 23.8358 29.7397 24.9676 30.6753C26.0349 31.5505 26.9352 32.6115 27.6251 33.807C28.8934 35.9325 29.8131 38.2475 30.3494 40.6639L30.8668 42.5949C30.8855 42.6648 30.904 42.7338 30.9222 42.8018C31.1011 43.8005 31.546 44.3022 32.3578 44.4188C33.253 44.5486 33.9891 44.1177 34.4036 43.2261C34.9227 42.1251 35.2371 40.9388 35.3312 39.7252C35.6205 36.2918 34.8811 33.0247 33.7464 29.8162C33.4773 29.0545 33.2508 28.2755 33.0561 27.4939C32.9009 26.9146 32.9903 26.4205 33.7339 26.2715C34.15 26.1692 34.5537 26.0214 34.9374 25.8308C36.3766 25.1964 37.6714 24.2754 38.7429 23.1241C39.8144 21.9727 40.6401 20.6151 41.1696 19.1341C41.6991 17.6531 41.9212 16.0798 41.8226 14.5101C41.7239 12.9404 41.3065 11.4073 40.5957 10.0042ZM34.3355 38.4368C34.2594 39.8852 34.0952 41.3248 33.4993 42.676C33.3158 43.0948 33.1131 43.4418 32.5772 43.4169C32.0413 43.3919 31.988 42.9834 31.8889 42.5694C31.692 41.7352 31.4454 40.9142 31.2236 40.0866C30.6276 37.3897 29.5397 34.8256 28.0143 32.523C27.2731 31.4142 26.3536 30.4357 25.2929 29.6273C23.9396 28.5825 22.1313 29.1054 21.4617 30.6893C20.4619 33.0269 20.3828 35.4903 20.6039 37.9708C20.8361 40.4339 21.3858 42.8566 22.2396 45.1786C22.3719 45.5511 22.4916 45.9094 22.092 46.2057C21.6924 46.502 21.2814 46.3696 20.9227 46.0902C19.0955 44.6669 17.8587 42.7985 16.9203 40.7201C16.039 38.6904 15.445 36.5478 15.1555 34.3541C15.0333 33.6009 14.8475 32.8594 14.6 32.1376C14.4758 31.8013 14.2834 31.4943 14.0351 31.2357C13.7867 30.9772 13.4877 30.7727 13.1566 30.635C12.2086 30.1893 11.2065 29.8694 10.1756 29.6834C7.82555 29.2221 6.58425 27.624 5.75538 25.5458C4.70286 22.8977 5.23374 20.399 6.57239 18.0238C7.13469 17.0216 8.09372 16.4187 9.1783 16.0305C11.3301 15.2175 13.6857 15.1147 15.9001 15.7373C16.038 15.7773 16.1776 15.8019 16.3168 15.8356C17.0508 16.0263 17.8958 16.0571 18.4935 16.4558C19.0911 16.8544 18.884 17.8029 19.0785 18.4958C20.5299 23.6034 25.8449 27.2736 31.096 26.7329C31.6167 26.6791 31.9963 26.5952 32.0093 27.4048C32.0214 28.2886 32.4032 29.162 32.7078 30.0117C33.7063 32.7452 34.4926 35.503 34.3355 38.4368ZM40.5837 12.9937C41.8259 19.0532 37.9752 24.2244 32.8278 25.4499C26.3198 27.0045 20.9604 22.7164 19.9036 17.3818C18.6806 11.2728 22.4966 6.18188 27.778 4.92642C29.1498 4.58578 30.5764 4.52584 31.972 4.7502C33.3676 4.97455 34.7034 5.47857 35.8994 6.23201C37.0954 6.98545 38.1268 7.97277 38.9318 9.13471C39.7367 10.2966 40.2986 11.6092 40.5837 12.9937Z" fill="#448FFF"/>
<path d="M36.1782 12.2229C36.0281 11.5743 35.674 11.4444 35.082 11.6297C34.17 11.9007 33.2447 12.122 32.327 12.3826C31.9408 12.4861 31.7776 12.4175 31.6794 12.0181C31.4463 11.0486 31.162 10.087 30.904 9.12425C30.7747 8.64149 30.5093 8.43466 30.021 8.5655C29.0335 8.83012 28.0459 9.09474 27.0583 9.35937C26.6141 9.47838 26.459 9.77125 26.6025 10.2295C26.746 10.6878 26.8612 11.1951 26.9906 11.6778C27.1199 12.1606 27.2217 12.6507 27.3779 13.1233C27.5236 13.5456 27.4016 13.7083 26.974 13.8229C26.0259 14.0474 25.0926 14.327 24.1455 14.566C23.5938 14.7139 23.4199 15.0029 23.5845 15.562C23.8497 16.4489 24.0897 17.3445 24.3044 18.2489C24.4357 18.805 24.7193 19.0247 25.2769 18.8546C26.1486 18.621 27.0312 18.4171 27.8904 18.1366C28.4588 17.9517 28.7424 18.0059 28.8664 18.6674C29.0351 19.5507 29.3336 20.4109 29.5423 21.2893C29.678 21.862 29.9821 22.0259 30.5269 21.874C31.4234 21.6338 32.3172 21.3943 33.2138 21.1541C33.829 20.9893 34.0085 20.6662 33.8063 20.0551C33.5271 19.1453 33.314 18.2178 33.0506 17.3009C32.9456 16.9092 33.0275 16.7512 33.4222 16.6573C34.3475 16.436 35.2594 16.165 36.1845 15.9319C36.8497 15.7773 37.0241 15.4349 36.8221 14.7913C36.5984 13.9346 36.3728 13.0815 36.1782 12.2229ZM34.1235 15.4345C33.5966 15.5757 33.0721 15.737 32.54 15.8588C31.9533 15.9865 31.7627 16.2682 31.926 16.8778C32.2084 17.8104 32.4309 18.762 32.683 19.7027C32.785 20.0834 32.7059 20.2406 32.3143 20.3573C30.5044 20.9073 30.5081 20.9211 30.0224 19.1087C29.8746 18.557 29.7102 18.0097 29.5789 17.4535C29.4477 16.8973 29.1914 16.7354 28.6672 16.8758C27.7045 17.1338 26.7325 17.3795 25.7762 17.6505C25.39 17.754 25.2403 17.6699 25.1243 17.2811C24.5736 15.4684 24.5605 15.4749 26.3674 14.9907C26.8722 14.8554 27.3732 14.6946 27.8819 14.5849C28.5287 14.45 28.7598 14.1427 28.5476 13.4722C28.2608 12.5674 28.0553 11.635 27.7891 10.7188C27.6849 10.3298 27.7697 10.1829 28.1585 10.0669C29.9712 9.51612 29.9683 9.50508 30.4532 11.3147L30.5271 11.5906C30.6498 12.0485 30.7925 12.5041 30.8967 12.9699C31.0125 13.5125 31.3109 13.6661 31.8273 13.5189C32.79 13.2609 33.7583 13.0015 34.7183 12.7442C35.1073 12.64 35.2549 12.7276 35.373 13.1128C35.9197 14.9326 35.9335 14.9289 34.1183 15.4152L34.1235 15.4345Z" fill="#448FFF"/>
</svg>
