<svg width="40" height="40" viewBox="0 0 40 40" fill="none" xmlns="http://www.w3.org/2000/svg">
<path d="M30.3606 15.8881C30.1347 13.4775 29.2936 11.3493 27.1208 10.0118C25.0967 8.76046 22.9299 8.90611 20.7452 9.51543C19.3245 9.91075 18.0702 10.6627 16.8456 11.4593C16.0282 11.9914 15.3208 12.0181 14.4915 11.4593C13.6934 10.964 12.8644 10.5202 12.0096 10.1307C10.3773 9.31693 8.52613 9.05114 6.7308 9.37276C3.51774 9.90778 1.37768 12.1965 0.991279 15.5046C0.667298 18.2778 1.27068 21.4492 4.57885 22.9562C4.80475 23.0602 4.99795 23.2267 5.22384 23.3248C6.74864 23.9906 7.05479 25.1765 6.87347 26.7281C6.53544 29.2596 6.65018 31.831 7.21232 34.3223C7.61358 35.9749 8.19021 37.5383 9.3613 38.8253C9.59185 39.1062 9.90269 39.3099 10.2522 39.4093C10.6017 39.5086 10.9733 39.4988 11.3171 39.3812C11.971 39.1345 12.3128 38.5608 12.3069 37.7256C12.3069 37.0568 12.3069 36.3881 12.3069 35.7223C12.2089 34.2398 12.2977 32.7509 12.5714 31.2906C12.9132 29.3734 13.4334 27.5306 14.6788 25.9731C15.3148 25.1735 16.1649 25.1914 16.7594 26.0177C17.2357 26.6541 17.6199 27.3546 17.9007 28.0983C19.0094 31.1776 19.265 34.3639 19.0124 37.6097C18.9529 38.3528 19.1669 38.8848 19.7763 39.2296C20.0727 39.4166 20.4227 39.5002 20.7716 39.4674C21.1206 39.4346 21.4489 39.2872 21.7053 39.0483C22.034 38.7468 22.3236 38.4053 22.5673 38.0317C24.0207 35.8857 24.3893 33.4187 24.5795 30.916C24.7103 29.1862 24.526 27.4533 24.4131 25.7264C24.3634 25.3283 24.4353 24.9244 24.6194 24.568C24.8035 24.2115 25.0911 23.919 25.4444 23.729C26.0984 23.3277 26.7493 22.9235 27.424 22.5579C28.4106 22.0294 29.1922 21.1861 29.6443 20.1622C30.2581 18.8263 30.5054 17.3511 30.3606 15.8881ZM28.7259 19.5678C28.3439 20.5196 27.6301 21.301 26.7166 21.7673C25.8002 22.2052 24.9474 22.7651 24.1812 23.4318C23.9016 23.6773 23.6819 23.9837 23.5392 24.3274C23.3965 24.6711 23.3345 25.0429 23.3579 25.4143C23.4144 26.2792 23.45 27.1442 23.4946 28.0062C23.6284 30.5445 23.4589 33.0591 22.6624 35.4785C22.3519 36.4246 21.8456 37.2946 21.1762 38.0317C20.9592 38.2755 20.7393 38.5162 20.3559 38.329C19.9724 38.1417 20.0586 37.8653 20.0765 37.5651C20.3176 34.5759 20.0309 31.5677 19.2294 28.6779C18.8604 27.4181 18.2552 26.2399 17.446 25.2062C16.5037 24.0173 14.8333 24.047 13.8792 25.2419C12.2771 27.2304 11.7659 29.6142 11.3765 32.0425C11.0793 33.8259 11.1922 35.645 11.2279 37.4521C11.2279 37.7761 11.3854 38.1655 10.9307 38.3438C10.4759 38.5222 10.25 38.1596 10.0182 37.892C8.8887 36.5694 8.40421 34.9762 8.10104 33.2969C7.64925 30.7882 7.78895 28.2707 7.97323 25.7531C8.06834 24.4632 7.50955 23.5655 6.48707 22.8908C5.93935 22.5078 5.36637 22.1622 4.77205 21.8564C2.95895 20.9885 2.25451 19.4221 2.0197 17.5704C1.72247 15.1212 2.66172 13.1119 4.34404 11.4118C4.99169 10.7894 5.83768 10.4148 6.73378 10.3536C8.71203 10.1166 10.7142 10.5198 12.4465 11.5039C13.9327 12.3421 15.3802 13.2427 17.0031 13.8164C18.0233 14.2018 19.1205 14.3393 20.2043 14.2176C20.5877 14.1701 20.9087 14.0423 20.8552 13.5875C20.8017 13.1327 20.4569 13.1446 20.121 13.1743C19.0504 13.2809 17.9706 13.1025 16.9912 12.6572C19.1521 11.171 21.3456 10.0653 23.9821 10.1783C26.0389 10.2674 27.6083 11.177 28.5089 13.0228C29.0209 14.0317 29.3056 15.1405 29.3431 16.2712C29.3806 17.4019 29.1699 18.5272 28.7259 19.5678Z" fill="#448FFF"/>
<path d="M38.2548 2.32893C37.8627 2.25776 37.4644 2.2259 37.0659 2.23381C29.8868 2.23381 22.7087 2.23381 15.5315 2.23381C15.2438 2.25361 14.9553 2.20709 14.6884 2.09785C14.4215 1.9886 14.1832 1.81954 13.9919 1.60368C13.6742 1.23588 13.2858 0.935794 12.8497 0.721319C12.4136 0.506845 11.9388 0.382369 11.4535 0.355313C8.4396 0.165086 5.41974 0.283978 2.39988 0.292895C1.39821 0.295867 0.943445 0.872495 0.9375 1.87119C0.9375 3.06011 0.9375 4.24904 0.9375 5.43796C0.9375 5.82733 0.9375 6.24345 1.45468 6.24643C1.97186 6.2494 1.99861 5.85408 1.99861 5.45282C1.99861 4.28768 1.99861 3.1255 1.99861 1.96333C1.99861 1.7196 1.957 1.41048 2.32854 1.42832C2.70008 1.44615 2.5693 1.73446 2.5693 1.94253C2.5693 3.13145 2.5693 4.32037 2.5693 5.50929C2.5693 5.88083 2.52768 6.32668 3.06864 6.32668C3.6096 6.32668 3.63635 5.89569 3.63338 5.46768C3.63338 4.27876 3.63338 3.08984 3.63338 1.90091C3.63933 1.73446 3.55016 1.43723 3.8355 1.43723C4.19515 1.41345 4.08815 1.73446 4.09112 1.92766C4.09112 3.11659 4.09112 4.30551 4.09112 5.49443C4.09112 5.90758 4.09112 6.35343 4.66477 6.33262C5.23843 6.31182 5.14629 5.86597 5.14629 5.4974C5.14629 4.33226 5.14629 3.17009 5.14629 2.00792C5.14629 1.80283 5.0482 1.46101 5.34246 1.45507C5.72291 1.45507 5.5743 1.81769 5.57727 2.02872C5.57727 3.16712 5.57727 4.30551 5.57727 5.4439C5.57727 5.84814 5.55349 6.31776 6.10337 6.3356C6.72161 6.3564 6.68297 5.83922 6.69783 5.4231C6.69783 4.26092 6.69783 3.09578 6.69783 1.93361C6.69783 1.73744 6.60569 1.4194 6.96237 1.44318C7.23879 1.46398 7.16151 1.74041 7.16151 1.92172C7.16151 2.98581 7.13773 4.04989 7.18232 5.11398C7.20015 5.5628 6.86725 6.32965 7.70842 6.31776C8.44555 6.3029 8.20182 5.58955 8.21371 5.12884C8.24046 4.06475 8.21371 3.00067 8.22857 1.93658C8.22857 1.74635 8.1067 1.41345 8.46041 1.42534C8.81411 1.43723 8.68036 1.76121 8.68333 1.95739C8.68333 3.14631 8.68333 4.33523 8.68333 5.52416C8.68333 5.9165 8.719 6.31776 9.22132 6.32965C9.76822 6.34451 9.7385 5.90758 9.7385 5.53307C9.7385 4.34415 9.7385 3.15523 9.7385 1.9663C9.7385 1.74338 9.64042 1.39562 10.0357 1.4194C10.3567 1.44021 10.2616 1.7523 10.2646 1.95441C10.2646 3.14334 10.2646 4.33226 10.2646 5.52118C10.2646 5.90164 10.2378 6.33559 10.7758 6.32965C11.3138 6.32371 11.3257 5.93136 11.3227 5.53307C11.3227 4.34415 11.3227 3.15523 11.3227 1.9663C11.3227 1.48479 11.4297 1.35698 11.9172 1.5264C12.6293 1.76767 13.2512 2.21961 13.7006 2.82233C15.0887 4.65624 16.9404 5.21801 19.1726 5.13776C22.0141 5.03372 24.8646 5.111 27.7091 5.111C30.9053 5.111 34.0985 5.111 37.2888 5.111C37.6336 5.11577 37.9778 5.07985 38.3143 5.004C38.623 4.9446 38.8978 4.77064 39.0836 4.51705C39.2693 4.26346 39.3524 3.94899 39.3159 3.63674C39.3315 3.32626 39.2318 3.02097 39.0359 2.77956C38.84 2.53815 38.5618 2.37766 38.2548 2.32893ZM37.8179 4.00233C37.6693 4.00233 37.5207 4.00233 37.372 4.00233H18.1353C17.3714 4.00233 16.6016 4.0172 15.8258 3.33951H37.2115C37.4077 3.33951 37.6069 3.33951 37.806 3.33951C38.0051 3.33951 38.2667 3.38707 38.2489 3.69916C38.231 4.01125 38.0141 3.97856 37.8179 3.99044V4.00233Z" fill="#448FFF"/>
</svg>
