<svg width="39" height="43" viewBox="0 0 39 43" fill="none" xmlns="http://www.w3.org/2000/svg">
<path fill-rule="evenodd" clip-rule="evenodd" d="M29.6282 35.8999C29.0126 33.3303 28.0528 30.8557 26.7749 28.543C26.0704 27.3068 25.1291 26.2216 24.0048 25.3496C23.125 24.6395 22.1334 24.8899 21.6802 25.9292C21.0695 27.3004 20.7433 28.7813 20.7213 30.2823C20.6953 33.5659 21.2126 36.8312 22.2524 39.946C22.5548 40.864 22.3663 41.684 21.7188 42.1744C21.0713 42.6648 20.2152 42.6643 19.4097 42.1113C17.9626 41.137 16.9336 39.7901 16.0657 38.3072C14.5897 35.6913 13.6329 32.815 13.2477 29.8363L13.2189 29.6415C12.7411 26.4087 12.6748 25.9598 9.3463 25.4365C3.42292 24.521 1.21643 15.5175 5.33077 11.304C7.3443 9.24643 9.85912 8.5204 12.6523 8.64168C14.2059 8.70666 15.6874 9.13427 17.171 9.56252L17.1712 9.56258C17.4998 9.65744 17.8286 9.75234 18.1583 9.84333C18.3709 9.92333 18.6015 9.94336 18.8247 9.90121C19.048 9.85906 19.2554 9.75637 19.4243 9.60435C19.952 9.17871 20.4195 8.70008 20.8894 8.21901C21.1749 7.92673 21.4613 7.63356 21.7626 7.3508C23.5281 5.66583 25.7608 4.55257 28.1689 4.15647C28.7548 4.056 29.3528 4.04699 29.9414 4.12978C30.0904 4.16619 30.2475 4.14748 30.3838 4.07711C30.52 4.00674 30.6262 3.88945 30.6828 3.7469C31.1054 2.97444 31.3361 2.11174 31.3556 1.23147C31.3575 1.18352 31.358 1.13498 31.3585 1.08659L31.3585 1.08657C31.3618 0.767002 31.365 0.453393 31.7756 0.353775C32.1598 0.260587 32.2803 0.496642 32.4046 0.740089L32.4046 0.740113C32.4333 0.796322 32.4622 0.852925 32.4946 0.905959C32.9389 1.69688 33.5763 2.36239 34.3473 2.8404C35.1182 3.31842 35.9978 3.59336 36.9037 3.63959L36.9441 3.64336C37.0068 3.64933 37.0714 3.65548 37.1345 3.65552C37.5126 3.64749 37.8899 3.67479 37.9956 4.12436C38.0956 4.54984 37.7926 4.70104 37.5048 4.84458L37.4562 4.86893C36.6833 5.28983 36.0245 5.8926 35.5368 6.62513C35.3892 6.7819 35.3046 6.98767 35.2993 7.20296C35.294 7.41825 35.3684 7.6279 35.5083 7.79171C36.2454 8.88582 36.7568 10.116 37.0126 11.4102C37.2683 12.7044 37.2633 14.0367 36.9978 15.329C36.7608 16.5802 36.1203 17.7193 35.1745 18.572C34.7183 19.0005 34.2795 19.4492 33.842 19.8967C33.649 20.094 33.4563 20.2911 33.2625 20.4861C32.9297 20.796 32.6958 21.1972 32.5901 21.6395C32.4845 22.0818 32.5118 22.5454 32.6686 22.9723C32.8181 23.4515 32.9752 23.9284 33.1323 24.4053L33.1323 24.4054C33.6612 26.0109 34.19 27.616 34.4265 29.3055C34.7333 31.4968 34.9273 33.7099 34.5215 35.9256C34.3431 36.8918 34.0062 37.8219 33.5246 38.6783C33.3588 39.0344 33.0821 39.3272 32.7361 39.5131C32.39 39.6989 31.9931 39.7677 31.6047 39.7093C31.2163 39.6508 30.8572 39.4683 30.5811 39.1888C30.3051 38.9094 30.1269 38.5481 30.0732 38.159C29.9434 37.5648 29.8305 36.9664 29.7345 36.4575L29.7344 36.4574C29.6964 36.2555 29.6609 36.0677 29.6282 35.8999ZM20.4175 10.3213C20.4971 10.3336 20.5698 10.3465 20.638 10.3585C20.7663 10.3812 20.8783 10.401 20.9887 10.4089C22.1213 10.5473 23.2705 10.4098 24.3385 10.0081C24.6565 9.8745 25.0196 9.80633 25.1997 10.2214C25.3799 10.6364 25.0941 10.8865 24.7347 11.0464C24.5672 11.1138 24.3963 11.1724 24.2227 11.222C22.3762 11.7974 20.5423 11.5008 18.7243 11.0885C17.7256 10.8609 16.7354 10.5987 15.7449 10.3364L15.7448 10.3364L15.7448 10.3364C15.3145 10.2224 14.8842 10.1085 14.4532 9.99734C12.3533 9.45405 10.3034 9.71283 8.29217 10.4219C7.31631 10.7179 6.47227 11.3412 5.90223 12.1868C4.47785 14.4936 3.84413 16.9609 4.73316 19.6555C5.54267 22.108 6.96974 23.8603 9.65742 24.3528C10.4101 24.5368 11.1469 24.7803 11.8609 25.0811C12.3364 25.2475 12.7616 25.5324 13.0964 25.9089C13.4312 26.2854 13.6644 26.7411 13.774 27.2328C14.0331 28.1729 14.2071 29.1312 14.381 30.0895L14.3983 30.1851C14.8223 32.5005 15.3583 34.7912 16.507 36.8748C17.4088 38.5058 18.4225 40.0609 19.9643 41.1841C20.1097 41.314 20.2954 41.3901 20.4902 41.3996C20.685 41.4092 20.8771 41.3517 21.0346 41.2366C21.4182 40.9685 21.3116 40.6182 21.1946 40.2641C20.5065 38.2328 20.0307 36.1356 19.7749 34.0062C19.4384 31.1579 19.4748 28.3316 20.5935 25.6316C21.3651 23.7559 23.2273 23.2948 24.8035 24.5819C26.4887 25.9472 27.6399 27.7076 28.5595 29.628C29.7621 32.0892 30.5962 34.7138 31.0351 37.4177C31.045 37.484 31.0528 37.553 31.0607 37.623L31.0607 37.6231C31.1102 38.0632 31.1636 38.5388 31.792 38.5833C32.428 38.6283 32.584 38.194 32.7356 37.7719C32.7577 37.7106 32.7796 37.6495 32.8029 37.5902C32.9829 37.1395 33.129 36.6761 33.2398 36.2036C34.1111 32.4473 33.4692 28.8223 32.2274 25.2766C31.9144 24.4288 31.6704 23.5572 31.4977 22.6701C31.4047 22.2273 31.4147 21.769 31.5269 21.3306C31.6392 20.8923 31.8506 20.4855 32.145 20.1419C32.7627 19.3859 33.442 18.6824 34.1758 18.0385C34.7006 17.5972 35.132 17.0557 35.445 16.4457C35.758 15.8356 35.9462 15.1693 35.9986 14.4857C36.2424 12.4612 35.7938 10.4138 34.726 8.67669C34.7176 8.78741 34.7096 8.8875 34.7022 8.97939L34.7022 8.97949L34.7022 8.97967C34.6782 9.27942 34.6611 9.49199 34.6622 9.70193C34.6635 9.9763 34.6032 10.2724 34.2551 10.3624C33.8551 10.4621 33.6877 10.2132 33.5533 9.91772C33.3079 9.40587 32.9615 8.94898 32.5349 8.57458C31.5807 7.64699 30.3156 7.1074 28.9857 7.06071C28.9302 7.05902 28.8731 7.05959 28.8157 7.06016C28.4835 7.06348 28.1403 7.06692 28.0291 6.63165C27.9129 6.17735 28.2283 6.02279 28.5445 5.8678C28.5836 5.84863 28.6227 5.82946 28.661 5.80972C28.8049 5.76352 28.9373 5.68698 29.0491 5.58526C29.161 5.48354 29.2497 5.359 29.3093 5.22007C25.4163 5.28676 22.8411 7.61532 20.4175 10.3213ZM35.8906 4.62364C34.5078 4.30367 33.2588 3.56126 32.317 2.4994C31.9919 3.88721 31.2337 5.13562 30.1522 6.06398C31.5129 6.39684 32.755 7.0998 33.7409 8.09502C34.0924 6.75194 34.8368 5.54431 35.8786 4.62664L35.8906 4.62364ZM7.59041 33.705C7.89562 33.648 8.06314 33.8203 8.19753 34.0647C9.08125 35.6618 10.4097 36.5316 12.2595 36.5207C12.6038 36.5179 12.8841 36.6301 12.9628 36.9842C13.0415 37.3383 12.8189 37.496 12.5527 37.6454C11.8033 38.0338 11.1777 38.6247 10.7473 39.3508C10.3169 40.077 10.0987 40.9093 10.1177 41.7533C10.113 42.0419 10.0362 42.2591 9.73473 42.3438C9.43326 42.4286 9.21238 42.2473 9.05846 41.9758C8.68113 41.2352 8.10393 40.6151 7.39226 40.1857C6.68059 39.7562 5.86288 39.5347 5.03177 39.5461C4.71006 39.5369 4.37635 39.4796 4.30744 39.0879C4.23854 38.6962 4.45888 38.5295 4.76642 38.3666C6.34998 37.531 7.09799 36.1882 7.15173 34.418L7.15215 34.4116C7.17173 34.1084 7.19179 33.798 7.59041 33.705ZM10.8488 37.4729C9.79513 37.1924 8.83621 36.6339 8.07237 35.8558C7.79714 36.9008 7.22596 37.844 6.42749 38.5721C7.46176 38.9094 8.41109 39.4658 9.21067 40.2035C9.52584 39.1733 10.0882 38.2359 10.8488 37.4729ZM5.29049 30.5693C5.00156 30.2062 4.80385 29.7791 4.71392 29.3239C4.69824 29.1585 4.6788 29.0036 4.65409 28.8533C4.64858 28.7365 4.60174 28.6255 4.52193 28.5401C4.44212 28.4546 4.33454 28.4004 4.21841 28.387C4.10441 28.3547 3.9824 28.3672 3.87731 28.4219C3.77221 28.4766 3.69197 28.5694 3.65297 28.6813C3.4517 29.2575 3.08476 29.7615 2.59817 30.13C2.11159 30.4985 1.52703 30.7151 0.917811 30.7527C0.790288 30.7632 0.671209 30.8207 0.583557 30.9139C0.495906 31.0072 0.445897 31.1295 0.443184 31.2575C0.435783 31.3741 0.469542 31.4896 0.538577 31.5839C0.607611 31.6782 0.707544 31.7452 0.820951 31.7734C1.35926 31.9651 1.83144 32.3069 2.18172 32.7584C2.53201 33.2099 2.74577 33.7522 2.79775 34.3213C2.79023 34.4636 2.83377 34.6039 2.92051 34.717C3.00726 34.83 3.13152 34.9084 3.27092 34.938C3.41329 34.9574 3.55776 34.9226 3.67572 34.8405C3.79368 34.7585 3.87653 34.6351 3.90786 34.4949C4.10012 34.0001 4.42136 33.5658 4.83822 33.2372C5.25508 32.9086 5.75234 32.6976 6.27833 32.6262C6.29058 32.624 6.30286 32.6218 6.31517 32.6195C6.63752 32.5614 6.97431 32.5007 7.01006 32.0764C7.042 31.6973 6.77304 31.5825 6.50392 31.4677C6.46038 31.4491 6.41683 31.4305 6.37456 31.4108C5.95116 31.2209 5.57942 30.9324 5.29049 30.5693ZM4.08233 32.5022C3.9199 32.6122 3.75442 32.7243 3.61651 32.8395L2.58226 31.561C2.70101 31.4604 2.82447 31.3381 2.94868 31.215C3.26581 30.9009 3.58782 30.582 3.84869 30.6064C4.21172 30.6405 4.78329 31.37 4.78377 31.7947C4.78259 32.0278 4.43986 32.2599 4.08233 32.5022Z" fill="#448FFF"/>
</svg>
