<svg width="33" height="40" viewBox="0 0 33 40" fill="none" xmlns="http://www.w3.org/2000/svg">
<path d="M31.2197 4.41735C30.8083 3.46309 30.163 2.62798 29.3433 1.98925C28.5237 1.35053 27.5562 0.928811 26.5303 0.763117C24.2212 0.347928 22.0173 0.797242 19.93 1.85796C18.8749 2.39259 17.9393 3.12059 16.8473 3.61256C16.6985 3.6977 16.5293 3.74058 16.3579 3.73657C16.1865 3.73256 16.0194 3.68182 15.8748 3.58981C14.3932 2.75659 12.9571 1.80962 11.3247 1.29206C8.8848 0.51571 6.49036 0.521397 4.18691 1.82099C1.255 3.48744 0.182898 7.25257 0.640743 10.0679C1.03034 12.4737 2.11665 14.3847 4.45707 15.4199C5.00793 15.6933 5.53409 16.014 6.02967 16.3782C6.3693 16.5789 6.64351 16.8738 6.81914 17.227C6.99477 17.5803 7.06429 17.9769 7.01929 18.3688C6.96811 19.0286 6.96242 19.694 6.88279 20.3595C6.81454 20.9282 7.04204 21.1642 7.57667 21.1671C8.1113 21.1699 8.71418 21.1671 9.28293 21.1671C10.8413 21.1671 10.8413 21.1671 10.8442 22.7027C10.8442 23.7919 10.8442 23.8146 11.9504 23.8089C12.4111 23.8089 12.5646 23.9341 12.5533 24.409C12.5248 25.8536 12.5134 27.2982 12.5533 28.7429C12.5732 29.34 12.4367 29.7296 11.8395 29.9259C11.5096 30.0339 11.2025 30.25 11.3845 30.6596C11.5665 31.0691 11.9049 30.9809 12.2376 30.8273C12.3299 30.7958 12.4252 30.7739 12.522 30.7619C12.4793 31.6805 12.9372 32.7526 11.5977 33.1194C11.3304 33.1962 11.2821 33.4692 11.3816 33.7137C11.4241 33.8267 11.5081 33.919 11.6165 33.9719C11.7249 34.0248 11.8495 34.0342 11.9646 33.9981C12.1409 33.9668 12.2774 33.7735 12.5333 33.8815C12.5333 34.3081 12.5078 34.7574 12.5333 35.201C12.5512 35.3462 12.5173 35.493 12.4378 35.6157C12.3582 35.7384 12.238 35.8292 12.0982 35.8722C11.7399 36.0343 11.1513 36.1395 11.339 36.7082C11.5608 37.368 12.084 36.9016 12.4907 36.8646C12.6386 37.3111 12.3627 37.877 12.9883 38.1699C14.0178 38.6448 15.0188 39.1823 16.0255 39.7056C16.1491 39.7729 16.2883 39.8066 16.4291 39.8031C16.5699 39.7996 16.7073 39.7591 16.8274 39.6856C17.817 39.1823 18.8181 38.6875 19.8191 38.2183C19.9937 38.1482 20.1402 38.0223 20.2359 37.8603C20.3315 37.6983 20.3709 37.5092 20.348 37.3225C20.3224 36.3528 20.402 35.3773 20.3252 34.4133C20.2371 33.3384 20.3252 32.4454 21.5879 32.1554C21.6332 32.1406 21.6749 32.1164 21.7102 32.0843C21.9177 31.9051 22.0969 31.7032 21.9149 31.4188C21.849 31.3045 21.7426 31.2192 21.6167 31.1797C21.4908 31.1402 21.3546 31.1494 21.2352 31.2056C20.9509 31.3022 20.7319 31.561 20.3992 31.5383C20.2086 30.4491 20.1603 29.4424 21.5367 29.1211C21.5817 29.1057 21.6233 29.0815 21.659 29.05C21.8779 28.8879 22.0685 28.7087 21.9433 28.4016C21.8182 28.0945 21.4997 28.1002 21.2125 28.194C20.9253 28.2879 20.7035 28.5353 20.402 28.5097C20.1745 27.3722 20.2456 26.3797 21.6192 26.0583C21.6428 26.051 21.665 26.0395 21.6846 26.0242C21.9291 25.8735 22.0827 25.6688 21.9462 25.3787C21.9206 25.312 21.8808 25.2518 21.8295 25.2021C21.7782 25.1525 21.7166 25.1147 21.6491 25.0914C21.5816 25.0681 21.5099 25.0598 21.4389 25.0672C21.3679 25.0746 21.2993 25.0974 21.2381 25.1341C20.9537 25.2422 20.7347 25.4924 20.3679 25.4981C20.3679 25.3559 20.3423 25.2138 20.3423 25.0915C20.3224 23.9369 20.3224 23.9284 21.4514 23.8203C21.8609 23.7805 22.0486 23.5957 22.0429 23.189C22.0429 22.7397 22.0742 22.2875 22.0429 21.8411C21.9945 21.3263 22.1396 21.1216 22.6969 21.1557C23.4989 21.2041 24.3065 21.1557 25.1113 21.1557C25.68 21.1557 25.9303 20.914 25.8734 20.3253C25.808 19.6684 25.7909 19.003 25.7483 18.3347C25.7058 17.9418 25.7777 17.5449 25.9553 17.1918C26.1328 16.8387 26.4085 16.5443 26.7493 16.3441C27.4489 15.9004 28.1712 15.4909 28.8906 15.0871C29.8028 14.6213 30.5568 13.8961 31.0576 13.0027C32.5648 10.1788 32.5363 7.28101 31.2197 4.41735ZM19.3413 31.8909C19.3413 32.2037 19.1394 32.289 18.9318 32.3942C17.3109 33.2189 15.6842 34.0351 14.069 34.8683C13.7135 35.0503 13.5742 35.0816 13.5144 34.5839C13.4035 33.6142 13.6993 33.0512 14.6519 32.6388C16.2217 31.9506 17.7175 31.0946 19.3441 30.2586C19.3356 30.8586 19.3072 31.3705 19.3413 31.8909ZM18.9546 37.5585C18.8675 37.5945 18.7829 37.6363 18.7015 37.6836C16.1933 38.9264 16.1933 38.9264 13.8671 37.5301C13.4178 37.2599 13.3609 36.3613 13.8159 36.1224C15.6103 35.1868 17.4189 34.2797 19.3356 33.3042C19.3356 34.6181 19.3356 35.7982 19.3356 36.9784C19.3516 37.1032 19.3218 37.2297 19.2518 37.3342C19.1817 37.4388 19.0761 37.5145 18.9546 37.5471V37.5585ZM18.5536 29.596C17.0635 30.3211 15.5904 31.0776 14.123 31.8426C13.6964 32.0644 13.5713 32.0814 13.5116 31.507C13.4064 30.5202 13.722 29.9742 14.6662 29.5818C16.0397 29.013 17.3478 28.2793 18.6645 27.5911C19.1792 27.3068 19.4295 27.3068 19.3385 27.9807C19.3292 28.137 19.3292 28.2937 19.3385 28.45C19.5603 29.0272 19.1138 29.3002 18.5536 29.5732V29.596ZM17.8853 26.8745C16.4264 27.4603 15.0415 28.2708 13.5287 29.0386C13.5287 27.3722 13.5287 25.8337 13.5287 24.2952C13.5287 23.917 13.6652 23.8032 14.0263 23.8061C15.6387 23.8061 17.2483 23.8203 18.8607 23.8061C19.2332 23.8061 19.3896 23.9255 19.3385 24.2952C19.3314 24.3424 19.3314 24.3903 19.3385 24.4374C19.5916 25.6773 19.0939 26.3911 17.8853 26.8745ZM21.0419 22.3899C21.0788 22.7454 20.9082 22.8278 20.5869 22.8278C17.8436 22.8278 15.0994 22.8278 12.3542 22.8278C11.9532 22.8278 11.7854 22.697 11.8338 22.2961C11.8509 22.1782 11.8509 22.0585 11.8338 21.9406C11.7399 21.3406 11.9362 21.1102 12.5931 21.1386C13.8671 21.1955 15.1524 21.1557 16.4236 21.1557C17.7715 21.1557 19.1195 21.1756 20.4674 21.1557C20.948 21.1557 21.1016 21.3093 21.0362 21.7614C21.0159 21.9705 21.0178 22.1812 21.0419 22.3899ZM30.4433 12.05C30.0082 13.0017 29.2662 13.7798 28.3361 14.2596C27.8385 14.544 27.3664 14.8539 26.863 15.1127C25.1568 15.9659 24.588 17.3877 24.7615 19.2276C24.8525 20.1576 24.8155 20.1604 23.8771 20.1604C18.8124 20.1604 13.7448 20.1604 8.68005 20.1604C8.09139 20.1604 7.86958 20.0324 7.96911 19.4239C8.32742 17.2626 7.44017 15.7639 5.49504 14.834C5.19644 14.6918 4.92629 14.4786 4.64191 14.3421C2.5745 13.4321 1.84081 11.6576 1.59625 9.58446C1.28628 6.92554 2.31572 4.75007 4.17838 2.9585C5.37276 1.81531 6.93967 1.74706 8.50089 1.77834C10.2071 1.82668 11.7229 2.42387 13.1931 3.23719C14.6633 4.0505 16.0937 4.92638 17.6663 5.54348C18.8036 5.966 20.0216 6.1264 21.2296 6.0127C21.5879 5.98994 21.9348 5.89894 21.8836 5.44394C21.8324 4.98894 21.4798 4.97188 21.1272 5.02022C19.9129 5.19369 18.7896 4.87804 17.5583 4.42303C19.6797 3.10069 21.6817 1.89209 24.1416 1.66459C27.9494 1.31196 30.7903 3.62109 31.1173 7.4687C31.251 9.04699 31.1202 10.5855 30.4433 12.05Z" fill="#448FFF"/>
<path d="M16.3926 16.1216C16.7357 16.1214 17.0751 16.1915 17.3901 16.3274C17.705 16.4634 17.9888 16.6624 18.224 16.9121C18.4231 17.1254 18.5994 17.3728 18.3321 17.6544C18.0647 17.9359 17.8344 17.8421 17.5699 17.6544C16.4808 16.9264 16.2874 16.9235 15.2608 17.6544C14.9992 17.8364 14.7461 17.9132 14.5015 17.6544C14.2029 17.37 14.3792 17.0856 14.6096 16.8581C15.0892 16.3957 15.7264 16.1324 16.3926 16.1216Z" fill="#448FFF"/>
</svg>
