<svg width="46" height="43" viewBox="0 0 46 43" fill="none" xmlns="http://www.w3.org/2000/svg">
<path d="M23.6408 42.5706C17.3661 42.5086 12.4245 38.4113 11.2543 32.2344C11.1213 31.3715 11.0527 30.4998 11.049 29.6267C10.9284 26.7452 9.1682 24.4505 6.51164 23.7595C5.4744 23.5227 4.39033 23.5975 3.39547 23.9746C2.6751 24.2125 1.95147 24.444 1.22132 24.6265C1.15256 24.6582 1.07781 24.6748 1.0021 24.6753C0.926383 24.6758 0.851444 24.66 0.782305 24.6292C0.713165 24.5983 0.651421 24.553 0.60121 24.4963C0.550999 24.4397 0.513481 24.3729 0.491171 24.3005C0.467857 24.2364 0.457851 24.1683 0.461764 24.1002C0.465678 24.0321 0.483429 23.9655 0.513933 23.9045C0.544437 23.8435 0.587054 23.7893 0.639184 23.7453C0.691313 23.7013 0.751861 23.6684 0.81713 23.6486C2.71747 23.0358 4.57544 22.1329 6.65506 22.6088C9.7093 23.3227 11.8183 25.8456 12.154 29.1084C12.2779 30.3178 12.2159 31.5434 12.5158 32.7429C13.0602 34.9555 14.2607 36.952 15.9598 38.4702C17.6589 39.9884 19.7774 40.9576 22.0371 41.2504C24.1167 41.5438 26.092 41.4949 27.8066 40.0509C28.6347 39.3416 29.2497 38.4162 29.583 37.378C30.3816 35.0409 30.7695 32.5995 31.3823 30.2069C31.8713 28.3001 32.2559 26.3345 33.55 24.7373C34.7754 23.2204 36.5453 22.2425 38.4817 22.0123C40.401 21.7856 42.3467 22.011 44.1632 22.6708C44.5935 22.8174 45.1737 22.938 44.9911 23.5508C44.8086 24.1636 44.2805 23.9583 43.8307 23.8116C41.7869 23.1597 39.7008 22.8109 37.5951 23.4172C35.4014 24.0496 34.0324 25.5653 33.312 27.7264C32.3341 30.6111 31.8941 33.6197 31.0531 36.5273C30.5413 38.3168 29.8894 39.9466 28.3639 41.1461C26.9623 42.2283 25.3651 42.5901 23.6408 42.5706Z" fill="#448FFF"/>
<path d="M33.8683 5.03984C32.2711 4.89316 30.7456 5.27779 29.1973 5.51574C28.9669 5.57304 28.7247 5.56124 28.501 5.48183C28.2772 5.40242 28.0818 5.2589 27.9391 5.06918C26.8667 3.82076 25.8562 2.4778 24.3829 1.63683C19.0437 -1.42067 14.741 2.20726 14.0728 6.69898C13.7892 8.61887 14.2358 10.2845 15.7026 11.6633C16.0198 11.998 16.3107 12.3565 16.5729 12.7357C16.7806 12.9715 16.9145 13.263 16.958 13.5742C17.0015 13.8854 16.9526 14.2025 16.8174 14.4861C16.6511 14.8577 16.5077 15.2391 16.3382 15.6074C15.2267 18.0456 14.402 20.5555 14.402 23.5282C14.3735 24.5035 14.5455 25.4742 14.9072 26.3804C15.0124 26.725 15.2302 27.0244 15.5257 27.2306C15.8212 27.4369 16.1773 27.5381 16.537 27.518C17.303 27.5115 17.7398 26.9997 18.0006 26.2565C18.47 24.8712 18.9426 23.4826 19.4804 22.1234C20.279 20.1089 21.5014 18.4139 23.392 17.2568C24.1612 16.7874 24.6958 16.9602 24.9598 17.8077C25.4554 19.3379 25.5508 20.9696 25.2369 22.5471C24.8555 24.5029 24.0797 26.3282 23.4115 28.1862C23.1442 28.9229 23.1312 29.5715 23.7375 30.1126C24.3438 30.6537 25.0902 30.6113 25.778 30.2202C26.6019 29.7434 27.3312 29.1191 27.9293 28.3785C29.7319 26.2565 30.7195 23.7336 31.3845 21.0803C31.8962 19.0333 32.1603 18.6519 34.2008 18.4335C36.8606 18.1467 38.5262 16.6798 39.4161 14.2906C41.1698 9.72714 39.139 5.51574 33.8683 5.03984ZM38.7903 12.325C38.3307 14.4568 37.4864 16.3865 35.1037 17.0547C34.4029 17.2503 33.6629 17.3024 32.9523 17.4687C31.7528 17.7457 30.8988 18.4139 30.5891 19.6656C30.0865 21.95 29.2472 24.1471 28.0988 26.1848C27.4143 27.342 26.6092 28.3916 25.4194 29.0761C25.1521 29.2293 24.8848 29.5422 24.5459 29.2358C24.2069 28.9294 24.5067 28.6686 24.6143 28.4242C25.5324 26.3923 26.1358 24.2325 26.4038 22.0191C26.5896 20.4153 26.5896 18.8247 26.0159 17.2829C25.9151 16.9726 25.7433 16.6902 25.5141 16.4581C25.2849 16.2259 25.0047 16.0505 24.6958 15.9457C24.3868 15.841 24.0577 15.8098 23.7346 15.8546C23.4115 15.8994 23.1033 16.019 22.8346 16.2039C20.3084 17.7816 19.0437 20.3013 17.8702 22.8894C17.4942 23.8188 17.1677 24.7676 16.8923 25.7317C16.8076 25.9892 16.7782 26.3217 16.449 26.338C16.1198 26.3543 15.9927 26.0121 15.8982 25.7252C15.2951 23.9064 15.494 22.0908 15.9275 20.2719C16.3672 18.5352 16.9855 16.8486 17.7724 15.2391C18.0689 14.6846 18.1841 14.0511 18.1016 13.4278C18.0192 12.8045 17.7433 12.2227 17.3128 11.7644C17.052 11.417 16.7712 11.085 16.4718 10.7702C15.2625 9.61305 14.9692 8.21794 15.2202 6.60445C15.6602 3.76534 18.6101 1.26524 20.9799 1.65965C22.7119 1.93582 24.2984 2.79342 25.4781 4.0913C26.7167 5.41796 27.8087 6.88803 29.2853 8.00281C29.9043 8.4908 30.6198 8.84187 31.3845 9.03284C31.7984 9.13063 32.2385 9.22516 32.3917 8.68733C32.5449 8.14949 32.1407 7.98651 31.7137 7.89199C30.9249 7.72249 30.2827 7.27918 29.4939 6.71853C31.3454 6.27523 33.0078 6.06661 34.7093 6.39257C37.7211 6.93367 39.4357 9.33924 38.7903 12.325Z" fill="#448FFF"/>
</svg>
