<svg width="24" height="24" viewBox="0 0 24 24" fill="none" xmlns="http://www.w3.org/2000/svg">
<path d="M14.3766 15.2391L7.6125 17.8406C6.66094 18.1922 5.80781 17.2969 6.15937 16.3875L8.76094 9.62344C8.91094 9.225 9.225 8.91094 9.62344 8.76094L16.3875 6.15937C17.2969 5.80781 18.1922 6.66094 17.8406 7.6125L15.2391 14.3766C15.0891 14.775 14.775 15.0891 14.3766 15.2391ZM11.9578 10.5C11.1703 10.5 10.4578 11.1703 10.4578 12C10.4578 12.8297 11.1703 13.5 11.9578 13.5C12.8297 13.5 13.5 12.8297 13.5 12C13.5 11.1703 12.8297 10.5 11.9578 10.5ZM24 12C24 18.6281 18.6281 24 12 24C5.37188 24 0 18.6281 0 12C0 5.37188 5.37188 0 12 0C18.6281 0 24 5.37188 24 12ZM12 2.25C6.61406 2.25 2.25 6.61406 2.25 12C2.25 17.3859 6.61406 21.75 12 21.75C17.3859 21.75 21.75 17.3859 21.75 12C21.75 6.61406 17.3859 2.25 12 2.25Z" fill="black"/>
</svg>
