<svg width="144" height="25" viewBox="0 0 144 25" fill="none" xmlns="http://www.w3.org/2000/svg">
<path fill-rule="evenodd" clip-rule="evenodd" d="M83.1122 13.4641L88.1113 11.3872C87.8335 10.6869 87.0124 10.2039 86.0344 10.2039C84.7846 10.1979 83.0518 11.3027 83.1122 13.4641ZM88.9806 15.4746L90.8885 16.7425C90.2727 17.6542 88.7935 19.2239 86.2276 19.2239C83.0518 19.2239 80.7576 16.7666 80.7576 13.6332C80.7576 10.3065 83.07 8.04247 85.9559 8.04247C88.6063 8.13303 90.2546 9.84164 90.9972 12.2325L83.5107 15.3237C84.0842 16.4467 84.9718 17.0202 86.2215 17.0202C87.4652 17.0202 88.3346 16.4044 88.9686 15.4746H88.9806ZM76.8332 18.8858H79.2905V2.46384H76.8332V18.8858ZM72.8243 13.6513C72.8243 11.6831 71.5082 10.2401 69.8358 10.2401C68.1453 10.2401 66.7204 11.6831 66.7204 13.6513C66.7204 15.6014 68.1392 17.0202 69.8358 17.0202C71.5142 17.0202 72.8243 15.6014 72.8243 13.6513ZM74.9858 8.38057V18.4028C74.9858 22.5324 72.5527 24.229 69.6728 24.229C66.9619 24.229 65.3318 22.4057 64.716 20.9265L66.8533 20.039C67.2336 20.9506 68.1694 22.0313 69.6728 22.0313C72.4198 21.7192 72.6613 19.9424 72.6613 17.9439H72.5708C72.0214 18.6201 70.9588 19.2179 69.6245 19.2179C66.8291 19.2179 64.2632 16.7848 64.2632 13.6453C64.2632 10.4877 66.8231 8.0304 69.6245 8.0304C70.9588 8.0304 72.0214 8.62207 72.5708 9.28015H72.6553V8.36849C72.6553 8.36246 74.9858 8.36246 74.9858 8.36246V8.38057ZM48.1793 13.6332C48.1793 11.6227 46.7424 10.2462 45.0821 10.2462C43.4157 10.2462 41.9849 11.6227 41.9849 13.6332C41.9849 15.6256 43.4218 17.0202 45.0821 17.0202C46.7424 17.0202 48.1793 15.6195 48.1793 13.6332ZM50.5943 13.6332C50.5943 16.8512 48.1189 19.2239 45.0821 19.2239C42.0452 19.2239 39.5699 16.8512 39.5699 13.6332C39.5699 10.3911 42.0452 8.04247 45.0821 8.04247C48.1189 8.04247 50.5943 10.3911 50.5943 13.6332ZM60.5562 13.6332C60.5562 11.6227 59.1192 10.2462 57.4589 10.2462C55.7926 10.2462 54.3617 11.6227 54.3617 13.6332C54.3617 15.6256 55.7986 17.0202 57.4589 17.0202C59.1192 17.0202 60.5562 15.6195 60.5562 13.6332ZM62.9712 13.6332C62.9712 16.8512 60.4958 19.2239 57.4589 19.2239C54.4221 19.2239 51.9467 16.8512 51.9467 13.6332C51.9467 10.3911 54.4221 8.04247 57.4589 8.04247C60.4958 8.04247 62.9712 10.3911 62.9712 13.6332ZM30.1272 19.2239C25.3455 19.2239 21.3125 15.3237 21.3125 10.5299C21.3125 5.74219 25.3395 1.83594 30.1272 1.83594C32.7777 1.83594 34.6614 2.87438 36.0802 4.23282L34.4078 5.9052C33.3935 4.95128 32.017 4.20867 30.1272 4.20867C26.6315 4.20867 23.9086 7.02817 23.9086 10.4877C23.9086 13.9834 26.6436 16.7666 30.1272 16.7666C32.3913 16.7666 33.6833 15.855 34.5104 15.0278C35.1866 14.3516 35.6334 13.3736 35.8025 12.0393H30.1272V9.66655H38.0967C38.1812 10.0892 38.2235 10.5963 38.2235 11.1457C38.2235 12.9268 37.7345 15.1305 36.1708 16.6942C34.6493 18.2941 32.6992 19.1454 30.1333 19.1454" fill="black"/>
<path d="M96.7656 18.7592V4.16016H98.651L103.721 13.052H103.798L108.868 4.16016H110.753V18.7592H108.868L108.945 7.65067H108.868L104.308 15.6508H103.212L98.6516 7.65067H98.5752C98.7143 11.3456 98.6516 15.0648 98.6516 18.7592H96.7656ZM116.639 19.0139C115.569 19.0139 114.702 18.7082 113.989 18.0967C113.275 17.4852 112.919 16.6699 112.919 15.6757C112.919 14.5801 113.352 13.7394 114.193 13.1279C115.033 12.5164 116.078 12.2107 117.301 12.2107C118.397 12.2107 119.314 12.4145 120.002 12.8221C119.983 10.703 118.519 10.1215 117.377 10.1215C116.3 10.1726 115.365 10.6233 114.983 11.5737L113.275 10.8348C113.505 10.2488 113.963 9.68772 114.651 9.17876C115.339 8.6698 116.231 8.41441 117.352 8.41441C118.626 8.41441 119.696 8.79658 120.537 9.53545C121.378 10.2743 121.811 11.3444 121.811 12.6947V18.7331H120.027V17.3573C119.194 18.4019 118.068 18.9904 116.639 19.0133V19.0139ZM120.002 14.3769C118.904 13.5412 116.613 13.4368 115.543 14.3005C114.702 15.1158 114.613 16.2088 115.492 16.8483C117.617 18.2114 120.078 16.089 120.002 14.3769ZM129.123 19.0139C128.359 19.0139 127.671 18.8611 127.085 18.5299C126.499 18.1986 126.04 17.791 125.734 17.3069H125.632L125.709 18.6827V23.0905H123.849V8.69528H125.632V10.0711H125.709C126.015 9.58701 126.448 9.17936 127.059 8.84815C127.671 8.51693 128.359 8.36406 129.097 8.36406C130.397 8.36406 131.492 8.87363 132.435 9.89275C133.378 10.9119 133.836 12.1858 133.836 13.689C133.836 15.1922 133.377 16.4661 132.435 17.4853C131.518 18.5044 130.397 19.0139 129.123 19.0139ZM128.817 17.2814C129.683 17.2814 130.422 16.9502 131.059 16.2878C131.696 15.6253 132.002 14.7591 132.002 13.6635C132.002 12.568 131.696 11.7017 131.059 11.0393C130.422 10.3768 129.683 10.0456 128.817 10.0456C127.925 10.0456 127.187 10.3768 126.575 11.0138C125.964 11.6762 125.658 12.5425 125.658 13.638C125.658 14.7336 125.964 15.6253 126.575 16.2623C127.187 16.9757 127.925 17.2814 128.817 17.2814ZM139.314 19.0139C138.193 19.0139 137.276 18.7337 136.563 18.1986C135.824 17.6636 135.314 16.9757 134.957 16.1604L136.639 15.4725C137.174 16.7209 138.066 17.3579 139.34 17.3579C139.926 17.3579 140.41 17.2311 140.766 16.9757C141.149 16.7209 141.327 16.3897 141.327 15.9566C141.327 15.2941 140.868 14.861 139.951 14.6317L137.938 14.1476C137.301 13.9947 136.69 13.6635 136.129 13.2304C135.569 12.7973 135.263 12.1603 135.263 11.396C135.263 10.5042 135.645 9.79084 136.435 9.2558C137.225 8.69528 138.142 8.44049 139.212 8.44049C140.104 8.44049 140.894 8.64432 141.582 9.05197C142.27 9.45962 142.779 10.0201 143.059 10.7845L141.429 11.4469C141.072 10.5552 140.308 10.1221 139.136 10.1221C138.575 10.1221 138.117 10.2488 137.735 10.4787C137.354 10.7087 137.175 11.0138 137.175 11.4214C137.175 11.982 137.608 12.3896 138.5 12.5934L140.487 13.052C141.43 13.2814 142.117 13.638 142.576 14.1731C143.035 14.7081 143.238 15.2941 143.238 15.9566C143.238 16.8483 142.882 17.6126 142.143 18.1986C141.43 18.7082 140.487 19.0139 139.315 19.0139H139.314Z" fill="black"/>
<path d="M4.64062 14.9566C5.26353 15.7356 5.89794 16.7152 6.22994 17.3068C6.63425 18.076 6.80189 18.5954 7.10266 19.5256C7.27852 20.0351 7.44616 20.1896 7.79788 20.1896C8.18247 20.1896 8.35833 19.93 8.4931 19.5256C8.77415 18.6529 8.9911 17.9889 9.3346 17.3562C10.6593 14.858 12.8189 13.0829 14.0352 10.6505C14.0352 10.6505 14.8356 9.16471 14.8356 7.08397C14.8356 5.14459 14.0467 3.79688 14.0467 3.79688L4.64556 14.973L4.64062 14.9566Z" fill="#34A853"/>
<path d="M1.44901 10.3875C2.20668 12.1132 3.65136 13.6253 4.63749 14.9566L9.86398 8.7604C9.86398 8.7604 9.12602 9.72681 7.7931 9.72681C6.30734 9.72681 5.09768 8.54346 5.09768 7.04783C5.09768 6.01896 5.71073 5.30566 5.71073 5.30566C1.86482 5.87762 2.07848 6.80951 1.4375 10.3842L1.44901 10.3875Z" fill="#FBBC04"/>
<path d="M9.92912 0.325195C11.6713 0.885645 13.1505 2.06736 14.038 3.79308L9.86337 8.77304C9.86337 8.77304 10.4764 8.05645 10.4764 7.03087C10.4764 5.50402 9.18788 4.35189 7.79743 4.35189C6.47766 4.35189 5.72656 5.30679 5.72656 5.30679C6.04705 4.57706 9.35881 0.573371 9.93405 0.326839L9.92912 0.325195Z" fill="#4285F4"/>
<path d="M2.40625 2.51463C3.44497 1.27868 5.26603 0 7.78065 0C8.99524 0 9.91727 0.322136 9.91727 0.322136L5.72622 5.30209C5.44353 5.14875 2.68565 3.00112 2.40625 2.50806V2.51463Z" fill="#1A73E8"/>
<path d="M1.45099 10.3874C1.45099 10.3874 0.765625 9.02656 0.765625 7.06744C0.765625 5.21023 1.49207 3.58312 2.40917 2.53125L5.72914 5.32528L1.45592 10.3874H1.45099Z" fill="#EA4335"/>
</svg>
