<svg width="61" height="27" viewBox="0 0 61 27" fill="none" xmlns="http://www.w3.org/2000/svg">
<path d="M26.0291 13.8151C26.0291 12.214 25.7258 10.6871 25.197 9.27058C25.0573 13.9327 20.3185 17.5423 17.5363 19.9307H24.4998C25.4733 18.1068 26.0291 16.0261 26.0291 13.8148V13.8151ZM20.9951 3.54967C18.7901 1.83301 16.0257 0.800781 13.0148 0.800781C5.82691 0.800781 0 6.62769 0 13.8151C0 21.0026 5.82691 26.8291 13.0148 26.8291C16.3064 26.8291 19.303 25.5976 21.5949 23.5824H12.1727L12.1441 20.8152C17.8214 15.88 21.3015 12.5419 21.3015 9.31822C21.3015 8.12005 20.845 6.60824 18.7913 6.60824C17.1651 6.60824 15.5961 7.55034 15.8812 11.4867H12.5721C11.7447 6.92267 14.2264 3.29916 18.962 3.29916C19.696 3.29916 20.3753 3.3869 20.9947 3.54967H20.9951Z" fill="#A3C627"/>
<path d="M38.0988 9.79722H41.1772C41.2824 7.45566 40.4935 3.74561 35.4154 3.74561C31.6787 3.74561 28.9688 5.98236 28.9688 10.6393C28.9688 11.2709 28.995 14.5331 28.995 16.5591C28.995 21.6114 32.495 22.7159 35.4416 22.7159C37.2043 22.7159 39.7567 22.3209 40.9406 21.0318V12.9804H35.1522V15.9012H37.7307V19.4533C35.7834 20.1107 32.2314 20.3743 32.2314 15.9012V10.6389C32.2314 7.50767 33.6789 6.42899 35.2832 6.42899C36.9411 6.42899 38.0988 7.27145 38.0988 9.79722ZM60.9967 17.6116C61.1281 10.4027 52.8667 12.7966 52.9449 8.77135C52.9711 7.35085 53.8922 6.42979 55.3925 6.42979C56.9972 6.42979 57.9441 7.37705 57.9179 9.85042H60.9439C61.0229 7.61367 60.4969 3.7988 55.4981 3.7988C52.3931 3.7988 49.8411 5.32531 49.7883 8.71894C49.6569 15.6384 57.9711 13.3759 57.8397 17.5595C57.7869 19.2695 56.5498 20.0325 55.1555 20.0325C53.5246 20.0325 52.2085 19.0853 52.4721 16.2439H49.4195C49.0777 20.0063 50.7356 22.6905 55.1297 22.6905C58.8393 22.6905 60.9439 20.6372 60.9967 17.6116ZM47.0966 22.4527H43.9924V4.03503H47.0966V22.4527ZM47.0966 22.4527H43.9924V4.03503H47.0966V22.4527Z" fill="black"/>
</svg>
