<svg width="120" height="25" viewBox="0 0 120 25" fill="none" xmlns="http://www.w3.org/2000/svg">
<path fill-rule="evenodd" clip-rule="evenodd" d="M23.6551 12.2443C23.6551 5.73004 18.3587 0.447266 11.8276 0.447266C5.29399 0.447266 0 5.73004 0 12.2443C0 18.7586 5.29644 24.0414 11.8276 24.0414C18.3587 24.0414 23.6551 18.7586 23.6551 12.2443Z" fill="#FC3F1D"/>
<path fill-rule="evenodd" clip-rule="evenodd" d="M13.4064 7.13337H12.3212C10.3001 7.13337 9.26627 8.16451 9.26627 9.64036C9.26627 11.3117 10.0061 12.0985 11.4833 13.1296L12.7156 13.9653L9.16828 19.2749H6.50781L9.71213 14.5566C7.88949 13.2298 6.85323 11.9519 6.85323 9.83828C6.85323 7.13581 8.72487 5.31543 12.3236 5.31543H15.8709V19.3238H13.4064V7.13337Z" fill="white"/>
<path fill-rule="evenodd" clip-rule="evenodd" d="M37.3782 0.469727C32.1332 0.469727 27.8828 4.70914 27.8828 9.9406C27.8828 12.5551 28.946 14.9228 30.6633 16.6357C32.3806 18.351 36.4301 20.8311 36.6677 23.4359C36.7045 23.8268 36.9862 24.1469 37.3806 24.1469C37.7726 24.1469 38.0568 23.8268 38.0935 23.4359C38.3312 20.8311 42.3782 18.3486 44.0979 16.6357C45.8152 14.9204 46.8785 12.5551 46.8785 9.9406C46.8785 4.70914 42.6281 0.469727 37.3831 0.469727H37.3782Z" fill="#FF4433"/>
<path fill-rule="evenodd" clip-rule="evenodd" d="M37.379 13.2527C39.2139 13.2527 40.7034 11.7695 40.7034 9.93688C40.7034 8.10672 39.2164 6.62109 37.379 6.62109C35.5442 6.62109 34.0547 8.10672 34.0547 9.93688C34.0547 11.767 35.5417 13.2527 37.379 13.2527Z" fill="white"/>
<path fill-rule="evenodd" clip-rule="evenodd" d="M109.56 18.4553H108.147V14.3405H109.634C110.942 14.3405 111.709 14.9294 111.709 16.4101C111.709 17.8909 110.861 18.4553 109.56 18.4553ZM115.979 8.0095V20.8548H119.031V8.0095H115.979ZM105.102 8.0095V20.8548H109.737C112.733 20.8548 114.857 19.3252 114.857 16.3051C114.857 13.4462 112.961 11.941 109.786 11.941H108.147V8.0095H105.102ZM103.308 10.409V8.0095H93.0927V10.409H96.6792V20.8548H99.7243V10.409H103.311H103.308ZM86.8041 18.7045C85.1897 18.7045 84.3666 17.4071 84.3666 14.4431C84.3666 11.4548 85.2387 10.1597 86.9585 10.1597C88.6219 10.1597 89.4377 11.4572 89.4377 14.4211C89.4377 17.4095 88.5655 18.707 86.8041 18.707V18.7045ZM84.1388 8.0095H81.3215V24.5518H84.3666V19.3496C85.1407 20.4932 86.2627 21.1065 87.5734 21.1065C90.5376 21.1065 92.5881 18.7388 92.5881 14.4211C92.5881 10.128 90.594 7.76026 87.7277 7.76026C86.2897 7.76026 85.1113 8.42 84.2956 9.66861L84.1412 8.0095H84.1388ZM75.8217 17.7882C75.4347 18.3527 74.7144 18.8121 73.6414 18.8121C72.3651 18.8121 71.7208 18.0961 71.7208 16.999C71.7208 15.5403 72.7718 15.01 75.3857 15.01H75.8217V17.7882ZM78.8668 12.095C78.8668 8.98688 77.2769 7.80913 74.053 7.80913C72.0344 7.80913 70.4445 8.44688 69.5233 8.98444V11.5134C70.3391 10.8928 72.1324 10.2331 73.6978 10.2331C75.1505 10.2331 75.8217 10.7413 75.8217 12.1267V12.8353H75.3293C70.6698 12.8353 68.6022 14.3747 68.6022 16.9746C68.6022 19.5769 70.1848 21.0332 72.5439 21.0332C74.3372 21.0332 75.104 20.4443 75.6919 19.8334H75.8217C75.8462 20.1633 75.9516 20.5982 76.0471 20.8572H79.0187C78.9134 19.8114 78.8644 18.7632 78.8644 17.7174V12.095H78.8668ZM64.8638 20.8572H68.4724L62.1495 11.5379L67.882 3.11279H64.7316L59.2244 11.2789V3.11279H56.1328V20.8548H59.2244V12.5275L64.8614 20.8548L64.8638 20.8572Z" fill="black"/>
</svg>
