<svg width="95" height="19" viewBox="0 0 95 19" fill="none" xmlns="http://www.w3.org/2000/svg">
<path d="M82.1772 11.0882V9.93662H90.1632L88.189 7.9624L88.8882 7.24949L92.158 10.5193L88.8882 13.7891L88.189 13.0762L90.1769 11.0882H82.1772Z" fill="black"/>
<path fill-rule="evenodd" clip-rule="evenodd" d="M14.9716 9.05864C14.9716 5.01529 11.6841 1.73633 7.63031 1.73633C3.57499 1.73633 0.289062 5.01529 0.289062 9.05864C0.289062 13.102 3.57651 16.3809 7.63031 16.3809C11.6841 16.3809 14.9716 13.102 14.9716 9.05864Z" fill="#FC3F1D"/>
<path fill-rule="evenodd" clip-rule="evenodd" d="M8.61001 5.88668H7.93641C6.68195 5.88668 6.04027 6.5267 6.04027 7.44274C6.04027 8.48012 6.49948 8.96848 7.41638 9.6085L8.18122 10.1272L5.97945 13.4228H4.32812L6.31701 10.4942C5.18572 9.67068 4.54252 8.87748 4.54252 7.56559C4.54252 5.88819 5.70423 4.7583 7.93793 4.7583H10.1397V13.4532H8.61001V5.88668Z" fill="white"/>
<path fill-rule="evenodd" clip-rule="evenodd" d="M23.4874 1.75049C20.2319 1.75049 17.5938 4.38185 17.5938 7.62896C17.5938 9.25176 18.2537 10.7214 19.3196 11.7845C20.3855 12.8492 22.899 14.3886 23.0465 16.0053C23.0693 16.248 23.2441 16.4467 23.4889 16.4467C23.7322 16.4467 23.9086 16.248 23.9314 16.0053C24.0789 14.3886 26.5909 12.8477 27.6583 11.7845C28.7242 10.7199 29.3841 9.25176 29.3841 7.62896C29.3841 4.38185 26.746 1.75049 23.4905 1.75049H23.4874Z" fill="#FF4433"/>
<path fill-rule="evenodd" clip-rule="evenodd" d="M23.4931 9.68548C24.632 9.68548 25.5565 8.76488 25.5565 7.62741C25.5565 6.49145 24.6335 5.56934 23.4931 5.56934C22.3542 5.56934 21.4297 6.49145 21.4297 7.62741C21.4297 8.76337 22.3527 9.68548 23.4931 9.68548Z" fill="white"/>
<path fill-rule="evenodd" clip-rule="evenodd" d="M68.2946 12.9141H67.4173V10.36H68.3403C69.1522 10.36 69.6282 10.7256 69.6282 11.6446C69.6282 12.5637 69.1021 12.9141 68.2946 12.9141ZM72.2785 6.43045V14.4034H74.1731V6.43045H72.2785ZM65.5272 6.43045V14.4034H68.4041C70.2638 14.4034 71.5821 13.454 71.5821 11.5794C71.5821 9.80496 70.4052 8.87071 68.4345 8.87071H67.4173V6.43045H65.5272ZM64.4142 7.91978V6.43045H58.0735V7.91978H60.2996V14.4034H62.1896V7.91978H64.4157H64.4142ZM54.1702 13.0688C53.1681 13.0688 52.6572 12.2634 52.6572 10.4237C52.6572 8.5689 53.1986 7.76508 54.266 7.76508C55.2984 7.76508 55.8048 8.57042 55.8048 10.4101C55.8048 12.2649 55.2635 13.0703 54.1702 13.0703V13.0688ZM52.5158 6.43045H50.7672V16.6981H52.6572V13.4691C53.1377 14.1789 53.8341 14.5596 54.6476 14.5596C56.4875 14.5596 57.7602 13.09 57.7602 10.4101C57.7602 7.74537 56.5225 6.27575 54.7434 6.27575C53.8509 6.27575 53.1195 6.68524 52.6131 7.46024L52.5173 6.43045H52.5158ZM47.3535 12.5C47.1133 12.8504 46.6662 13.1355 46.0002 13.1355C45.208 13.1355 44.8081 12.6911 44.8081 12.0101C44.8081 11.1047 45.4604 10.7756 47.0829 10.7756H47.3535V12.5ZM49.2436 8.96626C49.2436 7.0371 48.2567 6.30608 46.2557 6.30608C45.0027 6.30608 44.0159 6.70192 43.4442 7.03558V8.6053C43.9505 8.22007 45.0636 7.81058 46.0352 7.81058C46.9369 7.81058 47.3535 8.12604 47.3535 8.98597V9.4258H47.0479C44.1558 9.4258 42.8724 10.3813 42.8724 11.995C42.8724 13.6102 43.8547 14.5141 45.319 14.5141C46.4321 14.5141 46.908 14.1486 47.2729 13.7694H47.3535C47.3687 13.9742 47.4341 14.2441 47.4934 14.4049H49.3379C49.2725 13.7558 49.2421 13.1052 49.2421 12.456V8.96626H49.2436ZM40.5521 14.4049H42.7919L38.8673 8.62047L42.4254 3.39111H40.47L37.0518 8.4597V3.39111H35.1328V14.4034H37.0518V9.2347L40.5506 14.4034L40.5521 14.4049Z" fill="black"/>
</svg>
