<svg width="32" height="26" viewBox="0 0 32 26" fill="none" xmlns="http://www.w3.org/2000/svg">
<path d="M10.4875 0C16.1427 0 20.725 3.87844 20.725 8.6625C20.725 13.4466 16.1427 17.325 10.4875 17.325C9.56711 17.325 8.67625 17.2118 7.82477 17.0198C6.31867 17.955 4.14468 18.9 1.47801 18.9C0.986805 18.9 0.541867 18.6096 0.349323 18.1568C0.156681 17.704 0.249636 17.1823 0.581685 16.8279C0.607328 16.8082 1.69605 15.622 2.50077 14.0716C1.09558 12.5902 0.25 10.71 0.25 8.6625C0.25 3.87844 4.83374 0 10.4875 0ZM8.35141 14.6721C9.07 14.8788 9.78859 14.9625 10.4875 14.9625C14.8286 14.9625 18.3625 12.1373 18.3625 8.6625C18.3625 5.18766 14.8286 2.3625 10.4875 2.3625C6.14641 2.3625 2.6125 5.18766 2.6125 8.6625C2.6125 10.395 3.48416 11.6747 4.21555 12.4474L5.37367 13.673L4.59651 15.1643C4.4208 15.4596 4.22343 15.8435 4.0177 16.1684C4.88936 15.9173 5.74773 15.5285 6.58445 14.9674L7.40641 14.4998L8.35141 14.6721ZM21.985 6.30984C27.4188 6.51656 31.75 10.3113 31.75 14.9625C31.75 17.01 30.9034 18.8902 29.5007 20.3716C30.303 21.922 31.3907 23.1082 31.4202 23.1279C31.75 23.4823 31.8435 24.004 31.6073 24.4568C31.4596 24.9096 31.0117 25.2 30.5195 25.2C27.8568 25.2 25.6813 24.255 24.1752 23.3198C23.3238 23.5118 22.4329 23.625 21.5125 23.625C17.4766 23.625 13.987 21.6464 12.3184 18.777C13.1699 18.6637 13.987 18.4718 14.7646 18.206C16.1427 20.037 18.6529 21.2625 21.5125 21.2625C22.2114 21.2625 22.93 21.1788 23.6486 20.9721L24.5936 20.7998L25.4155 21.2674C26.2523 21.8285 27.1087 22.2173 27.9848 22.4684C27.778 22.1435 27.5812 21.7596 27.404 21.4643L26.6263 19.973L27.783 18.7474C28.5163 17.9796 29.3875 16.695 29.3875 14.9625C29.3875 11.6993 26.272 9.01195 22.2557 8.69203L22.3 8.6625C22.3 7.85039 22.1917 7.06289 21.985 6.30984Z" fill="white"/>
</svg>
