<svg width="46" height="21" viewBox="0 0 46 21" fill="none" xmlns="http://www.w3.org/2000/svg">
<path d="M19.6286 10.7341C19.6286 9.52666 19.3999 8.37523 19.0011 7.30702C18.8957 10.8227 15.3223 13.5447 13.2242 15.3458H18.4754C19.2095 13.9704 19.6286 12.4014 19.6286 10.7338V10.7341ZM15.8324 2.99287C14.1696 1.69832 12.085 0.919922 9.81447 0.919922C4.39409 0.919922 0 5.31401 0 10.7341C0 16.1542 4.39409 20.548 9.81447 20.548C12.2967 20.548 14.5564 19.6193 16.2848 18.0996H9.17947L9.15791 16.0129C13.4391 12.2912 16.0635 9.77396 16.0635 7.34294C16.0635 6.4394 15.7193 5.29934 14.1705 5.29934C12.9442 5.29934 11.7611 6.00978 11.976 8.97819H9.48065C8.85673 5.53645 10.7282 2.80396 14.2993 2.80396C14.8528 2.80396 15.3651 2.87012 15.8321 2.99287H15.8324Z" fill="#A3C627"/>
<path d="M28.7287 7.70368H31.0502C31.1295 5.9379 30.5346 3.14014 26.7052 3.14014C23.8874 3.14014 21.8438 4.82688 21.8438 8.33867C21.8438 8.81499 21.8635 11.275 21.8635 12.8028C21.8635 16.6128 24.5029 17.4457 26.7249 17.4457C28.0542 17.4457 29.979 17.1478 30.8717 16.1757V10.1042H26.5067V12.3067H28.4512V14.9853C26.9827 15.4811 24.3041 15.6799 24.3041 12.3067V8.33837C24.3041 5.97712 25.3957 5.16369 26.6055 5.16369C27.8557 5.16369 28.7287 5.79868 28.7287 7.70338V7.70368ZM45.9961 13.5965C46.0952 8.16024 39.8653 9.96553 39.9243 6.93006C39.944 5.85886 40.6386 5.16428 41.77 5.16428C42.9801 5.16428 43.6941 5.87862 43.6744 7.74379H45.9563C46.0159 6.05705 45.6192 3.18025 41.8496 3.18025C39.5081 3.18025 37.5837 4.33139 37.5438 6.89054C37.4447 12.1085 43.7145 10.4023 43.6154 13.5573C43.5756 14.8467 42.6427 15.4221 41.5912 15.4221C40.3614 15.4221 39.3689 14.7078 39.5677 12.5651H37.2657C37.0079 15.4024 38.2582 17.4265 41.5718 17.4265C44.3692 17.4265 45.9566 15.8784 45.9964 13.5968L45.9961 13.5965ZM35.514 17.2472H33.1731V3.35839H35.514V17.2472ZM35.514 17.2472H33.1731V3.35839H35.514V17.2472Z" fill="#434342"/>
</svg>
