<svg width="18" height="21" viewBox="0 0 18 21" fill="none" xmlns="http://www.w3.org/2000/svg">
<path d="M11.7891 0.109375C11.3748 0.109375 11.0391 0.445161 11.0391 0.859375C11.0391 1.27359 11.3748 1.60938 11.7891 1.60938V0.109375ZM16.7891 0.859375H17.5391C17.5391 0.445161 17.2033 0.109375 16.7891 0.109375V0.859375ZM16.7891 14.8594V15.6094C17.2033 15.6094 17.5391 15.2736 17.5391 14.8594H16.7891ZM0.258732 14.329C-0.0341608 14.6219 -0.0341608 15.0968 0.258732 15.3897L5.0317 20.1627C5.3246 20.4556 5.79947 20.4556 6.09236 20.1627C6.38526 19.8698 6.38526 19.3949 6.09236 19.102L1.84972 14.8594L6.09236 10.6167C6.38526 10.3238 6.38526 9.84897 6.09236 9.55607C5.79947 9.26318 5.3246 9.26318 5.0317 9.55607L0.258732 14.329ZM11.7891 1.60938H16.7891V0.109375H11.7891V1.60938ZM16.0391 0.859375V14.8594H17.5391V0.859375H16.0391ZM16.7891 14.1094H0.789062V15.6094H16.7891V14.1094Z" fill="#5C9DFF"/>
</svg>
