<svg width="33" height="33" viewBox="0 0 33 33" fill="none" xmlns="http://www.w3.org/2000/svg">
<path d="M16.4838 0.164062L18.3153 6.10424L22.0681 1.14873L21.7576 7.35711L26.9789 3.98398L24.5637 9.71173L30.6238 8.32782L26.3952 12.8841L32.5632 13.6563L27.0313 16.4916L32.5632 19.3268L26.3952 20.0991L30.6238 24.6553L24.5637 23.2714L26.9789 28.9992L21.7576 25.626L22.0681 31.8344L18.3153 26.8789L16.4838 32.8191L14.6522 26.8789L10.8994 31.8344L11.21 25.626L5.98864 28.9992L8.40385 23.2714L2.34372 24.6553L6.57229 20.0991L0.404303 19.3268L5.93619 16.4916L0.404303 13.6563L6.57229 12.8841L2.34372 8.32782L8.40385 9.71173L5.98864 3.98398L11.21 7.35711L10.8994 1.14873L14.6522 6.10424L16.4838 0.164062Z" fill="#448FFF"/>
</svg>
