<svg width="38" height="37" viewBox="0 0 38 37" fill="none" xmlns="http://www.w3.org/2000/svg">
<path fill-rule="evenodd" clip-rule="evenodd" d="M19.318 7.44385C17.5673 7.44385 14.1849 7.67845 11.7058 10.189C9.28631 12.64 8.99219 16.089 8.99219 18.1233C8.99219 20.1577 9.28631 23.6101 11.7058 26.0611C14.1849 28.5682 17.5778 28.8028 19.318 28.8028C21.0582 28.8028 24.4512 28.5682 26.9302 26.0611C29.3497 23.6101 29.6438 20.1577 29.6438 18.1233C29.6438 16.089 29.3497 12.6365 26.9302 10.189C24.4512 7.67845 21.0582 7.44385 19.318 7.44385ZM19.318 11.5161C19.9786 11.4928 20.6346 11.6343 21.2269 11.9277C21.8191 12.221 22.3292 12.6572 22.7109 13.1968C23.8314 14.7024 23.982 16.7963 23.982 18.1233C23.982 19.4504 23.8314 21.5478 22.7109 23.0499C22.313 23.5724 21.7998 23.996 21.2112 24.2875C20.6227 24.5791 19.9748 24.7308 19.318 24.7308C18.6612 24.7308 18.0133 24.5791 17.4248 24.2875C16.8362 23.996 16.323 23.5724 15.9251 23.0499C14.8046 21.5442 14.6576 19.4504 14.6576 18.1233C14.6576 16.7963 14.8046 14.7024 15.9251 13.1968C16.3071 12.6574 16.8171 12.2215 17.4094 11.9281C18.0016 11.6347 18.6575 11.4931 19.318 11.5161Z" fill="white" stroke="#000003" stroke-width="0.0770322" stroke-miterlimit="22.93"/>
<path d="M28.3984 27.7502C33.5071 22.6416 33.5071 14.3589 28.3984 9.25024C23.2898 4.14161 15.0071 4.14161 9.89843 9.25025C4.7898 14.3589 4.7898 22.6416 9.89844 27.7502C15.0071 32.8589 23.2898 32.8589 28.3984 27.7502Z" fill="white" stroke="#000003" stroke-width="0.0770322" stroke-miterlimit="22.93"/>
<path fill-rule="evenodd" clip-rule="evenodd" d="M16.7188 10.0938C16.9385 10.0959 17.1542 10.1538 17.3455 10.2619C17.4996 10.381 17.5171 10.6576 17.5521 10.9062C17.6396 10.6891 17.5836 10.451 17.7482 10.2864C17.9128 10.1219 18.1649 10.1534 18.3889 10.1008C17.6887 9.9958 17.6676 9.97479 17.5696 9.271C17.5101 9.49159 17.5136 9.77171 17.3735 9.90826C17.2335 10.0448 16.9604 10.0378 16.7188 10.0938Z" fill="#FBFBFC"/>
<path fill-rule="evenodd" clip-rule="evenodd" d="M13.0078 10.0519C13.442 10.2165 14.1353 9.9714 14.3244 10.8573C14.3423 11.0671 14.3751 11.2753 14.4224 11.4805C14.5099 10.6717 14.552 10.311 15.2172 10.164C15.3993 10.122 15.6899 10.122 15.8405 10.0659C14.755 9.93288 14.566 9.86636 14.4399 8.81942V8.72138C14.4384 8.71446 14.4384 8.70729 14.4399 8.70037C14.4386 8.69461 14.4386 8.68862 14.4399 8.68286C14.3279 9.84535 14.1213 9.92238 13.0078 10.0519Z" fill="#FDFCFC"/>
<path fill-rule="evenodd" clip-rule="evenodd" d="M18.4141 8.71113C19.2754 8.88271 19.4645 8.74265 19.5766 9.87712C19.7726 9.36941 19.405 8.80567 20.7776 8.72864C19.8672 8.58508 19.6746 8.58158 19.6081 7.57666L19.5731 7.69571C19.4365 8.56407 19.3875 8.57108 18.4141 8.71113Z" fill="#FDFCFC"/>
<path fill-rule="evenodd" clip-rule="evenodd" d="M13.2422 16.7082L14.2191 17.5661C14.7583 18.0002 15.2205 18.3364 15.7877 18.732C16.2675 19.0612 16.9677 19.5059 17.465 19.7825C18.3018 20.2482 18.9636 20.6333 19.8565 21.036C20.5147 21.3336 21.1065 21.5962 21.7823 21.8483C22.01 21.9446 22.2439 22.0253 22.4826 22.0899C22.6576 20.8469 23.8131 19.0297 24.3068 17.7411C24.5324 17.2377 24.7083 16.7135 24.832 16.176C24.832 16.1445 24.832 16.127 24.832 16.0884C24.797 15.9904 24.811 16.0324 24.769 15.9939C24.7235 16.0429 24.769 15.9939 24.727 16.0464L24.678 16.225C24.6757 16.2623 24.6757 16.2997 24.678 16.337L24.629 16.6417L24.5834 16.7187L24.4714 16.7817L24.4434 17.1109L24.2368 17.3385C24.2368 17.3385 14.4012 17.2964 14.2506 17.2649C13.9985 17.2159 14.051 17.3069 13.9005 17.1494C13.7499 16.9918 13.8234 17.0934 13.7184 17.0058L13.6133 16.9498C13.6133 16.9498 13.6484 17.0443 13.6133 16.9148C13.5783 16.7852 13.5118 16.8623 13.4208 16.6907L13.2422 16.7082Z" fill="white"/>
<path fill-rule="evenodd" clip-rule="evenodd" d="M22.1172 12.0657L22.3798 12.1077L22.4743 11.9432L22.765 11.8731H22.7825L22.835 11.8311C22.905 11.7856 22.8875 11.8661 22.919 11.7471L24.2916 11.7261L24.6733 11.8031C24.6733 11.8031 24.6733 11.8031 24.6908 11.8031C24.7468 11.8031 24.6908 11.8031 24.7153 11.8241V11.8626C24.8098 11.8626 24.8553 11.9292 24.9359 11.9292C25.1495 11.9292 25.0164 11.9292 25.1354 12.0027L25.3701 12.1112C25.4506 12.1428 25.4261 12.2023 25.4121 12.3108C25.5346 12.3108 25.6046 12.2898 25.6817 12.3703L25.7027 12.3949C25.7307 12.4299 25.7027 12.4229 25.7587 12.4579C25.8813 12.5489 25.7867 12.4264 25.8918 12.5174L26.0073 12.5944C25.9618 12.668 25.9688 12.4999 25.9688 12.689C25.4961 12.689 24.3371 12.7135 23.9169 12.654C23.7678 12.665 23.6179 12.665 23.4688 12.654L23.1921 12.633C23.1283 12.6228 23.063 12.6378 23.0101 12.675C22.961 12.731 23.0101 12.675 22.982 12.787C22.9015 12.787 22.8035 12.787 22.7264 12.787C22.6494 12.787 22.6144 12.808 22.5164 12.808C22.6109 12.9376 22.5794 12.8711 22.5864 12.8535C22.5234 12.8851 22.5129 12.9446 22.4428 12.9866L22.5059 13.0286C22.5514 13.0706 22.5549 13.1057 22.6284 13.1127C22.6529 13.0566 22.6109 13.0566 22.744 13.0636C22.8673 13.0888 22.9927 13.1029 23.1186 13.1057L23.1431 13.2212C23.2797 13.2212 23.2061 13.2597 23.2587 13.1617C23.2342 13.1932 23.2167 13.1617 23.2587 13.1862H23.2867C23.4232 13.2177 23.2867 13.1407 23.3567 13.2107L23.5213 13.2492V13.3963C23.5853 13.3894 23.6498 13.3894 23.7139 13.3963L23.8574 13.4243C23.9309 13.4243 23.98 13.4838 23.9695 13.4068C23.8062 13.2474 23.6086 13.1276 23.3917 13.0566C23.1371 12.9746 22.8714 12.9321 22.6039 12.9306C22.926 12.7205 23.7979 12.7275 24.2531 12.8991C25.251 13.2737 25.7342 14.2716 25.7202 15.3116C25.6986 15.8626 25.5801 16.4054 25.3701 16.9153C24.7713 18.666 24.2776 19.4083 23.5073 20.8719C23.2679 21.3028 23.0698 21.7553 22.9155 22.2235C23.2386 22.3312 23.567 22.4223 23.8994 22.4966C23.9985 22.209 24.1215 21.9303 24.2671 21.6632C24.6347 20.9034 25.139 20.0876 25.5136 19.2892C25.7727 18.743 26.0213 18.1933 26.2419 17.612C26.7496 16.2675 27.1908 15.0875 26.7006 13.6379C26.6116 13.3758 26.4893 13.1263 26.3365 12.8956C26.1824 12.6512 25.9869 12.4355 25.7587 12.2583C25.3709 11.9407 24.9117 11.7222 24.4207 11.6216C23.9296 11.5209 23.4215 11.5412 22.94 11.6806C22.6591 11.7344 22.395 11.8544 22.1697 12.0307L22.1172 12.0657Z" fill="white"/>
<path fill-rule="evenodd" clip-rule="evenodd" d="M13.245 16.7083H13.4376C13.5286 16.8799 13.6092 16.8414 13.6302 16.9324C13.6512 17.0234 13.6302 16.9674 13.6302 16.9674L13.7352 17.0234C13.8403 17.111 13.8087 17.0479 13.9173 17.167C14.0258 17.286 14.0048 17.2335 14.2674 17.2825C14.418 17.3141 24.2536 17.3561 24.2536 17.3561L24.4602 17.1285L24.4882 16.7993L24.6003 16.7363L24.6458 16.6593L24.6948 16.3547C24.6925 16.3173 24.6925 16.2799 24.6948 16.2426L24.7438 16.064C24.7788 16.0115 24.7438 16.064 24.7858 16.0115C24.8279 16.05 24.8139 16.0115 24.8489 16.106C24.8489 16.1446 24.8489 16.1621 24.8489 16.1936C25.0304 15.4207 24.8982 14.6073 24.4812 13.9316C24.3883 13.7939 24.2803 13.6671 24.1591 13.5535C24.0855 13.4834 24.1031 13.4659 24.0155 13.4484C24.0155 13.5255 23.977 13.4729 23.9035 13.4659L23.7599 13.4379C23.6959 13.4311 23.6313 13.4311 23.5673 13.4379V13.2909L23.4028 13.2524C23.3327 13.1823 23.4693 13.2524 23.3327 13.2278H23.3047C23.2452 13.1998 23.2627 13.2278 23.3047 13.2033C23.2522 13.3014 23.3257 13.2453 23.1892 13.2629L23.1647 13.1473C23.0388 13.1446 22.9134 13.1305 22.79 13.1053C22.6569 13.1053 22.699 13.1053 22.6745 13.1543C22.6009 13.1543 22.5974 13.1123 22.5519 13.0703L22.4889 13.0283C22.5589 12.9862 22.5694 12.9267 22.6324 12.8952C22.6324 12.8952 22.6569 12.9792 22.5624 12.8497C22.6605 12.8497 22.6815 12.8497 22.7725 12.8287C22.8635 12.8077 22.9476 12.8287 23.0281 12.8287C23.0281 12.7236 23.0071 12.7727 23.0561 12.7166C23.109 12.6795 23.1743 12.6644 23.2382 12.6746L23.5148 12.6956C23.664 12.7067 23.8138 12.7067 23.963 12.6956C24.3832 12.7551 25.5422 12.7271 26.0149 12.7306C26.0149 12.5416 26.0149 12.7096 26.0534 12.6361L25.9378 12.5591C25.8328 12.468 25.9378 12.5906 25.8048 12.4995C25.7557 12.4645 25.7768 12.4715 25.7487 12.4365L25.7277 12.412C25.6507 12.3315 25.5807 12.3525 25.4581 12.3525C25.4581 12.2439 25.4966 12.1844 25.4161 12.1529L25.1815 12.0443C25.0625 11.9638 25.1815 11.9673 24.9819 11.9708C24.9014 11.9708 24.8559 11.9113 24.7613 11.9043V11.8658C24.7613 11.8343 24.7929 11.8378 24.7368 11.8448C24.7368 11.8448 24.7368 11.8448 24.7193 11.8448L24.3377 11.7677L22.9651 11.7887C22.9336 11.9078 22.9651 11.8273 22.881 11.8728L22.8285 11.9148H22.811L22.5204 11.9848L22.4259 12.1494L22.1632 12.1074C22.1037 12.1074 21.7046 12.377 21.5995 12.44C20.5179 13.0603 19.302 13.4087 18.056 13.4554C17.4916 13.4807 16.9265 13.4229 16.3788 13.2839C16.729 13.2278 17.1386 13.2173 17.5133 13.1648C18.3777 13.0465 19.2266 12.834 20.0449 12.5311C20.2007 12.4762 20.3462 12.3957 20.4755 12.293C18.3747 12.5521 17.1772 11.0639 14.9117 11.8903C14.1696 12.1577 13.5319 12.6544 13.0909 13.3084C12.7653 13.7881 12.2296 14.9926 12.2506 15.7349C12.3416 15.7944 12.6393 16.1481 12.7513 16.2601L13.2205 16.7013L13.2555 16.7328C13.252 16.7223 13.1925 16.6978 13.245 16.7083Z" fill="white"/>
<path fill-rule="evenodd" clip-rule="evenodd" d="M22.1118 12.0654L22.1363 12.0374C22.3616 11.8611 22.6257 11.7411 22.9066 11.6873C23.3881 11.5479 23.8962 11.5276 24.3873 11.6283C24.8783 11.7289 25.3375 11.9474 25.7253 12.265C25.9629 12.4377 26.168 12.651 26.3311 12.8953C26.4988 13.1396 26.6319 13.4059 26.7267 13.6866C27.2169 15.1362 26.7758 16.3162 26.268 17.6608C26.0475 18.242 25.7989 18.7917 25.5397 19.338C25.1651 20.1363 24.6609 20.9521 24.2932 21.712C24.1476 21.979 24.0246 22.2577 23.9256 22.5453C23.5932 22.471 23.2648 22.3799 22.9417 22.2722C23.0959 21.8041 23.2941 21.3515 23.5334 20.9206C24.3037 19.457 24.7974 18.7077 25.3962 16.964C25.6062 16.4541 25.7248 15.9113 25.7463 15.3603C25.7463 14.3099 25.2771 13.3224 24.2792 12.9478C23.824 12.7762 22.9522 12.7692 22.63 12.9793C22.8975 12.9808 23.1632 13.0233 23.4179 13.1054C23.6347 13.1763 23.8323 13.2961 23.9956 13.4555C24.0831 13.473 24.0656 13.4905 24.1392 13.5605C24.2604 13.6741 24.3684 13.801 24.4613 13.9387C24.8783 14.6144 25.0105 15.4277 24.8289 16.2007C24.7052 16.7382 24.5293 17.2624 24.3037 17.7658C23.81 19.0543 22.6545 20.8716 22.4795 22.1146C22.2408 22.05 22.0069 21.9693 21.7792 21.873C21.1034 21.6209 20.5116 21.3583 19.8534 21.0607C18.9605 20.658 18.2987 20.2729 17.4619 19.8072C16.9647 19.527 16.2644 19.0824 15.7847 18.7567C15.2174 18.3611 14.7552 18.0249 14.216 17.5907L13.2391 16.7329C13.1866 16.7329 13.2391 16.7329 13.2006 16.7329L13.1656 16.7014L12.6964 16.2602C12.5843 16.1481 12.2867 15.7945 12.1957 15.735C12.1746 14.9926 12.7104 13.7881 13.036 13.3084C13.477 12.6544 14.1147 12.1578 14.8568 11.8903C17.1222 11.064 18.3197 12.5521 20.4206 12.293C20.2913 12.3958 20.1457 12.4763 19.9899 12.5311C19.1717 12.834 18.3228 13.0465 17.4584 13.1649C17.0837 13.2174 16.688 13.2279 16.3239 13.2839C16.8715 13.4229 17.4366 13.4807 18.0011 13.4555C19.247 13.4088 20.463 13.0603 21.5446 12.4401C21.6496 12.377 22.0488 12.1214 22.1083 12.1074L22.1118 12.0654ZM18.6384 6.83423C18.382 6.883 18.122 6.90994 17.861 6.91476C17.6299 6.93927 17.3883 6.97079 17.1607 7.0128C15.4925 7.30499 13.9081 7.95741 12.5178 8.9246C12.0384 9.26268 11.5811 9.63109 11.1487 10.0276C11.0682 10.1011 11.0192 10.1746 10.9456 10.2447C10.5993 10.5782 10.2775 10.9363 9.98273 11.3161C9.73252 11.627 9.49877 11.9507 9.28244 12.286C9.11437 12.6362 9.28244 13.3365 9.38048 13.6866C9.71634 14.5245 10.1963 15.2971 10.7986 15.9696C10.8322 16.0075 10.8638 16.0472 10.8931 16.0886L11.8175 17.0095C11.9195 17.1176 12.0271 17.2205 12.1396 17.3176C12.2867 17.4717 12.5073 17.6398 12.6824 17.8008C12.8574 17.9619 12.973 18.0459 13.127 18.172C16.0042 20.4604 19.2677 22.2154 22.7631 23.3541C24.3002 23.8514 26.7057 24.4046 28.439 24.0299C28.8565 23.9514 29.252 23.783 29.5979 23.5362C29.7647 23.4242 29.8882 23.2587 29.9481 23.067C30.199 22.4683 30.4004 21.8499 30.5503 21.2182C30.6064 20.9907 30.7709 19.8947 30.806 19.8177V17.4367C30.7744 17.3386 30.7464 16.964 30.7254 16.8239C30.4461 14.9203 29.699 13.1157 28.551 11.5717C28.2989 11.2216 28.1343 11.0745 27.9452 10.8259C27.6756 10.4758 27.322 10.1991 27.1084 9.96104C27.0489 9.89101 26.9859 9.8595 26.9228 9.79647C26.8627 9.73946 26.7996 9.6857 26.7337 9.6354C26.6707 9.57588 26.6252 9.53736 26.5587 9.48134C26.053 9.07174 25.5156 8.70292 24.9515 8.37837C23.7016 7.66274 22.3287 7.18767 20.9038 6.97779L19.6748 6.84823H18.6243L18.6384 6.83423ZM16.7195 10.0941C16.9541 10.0521 17.2378 10.0451 17.3743 9.90852C17.5109 9.77196 17.5109 9.49184 17.5704 9.27125C17.6684 9.97154 17.6824 9.99605 18.3897 10.1011C18.1657 10.1536 17.8855 10.1466 17.749 10.2867C17.6124 10.4267 17.6404 10.6893 17.5529 10.9064C17.5179 10.6578 17.5004 10.3812 17.3463 10.2622C17.155 10.154 16.9393 10.0962 16.7195 10.0941ZM12.9975 10.0661C13.4317 10.2306 14.125 9.98555 14.314 10.8714C14.332 11.0812 14.3648 11.2895 14.4121 11.4947C14.4996 10.6858 14.5416 10.3252 15.2069 10.1781C15.389 10.1361 15.6796 10.1361 15.8302 10.0801C14.7447 9.94703 14.5556 9.8805 14.4296 8.83357V8.73552C14.4281 8.7286 14.4281 8.72144 14.4296 8.71452C14.4282 8.70876 14.4282 8.70277 14.4296 8.69701C14.3386 9.877 14.132 9.95403 13.029 10.0976L12.9975 10.0661ZM18.4038 8.72502C19.3772 8.58496 19.4262 8.57796 19.5627 7.70959L19.5978 7.59055C19.6643 8.59547 19.8569 8.59897 20.7672 8.74253C19.3947 8.81956 19.7623 9.3833 19.5662 9.89101C19.4577 8.74253 19.2721 8.88259 18.4108 8.71101L18.4038 8.72502Z" fill="#E3000F"/>
<path fill-rule="evenodd" clip-rule="evenodd" d="M18.0361 30.1575H20.179C20.2945 30.1225 20.7077 30.098 20.8793 30.07C22.2984 29.8624 23.6671 29.3947 24.9165 28.6904C25.5318 28.3398 26.1174 27.9393 26.6672 27.4929L26.9788 27.2198C27.3858 26.8494 27.7693 26.4541 28.1273 26.0363C28.1844 25.9803 28.2349 25.9181 28.2779 25.8507C26.9543 25.9191 25.628 25.7905 24.3422 25.469L23.1797 25.1819C23.1342 25.2975 23.1027 25.5321 23.0712 25.6581C22.9346 26.2359 22.6265 27.2338 22.0208 27.4754C20.7917 27.9761 20.6202 25.329 19.8288 24.0754C19.7308 23.9179 19.6608 23.9249 19.4787 23.8444C19.048 23.6553 18.943 23.4662 18.4808 24.1455C17.9275 24.9543 17.4618 26.7261 16.7861 27.0307C16.6367 27.0744 16.4792 27.082 16.3263 27.0528C16.1735 27.0235 16.0298 26.9584 15.9072 26.8626C15.2524 26.4144 15.2734 25.9732 15.1719 25.3185C15.0407 24.3823 14.8166 23.4616 14.5031 22.5698C14.2453 21.8958 13.9339 21.2436 13.5717 20.6195L12.2307 19.6706C11.8 19.352 10.718 18.4766 10.3434 18.1265L9.475 17.2931C9.37346 17.1881 9.28943 17.1005 9.19489 16.992L8.66967 16.3967C8.5795 16.3004 8.49531 16.1987 8.41756 16.0921L7.92736 15.4443C7.7821 15.8673 7.67889 16.3036 7.61923 16.7469C7.39497 18.217 7.45081 19.7163 7.7838 21.1657C8.19061 22.9393 9.0113 24.5915 10.1788 25.9872L10.55 26.4109C10.7657 26.6614 10.9998 26.8954 11.2502 27.1112C11.2888 27.1497 11.2993 27.1707 11.3378 27.2058C12.8438 28.5607 14.6769 29.4996 16.6565 29.9299C17.1047 30.0525 17.8785 30.119 18.0361 30.1575Z" fill="#448FFF"/>
</svg>
