<svg width="268" height="104" viewBox="0 0 268 104" fill="none" xmlns="http://www.w3.org/2000/svg">
<g filter="url(#filter0_f_94_1900)">
<rect x="3.63281" y="24.301" width="256.098" height="75.935" rx="13" transform="rotate(-4.54566 3.63281 24.301)" fill="#5C9DFF"/>
</g>
<path d="M43.0156 50.9187L48.928 50.4486L56.2599 56.2306L62.7236 49.3518L68.5901 48.8854L69.8545 64.7893L63.163 65.3213L62.4561 56.4298L57.72 61.8336L55.8867 61.9794L50.3069 57.3496L51.0356 66.5161L44.2983 67.0517L43.0156 50.9187Z" fill="white"/>
<path d="M70.5156 48.7324L88.0236 47.3405L88.3333 51.2362L77.5169 52.0962L77.6845 54.2045L86.851 53.4757L87.1425 57.1423L77.976 57.8711L78.1582 60.1627L89.1121 59.2918L89.4255 63.2334L71.78 64.6363L70.5156 48.7324Z" fill="white"/>
<path d="M95.1395 61.9957C93.3431 61.5046 91.6896 60.5926 90.3158 59.3352C89.122 58.3156 88.3772 56.8671 88.2426 55.3029C88.0896 53.7454 88.5442 52.1891 89.5115 50.9588C90.6996 49.531 92.1806 48.3751 93.8542 47.5695C95.9547 46.6296 98.2073 46.0756 100.504 45.9338C102.301 45.7865 104.111 45.8911 105.879 46.2445C107.55 46.5506 109.157 47.1404 110.63 47.9884C111.85 48.6483 112.777 49.7439 113.226 51.0567L106.443 51.5959C105.776 50.9282 104.942 50.4528 104.027 50.2198C102.92 49.9537 101.775 49.8733 100.641 49.9817C99.5783 50.0396 98.535 50.2946 97.5649 50.7336C96.7231 51.0855 95.9887 51.6529 95.4358 52.3788C94.9353 53.0743 94.7078 53.9296 94.7966 54.7818C94.842 55.652 95.2026 56.4759 95.8111 57.0995C96.4755 57.7237 97.2889 58.1672 98.1735 58.3876C99.2054 58.633 100.271 58.7042 101.327 58.5982C102.412 58.5314 103.482 58.3065 104.502 57.9306C105.242 57.6495 105.855 57.1091 106.226 56.4099L100.909 56.8326L100.636 53.3951L113.515 52.3712C113.822 54.1092 113.543 55.9 112.721 57.4617C111.677 59.058 110.163 60.2905 108.389 60.9885C106.245 61.9444 103.945 62.5023 101.601 62.6351C99.4264 62.8298 97.2342 62.6129 95.1395 61.9957Z" fill="white"/>
<path d="M129.806 60.0231L128.351 57.9711L119.185 58.6998L118.073 60.956L111.014 61.5171L119.558 44.8335L125.791 44.3379L136.91 59.4584L129.806 60.0231ZM121.001 54.8656L125.951 54.4721L123.403 50.8465L123.356 50.2507L123.403 50.8465L121.001 54.8656Z" fill="white"/>
<path d="M151.962 42.2585C154.275 42.0279 156.61 42.1852 158.871 42.7239C160.667 43.0763 162.329 43.9177 163.677 45.1553C164.83 46.1788 165.54 47.6113 165.655 49.149C165.781 50.6903 165.327 52.2231 164.382 53.4473C163.212 54.8447 161.714 55.9304 160.021 56.6075C157.867 57.475 155.589 57.9985 153.272 58.1587L142.96 58.9786L141.696 43.0747L151.962 42.2585ZM157.416 52.8481C157.904 52.497 158.293 52.0261 158.545 51.4808C158.798 50.9356 158.905 50.3345 158.858 49.7355C158.81 49.1366 158.609 48.56 158.273 48.0615C157.938 47.5631 157.479 47.1595 156.943 46.8899C155.427 46.1907 153.742 45.9405 152.088 46.1688L148.743 46.4348L149.388 54.5472L152.825 54.2739C154.471 54.2212 156.072 53.7275 157.462 52.8444L157.416 52.8481Z" fill="white"/>
<path d="M165.523 41.1787L183.031 39.7868L183.341 43.6825L172.525 44.5425L172.692 46.6508L181.859 45.922L182.15 49.5886L172.984 50.3173L173.166 52.609L184.12 51.7381L184.433 55.6797L166.788 57.0826L165.523 41.1787Z" fill="white"/>
<path d="M183.906 39.7173L189.681 39.2582L200.598 47.1996L199.902 38.4456L206.593 37.9136L207.858 53.8174L202.037 54.2802L191.163 46.2893L191.862 55.0891L185.171 55.6211L183.906 39.7173Z" fill="white"/>
<path d="M213.641 41.2738L207.271 41.7803L206.961 37.8845L226.348 36.3432L226.658 40.2389L220.241 40.7491L221.196 52.7572L214.596 53.2819L213.641 41.2738Z" fill="white"/>
<defs>
<filter id="filter0_f_94_1900" x="0.625" y="0.993164" width="267.328" height="102.015" filterUnits="userSpaceOnUse" color-interpolation-filters="sRGB">
<feFlood flood-opacity="0" result="BackgroundImageFix"/>
<feBlend mode="normal" in="SourceGraphic" in2="BackgroundImageFix" result="shape"/>
<feGaussianBlur stdDeviation="2" result="effect1_foregroundBlur_94_1900"/>
</filter>
</defs>
</svg>
