<svg width="431" height="431" viewBox="0 0 431 431" fill="none" xmlns="http://www.w3.org/2000/svg">
<g filter="url(#filter0_d_94_1657)">
<path d="M279.976 322.965C339.432 287.252 358.68 210.102 322.967 150.646C287.253 91.1894 210.103 71.9419 150.647 107.655C91.1909 143.368 71.9434 220.518 107.657 279.974C143.37 339.431 220.52 358.678 279.976 322.965Z" fill="white"/>
<path fill-rule="evenodd" clip-rule="evenodd" d="M212.252 131.372C214.294 131.902 216.168 132.942 217.699 134.394C218.858 135.861 218.378 138.478 218.126 140.875C219.446 139.056 219.478 136.708 221.393 135.558C223.308 134.408 225.583 135.287 227.793 135.318C221.514 132.713 221.367 132.468 222.089 125.685C221.022 127.601 220.404 130.218 218.782 131.165C217.16 132.111 214.633 131.412 212.252 131.372Z" fill="#FBFBFC"/>
<path fill-rule="evenodd" clip-rule="evenodd" d="M177.74 122.348C181.402 124.89 188.429 124.218 188.132 132.909C187.812 134.905 187.633 136.921 187.597 138.942C190.292 131.611 191.521 128.35 198.06 128.526C199.853 128.558 202.56 129.233 204.093 129.061C194.292 125.299 192.685 124.24 193.944 114.196L194.172 113.282C194.174 113.214 194.19 113.148 194.221 113.087C194.221 113.03 194.235 112.974 194.261 112.924C190.516 123.491 188.413 123.729 177.74 122.348Z" fill="#FDFCFC"/>
<path fill-rule="evenodd" clip-rule="evenodd" d="M231.215 122.419C238.84 126.019 240.926 125.154 239.334 135.981C242.34 131.708 240.225 125.602 253.189 128.075C245.043 124.622 243.258 124.142 244.973 114.627L244.37 115.654C241.081 123.425 240.608 123.377 231.215 122.419Z" fill="#FDFCFC"/>
<path fill-rule="evenodd" clip-rule="evenodd" d="M164.496 184.901L171.602 195.162C175.616 200.459 179.14 204.664 183.504 209.668C187.207 213.849 192.697 219.618 196.685 223.35C203.398 229.632 208.667 234.758 216.048 240.583C221.488 244.885 226.39 248.707 232.099 252.625C233.996 254.051 235.987 255.347 238.06 256.503C242.579 245.332 257.565 231.09 265.158 220.235C268.429 216.07 271.286 211.597 273.688 206.877C273.761 206.583 273.801 206.42 273.891 206.061C273.793 205.067 273.825 205.491 273.524 205.034C272.986 205.385 273.524 205.034 273.01 205.426L272.139 206.975C272.031 207.318 271.944 207.666 271.878 208.019L270.714 210.743L270.111 211.354L268.921 211.681L267.895 214.682L265.442 216.322C265.442 216.322 173.925 193.074 172.596 192.431C170.361 191.388 170.639 192.358 169.603 190.541C168.566 188.723 169.015 189.84 168.24 188.78L167.392 188.014C167.392 188.014 167.499 188.976 167.473 187.688C167.448 186.4 166.65 186.963 166.2 185.153L164.496 184.901Z" fill="white"/>
<path fill-rule="evenodd" clip-rule="evenodd" d="M257.892 162.27L260.24 163.272L261.503 161.958L264.373 161.982L264.536 162.022L265.123 161.753C265.881 161.492 265.531 162.201 266.101 161.165L278.935 164.159L282.311 165.764C282.311 165.764 282.311 165.764 282.474 165.804C282.996 165.935 282.474 165.804 282.653 166.057L282.564 166.416C283.444 166.636 283.714 167.361 284.464 167.548C286.453 168.045 285.214 167.735 286.152 168.697L288.085 170.253C288.762 170.734 288.395 171.231 288.013 172.21C289.154 172.495 289.855 172.462 290.386 173.391L290.524 173.668C290.704 174.059 290.459 173.929 290.9 174.385C291.83 175.518 291.234 174.157 292.001 175.249L292.898 176.235C292.303 176.814 292.759 175.265 292.32 177.026C287.917 175.927 277.064 173.462 273.289 171.932C271.873 171.688 270.478 171.34 269.114 170.89L266.586 170.052C266.015 169.808 265.372 169.797 264.793 170.02C264.206 170.428 264.793 170.02 264.271 170.998C263.521 170.811 262.608 170.583 261.891 170.404C261.173 170.225 260.798 170.34 259.885 170.112C260.464 171.538 260.326 170.845 260.431 170.699C259.771 170.846 259.535 171.376 258.785 171.604L259.275 172.142C259.601 172.639 259.552 172.974 260.221 173.21C260.579 172.745 260.188 172.647 261.411 173.022C262.502 173.543 263.637 173.966 264.803 174.284L264.763 175.417C266.035 175.734 265.26 175.922 265.977 175.131C265.676 175.368 265.586 175.033 265.92 175.359L266.181 175.424C267.38 176.035 266.287 175 266.777 175.815L268.22 176.557L267.878 177.926C268.491 178.011 269.092 178.161 269.672 178.374L270.944 178.968C271.629 179.139 271.947 179.808 272.029 179.066C270.878 177.202 269.316 175.627 267.461 174.462C265.28 173.106 262.904 172.092 260.416 171.457C263.904 170.249 272.009 172.34 275.85 174.996C284.275 180.804 286.457 191.223 283.91 200.877C282.428 205.959 280.063 210.74 276.921 215C267.276 229.916 260.952 235.683 250.376 247.526C247.145 250.984 244.248 254.738 241.723 258.74C244.483 260.494 247.33 262.106 250.253 263.571C251.844 261.122 253.638 258.812 255.614 256.663C260.805 250.44 267.397 244.012 272.742 237.447C276.425 232.961 280.018 228.418 283.423 223.517C291.277 212.173 298.128 202.207 296.931 187.565C296.711 184.917 296.151 182.309 295.264 179.805C294.397 177.17 293.077 174.707 291.364 172.526C288.489 168.667 284.72 165.564 280.38 163.486C276.04 161.407 271.26 160.415 266.451 160.595C263.709 160.443 260.971 160.948 258.462 162.066L257.892 162.27Z" fill="white"/>
<path fill-rule="evenodd" clip-rule="evenodd" d="M164.493 184.902L166.287 185.35C166.736 187.159 167.576 186.988 167.56 187.884C167.544 188.781 167.478 188.211 167.478 188.211L168.326 188.977C169.101 190.036 168.954 189.376 169.689 190.737C170.423 192.098 170.35 191.56 172.682 192.627C174.011 193.27 265.528 216.518 265.528 216.518L267.981 214.878L269.007 211.877L270.197 211.551L270.8 210.939L271.964 208.215C272.03 207.862 272.117 207.514 272.225 207.172L273.096 205.622C273.545 205.214 273.096 205.622 273.61 205.231C273.912 205.687 273.871 205.296 273.977 206.258C273.888 206.616 273.847 206.779 273.774 207.073C277.261 200.295 277.919 192.412 275.606 185.15C275.061 183.651 274.349 182.218 273.484 180.879C272.962 180.055 273.165 179.933 272.391 179.567C272.212 180.284 271.975 179.705 271.306 179.469L270.034 178.875C269.454 178.662 268.853 178.512 268.24 178.427L268.582 177.057L267.139 176.316C266.649 175.501 267.758 176.471 266.543 175.925L266.282 175.86C265.793 175.461 265.891 175.762 266.339 175.632C265.622 176.423 266.437 176.072 265.125 175.918L265.165 174.784C263.999 174.466 262.863 174.044 261.773 173.522C260.534 173.213 260.925 173.311 260.583 173.711C259.898 173.54 259.963 173.14 259.636 172.643L259.147 172.105C259.897 171.877 260.133 171.347 260.793 171.199C260.793 171.199 260.826 172.039 260.247 170.613C261.16 170.841 261.356 170.889 262.253 170.905C263.149 170.921 263.883 171.312 264.634 171.499C264.878 170.521 264.568 170.929 265.155 170.521C265.734 170.298 266.377 170.309 266.948 170.552L269.476 171.391C270.84 171.841 272.235 172.189 273.651 172.432C277.426 173.963 288.287 176.396 292.682 177.527C293.121 175.765 292.73 177.331 293.26 176.736L292.363 175.75C291.596 174.657 292.29 176.043 291.262 174.886C290.887 174.446 291.066 174.56 290.886 174.169L290.748 173.892C290.217 172.962 289.516 172.995 288.375 172.711C288.627 171.7 289.124 171.235 288.447 170.754L286.514 169.198C285.592 168.171 286.693 168.48 284.826 168.049C284.076 167.862 283.79 167.202 282.926 166.917L283.015 166.558C283.089 166.264 283.374 166.37 282.836 166.305C282.836 166.305 282.836 166.305 282.673 166.265L279.297 164.66L266.463 161.666C265.893 162.702 266.374 162.025 265.485 162.254L264.898 162.523L264.735 162.482L261.865 162.459L260.602 163.772L258.254 162.771C257.699 162.633 253.355 164.216 252.23 164.559C240.714 167.823 228.578 168.243 216.864 165.783C211.548 164.706 206.419 162.855 201.641 160.287C205.032 160.579 208.873 161.433 212.484 161.815C220.811 162.721 229.212 162.714 237.537 161.794C239.116 161.646 240.659 161.234 242.102 160.577C221.932 158.109 214.235 141.465 191.213 143.897C183.68 144.664 176.586 147.808 170.959 152.875C166.811 156.587 159.022 166.561 157.492 173.524C158.202 174.29 160.152 178.276 160.936 179.58L164.281 184.78L164.534 185.155C164.525 185.049 164.028 184.682 164.493 184.902Z" fill="white"/>
<path fill-rule="evenodd" clip-rule="evenodd" d="M257.892 162.27L258.186 162.066C260.694 160.948 263.433 160.443 266.175 160.595C270.983 160.415 275.763 161.407 280.103 163.486C284.443 165.564 288.213 168.667 291.087 172.526C292.898 174.686 294.313 177.151 295.265 179.805C296.259 182.47 296.88 185.26 297.111 188.095C298.309 202.736 291.457 212.702 283.603 224.047C280.198 228.948 276.605 233.491 272.922 237.976C267.577 244.542 260.985 250.969 255.795 257.192C253.818 259.341 252.024 261.652 250.433 264.1C247.51 262.636 244.663 261.024 241.903 259.27C244.428 255.268 247.325 251.513 250.556 248.056C261.132 236.213 267.472 230.381 277.102 215.53C280.243 211.269 282.608 206.488 284.09 201.406C286.531 191.622 284.455 181.334 276.03 175.526C272.189 172.87 264.084 170.778 260.596 171.987C263.084 172.622 265.46 173.636 267.641 174.992C269.496 176.157 271.058 177.732 272.209 179.596C272.983 179.962 272.78 180.084 273.302 180.908C274.167 182.247 274.879 183.68 275.424 185.179C277.737 192.441 277.079 200.324 273.592 207.102C271.19 211.822 268.334 216.296 265.062 220.46C257.469 231.315 242.484 245.557 237.964 256.728C235.892 255.572 233.9 254.276 232.003 252.851C226.294 248.932 221.393 245.111 215.953 240.809C208.572 234.983 203.302 229.858 196.59 223.575C192.609 219.811 187.12 214.041 183.408 209.893C179.044 204.89 175.52 200.685 171.507 195.387L164.401 185.127C163.911 185.005 164.401 185.127 164.042 185.037L163.789 184.662L160.444 179.463C159.661 178.158 157.71 174.173 157 173.407C158.53 166.444 166.319 156.469 170.467 152.758C176.094 147.691 183.188 144.546 190.722 143.78C213.744 141.347 221.44 157.991 241.611 160.46C240.167 161.117 238.624 161.528 237.046 161.677C228.72 162.597 220.319 162.604 211.993 161.697C208.381 161.316 204.671 160.494 201.149 160.17C205.927 162.737 211.056 164.589 216.373 165.665C228.086 168.126 240.222 167.706 251.738 164.442C252.863 164.099 257.175 162.645 257.762 162.653L257.892 162.27ZM237.695 105.472C235.194 105.331 232.709 104.977 230.267 104.416C228.058 104.107 225.734 103.839 223.517 103.702C207.299 102.547 191.024 104.942 175.827 110.72C170.576 112.755 165.46 115.124 160.512 117.812C159.591 118.31 158.963 118.881 158.116 119.362C154.115 121.664 150.285 124.252 146.657 127.105C143.604 129.419 140.674 131.891 137.88 134.512C135.501 137.382 135.439 144.296 135.538 147.785C136.72 156.37 139.394 164.683 143.442 172.345C143.667 172.777 143.869 173.22 144.046 173.674L150.516 184.4C151.215 185.644 151.978 186.852 152.801 188.018C153.813 189.795 155.477 191.873 156.733 193.78C157.99 195.688 158.871 196.739 160.013 198.271C181.494 226.272 207.814 250.203 237.726 268.933C250.888 277.136 272.009 287.879 289.024 288.417C293.096 288.656 297.171 288.006 300.966 286.512C302.779 285.856 304.315 284.602 305.318 282.955C309.047 277.961 312.36 272.67 315.224 267.134C316.275 265.144 320.355 255.319 320.86 254.682L326.393 232.504C326.327 231.518 326.937 227.963 327.066 226.61C328.889 208.229 326.123 189.684 319.018 172.635C317.483 168.788 316.292 167.035 315.109 164.28C313.411 160.392 310.76 156.994 309.324 154.28C308.932 153.489 308.418 153.049 307.978 152.316C307.55 151.645 307.087 150.998 306.591 150.376C306.142 149.675 305.807 149.211 305.318 148.534C301.559 143.544 297.411 138.86 292.911 134.526C282.932 124.955 271.248 117.34 258.463 112.074L247.316 108.011L237.532 105.57L237.695 105.472ZM212.247 131.377C214.53 131.531 217.188 132.125 218.777 131.17C220.366 130.216 221.017 127.607 222.084 125.69C221.37 132.441 221.444 132.702 227.788 135.324C225.578 135.292 222.986 134.576 221.388 135.563C219.791 136.551 219.441 139.062 218.121 140.88C218.373 138.483 218.853 135.866 217.694 134.399C216.163 132.947 214.289 131.908 212.247 131.377ZM177.643 122.467C181.304 125.009 188.332 124.337 188.034 133.028C187.714 135.024 187.535 137.04 187.499 139.061C190.194 131.73 191.424 128.469 197.962 128.645C199.756 128.677 202.463 129.352 203.995 129.18C194.194 125.418 192.587 124.359 193.846 114.315L194.074 113.401C194.076 113.333 194.093 113.267 194.123 113.206C194.124 113.149 194.138 113.093 194.163 113.043C190.573 123.822 188.47 124.06 177.863 122.834L177.643 122.467ZM231.116 122.539C240.508 123.496 240.981 123.545 244.271 115.774L244.874 114.746C243.158 124.261 244.944 124.741 253.09 128.194C240.126 125.722 242.241 131.827 239.235 136.101C240.892 125.151 238.838 126.024 231.214 122.425L231.116 122.539Z" fill="#E3000F"/>
<path fill-rule="evenodd" clip-rule="evenodd" d="M177.859 321.306L197.82 326.285C198.977 326.228 202.883 326.96 204.546 327.097C218.247 328.462 232.082 327.286 245.356 323.629C251.903 321.794 258.288 319.424 264.447 316.543L267.984 314.723C272.635 312.219 277.126 309.429 281.432 306.368C282.093 305.98 282.709 305.518 283.265 304.99C270.778 302.551 258.723 298.271 247.494 292.289L237.333 286.913C236.64 287.884 235.801 289.996 235.215 291.097C232.601 296.161 227.411 304.74 221.208 305.583C208.596 307.39 213.15 282.335 208.692 268.82C208.145 267.125 207.476 267.027 205.967 265.854C202.395 263.092 201.856 261.087 195.972 266.34C188.94 272.588 180.485 288.009 173.482 289.276C171.99 289.336 170.504 289.041 169.149 288.413C167.793 287.786 166.606 286.845 165.687 285.668C160.629 279.972 161.85 275.911 162.426 269.576C163.379 260.552 163.432 251.455 162.584 242.42C161.749 235.543 160.363 228.744 158.44 222.089L148.154 210.134C144.883 206.165 136.839 195.497 134.163 191.365L128.011 181.585C127.309 180.371 126.73 179.36 126.102 178.129L122.593 171.364C121.977 170.258 121.429 169.114 120.953 167.941L117.892 160.768C115.556 164.371 113.581 168.195 111.995 172.185C106.49 185.357 103.526 199.453 103.259 213.727C102.927 231.193 106.732 248.489 114.363 264.203L116.836 269.012C118.264 271.846 119.9 274.57 121.731 277.162C122.001 277.61 122.05 277.83 122.327 278.246C133.206 294.366 148.099 307.372 165.538 315.98C169.428 318.163 176.481 320.581 177.859 321.306Z" fill="#448FFF"/>
</g>
<defs>
<filter id="filter0_d_94_1657" x="59.7109" y="63.708" width="311.203" height="311.204" filterUnits="userSpaceOnUse" color-interpolation-filters="sRGB">
<feFlood flood-opacity="0" result="BackgroundImageFix"/>
<feColorMatrix in="SourceAlpha" type="matrix" values="0 0 0 0 0 0 0 0 0 0 0 0 0 0 0 0 0 0 127 0" result="hardAlpha"/>
<feOffset dy="4"/>
<feGaussianBlur stdDeviation="15"/>
<feComposite in2="hardAlpha" operator="out"/>
<feColorMatrix type="matrix" values="0 0 0 0 0 0 0 0 0 0 0 0 0 0 0 0 0 0 0.1 0"/>
<feBlend mode="normal" in2="BackgroundImageFix" result="effect1_dropShadow_94_1657"/>
<feBlend mode="normal" in="SourceGraphic" in2="effect1_dropShadow_94_1657" result="shape"/>
</filter>
</defs>
</svg>
