<svg width="352" height="352" viewBox="0 0 352 352" fill="none" xmlns="http://www.w3.org/2000/svg">
<g opacity="0.2" filter="url(#filter0_b_94_5940)">
<path fill-rule="evenodd" clip-rule="evenodd" d="M235.617 87.3774L236.05 87.0219C239.829 84.9603 244.046 83.8293 248.35 83.7228C255.843 82.8404 263.437 83.7928 270.479 86.498C277.521 89.2031 283.8 93.5799 288.775 99.2512C291.876 102.401 294.395 106.074 296.215 110.103C298.102 114.143 299.422 118.425 300.138 122.827C303.841 145.559 294.381 161.99 283.528 180.701C278.819 188.787 273.773 196.336 268.579 203.807C264.577 209.614 260.02 215.405 255.528 221.113C251.566 226.148 247.654 231.119 244.217 235.981C241.397 239.586 238.883 243.422 236.704 247.447C231.952 245.525 227.301 243.361 222.769 240.966C226.214 234.396 230.271 228.165 234.887 222.358C237.938 218.337 240.747 214.725 243.397 211.316C253.82 197.913 261.786 187.67 272.301 168.206C276.677 161.155 279.775 153.387 281.454 145.26C284.045 129.663 279.513 113.846 265.621 105.823C259.286 102.153 246.358 99.899 241.057 102.224C245.025 102.906 248.865 104.192 252.443 106.038C255.488 107.627 258.127 109.893 260.158 112.661C261.028 112.991 261.15 113.196 261.448 113.697C261.581 113.919 261.748 114.2 262.03 114.575C263.55 116.56 264.841 118.71 265.881 120.984C270.405 132.044 270.363 144.446 265.762 155.474C262.599 163.151 258.695 170.5 254.104 177.417C250.271 183.952 244.957 191.315 239.477 198.906L239.477 198.906C229.936 212.125 219.893 226.038 216.295 237.487C212.911 235.939 209.637 234.164 206.493 232.173C197.082 226.763 188.943 221.405 179.904 215.363C169.291 208.284 161.215 201.826 151.925 194.397L151.924 194.397L151.911 194.386C150.47 193.234 149 192.059 147.488 190.854C140.796 185.469 131.495 177.14 125.176 171.122C117.73 163.849 111.697 157.719 104.761 149.943L92.3722 134.797L91.8004 134.702L91.3582 134.148L85.4799 126.44C84.989 125.754 84.2276 124.561 83.3953 123.257C81.8756 120.876 80.1193 118.124 79.3408 117.408C80.8593 106.334 91.7836 89.772 97.8013 83.4528C105.961 74.83 116.654 69.0284 128.331 66.8878C148.535 63.1032 161.822 69.4958 175.329 75.9942C185.671 80.9701 196.142 86.0079 209.946 86.5862C207.772 87.7932 205.413 88.6291 202.964 89.0593C190.069 91.5389 176.941 92.6009 163.815 92.2264C161.104 92.1578 158.347 91.936 155.603 91.7153C152.584 91.4726 149.582 91.2311 146.677 91.1964C154.466 94.6106 162.713 96.8623 171.156 97.8796C189.77 100.258 208.683 98.0832 226.271 91.5413C226.684 91.3783 227.378 91.0916 228.206 90.7494C230.817 89.6703 234.764 88.0391 235.461 87.9926L235.617 87.3774ZM196.945 1.14364C193.019 1.23563 189.091 0.994396 185.206 0.422534C181.714 0.21658 178.049 0.0887138 174.566 0.15133C149.077 0.375862 123.944 6.15537 100.917 17.0872C92.9657 20.9245 85.2677 25.2667 77.8705 30.0871C77.1358 30.5637 76.5342 31.0624 75.9408 31.5543L75.9408 31.5544C75.4221 31.9843 74.9097 32.4091 74.32 32.8095C68.356 36.9078 62.6951 41.4307 57.3815 46.3431C52.9001 50.3414 48.6312 54.5717 44.5924 59.0166C41.2336 63.8009 42.0022 74.6127 42.5944 80.0532C45.5147 93.3219 50.7351 105.977 58.0195 117.446C58.4255 118.092 58.796 118.76 59.1295 119.446L70.5834 135.398C71.8318 137.256 73.1746 139.048 74.6064 140.767C75.6971 142.37 77.1745 144.115 78.659 145.869L78.6593 145.869C79.6294 147.015 80.6025 148.164 81.4728 149.28C83.0662 151.323 84.2964 152.69 85.6035 154.142L85.6047 154.144C86.1037 154.698 86.6139 155.265 87.1599 155.887C124.235 196.958 168.36 231.063 217.449 256.589C239.046 267.762 273.396 281.908 300.054 280.619C306.447 280.483 312.735 278.957 318.479 276.147C321.23 274.895 323.472 272.742 324.835 270.044C330.037 261.773 334.552 253.089 338.335 244.08C338.994 242.548 340.492 238.193 341.963 233.916L341.963 233.914C343.603 229.145 345.21 224.473 345.584 223.915L351.455 188.564C351.309 187.57 351.471 184.855 351.612 182.487C351.688 181.201 351.759 180.018 351.771 179.268C352.318 150.316 345.676 121.68 332.438 95.9257C330.761 92.5364 329.355 90.2428 328.04 88.0972L328.04 88.0964C327.097 86.5576 326.2 85.0949 325.284 83.3587C323.339 79.7273 320.847 76.4352 318.617 73.4901L318.616 73.4894C317.246 71.6794 315.975 70.0004 314.991 68.4543C314.588 67.7816 314.138 67.2899 313.681 66.7914C313.332 66.4106 312.98 66.0259 312.642 65.5533C311.89 64.5587 311.085 63.6048 310.232 62.6957C309.443 61.6565 308.862 60.9724 308.012 59.9765C301.514 52.6481 294.445 45.8471 286.87 39.6375C270.078 25.9302 250.865 15.4913 230.227 8.86148L212.299 3.90733L196.703 1.31705L196.945 1.14364ZM160.418 44.812C161.2 44.8021 162.013 44.8227 162.83 44.8434C165.76 44.9176 168.748 44.9933 170.597 43.6713C172.247 42.4911 173.082 40.1083 173.921 37.7128C174.285 36.6765 174.649 35.6378 175.08 34.6931C174.808 45.3323 174.956 45.7307 185.198 49.0345C184.206 49.0997 183.156 49.0807 182.109 49.0617C179.508 49.0145 176.918 48.9675 175.227 50.2097C173.801 51.2572 173.148 53.1085 172.456 55.072C171.997 56.3754 171.52 57.7281 170.788 58.9279C170.799 58.4795 170.814 58.0258 170.83 57.5708C170.947 54.1933 171.066 50.7454 169.309 48.8529C166.735 46.7754 163.676 45.3851 160.418 44.812ZM105.225 35.2178C105.582 35.4256 105.956 35.6144 106.344 35.7885C106.104 35.7805 105.861 35.7721 105.615 35.7634L105.225 35.2178ZM129.821 18.5925C125.643 35.4689 122.387 36.3277 106.344 35.7885C107.726 36.4081 109.282 36.8415 110.873 37.2845C116.395 38.8217 122.331 40.4744 122.786 50.4213C122.536 53.5806 122.508 56.7537 122.705 59.9168C125.999 48.1236 127.512 42.8726 137.752 42.3296C138.96 42.2544 140.447 42.3442 141.938 42.4343C143.913 42.5535 145.895 42.6733 147.248 42.4109C131.46 37.7588 128.816 36.3048 129.527 20.4498L129.768 18.9942C129.763 18.8877 129.781 18.7813 129.82 18.6823C129.818 18.6523 129.819 18.6222 129.821 18.5925ZM129.863 18.4223L129.821 18.5925C129.827 18.5341 129.841 18.4767 129.863 18.4223ZM188.8 28.6381L188.802 28.6382L189.487 28.653C190.898 29.177 192.184 29.6204 193.353 30.0233C202.046 33.0202 204.244 33.778 203.184 48.8164C204.187 47.1167 204.712 45.2881 205.219 43.5227L205.219 43.5226C206.817 37.9603 208.234 33.0252 223.848 34.7262C223.503 34.6117 223.166 34.4998 222.836 34.3903C210.539 30.3123 207.873 29.4283 209.325 14.7386L208.511 16.4198C204.408 28.7785 203.622 28.9564 189.487 28.653C189.306 28.5858 189.123 28.5173 188.938 28.4474L188.8 28.6381ZM130.439 345.939L162.255 351.224C163.324 351.084 165.939 351.258 168.436 351.424C170.148 351.538 171.804 351.648 172.868 351.651C194.45 352.068 215.924 348.499 236.211 341.123C246.212 337.436 255.894 332.933 265.158 327.661L270.458 324.374C277.413 319.879 284.083 314.956 290.428 309.635C291.414 308.945 292.317 308.145 293.121 307.251C273.301 305.003 253.926 299.822 235.629 291.879L219.077 284.75C218.463 285.775 217.814 287.537 217.222 289.143C216.888 290.049 216.572 290.905 216.291 291.552C212.839 299.793 205.804 313.85 196.214 315.943C183.349 318.851 180.715 302.516 177.917 285.163C176.478 276.238 174.995 267.043 172.054 260.059C171.224 258.052 170.401 257.564 168.899 256.673C168.469 256.418 167.983 256.13 167.425 255.764C166.641 255.253 165.942 254.755 165.299 254.297C161.078 251.294 159.275 250.011 151.866 257.774C148.046 261.758 144.076 267.773 140.037 273.892C133.283 284.124 126.339 294.645 119.59 296.433C117.265 296.714 114.907 296.437 112.71 295.627C110.513 294.816 108.541 293.494 106.956 291.77C99.3842 284.504 99.5471 278.604 99.7705 270.514L99.7705 270.513C99.8013 269.397 99.8333 268.239 99.8463 267.031C100.206 252.808 99.1504 238.585 96.6946 224.572C94.5293 213.929 91.5132 203.478 87.6754 193.318L70.1043 175.923C64.4956 170.13 50.5901 154.465 45.8909 148.343L35.0531 133.828C33.8045 132.018 32.7727 130.511 31.6367 128.667L25.3065 118.534C24.2053 116.882 23.2062 115.163 22.3146 113.389L16.6338 102.563C13.4341 108.485 10.8259 114.708 8.84696 121.142C1.89215 142.417 -0.975942 164.815 0.39391 187.156C2.06052 214.492 10.1713 241.046 24.0636 264.648L28.5295 271.853C31.1157 276.104 34.0139 280.156 37.2 283.977C37.4144 284.277 37.5535 284.511 37.6857 284.732C37.8476 285.004 37.9993 285.259 38.2666 285.597C57.2851 309.427 82.1875 327.888 110.517 339.158C114.67 341.07 120.948 342.97 125.425 344.325L125.426 344.325C127.797 345.042 129.662 345.607 130.439 345.939Z" fill="white"/>
</g>
<defs>
<filter id="filter0_b_94_5940" x="-29.9375" y="-29.8647" width="411.742" height="411.548" filterUnits="userSpaceOnUse" color-interpolation-filters="sRGB">
<feFlood flood-opacity="0" result="BackgroundImageFix"/>
<feGaussianBlur in="BackgroundImage" stdDeviation="15"/>
<feComposite in2="SourceAlpha" operator="in" result="effect1_backgroundBlur_94_5940"/>
<feBlend mode="normal" in="SourceGraphic" in2="effect1_backgroundBlur_94_5940" result="shape"/>
</filter>
</defs>
</svg>
