<svg width="287" height="92" viewBox="0 0 287 92" fill="none" xmlns="http://www.w3.org/2000/svg">
<path d="M32.0838 77.3321C32.0267 77.4738 31.813 77.5474 31.4426 77.5531C31.0982 77.5546 30.7958 77.4037 30.5356 77.1002C30.2671 76.745 30.0831 76.3366 29.9834 75.8751C29.9137 75.4353 29.8262 74.7995 29.7209 73.9677C29.7326 73.0377 29.7898 71.8088 29.8924 70.2811C29.995 68.7533 30.1097 67.0513 30.2366 65.175C30.3853 63.2687 30.5258 61.3106 30.6581 59.3009C30.7692 58.3286 30.847 57.481 30.8915 56.758C30.9578 56.005 30.9989 55.4284 31.0151 55.028C31.0312 54.6277 31.0392 54.4276 31.0392 54.4276C31.0134 54.4317 30.9678 54.4787 30.9025 54.5686C30.8372 54.6585 30.7868 54.7593 30.7515 54.8709C30.7162 54.9826 30.6897 55.0664 30.672 55.1222C30.672 55.1222 30.6237 55.2359 30.5272 55.4633C30.4565 55.6867 30.3137 56.0408 30.0989 56.5256C29.9153 56.8729 29.7501 57.3366 29.6034 57.9168C29.4526 58.471 29.2106 59.1193 28.8774 59.8615C28.5865 60.7031 28.2603 61.6564 27.8988 62.7214C27.559 63.7564 27.2551 64.6001 26.9873 65.2524C26.8295 65.5956 26.6827 65.9238 26.5467 66.2371C26.4366 66.5462 26.3659 66.7696 26.3347 66.9071C26.2763 67.208 26.1506 67.586 25.9575 68.0408C25.7862 68.4657 25.5761 68.8968 25.3271 69.334C25.2088 69.5914 25.0708 69.8917 24.9131 70.2349C24.7512 70.5523 24.6111 70.8397 24.4928 71.0971C24.3704 71.3286 24.3092 71.4444 24.3092 71.4444C24.3038 71.5778 24.1876 71.8481 23.9604 72.2554C23.7551 72.6327 23.4932 73.0719 23.1749 73.5732C22.8525 74.0485 22.5239 74.4851 22.1892 74.8829C21.4109 75.8283 20.7516 76.4366 20.2112 76.7079C19.6667 76.9533 18.9831 76.823 18.1604 76.3169C17.7585 75.9563 17.4322 75.5705 17.1815 75.1595C16.9266 74.7225 16.7397 74.129 16.6208 73.3788C16.4978 72.6028 16.4502 71.5497 16.4781 70.2194C16.5198 69.3112 16.5573 68.3771 16.5908 67.4172C16.6461 66.4273 16.7095 65.4891 16.7812 64.6027C16.8487 63.6904 16.9109 62.9115 16.9677 62.2661C17.0463 61.5907 17.106 61.1305 17.1467 60.8854C17.13 60.2781 17.0808 59.9677 16.9991 59.9541C16.9392 59.9106 16.8324 60.0734 16.6787 60.4425C16.5645 60.7257 16.3293 61.3331 15.9731 62.2646C15.6387 63.1662 15.2662 64.2462 14.8558 65.5045C14.4412 66.737 14.0457 68.0062 13.6693 69.3121C12.9203 71.4462 12.2882 73.2302 11.773 74.6642C11.2795 76.0683 10.8615 77.1953 10.5189 78.0451C10.2021 78.8908 9.95808 79.5261 9.78676 79.951C9.64132 80.3718 9.52916 80.6681 9.45028 80.8397C9.37141 81.0113 9.31021 81.127 9.26667 81.187C8.92629 81.2144 8.59128 81.1084 8.26164 80.8689C7.95787 80.6254 7.67177 80.326 7.40333 79.9708C7.3147 79.7462 7.23695 79.5066 7.17009 79.252C7.12909 78.9933 7.13368 78.6877 7.18385 78.335C7.22993 77.9564 7.34131 77.488 7.51799 76.9296C7.74768 76.2038 7.9679 75.5855 8.17865 75.0748C8.41117 74.5341 8.57096 74.2038 8.65804 74.084C8.75868 73.8824 8.8314 73.672 8.87621 73.4527C8.94688 73.2294 8.97875 73.0122 8.97182 72.8012C9.07656 72.6255 9.21932 72.2714 9.40011 71.7389C9.60676 71.2023 9.80726 70.6269 10.0016 70.0127C10.1553 69.6437 10.3551 69.1479 10.6012 68.5256C10.8691 67.8732 11.1417 67.1671 11.419 66.4072C11.6963 65.6472 11.943 64.9452 12.1591 64.301C12.9993 62.073 13.6791 60.2549 14.1984 58.8467C14.7177 57.4386 15.1059 56.5418 15.363 56.1563C15.5236 55.9982 15.6419 55.7408 15.7179 55.3841C15.8198 55.0232 15.8823 54.7481 15.9054 54.5588C16.0615 53.8711 16.2579 53.2699 16.4946 52.7551C16.7529 52.2103 17.0135 51.9304 17.2763 51.9152C17.5091 51.8783 17.778 51.902 18.0831 51.9862C18.384 52.0446 18.6993 52.1935 19.0289 52.433C19.3409 52.7283 19.6393 53.1052 19.9242 53.5639C20.2049 53.9967 20.3394 54.6781 20.3277 55.6081C20.3633 56.0002 20.3724 56.4761 20.3551 57.0357C20.3635 57.5912 20.3571 58.1359 20.3356 58.6696C20.3359 59.1734 20.3239 59.5996 20.2995 59.9482C20.2172 61.1015 20.1348 62.2548 20.0524 63.4081C19.97 64.5614 19.9053 65.6588 19.8582 66.7005C19.8112 67.7421 19.7756 68.6891 19.7516 69.5415C19.7493 70.3639 19.7634 71.0378 19.7936 71.5634C19.8456 72.059 19.9336 72.3632 20.0576 72.4762C20.1951 72.5074 20.3224 72.474 20.4395 72.3759C20.5524 72.2519 20.666 72.0483 20.7802 71.765C20.9244 71.5035 21.0644 71.2161 21.2004 70.9029C21.3582 70.5597 21.5268 70.2015 21.7063 69.8283C21.9647 69.2835 22.2584 68.6271 22.5875 67.859C22.9424 67.0867 23.3592 66.1191 23.8378 64.956C24.3164 63.793 24.8854 62.3637 25.5448 60.6681C26.23 58.9685 27.0172 56.908 27.9063 54.4866C28.3577 53.4869 28.7854 52.5043 29.1892 51.5387C29.5889 50.5472 29.963 49.8118 30.3112 49.3323C30.6119 48.8869 31.0332 48.7008 31.5751 48.774C32.113 48.8213 32.6299 49.0709 33.1257 49.5226C33.6475 49.9703 33.9937 50.5651 34.1643 51.3071C34.2475 51.6651 34.2813 52.2962 34.2655 53.2003C34.2496 54.1044 34.2005 55.1331 34.1181 56.2864C34.0316 57.4138 33.8934 58.5495 33.7035 59.6933C33.6956 60.1453 33.6564 60.7349 33.586 61.4621C33.5156 62.1892 33.4364 62.9442 33.3484 63.7272C33.2562 64.4843 33.1668 65.1746 33.08 65.7983C33.0383 66.7065 33.002 67.4813 32.971 68.1226C32.9401 68.7639 32.9806 69.3541 33.0925 69.8932C32.9253 70.344 32.8644 70.9636 32.9098 71.7519C32.9552 72.5402 33.0435 73.3483 33.1747 74.176C33.2311 75.2013 33.1757 75.9393 33.0085 76.3901C32.8413 76.8408 32.6909 77.0635 32.5575 77.0582C32.3124 77.0175 32.1545 77.1088 32.0838 77.3321ZM44.7219 73.1017C43.8793 73.4739 43.264 73.6908 42.8759 73.7522C42.4879 73.8137 42.0583 73.6962 41.587 73.3997C41.4372 73.2908 41.3003 73.1799 41.1763 73.067C41.0482 72.9282 40.9358 72.7206 40.8389 72.4443C40.7844 72.2673 40.8312 72.061 40.9795 71.8253C41.1237 71.5638 41.4027 71.4003 41.8166 71.3347C42.1516 71.4407 42.5608 71.4289 43.044 71.2993C43.5232 71.1438 43.9881 70.8977 44.4386 70.5612C44.9108 70.1946 45.3061 69.7607 45.6244 69.2595C46.0434 68.5567 46.365 67.9091 46.5893 67.3166C46.8096 66.6984 46.9019 66.1932 46.8662 65.8011C46.8117 65.6241 46.7483 65.475 46.676 65.3539C46.6038 65.2327 46.4778 65.1069 46.298 64.9763C45.857 65.2053 45.4976 65.4478 45.22 65.704C44.9642 65.9301 44.7233 66.1672 44.4974 66.4151C43.798 67.1889 43.2851 67.8006 42.9585 68.2501C42.632 68.6996 42.3811 69.1238 42.2056 69.5229C42.0261 69.8961 41.7983 70.383 41.5223 70.9836C41.3645 71.3268 41.1748 71.6353 40.953 71.9091C40.753 72.1529 40.5965 72.3368 40.4836 72.4608C40.488 72.9905 40.2656 73.3439 39.8163 73.5212C39.175 73.4902 38.6895 73.355 38.3599 73.1156C38.0561 72.872 37.9047 72.4187 37.9057 71.7556C37.9259 71.3812 37.9535 70.8862 37.9886 70.2708C38.0495 69.6512 38.118 69.1631 38.194 68.8063C38.5481 66.5227 38.9337 64.6054 39.3508 63.0543C39.7937 61.4991 40.0933 60.3777 40.2495 59.69L40.7881 58.5705C41.2319 58.5267 41.6254 58.5836 41.9686 58.7414C42.3078 58.8732 42.6062 59.2502 42.8639 59.8723C42.8843 60.0017 42.8192 60.3435 42.6684 60.8977C42.5393 61.422 42.3858 62.043 42.2079 62.7606C42.0558 63.4742 41.8955 64.136 41.727 64.7461C41.5844 65.3521 41.4819 65.7926 41.4194 66.0677C41.3787 66.3128 41.4542 66.2875 41.646 65.992C41.8379 65.6964 42.1685 65.2727 42.6379 64.721C42.9291 64.3832 43.2393 64.0821 43.5687 63.8178C43.8939 63.5276 44.1777 63.3102 44.42 63.1658C44.7575 62.9532 45.0795 62.8093 45.3858 62.7343C45.6921 62.6592 45.9208 62.5964 46.0719 62.546C46.8779 62.4448 47.4995 62.5186 47.9367 62.7675C48.3998 63.0123 48.7288 63.3314 48.9237 63.7248C49.1146 64.0923 49.2305 64.4054 49.2715 64.6641C49.4405 65.0616 49.5708 65.4652 49.6623 65.875C49.7496 66.2589 49.7744 66.666 49.7365 67.0963C49.6917 67.3155 49.5727 67.6526 49.3797 68.1075C49.2084 68.5324 49.0023 68.9893 48.7616 69.4783C48.5427 69.9372 48.2706 70.3118 47.9453 70.602C47.7494 70.8717 47.4541 71.1837 47.0595 71.538C46.6607 71.8663 46.247 72.1838 45.8183 72.4904C45.4113 72.767 45.0458 72.9708 44.7219 73.1017ZM53.4015 72.4023C52.7208 72.4572 52.1788 72.3839 51.7757 72.1827C51.3984 71.9773 51.068 71.5656 50.7844 70.9476C50.7024 70.4303 50.6824 69.9694 50.7244 69.565C50.7922 69.1564 50.8363 68.765 50.8565 68.3905C50.9104 67.5599 50.989 66.8845 51.0922 66.3644C51.2213 65.8401 51.3571 65.2749 51.4997 64.669C51.5798 64.338 51.645 63.9962 51.6952 63.6436C51.7671 63.2609 51.8282 62.8933 51.8784 62.5406C51.9421 62.1062 51.997 61.6997 52.0431 61.3212C52.0892 60.9427 52.1482 60.5621 52.2201 60.1794C52.258 59.7491 52.2829 59.3209 52.2949 58.8947C52.3328 58.4644 52.3686 58.0212 52.4024 57.5651C52.7248 57.0897 53.1121 56.856 53.5641 56.8639C54.0121 56.8459 54.5569 57.1043 55.1985 57.639C55.4492 58.0501 55.5972 58.3979 55.6423 58.6824C55.7132 58.9629 55.6977 59.2835 55.5958 59.6444C55.5728 59.8337 55.5144 60.1346 55.4207 60.5472C55.3529 60.9558 55.2653 61.4072 55.158 61.9015C55.0766 62.3917 54.9802 62.871 54.8688 63.3395C54.7997 63.9073 54.7021 64.5459 54.5758 65.2554C54.4755 65.9607 54.3799 66.6123 54.289 67.2101C54.1981 67.8079 54.1344 68.2423 54.0978 68.5132C54.0041 68.9258 53.9471 69.3194 53.9269 69.6938C53.9026 70.0424 53.8947 70.4944 53.9032 71.05C53.9877 71.2487 53.9837 71.4747 53.8913 71.728C53.8206 71.9514 53.6574 72.1761 53.4015 72.4023ZM72.9002 68.9143C72.1705 69.1625 71.438 69.2256 70.7027 69.1034C69.9633 68.9555 69.3286 68.6318 68.7987 68.1324C68.2687 67.633 67.9382 66.9694 67.807 66.1416C67.6064 65.3779 67.5405 64.4602 67.6093 63.3886C67.674 62.2912 67.8552 61.1753 68.1527 60.0409C68.4461 58.8807 68.8309 57.8783 69.3069 57.0339C69.7259 56.331 70.1531 55.68 70.5884 55.0806C71.0238 54.4813 71.4341 54.0583 71.8192 53.8116C72.1568 53.599 72.5522 53.417 73.0055 53.2656C73.4589 53.1142 73.789 53.0221 73.9959 52.9893C74.4262 53.0272 74.9076 53.1365 75.4401 53.3173C75.9685 53.4722 76.2572 53.7049 76.3064 54.0153C76.3064 54.0153 76.3385 54.05 76.4025 54.1194C76.4883 54.1588 76.5312 54.1786 76.5312 54.1786C76.6864 54.154 76.8703 54.3104 77.0829 54.648C77.3214 54.9814 77.5163 55.3748 77.6677 55.8281C77.8191 56.2814 77.8397 56.6627 77.7296 56.9718C77.7041 57.4797 77.5838 57.9761 77.369 58.4609C77.15 58.9199 76.9371 59.1658 76.7302 59.1986C76.6267 59.215 76.5253 59.2443 76.4259 59.2866C76.3483 59.2989 76.3197 59.3697 76.3402 59.499C76.3607 59.6284 76.2546 59.7115 76.0218 59.7484C75.789 59.7853 75.548 59.7704 75.2987 59.7039C75.0454 59.6114 74.8636 59.4679 74.7532 59.2732C74.7327 59.1439 74.7299 58.9587 74.7447 58.7177C74.7813 58.4467 74.8124 58.0573 74.838 57.5494C74.8784 56.8005 74.8025 56.322 74.6104 56.1138C74.4442 55.9015 74.1188 55.9398 73.6343 56.2287C73.045 56.6934 72.5476 57.2362 72.1422 57.8573C71.7586 58.4485 71.4445 59.2275 71.2 60.1944C70.9813 61.1571 70.7989 62.4323 70.6528 64.02C70.5919 64.6396 70.631 65.1372 70.7701 65.5129C70.9309 65.8587 71.0522 66.0383 71.1339 66.0519C71.5125 66.098 71.9434 66.0562 72.4267 65.9266C72.9059 65.7711 73.2754 65.5932 73.5354 65.3929C73.9165 65.1203 74.2785 64.8111 74.6214 64.465C74.9643 64.119 75.3072 63.7729 75.6501 63.4269C75.7672 63.3288 75.874 63.166 75.9705 62.9386C76.0671 62.7111 76.2106 62.5293 76.4011 62.393C76.5589 62.0498 76.765 61.8448 77.0196 61.7779C77.3001 61.707 77.5955 61.6469 77.9059 61.5977C78.121 61.6166 78.3464 61.7002 78.5821 61.8485C78.8177 61.9968 78.9996 62.1403 79.1276 62.2791C79.2557 62.4179 79.2483 62.5384 79.1054 62.6406C79.0019 62.657 78.9434 62.7061 78.9298 62.7878C78.938 62.8395 78.9421 62.8654 78.9421 62.8654C79.0143 62.9865 78.9348 63.2378 78.7036 63.6192C78.4982 63.9964 78.2214 64.4248 77.8731 64.9043C77.5248 65.3838 77.1792 65.7965 76.8363 66.1426C76.5192 66.4845 76.2831 66.6678 76.1279 66.6924C75.8692 66.7334 75.7522 66.8315 75.7768 66.9867C75.785 67.0384 75.6115 67.1985 75.2562 67.4669C74.9269 67.7313 74.5329 68.0058 74.0742 68.2907C73.6414 68.5714 73.25 68.7793 72.9002 68.9143ZM84.9636 66.6444C84.6273 66.6977 84.3455 66.6761 84.118 66.5795C83.9165 66.4789 83.655 66.3347 83.3335 66.147C82.76 65.7076 82.3009 65.2367 81.9562 64.7345C81.6073 64.2064 81.4368 63.7163 81.4447 63.2643C81.4895 63.045 81.4846 62.8469 81.4301 62.67C81.3973 62.463 81.3809 62.3596 81.3809 62.3596C81.231 62.2507 81.1799 62.1793 81.2276 62.1452C81.2711 62.0853 81.3106 61.9995 81.3459 61.8878C81.5011 61.8632 81.5303 61.7127 81.4335 61.4364C81.3489 61.2376 81.3698 60.7835 81.496 60.0741C81.6181 59.3388 81.824 58.6299 82.1136 57.9476C82.2278 57.6643 82.4073 57.2912 82.6521 56.8281C82.8928 56.3391 83.1615 55.859 83.458 55.3878C83.7764 54.8865 84.0702 54.482 84.3396 54.1741C84.9002 53.5284 85.4146 53.0093 85.8828 52.6169C86.3768 52.2204 86.8981 51.9124 87.4467 51.6929C87.9953 51.4733 88.5024 51.3267 88.968 51.2529C89.4595 51.175 89.932 51.3122 90.3856 51.6646C91.0216 51.829 91.5017 52.0976 91.826 52.4705C92.1502 52.8434 92.4065 53.3729 92.5948 54.059C92.7954 54.8228 92.8654 55.7663 92.8048 56.8896C92.77 58.0089 92.3521 59.3877 91.5511 61.0262C91.052 62.0599 90.5439 62.8696 90.0269 63.4554C89.5098 64.0412 88.911 64.6134 88.2306 65.172C87.7447 65.6203 87.2255 65.9412 86.6728 66.1349C86.1201 66.3285 85.5504 66.4984 84.9636 66.6444ZM88.1304 61.5285C88.6352 60.8651 88.9827 60.2134 89.1729 59.5734C89.3591 58.9074 89.5397 58.1231 89.7149 57.2202C89.7896 57.0228 89.8092 56.728 89.7736 56.3359C89.7638 55.9396 89.7044 55.5646 89.5952 55.2106C89.512 54.8526 89.3887 54.66 89.2252 54.6328C88.9379 54.4928 88.6472 54.4991 88.3532 54.6517C88.0809 54.7744 87.7625 55.0238 87.3978 55.3998C86.7242 56.1695 86.1359 57.0582 85.6327 58.0661C85.1254 59.0481 84.789 60.1886 84.6237 61.4876C84.5615 62.2665 84.6667 62.8465 84.9392 63.2276C85.2335 63.5787 85.6529 63.6315 86.1974 63.3861C86.7677 63.1366 87.4121 62.5174 88.1304 61.5285ZM96.9879 76.3136C96.7087 76.2252 96.4378 76.1886 96.175 76.2037C95.9163 76.2447 95.6494 76.234 95.3744 76.1715C95.0176 76.0955 94.6206 75.933 94.1834 75.6841C93.772 75.4311 93.4233 75.1549 93.1372 74.8555C93.0732 74.7861 93.0221 74.7146 92.9839 74.6411C92.9457 74.5676 92.8967 74.5091 92.8368 74.4656C92.7986 74.3921 92.7475 74.3206 92.6835 74.2512C92.6194 74.1818 92.5683 74.1104 92.5302 74.0369C92.4144 73.9757 92.3101 73.8198 92.2174 73.5693C92.1029 73.3488 91.9972 73.1004 91.9004 72.8241C91.8077 72.5736 91.7102 72.3769 91.608 72.234C91.7004 71.9807 91.7908 71.7144 91.8792 71.4353C91.9417 71.1602 92.0191 70.896 92.1116 70.6427C92.2627 70.5922 92.4138 70.5418 92.5649 70.4913C92.7201 70.4667 92.8603 70.4312 92.9855 70.3848C93.4389 70.2334 93.7541 70.3824 93.9314 70.8316C94.1087 71.2808 94.303 71.7538 94.5143 72.2507C94.6793 72.6223 94.8748 72.936 95.101 73.1919C95.3571 73.4695 95.748 73.5932 96.2735 73.5629C96.8726 73.4945 97.3442 73.2076 97.6884 72.7023C98.0626 72.2187 98.3427 71.6439 98.5289 70.978C98.7409 70.308 98.8855 69.7149 98.9629 69.1989C99.0376 69.0014 99.1042 68.7522 99.1626 68.4512C99.2468 68.1462 99.3161 67.8303 99.3704 67.5035C99.4287 67.2025 99.4545 66.9465 99.4475 66.7355C99.4311 66.632 99.4195 66.4748 99.4125 66.2637C99.4315 66.0486 99.4375 65.8355 99.4305 65.6245C99.4479 65.0648 99.4279 64.6039 99.3705 64.2418C99.309 63.8538 99.1937 63.461 99.0247 63.0636C99.0165 63.0118 98.9892 62.9233 98.9428 62.7981C98.9223 62.6688 98.8889 62.5415 98.8425 62.4162C98.7921 62.2651 98.7607 62.1508 98.7484 62.0732C98.5522 61.8391 98.3689 61.603 98.1986 61.3648C98.0283 61.1266 97.8232 60.9204 97.5835 60.7463C97.5425 60.4876 97.4906 60.2439 97.4278 60.0152C97.3868 59.7565 97.3479 59.5108 97.311 59.278C97.4321 59.2058 97.5362 59.1097 97.6233 58.9898C97.7104 58.87 97.8016 58.776 97.8968 58.7078C98.5066 58.3725 99.1021 57.9467 99.6832 57.4303C100.286 56.884 100.814 56.2832 101.267 55.628C101.716 54.947 102.001 54.2388 102.124 53.5035C102.16 53.2325 102.171 52.9656 102.156 52.7029C102.162 52.4101 102.119 52.1385 102.027 51.888C101.816 51.895 101.626 51.9516 101.457 52.0579C100.7 52.4695 100.137 52.93 99.7666 53.4395C99.4225 53.9448 99.1253 54.4958 98.8751 55.0923C98.6208 55.6629 98.263 56.25 97.8018 56.8534C97.6125 56.8304 97.4274 56.8332 97.2463 56.8619C97.0911 56.8865 96.9188 56.8873 96.7296 56.8643C96.351 56.8182 96.0487 56.6672 95.8225 56.4114C95.6222 56.1514 95.4157 55.8527 95.2031 55.5151C95.3909 55.1937 95.5098 54.8566 95.56 54.5039C95.6319 54.1213 95.7617 53.7693 95.9495 53.4478C96.2637 52.9207 96.58 52.4065 96.8983 51.9053C97.2384 51.3741 97.6384 50.8864 98.0983 50.4423C98.8876 49.7338 99.675 49.2643 100.461 49.0337C101.242 48.7773 101.979 48.7401 102.67 48.9221C103.362 49.1042 103.953 49.4878 104.444 50.073C104.892 50.5588 105.186 51.1619 105.327 51.882C105.468 52.6022 105.472 53.3838 105.341 54.2267C105.205 55.0437 104.899 55.8744 104.423 56.7189C104.095 57.3277 103.68 57.8842 103.176 58.3882C102.694 58.8623 102.089 59.4754 101.36 60.2274C101.595 60.8795 101.831 61.5315 102.067 62.1836C102.329 62.8315 102.532 63.5286 102.677 64.2746C102.78 64.9213 102.81 65.6988 102.768 66.6069C102.753 67.511 102.637 68.4574 102.423 69.446C102.234 70.4306 101.934 71.3798 101.522 72.2936C101.114 73.2333 100.569 74.0622 99.8872 74.7801C99.5007 75.1861 99.0482 75.5097 98.5296 75.751C98.011 75.9923 97.4971 76.1798 96.9879 76.3136ZM112.086 62.9426C111.974 62.9073 111.853 62.8999 111.724 62.9204C111.599 62.9667 111.47 62.9872 111.336 62.9818C110.139 62.4556 109.313 61.7644 108.86 60.9082C108.406 60.0521 108.187 59.0923 108.204 58.0289C108.221 56.9655 108.329 55.8877 108.527 54.7956C108.639 54.3272 108.763 53.8567 108.9 53.3841C109.059 52.8816 109.263 52.4117 109.512 51.9745C109.749 51.4597 110.039 50.9496 110.383 50.4443C110.753 49.9349 111.155 49.4601 111.589 49.0201C112.024 48.58 112.446 48.2346 112.857 47.9839C113.113 47.7577 113.353 47.6003 113.578 47.5117C113.798 47.3972 114.049 47.2248 114.331 46.9945C114.538 46.9617 114.786 46.9357 115.075 46.9165C115.363 46.8972 115.636 46.9468 115.894 47.0651C116.173 47.1534 116.402 47.3426 116.58 47.6325C116.755 47.8965 116.846 48.3063 116.855 48.8618C116.63 48.9505 116.397 49.067 116.154 49.2115C115.912 49.3559 115.67 49.5004 115.427 49.6449C114.29 50.329 113.372 51.1506 112.676 52.1096C112.005 53.0644 111.541 54.0661 111.283 55.1147C111.14 55.7207 111.047 56.3055 111.004 56.8692C110.986 57.4289 110.998 57.9177 111.037 58.3356C111.097 58.883 111.286 59.2375 111.604 59.3994C111.839 59.5477 112.097 59.5863 112.378 59.5153C112.658 59.4444 112.928 59.3088 113.188 59.1085C113.448 58.9081 113.665 58.6881 113.839 58.4484C113.901 58.3326 113.964 58.2298 114.029 58.1399C114.116 58.02 114.19 57.9022 114.252 57.7864C114.902 56.7022 115.399 55.4037 115.742 53.8908C116.108 52.3479 116.245 50.5362 116.154 48.4558C116.196 48.0514 116.223 47.6361 116.235 47.2099C116.269 46.7538 116.281 46.3276 116.271 45.9314C116.283 45.5052 116.27 45.1757 116.233 44.9429C116.161 44.8217 116.061 44.6918 115.933 44.553C115.827 44.3842 115.802 44.229 115.859 44.0873C115.723 43.8968 115.591 43.6525 115.465 43.3544C115.338 43.0562 115.217 42.7969 115.103 42.5764C114.781 41.8849 114.322 41.4141 113.725 41.1639C113.129 40.9137 112.503 40.814 111.848 40.8648C111.193 40.9155 110.557 41.0827 109.939 41.3662C109.722 41.5066 109.55 41.587 109.42 41.6075C109.291 41.628 109.114 41.6826 108.889 41.7712C108.507 41.6993 108.159 41.5157 107.847 41.2204C107.535 40.9251 107.327 40.6134 107.222 40.2853C107.105 39.8797 107.118 39.5461 107.262 39.2846C107.432 39.019 107.662 38.7969 107.952 38.6184C108.242 38.4398 108.536 38.2872 108.834 38.1604C109.029 38.05 109.228 37.9654 109.43 37.9068C109.629 37.8222 109.804 37.7547 109.955 37.7043C110.385 37.7421 110.795 37.7303 111.183 37.6688C111.592 37.5774 112.006 37.5914 112.422 37.711C113.024 37.8278 113.574 37.9527 114.073 38.0859C114.593 38.189 115.077 38.4835 115.525 38.9694C115.709 39.1258 115.906 39.2803 116.116 39.4326C116.347 39.555 116.531 39.7115 116.668 39.9021C116.966 40.279 117.275 40.7207 117.594 41.227C117.913 41.7334 118.15 42.2261 118.305 42.7053C118.81 43.7126 119.139 44.7873 119.294 45.9296C119.47 47.0419 119.532 48.1856 119.479 49.3607C119.427 50.5358 119.317 51.6802 119.148 52.7941C119.155 53.0051 119.096 53.2135 118.969 53.4192C118.838 53.599 118.802 53.7903 118.861 53.9931C118.569 54.9941 118.238 56.0011 117.868 57.0144C117.52 57.9976 117.084 58.9285 116.561 59.807C116.033 60.6597 115.306 61.4246 114.379 62.1019C114.162 62.2422 113.793 62.4201 113.27 62.6356C112.747 62.851 112.352 62.9533 112.086 62.9426ZM126.506 59.7026C126.307 59.7871 126.04 59.856 125.703 59.9093C125.363 59.9368 125.059 59.9451 124.792 59.9344C124.547 59.8937 124.419 59.8345 124.406 59.7569C124.386 59.6276 124.311 59.5731 124.182 59.5936C124.182 59.5936 124.051 59.5216 123.789 59.3774C123.528 59.2332 123.272 59.1278 123.023 59.0612C122.733 58.736 122.525 58.3447 122.4 57.8872C122.3 57.4257 122.317 56.6142 122.451 55.4527C122.38 54.6685 122.482 53.8038 122.756 52.8587C123.052 51.8837 123.454 50.9051 123.962 49.9232C124.491 48.9112 125.049 48.0007 125.637 47.1915C126.25 46.3783 126.815 45.7585 127.331 45.332C127.636 44.9125 128.07 44.6447 128.635 44.5286C129.226 44.4085 129.775 44.4408 130.282 44.6257C130.561 44.714 130.871 44.9167 131.213 45.2338C131.551 45.525 131.882 45.857 132.206 46.2299C132.553 46.5728 132.83 46.9001 133.038 47.2118C133.161 47.484 133.267 47.7325 133.355 47.9571C133.44 48.1558 133.507 48.4104 133.556 48.7208C133.631 49.0271 133.679 49.4968 133.7 50.1299C133.644 50.6161 133.608 51.1389 133.59 51.6985C133.599 52.2541 133.642 52.7776 133.72 53.2691C133.746 53.7687 133.853 54.1098 134.041 54.2921C134.255 54.4703 134.516 54.4423 134.823 54.2079C135.109 54.0035 135.413 53.9155 135.736 53.9439C136.059 53.9723 136.318 54.1036 136.514 54.3376C136.711 54.5717 136.764 54.908 136.674 55.3465C136.62 55.6733 136.451 56.0315 136.168 56.4211C135.907 56.7807 135.573 57.0988 135.166 57.3754C134.781 57.6221 134.407 57.7741 134.045 57.8315C133.761 57.8766 133.456 57.7924 133.13 57.5788C132.805 57.3652 132.493 57.0699 132.194 56.6929C131.918 56.286 131.665 55.862 131.436 55.421L131.061 54.5654L129.808 56.196C129.529 56.6114 129.247 57.001 128.959 57.3647C128.694 57.6984 128.533 57.9361 128.476 58.0778C128.383 58.3311 128.172 58.5899 127.843 58.8542C127.51 59.0927 127.064 59.3755 126.506 59.7026ZM126.727 56.3264C127.125 55.9981 127.488 55.6091 127.814 55.1596C128.163 54.6801 128.492 54.1639 128.802 53.6109C129.108 53.0321 129.401 52.4553 129.681 51.8805C130.027 51.2159 130.27 50.6602 130.412 50.2135C130.553 49.7669 130.64 49.3154 130.674 48.8593C130.526 48.5912 130.323 48.3183 130.067 48.0407C129.833 47.7331 129.623 47.5807 129.438 47.5835C128.998 47.6532 128.55 48.0027 128.093 48.632C127.631 49.2355 127.169 49.9982 126.705 50.9203C126.622 51.066 126.513 51.2955 126.377 51.6088C126.266 51.9179 126.154 52.2141 126.04 52.4974C125.922 52.7548 125.843 52.9264 125.803 53.0122C125.742 53.128 125.654 53.4071 125.538 53.8497C125.449 54.2882 125.372 54.7246 125.308 55.159C125.241 55.5675 125.219 55.8494 125.244 56.0046C125.268 56.1598 125.308 56.3259 125.362 56.5029C125.443 56.6757 125.591 56.7716 125.806 56.7906C126.021 56.8095 126.328 56.6548 126.727 56.3264ZM142.63 57.3461C141.555 57.0921 140.769 56.5669 140.272 55.7707C139.77 54.9486 139.487 53.7472 139.422 52.1664C139.347 51.3563 139.25 50.8281 139.131 50.5817C139.035 50.3054 138.823 50.0604 138.498 49.8468C138.404 49.7556 138.211 49.6271 137.92 49.4611C137.624 49.2693 137.479 49.1067 137.484 48.9733C137.43 48.7963 137.421 48.5723 137.457 48.3013C137.52 48.0263 137.59 47.8826 137.667 47.8703C137.815 47.794 137.959 47.7047 138.102 47.6025C138.267 47.4703 138.405 47.4219 138.517 47.4572C138.62 47.4408 138.771 47.47 138.968 47.5448C139.188 47.5896 139.305 47.6637 139.322 47.7672C139.454 47.9319 139.603 47.8685 139.769 47.577C139.957 47.2556 140.139 46.8157 140.316 46.2573C140.509 45.8025 140.77 45.3632 141.101 44.9396C141.453 44.4859 141.812 44.0711 142.177 43.6951C142.541 43.3191 142.854 43.031 143.114 42.8307C143.235 42.7584 143.455 42.6439 143.775 42.4872C144.095 42.3304 144.432 42.1975 144.786 42.0883C145.166 41.9751 145.461 41.915 145.672 41.9081C146.142 41.8602 146.621 41.9566 147.11 42.1973C147.625 42.4339 148.049 42.6849 148.383 42.9502C148.756 43.1297 149.031 43.4441 149.209 43.8933C149.382 44.3166 149.494 44.7761 149.546 45.2717C149.598 45.7673 149.563 46.2105 149.439 46.6013C149.402 46.8723 149.199 47.2625 148.829 47.7719C148.455 48.2555 148.042 48.7452 147.59 49.2411C147.134 49.7111 146.725 50.0545 146.361 50.2712C146.037 50.4021 145.634 50.5323 145.15 50.662C144.663 50.7657 144.21 50.8375 143.792 50.8772C143.374 50.9169 143.082 50.9103 142.914 50.8573C142.717 50.7825 142.574 50.8847 142.485 51.1639C142.419 51.4131 142.404 51.906 142.441 52.6426C142.473 53.0088 142.52 53.3063 142.583 53.535C142.671 53.7596 142.75 53.9196 142.818 54.0148C143.04 54.2448 143.282 54.4319 143.543 54.5761C143.805 54.7203 144.188 54.7125 144.693 54.5529C145.172 54.3975 145.614 54.0091 146.02 53.388C146.447 52.737 146.841 52.2105 147.201 51.8086C147.276 51.6111 147.465 51.4619 147.767 51.361C148.069 51.2601 148.435 51.2285 148.866 51.2664C149.179 51.4024 149.349 51.6406 149.377 51.9809C149.43 52.3172 149.329 52.8503 149.073 53.5803C149.024 53.7737 148.858 54.0651 148.575 54.4547C148.314 54.8143 148.016 55.193 147.682 55.5908C147.369 55.9586 147.095 56.2406 146.861 56.4368C146.151 56.9737 145.433 57.2995 144.709 57.4143C143.981 57.5032 143.288 57.4805 142.63 57.3461ZM143.967 48.463C144.39 48.2899 144.738 48.1419 145.01 48.0192C145.304 47.8666 145.562 47.6533 145.784 47.3795C146.031 47.1016 146.306 46.6603 146.608 46.0556C146.666 45.7547 146.677 45.4878 146.64 45.255C146.603 45.0222 146.54 44.8731 146.45 44.8078C146.21 44.6337 145.954 44.6079 145.682 44.7306C145.432 44.8234 145.18 44.9957 144.929 45.2478C144.76 45.3541 144.53 45.5762 144.239 45.914C143.943 46.226 143.667 46.5747 143.41 46.9602C143.149 47.3198 142.948 47.6433 142.808 47.9306C142.668 48.218 142.654 48.3794 142.766 48.4147C142.73 48.5264 142.883 48.5685 143.223 48.5411C143.589 48.5095 143.837 48.4835 143.967 48.463ZM169.357 53.9853C168.986 53.9909 168.686 53.9326 168.454 53.8102C168.222 53.6877 167.981 53.5007 167.729 53.2489C167.44 52.7644 167.189 52.3533 166.976 52.0158C166.79 51.6741 166.67 51.2555 166.618 50.7599C166.632 50.6782 166.575 50.4883 166.448 50.1902C166.343 49.8621 166.321 49.6402 166.383 49.5244C166.303 49.1922 166.24 48.7913 166.192 48.3216C166.17 47.8478 166.161 47.3719 166.165 46.894C166.19 46.3861 166.204 45.9728 166.207 45.6542C166.164 45.5549 166.126 45.4814 166.092 45.4337C166.08 45.3561 166.059 45.3064 166.029 45.2847C165.92 45.4345 165.811 45.5843 165.702 45.7342C165.619 45.8799 165.525 46.0406 165.421 46.2163C165.334 46.3362 165.214 46.501 165.062 46.7108C164.931 46.8906 164.845 47.1031 164.805 47.3482L163.578 49.6506C163.417 49.968 163.253 50.2724 163.087 50.5638C162.943 50.8253 162.843 51.1195 162.789 51.4463C162.765 51.7949 162.661 52.0632 162.479 52.2512C162.319 52.4092 162.113 52.5346 161.863 52.6273C161.725 52.5961 161.585 52.5519 161.444 52.4948C161.328 52.4336 161.047 52.2527 160.602 51.952C160.247 51.7167 160.02 51.4608 159.924 51.1845C159.823 50.8823 159.773 50.5719 159.776 50.2533C159.731 49.9687 159.642 49.4922 159.51 48.8238C159.399 48.1253 159.262 47.431 159.1 46.7408C158.959 46.0206 158.779 45.4659 158.558 45.0766C158.397 45.2346 158.265 45.4015 158.16 45.5772C158.081 45.7488 157.993 45.9483 157.897 46.1757C157.757 46.4631 157.581 46.8622 157.37 47.3729C157.181 47.8536 156.949 48.3943 156.673 48.9949C156.419 49.5656 156.175 50.1212 155.943 50.6619C155.71 51.2026 155.517 51.6575 155.363 52.0265C155.21 52.3956 155.124 52.6081 155.106 52.6639C154.98 52.8696 154.881 53.0841 154.811 53.3074C154.736 53.5049 154.669 53.7541 154.611 54.055C154.474 54.5276 154.286 54.849 154.048 55.0194C153.81 55.1897 153.554 55.164 153.28 54.9422C153.001 54.8539 152.747 54.7614 152.52 54.6649C152.318 54.5642 152.141 54.4466 151.987 54.3119C151.854 54.1472 151.744 53.9525 151.655 53.7279C151.567 53.5033 151.498 53.2358 151.449 52.9254C151.571 52.6939 151.665 52.5331 151.73 52.4432C151.817 52.3234 151.909 52.2294 152.004 52.1612C152.569 50.8783 153.01 49.8936 153.326 49.2072C153.663 48.4908 153.912 47.974 154.074 47.6566C154.258 47.3093 154.38 47.0778 154.441 46.962C154.524 46.8163 154.594 46.6726 154.652 46.5309C154.74 46.2518 154.843 45.9835 154.962 45.7261C155.106 45.4646 155.283 45.1581 155.492 44.8067C155.531 44.7209 155.621 44.5343 155.761 44.2469C155.923 43.9296 156.109 43.5952 156.318 43.2438C156.55 42.8624 156.776 42.5348 156.998 42.261C157.059 42.1453 157.105 42.0186 157.136 41.8811C157.168 41.7435 157.201 41.6189 157.236 41.5073C157.346 41.1981 157.499 40.9884 157.693 40.878C157.888 40.7676 158.184 40.7075 158.58 40.6977C158.919 40.8296 159.236 40.9914 159.532 41.1833C159.827 41.3751 160.129 41.6057 160.437 41.8751C160.468 42.2413 160.52 42.5647 160.591 42.8451C160.683 43.0956 160.85 43.4802 161.092 43.9988C161.081 44.2657 161.179 44.6346 161.386 45.1056C161.59 45.5507 161.718 45.9414 161.771 46.2777C161.812 46.5363 161.875 46.6854 161.961 46.7248C162.047 46.7643 162.173 46.6383 162.339 46.3468C162.653 45.8197 163.048 45.2135 163.522 44.5284C163.993 43.8174 164.466 43.1193 164.941 42.4342C165.441 41.7449 165.877 41.1456 166.247 40.6361C166.617 40.1267 166.856 39.797 166.965 39.6472C167.139 39.4075 167.302 39.2624 167.453 39.2119C167.6 39.1356 167.813 39.1416 168.092 39.2299C168.483 39.3536 168.74 39.4719 168.864 39.5848C168.988 39.6978 169.172 39.8542 169.416 40.0543C169.886 40.5101 170.014 40.9805 169.799 41.4653C169.736 41.7404 169.673 42.1748 169.608 42.7685C169.539 43.3363 169.48 43.9688 169.431 44.6659C169.382 45.3631 169.343 46.0323 169.312 46.6736C169.277 47.2891 169.273 47.767 169.3 48.1074C169.356 48.6288 169.415 49.1632 169.475 49.7105C169.531 50.232 169.669 50.767 169.888 51.3156C170.235 52.1623 170.37 52.764 170.294 53.1208C170.244 53.4735 169.931 53.7616 169.357 53.9853ZM184.236 59.463C183.437 59.7753 182.613 59.9323 181.765 59.9342C180.947 59.9578 180.226 59.8466 179.604 59.6005C178.956 59.3585 178.547 59.0388 178.378 58.6413C178.205 58.2179 178.227 57.8564 178.445 57.5567C178.637 57.2612 178.897 57.0609 179.225 56.9558C179.553 56.8508 179.794 56.8656 179.948 57.0003C180.175 57.0969 180.54 57.2247 181.043 57.3837C181.571 57.5386 182.161 57.4981 182.813 57.2622C183.388 57.0385 183.882 56.642 184.295 56.0726C184.739 55.525 185.103 54.9768 185.387 54.4279C185.545 54.0847 185.806 53.4732 186.17 52.5934C186.535 51.7136 186.9 50.7542 187.265 49.7151C187.653 48.646 187.962 47.6689 188.193 46.7838C188.238 46.5645 188.289 46.3044 188.348 46.0035C188.406 45.7025 188.499 45.4492 188.625 45.2436C188.731 44.9086 188.815 44.6035 188.878 44.3284C188.962 44.0234 189.009 43.8171 189.018 43.7095C189.024 43.5761 189.099 43.299 189.245 42.8781C189.39 42.4573 189.523 42.0386 189.642 41.6219C189.71 41.2133 189.814 40.6135 189.954 39.8224C190.093 39.0312 190.256 38.3823 190.441 37.8757C190.657 37.2315 190.827 36.714 190.95 36.3232C191.096 35.9024 191.279 35.6347 191.499 35.5202C191.703 35.3023 191.883 35.181 192.038 35.1564C192.219 35.1277 192.464 35.1684 192.773 35.2785C193.133 35.5397 193.415 35.8132 193.619 36.099C193.82 36.359 193.916 36.715 193.908 37.167C193.922 37.5891 193.792 38.1931 193.519 38.9788C193.41 39.6325 193.268 40.2384 193.091 40.7968C192.936 41.3252 192.806 41.6772 192.702 41.8529C192.622 42.1838 192.522 42.5576 192.402 42.9744C192.304 43.3611 192.215 43.7199 192.135 44.0508C191.834 45.1593 191.566 46.0636 191.332 46.7636C191.098 47.4636 190.895 48.1057 190.723 48.6899C190.55 49.2741 190.379 49.9509 190.209 50.7203C189.766 51.7717 189.327 52.7693 188.893 53.7131C188.49 54.6787 188.037 55.5858 187.535 56.4343C187.313 56.7081 186.996 57.0501 186.584 57.4601C186.201 57.892 185.802 58.3 185.385 58.6842C184.969 59.0684 184.586 59.328 184.236 59.463ZM187.782 49.7127C187.386 49.7225 186.933 49.5424 186.424 49.1723C185.94 48.7981 185.517 48.3879 185.155 47.9415C184.814 47.4651 184.653 47.1194 184.672 46.9042C184.651 46.7749 184.635 46.6714 184.623 46.5938C184.61 46.5162 184.604 46.4774 184.604 46.4774C184.449 46.502 184.287 46.3156 184.118 45.9181C183.971 45.4906 183.818 44.9447 183.66 44.2804C183.501 43.616 183.365 42.9217 183.25 42.1974C183.157 41.4431 183.087 40.7515 183.04 40.1225C183.074 39.6663 183.05 39.1796 182.968 38.6622C182.882 38.119 182.827 37.6901 182.804 37.3756C182.712 36.9659 182.728 36.6452 182.85 36.4137C182.969 36.1562 183.073 35.9805 183.164 35.8865C183.983 35.3591 184.636 35.4677 185.125 36.2122C185.64 36.9526 185.981 38.2643 186.147 40.1472C186.259 41.1901 186.406 42.201 186.588 43.1799C186.765 44.1329 187.002 44.9572 187.298 45.6528C187.615 46.3184 188.017 46.7587 188.501 46.9735C188.699 47.0483 188.807 47.23 188.827 47.5186C188.846 47.8073 188.802 48.1191 188.696 48.4541C188.59 48.7891 188.452 49.0894 188.282 49.355C188.108 49.5948 187.941 49.714 187.782 49.7127ZM196.243 49.1275C195.994 49.0609 195.751 49.0332 195.514 49.0442C195.299 49.0252 195.069 48.9954 194.824 48.9547C194.558 48.7847 194.329 48.5955 194.137 48.3873C193.967 48.1492 193.833 47.8919 193.737 47.6156C193.614 47.3433 193.592 47.1214 193.671 46.9498C193.746 46.7523 193.788 46.5201 193.799 46.2533C193.954 46.2287 194.099 46.219 194.232 46.2244C194.387 46.1998 194.542 46.1752 194.698 46.1506C195.036 45.7787 195.354 45.3571 195.651 44.8858C195.943 44.3887 196.221 43.8807 196.483 43.3618C196.72 42.8469 196.93 42.3362 197.115 41.8296C197.3 41.323 197.422 40.8396 197.482 40.3793C197.519 40.1084 197.532 39.8544 197.52 39.6175C197.535 39.3765 197.576 39.1314 197.643 38.8822C197.713 38.6588 197.769 38.4246 197.81 38.1795C197.85 37.9344 197.891 37.6893 197.932 37.4442C197.587 37.4457 197.305 37.4241 197.086 37.3793C196.893 37.3304 196.693 37.2427 196.488 37.1162C196.308 36.9856 196.083 36.8223 195.813 36.6264C195.722 36.2166 195.692 35.8633 195.725 35.5665C195.783 35.2655 195.981 35.0088 196.319 34.7962C196.44 34.7239 196.563 34.6646 196.688 34.6183C196.81 34.546 196.935 34.4997 197.064 34.4792C197.406 34.2924 197.822 34.1601 198.314 34.0822C198.805 34.0043 199.29 33.9673 199.768 33.9711C199.953 33.9683 200.127 33.9804 200.291 34.0076C200.476 34.0047 200.65 34.0169 200.814 34.044C201.055 34.0589 201.289 34.1146 201.516 34.2111C201.77 34.3035 202.019 34.3701 202.264 34.4108C202.479 34.4298 202.685 34.4766 202.883 34.5514C203.106 34.6221 203.319 34.7077 203.52 34.8084C204.061 35.0409 204.515 35.3933 204.881 35.8655C205.269 36.3078 205.509 36.8135 205.599 37.3826C205.73 38.2103 205.739 39.0178 205.625 39.8048C205.573 40.3168 205.509 40.8308 205.432 41.3469C205.354 41.863 205.29 42.377 205.238 42.889C205.18 43.19 205.133 43.4759 205.096 43.7469C205.059 44.0179 205.038 44.2997 205.031 44.5925C204.989 44.9969 204.973 45.3972 204.983 45.7934C205.018 46.1855 205.056 46.5906 205.096 47.0085C204.949 47.0849 204.789 47.1633 204.616 47.2437C204.469 47.32 204.309 47.3984 204.136 47.4788C203.809 47.4246 203.44 47.3506 203.027 47.2569C202.636 47.1332 202.334 46.9026 202.122 46.565C202.088 46.5174 202.052 46.4568 202.014 46.3833C202.001 46.3057 201.989 46.2281 201.977 46.1505C201.938 46.077 201.913 46.0015 201.901 45.9238C201.889 45.8462 201.876 45.7686 201.864 45.691C201.782 45.1737 201.763 44.6332 201.806 44.0694C201.871 43.4757 201.951 42.8929 202.046 42.321C202.131 41.8567 202.206 41.4073 202.27 40.9729C202.359 40.5345 202.412 40.1151 202.428 39.7147C202.469 39.4696 202.506 39.1987 202.538 38.9018C202.567 38.5791 202.571 38.2734 202.552 37.9848C202.533 37.6961 202.451 37.4307 202.306 37.1884C202.101 37.0619 201.875 36.9783 201.63 36.9376C201.411 36.8928 201.168 36.865 200.901 36.8543C200.909 36.906 200.871 37.0844 200.787 37.3894C200.765 37.4194 200.748 37.4752 200.734 37.5569C200.742 37.6087 200.737 37.6625 200.72 37.7183C200.637 37.864 200.573 38.0465 200.528 38.2658C200.505 38.455 200.495 38.6423 200.498 38.8274C200.484 38.9091 200.46 39.0058 200.424 39.1175C200.415 39.2251 200.391 39.3217 200.351 39.4075C200.298 39.5751 200.258 39.7405 200.231 39.9039C200.226 40.0374 200.229 40.1429 200.241 40.2205C200.277 40.6126 200.257 40.987 200.181 41.3438C200.105 41.7006 200.016 42.0594 199.914 42.4203C199.821 42.6736 199.731 42.9398 199.643 43.219C199.55 43.4723 199.46 43.7386 199.371 44.0177C199.362 44.1253 199.325 44.224 199.259 44.3139C199.22 44.3997 199.182 44.4985 199.147 44.6102C199.041 44.9452 198.909 45.2843 198.751 45.6275C198.615 45.9407 198.464 46.2431 198.299 46.5346C198.028 47.0017 197.729 47.4601 197.403 47.9096C197.072 48.3332 196.686 48.7392 196.243 49.1275ZM216.297 45.9095C215.454 46.2817 214.839 46.4986 214.451 46.5601C214.063 46.6216 213.633 46.504 213.162 46.2075C213.012 46.0986 212.875 45.9877 212.751 45.8748C212.623 45.736 212.511 45.5284 212.414 45.2521C212.359 45.0751 212.406 44.8688 212.555 44.6332C212.699 44.3716 212.978 44.2081 213.392 44.1425C213.727 44.2485 214.136 44.2367 214.619 44.1071C215.098 43.9516 215.563 43.7055 216.014 43.369C216.486 43.0024 216.881 42.5685 217.2 42.0673C217.618 41.3645 217.94 40.7169 218.164 40.1245C218.385 39.5062 218.477 39.001 218.441 38.6089C218.387 38.4319 218.323 38.2828 218.251 38.1617C218.179 38.0406 218.053 37.9147 217.873 37.7841C217.432 38.0131 217.073 38.2556 216.795 38.5118C216.539 38.7379 216.298 38.975 216.073 39.2229C215.373 39.9967 214.86 40.6084 214.534 41.0579C214.207 41.5074 213.956 41.9317 213.781 42.3307C213.601 42.7039 213.373 43.1908 213.097 43.7914C212.94 44.1346 212.75 44.4431 212.528 44.7169C212.328 44.9607 212.172 45.1446 212.059 45.2686C212.063 45.7983 211.841 46.1517 211.391 46.329C210.75 46.298 210.265 46.1628 209.935 45.9234C209.631 45.6799 209.48 45.2265 209.481 44.5634C209.501 44.189 209.529 43.694 209.564 43.0786C209.625 42.459 209.693 41.9709 209.769 41.6141C210.123 39.3305 210.509 37.4132 210.926 35.8621C211.369 34.3069 211.668 33.1855 211.825 32.4978L212.363 31.3783C212.807 31.3345 213.201 31.3914 213.544 31.5492C213.883 31.6811 214.181 32.058 214.439 32.6801C214.459 32.8095 214.394 33.1513 214.243 33.7055C214.114 34.2298 213.961 34.8508 213.783 35.5684C213.631 36.282 213.471 36.9438 213.302 37.5539C213.159 38.1599 213.057 38.6004 212.994 38.8755C212.954 39.1206 213.029 39.0953 213.221 38.7998C213.413 38.5042 213.744 38.0806 214.213 37.5288C214.504 37.191 214.814 36.8899 215.144 36.6256C215.469 36.3354 215.753 36.118 215.995 35.9736C216.333 35.761 216.655 35.6171 216.961 35.5421C217.267 35.467 217.496 35.4043 217.647 35.3538C218.453 35.2526 219.075 35.3264 219.512 35.5753C219.975 35.8201 220.304 36.1392 220.499 36.5326C220.69 36.9001 220.806 37.2132 220.847 37.4719C221.016 37.8694 221.146 38.273 221.237 38.6828C221.325 39.0667 221.349 39.4738 221.312 39.9041C221.267 40.1233 221.148 40.4604 220.955 40.9153C220.783 41.3402 220.577 41.7971 220.337 42.2861C220.118 42.7451 219.846 43.1196 219.52 43.4098C219.324 43.6796 219.029 43.9915 218.635 44.3458C218.236 44.6741 217.822 44.9916 217.393 45.2982C216.986 45.5749 216.621 45.7786 216.297 45.9095ZM224.977 45.2101C224.296 45.265 223.754 45.1918 223.351 44.9905C222.973 44.7851 222.643 44.3734 222.36 43.7554C222.278 43.2381 222.257 42.7772 222.299 42.3728C222.367 41.9642 222.411 41.5728 222.432 41.1983C222.486 40.3677 222.564 39.6923 222.667 39.1722C222.796 38.6479 222.932 38.0827 223.075 37.4768C223.155 37.1459 223.22 36.8041 223.27 36.4514C223.342 36.0687 223.403 35.7011 223.453 35.3484C223.517 34.914 223.572 34.5076 223.618 34.129C223.664 33.7505 223.723 33.3699 223.795 32.9872C223.833 32.5569 223.858 32.1287 223.87 31.7025C223.908 31.2722 223.944 30.829 223.978 30.3729C224.3 29.8975 224.687 29.6638 225.139 29.6717C225.587 29.6537 226.132 29.9121 226.774 30.4468C227.024 30.8579 227.172 31.2057 227.217 31.4902C227.288 31.7707 227.273 32.0913 227.171 32.4522C227.148 32.6415 227.09 32.9424 226.996 33.355C226.928 33.7636 226.84 34.215 226.733 34.7093C226.652 35.1995 226.555 35.6788 226.444 36.1473C226.375 36.7151 226.277 37.3537 226.151 38.0632C226.051 38.7685 225.955 39.4201 225.864 40.0179C225.773 40.6157 225.709 41.0501 225.673 41.321C225.579 41.7337 225.522 42.1272 225.502 42.5016C225.478 42.8502 225.47 43.3023 225.478 43.8578C225.563 44.0565 225.559 44.2825 225.466 44.5358C225.396 44.7592 225.232 44.9839 224.977 45.2101ZM233.602 43.6442C233.404 43.5695 233.142 43.5049 232.815 43.4507C232.51 43.3664 232.205 43.2822 231.9 43.1979C231.621 43.1096 231.381 43.0151 231.179 42.9145C230.524 42.4614 230.044 41.9409 229.738 41.3529C229.433 40.7649 229.25 40.1972 229.19 39.6499C229.126 39.0767 229.102 38.5899 229.118 38.1896C229.156 37.7593 229.166 37.4925 229.15 37.389C229.079 37.1086 229.077 36.8437 229.143 36.5945C229.236 36.3412 229.317 36.1029 229.388 35.8795C229.71 34.9004 230.025 34.0417 230.332 33.3036C230.635 32.5396 231.118 31.6543 231.781 30.6477C231.959 30.4338 232.141 30.2458 232.328 30.0837C232.536 29.8916 232.769 29.775 233.028 29.734L234.025 30.2522C234.239 30.4304 234.377 30.6339 234.44 30.8626C234.525 31.0614 234.538 31.3112 234.479 31.6122C234.456 31.8014 234.422 32.0057 234.378 32.2249C234.329 32.4183 234.265 32.6008 234.186 32.7724C233.812 33.256 233.523 33.779 233.321 34.3414C233.144 34.8998 232.963 35.4323 232.778 35.9389C232.768 36.2057 232.697 36.4291 232.566 36.6089C232.436 36.7887 232.35 37.0011 232.309 37.2463C232.282 37.4097 232.242 37.5751 232.189 37.7426C232.136 37.9101 232.1 38.1014 232.081 38.3166C232.026 38.8027 232.016 39.1622 232.053 39.395C232.116 39.6237 232.187 39.9041 232.266 40.2363C232.49 40.307 232.769 40.3157 233.106 40.2624C233.438 40.1832 233.669 40.0537 233.8 39.8739C234.226 39.3821 234.52 38.9776 234.681 38.6602C234.839 38.317 234.958 37.98 235.038 37.6491C235.114 37.2923 235.23 36.8497 235.385 36.3213C235.556 35.8964 235.67 35.3613 235.727 34.7158C235.81 34.0663 235.858 33.4488 235.871 32.8633C235.88 32.252 235.829 31.849 235.719 31.6543C235.664 31.4774 235.617 31.2595 235.576 31.0009C235.561 30.7381 235.494 30.4835 235.375 30.2371C235.406 30.0996 235.395 29.9423 235.34 29.7654C235.286 29.5884 235.229 29.3985 235.17 29.1956C235.112 28.9928 235.031 28.8199 234.929 28.677C234.683 27.6287 234.477 26.7466 234.311 26.0305C234.17 25.3103 234.07 24.6765 234.009 24.1292C233.971 23.5519 233.956 22.9576 233.965 22.3462C233.998 22.0494 234.137 21.6694 234.381 21.2063C234.622 20.7174 234.853 20.336 235.075 20.0622C235.475 19.5745 236.058 19.1508 236.823 18.7909C237.584 18.4051 238.279 18.1889 238.908 18.1422C239.011 18.1258 239.218 18.093 239.528 18.0438C239.839 17.9946 240.175 17.9413 240.537 17.8839C240.895 17.8007 241.202 17.7256 241.456 17.6588C241.681 17.5701 241.882 17.4985 242.059 17.444C242.231 17.3635 242.517 17.1591 242.916 16.8308C243.293 16.5324 243.636 16.4382 243.945 16.5483L245.19 17.6239C245.266 18.2747 245.128 18.8269 244.776 19.2805C244.419 19.7083 243.732 20.0559 242.714 20.3233C242.533 20.352 242.365 20.3787 242.209 20.4033C242.05 20.402 241.897 20.4395 241.75 20.5159C241.577 20.5963 241.383 20.627 241.168 20.6081C240.979 20.5851 240.832 20.5817 240.729 20.5981C240.47 20.6391 240.179 20.7251 239.855 20.856C239.553 20.9569 239.201 20.9993 238.801 20.9832C237.915 21.4154 237.338 21.9576 237.07 22.6099C236.798 23.2364 236.719 23.9118 236.834 24.6361C237.005 25.3781 237.229 26.1248 237.507 26.8762C237.807 27.5977 238.065 28.4716 238.281 29.4982C238.34 29.701 238.394 29.878 238.445 30.0291C238.521 30.1761 238.548 30.3442 238.525 30.5335C238.795 31.2332 238.951 31.8846 238.993 32.4878C239.062 33.0868 239.05 33.513 238.957 33.7663C238.956 33.9256 238.982 34.2531 239.034 34.7486C239.111 35.2401 239.053 35.793 238.859 36.4071C238.431 37.7213 237.971 38.9211 237.48 40.0066C236.989 41.0921 236.319 42.0469 235.468 42.8712C235.208 43.0715 234.942 43.233 234.67 43.3557C234.398 43.4784 234.042 43.5745 233.602 43.6442ZM244.627 41.7378C244.412 41.7189 244.124 41.5788 243.765 41.3176C243.431 41.0523 243.115 40.7311 242.817 40.3542C242.518 39.9772 242.346 39.6464 242.301 39.3619C242.386 39.0568 242.476 38.5387 242.572 37.8075C242.664 37.0504 242.792 36.1816 242.955 35.2012C243.116 34.8838 243.218 34.523 243.26 34.1185C243.328 33.71 243.389 33.3424 243.443 33.0156C243.585 32.5689 243.734 32.0017 243.89 31.314C244.068 30.5964 244.246 29.8787 244.424 29.1611C244.597 28.4175 244.751 27.7966 244.884 27.2981C245.008 26.9073 245.105 26.6002 245.176 26.3769C245.242 26.1277 245.3 25.9064 245.349 25.713C245.324 25.5578 245.353 25.4073 245.436 25.2616C245.545 25.1118 245.688 25.0096 245.865 24.955C245.982 24.8569 246.118 24.7955 246.274 24.7709C246.425 24.7205 246.578 24.6829 246.733 24.6583C247.069 24.605 247.402 24.7778 247.73 25.1765C248.08 25.5453 248.282 25.8978 248.335 26.2341C248.409 26.6997 248.375 27.1559 248.234 27.6026C248.118 28.0452 247.973 28.466 247.797 28.865C247.648 29.2599 247.509 29.6399 247.381 30.0049C247.25 30.344 247.221 30.6667 247.296 30.973C247.304 31.0248 247.417 30.9804 247.633 30.8401C247.871 30.6697 248.118 30.4715 248.374 30.2453C248.586 30.0791 248.864 29.8229 249.207 29.4769C249.55 29.1309 249.893 28.7848 250.236 28.4388C250.579 28.0927 250.873 27.8604 251.12 27.7418C251.562 27.3535 251.937 27.0422 252.245 26.8078C252.548 26.5476 252.76 26.3813 252.881 26.3091C253.21 26.2041 253.536 26.2584 253.862 26.4719C254.187 26.6855 254.414 26.9414 254.54 27.2395C254.689 27.5076 254.68 27.7874 254.514 28.0789C254.37 28.3404 254.103 28.6612 253.712 29.0413C253.235 29.5413 252.656 30.0706 251.975 30.6292C251.32 31.1838 250.722 31.6763 250.181 32.1069C249.661 32.5075 249.357 32.7678 249.27 32.8876C249.274 32.9135 249.392 33.0673 249.622 33.349C249.878 33.6266 250.147 33.9022 250.429 34.1757C250.663 34.4833 250.883 34.78 251.087 35.0658C251.313 35.3216 251.482 35.5469 251.592 35.7415C251.979 36.3431 252.331 36.8045 252.647 37.1256C252.989 37.4427 253.347 37.6113 253.721 37.6315C254.096 37.6517 254.553 37.5262 255.094 37.2549C255.556 36.996 255.938 36.9753 256.237 37.193C256.533 37.3848 256.731 37.6318 256.832 37.934C256.882 38.0851 256.866 38.2336 256.783 38.3793C256.7 38.525 256.548 38.7348 256.326 39.0086C255.948 39.4663 255.503 39.8417 254.993 40.1347C254.513 40.4495 254.098 40.5948 253.75 40.5705C253.465 40.6156 253.14 40.5742 252.775 40.4464C252.414 40.3445 251.934 40.0759 251.335 39.6405C250.761 39.2011 249.99 38.5146 249.02 37.5811C249.003 37.4777 248.912 37.3198 248.746 37.1075C248.605 36.891 248.465 36.6746 248.325 36.4582C248.188 36.2677 248.043 36.1051 247.889 35.9703C247.757 35.8057 247.676 35.7125 247.646 35.6907C247.654 35.7424 247.622 35.7077 247.55 35.5866C247.5 35.4355 247.408 35.2776 247.276 35.1129C247.17 34.9441 247.037 34.8591 246.878 34.8578C246.663 34.8389 246.489 34.999 246.357 35.3381C246.225 35.6772 246.089 36.0701 245.947 36.5168C245.867 36.8477 245.786 37.2583 245.705 37.7485C245.62 38.2128 245.571 38.6581 245.559 39.0843C245.547 39.5104 245.576 39.8638 245.647 40.1442C245.709 40.5322 245.659 40.8849 245.497 41.2022C245.357 41.4896 245.067 41.6681 244.627 41.7378ZM267.844 37.9787C267.544 37.761 267.256 37.4487 266.979 37.0418C266.725 36.6048 266.472 36.1012 266.223 35.5308C266.138 35.3321 266.074 35.0905 266.029 34.8059C266.005 34.4914 265.968 34.2586 265.918 34.1075C265.869 34.3009 265.774 34.5412 265.634 34.8286C265.52 35.1119 265.396 35.3305 265.261 35.4844C265.174 35.6043 264.974 35.8481 264.661 36.2159C264.344 36.5579 264.019 36.8481 263.685 37.0866C262.918 37.7651 262.223 38.1535 261.603 38.2519C260.978 38.3244 260.37 38.0892 259.78 37.5463C259.313 37.2756 258.926 36.9259 258.62 36.4972C258.309 36.0426 258.174 35.4409 258.214 34.692C258.123 33.7784 258.113 32.8784 258.184 31.992C258.252 31.0797 258.494 29.848 258.911 28.2969C259.286 27.1502 259.571 26.2698 259.765 25.6556C259.96 25.0415 260.088 24.6765 260.149 24.5607C260.516 24.3699 260.945 24.3152 261.435 24.3966C261.921 24.4521 262.219 24.6569 262.328 25.0108C262.524 25.2449 262.587 25.7255 262.517 26.4526C262.468 27.1498 262.283 27.9879 261.961 28.9671C261.738 29.904 261.539 30.8239 261.364 31.7267C261.185 32.6036 261.104 33.3457 261.12 33.953C261.163 34.5562 261.375 34.8937 261.758 34.9656C262.011 35.0581 262.369 34.9748 262.832 34.7159C263.321 34.4528 263.827 33.882 264.351 33.0035C264.896 32.095 265.385 30.7447 265.817 28.9526C265.942 28.4025 266.025 27.9252 266.067 27.5208C266.105 27.0905 266.098 26.6276 266.046 26.132C265.945 25.8298 265.948 25.5112 266.054 25.1761C266.185 24.837 266.392 24.5523 266.674 24.3221C266.757 24.1763 266.881 24.0374 267.045 23.9052C267.206 23.7472 267.322 23.7287 267.395 23.8499L268.009 23.7127C268.109 23.6704 268.227 23.7446 268.363 23.9351C268.499 24.1256 268.64 24.2624 268.786 24.3454C269.107 24.5331 269.291 25.0211 269.336 25.8094C269.407 26.5937 269.256 27.7313 268.883 29.2225C268.559 30.361 268.35 31.2161 268.255 31.7881C268.186 32.3559 268.179 32.9005 268.236 33.422C268.309 33.8876 268.427 34.2933 268.587 34.639C268.77 34.9548 269.082 35.2501 269.523 35.5249C269.837 35.6608 270.035 35.9079 270.118 36.2659C270.227 36.6198 270.294 36.9541 270.317 37.2686C270.302 37.5096 270.148 37.7064 269.854 37.8591C269.564 38.0376 269.221 38.1318 268.824 38.1415C268.458 38.1731 268.131 38.1188 267.844 37.9787ZM275.815 30.2716C275.112 30.5158 274.519 30.2914 274.038 29.5987C273.579 28.8759 273.432 27.6132 273.597 25.8103C273.703 25.4753 273.785 25.1574 273.843 24.8564C273.898 24.5296 273.911 24.2757 273.882 24.0946C273.932 23.7419 274 23.3334 274.085 22.869C274.193 22.3747 274.306 21.9192 274.426 21.5025C274.541 21.0599 274.627 20.7678 274.685 20.6262C274.788 20.6098 274.877 20.5028 274.952 20.3054C275.053 20.1038 275.089 19.9125 275.06 19.7314C275.027 19.5245 275.029 19.2855 275.066 19.0145C275.128 18.7395 275.203 18.542 275.29 18.4221C275.269 18.2928 275.299 18.1423 275.377 17.9707C275.456 17.7991 275.488 17.6616 275.471 17.5581C275.455 17.4546 275.466 17.36 275.506 17.2742C275.571 17.1843 275.595 17.0876 275.579 16.9841C275.746 16.5333 275.947 15.8783 276.182 15.019C276.439 14.1298 276.677 13.2038 276.896 12.241C277.14 11.2741 277.336 10.421 277.484 9.68156C277.632 8.94214 277.694 8.49483 277.67 8.33962C277.688 8.12448 277.737 7.93111 277.816 7.7595C277.895 7.5879 278.042 7.51157 278.257 7.53051C278.348 7.4365 278.472 7.3772 278.627 7.35261C278.804 7.29804 278.944 7.26256 279.047 7.24616C279.047 7.24616 279.146 7.28355 279.344 7.35832C279.541 7.43309 279.747 7.5596 279.961 7.73784C280.196 7.88612 280.35 8.10048 280.421 8.38092C280.492 8.66137 280.552 8.9568 280.601 9.26721C280.653 9.76279 280.56 10.3476 280.322 11.0218C280.084 11.6959 279.818 12.4408 279.523 13.2566C279.342 13.7891 279.157 14.2957 278.968 14.7764C278.805 15.2531 278.732 15.5431 278.748 15.6466C278.764 15.7501 278.737 15.9135 278.667 16.1368C278.596 16.3601 278.521 16.6373 278.44 16.9682C278.326 17.2515 278.22 17.5865 278.122 17.9732C278.025 18.36 277.936 18.7188 277.855 19.0497C277.797 19.3506 277.774 19.5399 277.786 19.6175C277.777 19.7251 277.754 19.8347 277.719 19.9464C277.71 20.0539 277.661 20.1677 277.574 20.2875C277.471 20.3039 277.418 20.3918 277.417 20.5511C277.438 20.6804 277.448 20.7451 277.448 20.7451C277.464 20.8486 277.439 21.1046 277.371 21.5131C277.325 21.8916 277.213 22.3601 277.037 22.9184C276.762 24.3673 276.587 25.522 276.512 26.3826C276.432 27.2173 276.411 27.9232 276.45 28.5005C276.496 29.1296 276.443 29.549 276.291 29.7587C276.165 29.9644 276.006 30.1354 275.815 30.2716ZM274.724 36.6894C274.236 36.9524 273.81 37.1127 273.448 37.1701C273.108 37.1975 272.693 37.0909 272.204 36.8501C271.635 36.4365 271.387 35.9588 271.46 35.4168C271.559 34.8708 271.932 34.2946 272.578 33.6883C273.02 33.3 273.358 33.0874 273.591 33.0505C273.82 32.9878 274.196 33.0209 274.72 33.15C275.656 33.532 276.123 34.0546 276.122 34.7177C276.117 35.3549 275.651 36.0121 274.724 36.6894Z" fill="#448FFF"/>
<path opacity="0.2" d="M19 88C64.1667 74.1667 213 64 273 46" stroke="#448FFF" stroke-width="2" stroke-linecap="round"/>
</svg>
