<svg width="233" height="40" viewBox="0 0 233 40" fill="none" xmlns="http://www.w3.org/2000/svg">
<path d="M187.686 39.5656H181.032V19.3882H174.859V14.4309H193.866V19.3882H187.686V39.5656Z" fill="#131313"/>
<path fill-rule="evenodd" clip-rule="evenodd" d="M101.211 34.8227V39.5651H128.317V34.8227H125.301V14.4304H106.628V19.7804C106.628 24.4858 106.198 27.5683 105.516 29.8358C104.947 31.5533 104.239 33.2212 103.397 34.8227H101.211ZM118.602 19.1878V34.8228H109.77C110.574 33.3517 111.184 31.7825 111.585 30.1545C112.311 27.1603 112.638 24.0831 112.556 21.0032V19.1878H118.602Z" fill="#131313"/>
<path d="M158.685 39.5651H152.023V14.4304H158.692V24.0634H166.584V14.4304H173.253V39.5651H166.584V28.8206H158.685V39.5651Z" fill="#131313"/>
<path d="M136.187 39.9948C133.8 40.0477 131.422 39.6944 129.155 38.95H129.125L129.34 33.926C131.276 34.7361 133.347 35.1736 135.446 35.2154C138.21 35.2154 140.359 34.4299 141.655 33.1702C142.813 32.0222 143.514 30.4918 143.626 28.865H134.075V24.2708H143.574C143.38 22.8951 142.721 21.6272 141.707 20.677C140.625 19.6766 138.832 18.7726 135.994 18.7726C133.809 18.7527 131.666 19.3651 129.822 20.5362L129.14 15.4011C131.495 14.457 134.012 13.9813 136.55 14.0006C141.722 14.0006 144.767 15.5789 146.494 17.0164C148.969 19.0986 150.733 22.5887 150.733 27.0347C150.791 28.7947 150.486 30.5477 149.837 32.1847C149.188 33.8216 148.209 35.3074 146.961 36.5492C143.73 39.565 139.492 39.9948 136.187 39.9948Z" fill="#131313"/>
<path fill-rule="evenodd" clip-rule="evenodd" d="M65.2266 39.5651H72.0141L73.9852 34.2151H83.3959L85.2632 39.5651H92.5843L82.929 14.4304H74.741L65.2266 39.5651ZM81.8025 29.4357H75.5337L78.7644 19.6026H78.8385L81.8025 29.4357Z" fill="#131313"/>
<path d="M53.8906 14.4304V39.5651H60.567V19.3877H70.8002V14.4304H53.8906Z" fill="#131313"/>
<path d="M52.2847 39.5651H34.2266V14.4304H51.892V19.1876H40.903V24.3746H51.277V29.117H40.903V34.8227H52.2847V39.5651Z" fill="#131313"/>
<path d="M6.9657 39.5651H0.4375V14.4304H10.9301L16.243 31.1251H16.3171L21.882 14.4304H32.0263V39.5651H25.4981L25.6018 20.2473H25.5277L19.1403 39.5651H12.9974L6.89902 20.2473H6.82491L6.9657 39.5651Z" fill="#131313"/>
<path fill-rule="evenodd" clip-rule="evenodd" d="M214.318 7.44385C212.567 7.44385 209.185 7.67845 206.706 10.189C204.286 12.64 203.992 16.089 203.992 18.1233C203.992 20.1577 204.286 23.6101 206.706 26.0611C209.185 28.5682 212.578 28.8028 214.318 28.8028C216.058 28.8028 219.451 28.5682 221.93 26.0611C224.35 23.6101 224.644 20.1577 224.644 18.1233C224.644 16.089 224.35 12.6365 221.93 10.189C219.451 7.67845 216.058 7.44385 214.318 7.44385ZM214.318 11.5161C214.979 11.4928 215.635 11.6343 216.227 11.9277C216.819 12.221 217.329 12.6572 217.711 13.1968C218.831 14.7024 218.982 16.7963 218.982 18.1233C218.982 19.4504 218.831 21.5478 217.711 23.0499C217.313 23.5724 216.8 23.996 216.211 24.2875C215.623 24.5791 214.975 24.7308 214.318 24.7308C213.661 24.7308 213.013 24.5791 212.425 24.2875C211.836 23.996 211.323 23.5724 210.925 23.0499C209.805 21.5442 209.658 19.4504 209.658 18.1233C209.658 16.7963 209.805 14.7024 210.925 13.1968C211.307 12.6574 211.817 12.2215 212.409 11.9281C213.002 11.6347 213.657 11.4931 214.318 11.5161Z" fill="white" stroke="#000003" stroke-width="0.0770322" stroke-miterlimit="22.93"/>
<path d="M223.398 27.7502C228.507 22.6416 228.507 14.3589 223.398 9.25024C218.29 4.14161 210.007 4.14161 204.898 9.25025C199.79 14.3589 199.79 22.6416 204.898 27.7502C210.007 32.8589 218.29 32.8589 223.398 27.7502Z" fill="white" stroke="#000003" stroke-width="0.0770322" stroke-miterlimit="22.93"/>
<path fill-rule="evenodd" clip-rule="evenodd" d="M211.719 10.0938C211.939 10.0959 212.154 10.1538 212.346 10.2619C212.5 10.381 212.517 10.6576 212.552 10.9062C212.64 10.6891 212.584 10.451 212.748 10.2864C212.913 10.1219 213.165 10.1534 213.389 10.1008C212.689 9.9958 212.668 9.97479 212.57 9.271C212.51 9.49159 212.514 9.77171 212.374 9.90826C212.233 10.0448 211.96 10.0378 211.719 10.0938Z" fill="#FBFBFC"/>
<path fill-rule="evenodd" clip-rule="evenodd" d="M208.008 10.0519C208.442 10.2165 209.135 9.9714 209.324 10.8573C209.342 11.0671 209.375 11.2753 209.422 11.4805C209.51 10.6717 209.552 10.311 210.217 10.164C210.399 10.122 210.69 10.122 210.84 10.0659C209.755 9.93288 209.566 9.86636 209.44 8.81942V8.72138C209.438 8.71446 209.438 8.70729 209.44 8.70037C209.439 8.69461 209.439 8.68862 209.44 8.68286C209.328 9.84535 209.121 9.92238 208.008 10.0519Z" fill="#FDFCFC"/>
<path fill-rule="evenodd" clip-rule="evenodd" d="M213.414 8.71113C214.275 8.88271 214.465 8.74265 214.577 9.87712C214.773 9.36941 214.405 8.80567 215.778 8.72864C214.867 8.58508 214.675 8.58158 214.608 7.57666L214.573 7.69571C214.437 8.56407 214.387 8.57108 213.414 8.71113Z" fill="#FDFCFC"/>
<path fill-rule="evenodd" clip-rule="evenodd" d="M208.242 16.7082L209.219 17.5661C209.758 18.0002 210.221 18.3364 210.788 18.732C211.267 19.0612 211.968 19.5059 212.465 19.7825C213.302 20.2482 213.964 20.6333 214.856 21.036C215.515 21.3336 216.106 21.5962 216.782 21.8483C217.01 21.9446 217.244 22.0253 217.483 22.0899C217.658 20.8469 218.813 19.0297 219.307 17.7411C219.532 17.2377 219.708 16.7135 219.832 16.176C219.832 16.1445 219.832 16.127 219.832 16.0884C219.797 15.9904 219.811 16.0324 219.769 15.9939C219.723 16.0429 219.769 15.9939 219.727 16.0464L219.678 16.225C219.676 16.2623 219.676 16.2997 219.678 16.337L219.629 16.6417L219.583 16.7187L219.471 16.7817L219.443 17.1109L219.237 17.3385C219.237 17.3385 209.401 17.2964 209.251 17.2649C208.999 17.2159 209.051 17.3069 208.9 17.1494C208.75 16.9918 208.823 17.0934 208.718 17.0058L208.613 16.9498C208.613 16.9498 208.648 17.0443 208.613 16.9148C208.578 16.7852 208.512 16.8623 208.421 16.6907L208.242 16.7082Z" fill="white"/>
<path fill-rule="evenodd" clip-rule="evenodd" d="M217.117 12.0657L217.38 12.1077L217.474 11.9432L217.765 11.8731H217.782L217.835 11.8311C217.905 11.7856 217.888 11.8661 217.919 11.7471L219.292 11.7261L219.673 11.8031C219.673 11.8031 219.673 11.8031 219.691 11.8031C219.747 11.8031 219.691 11.8031 219.715 11.8241V11.8626C219.81 11.8626 219.855 11.9292 219.936 11.9292C220.149 11.9292 220.016 11.9292 220.135 12.0027L220.37 12.1112C220.451 12.1428 220.426 12.2023 220.412 12.3108C220.535 12.3108 220.605 12.2898 220.682 12.3703L220.703 12.3949C220.731 12.4299 220.703 12.4229 220.759 12.4579C220.881 12.5489 220.787 12.4264 220.892 12.5174L221.007 12.5944C220.962 12.668 220.969 12.4999 220.969 12.689C220.496 12.689 219.337 12.7135 218.917 12.654C218.768 12.665 218.618 12.665 218.469 12.654L218.192 12.633C218.128 12.6228 218.063 12.6378 218.01 12.675C217.961 12.731 218.01 12.675 217.982 12.787C217.902 12.787 217.803 12.787 217.726 12.787C217.649 12.787 217.614 12.808 217.516 12.808C217.611 12.9376 217.579 12.8711 217.586 12.8535C217.523 12.8851 217.513 12.9446 217.443 12.9866L217.506 13.0286C217.551 13.0706 217.555 13.1057 217.628 13.1127C217.653 13.0566 217.611 13.0566 217.744 13.0636C217.867 13.0888 217.993 13.1029 218.119 13.1057L218.143 13.2212C218.28 13.2212 218.206 13.2597 218.259 13.1617C218.234 13.1932 218.217 13.1617 218.259 13.1862H218.287C218.423 13.2177 218.287 13.1407 218.357 13.2107L218.521 13.2492V13.3963C218.585 13.3894 218.65 13.3894 218.714 13.3963L218.857 13.4243C218.931 13.4243 218.98 13.4838 218.969 13.4068C218.806 13.2474 218.609 13.1276 218.392 13.0566C218.137 12.9746 217.871 12.9321 217.604 12.9306C217.926 12.7205 218.798 12.7275 219.253 12.8991C220.251 13.2737 220.734 14.2716 220.72 15.3116C220.699 15.8626 220.58 16.4054 220.37 16.9153C219.771 18.666 219.278 19.4083 218.507 20.8719C218.268 21.3028 218.07 21.7553 217.916 22.2235C218.239 22.3312 218.567 22.4223 218.899 22.4966C218.998 22.209 219.121 21.9303 219.267 21.6632C219.635 20.9034 220.139 20.0876 220.514 19.2892C220.773 18.743 221.021 18.1933 221.242 17.612C221.75 16.2675 222.191 15.0875 221.701 13.6379C221.612 13.3758 221.489 13.1263 221.336 12.8956C221.182 12.6512 220.987 12.4355 220.759 12.2583C220.371 11.9407 219.912 11.7222 219.421 11.6216C218.93 11.5209 218.422 11.5412 217.94 11.6806C217.659 11.7344 217.395 11.8544 217.17 12.0307L217.117 12.0657Z" fill="white"/>
<path fill-rule="evenodd" clip-rule="evenodd" d="M208.245 16.7083H208.438C208.529 16.8799 208.609 16.8414 208.63 16.9324C208.651 17.0234 208.63 16.9674 208.63 16.9674L208.735 17.0234C208.84 17.111 208.809 17.0479 208.917 17.167C209.026 17.286 209.005 17.2335 209.267 17.2825C209.418 17.3141 219.254 17.3561 219.254 17.3561L219.46 17.1285L219.488 16.7993L219.6 16.7363L219.646 16.6593L219.695 16.3547C219.693 16.3173 219.693 16.2799 219.695 16.2426L219.744 16.064C219.779 16.0115 219.744 16.064 219.786 16.0115C219.828 16.05 219.814 16.0115 219.849 16.106C219.849 16.1446 219.849 16.1621 219.849 16.1936C220.03 15.4207 219.898 14.6073 219.481 13.9316C219.388 13.7939 219.28 13.6671 219.159 13.5535C219.086 13.4834 219.103 13.4659 219.016 13.4484C219.016 13.5255 218.977 13.4729 218.903 13.4659L218.76 13.4379C218.696 13.4311 218.631 13.4311 218.567 13.4379V13.2909L218.403 13.2524C218.333 13.1823 218.469 13.2524 218.333 13.2278H218.305C218.245 13.1998 218.263 13.2278 218.305 13.2033C218.252 13.3014 218.326 13.2453 218.189 13.2629L218.165 13.1473C218.039 13.1446 217.913 13.1305 217.79 13.1053C217.657 13.1053 217.699 13.1053 217.674 13.1543C217.601 13.1543 217.597 13.1123 217.552 13.0703L217.489 13.0283C217.559 12.9862 217.569 12.9267 217.632 12.8952C217.632 12.8952 217.657 12.9792 217.562 12.8497C217.66 12.8497 217.681 12.8497 217.773 12.8287C217.864 12.8077 217.948 12.8287 218.028 12.8287C218.028 12.7236 218.007 12.7727 218.056 12.7166C218.109 12.6795 218.174 12.6644 218.238 12.6746L218.515 12.6956C218.664 12.7067 218.814 12.7067 218.963 12.6956C219.383 12.7551 220.542 12.7271 221.015 12.7306C221.015 12.5416 221.015 12.7096 221.053 12.6361L220.938 12.5591C220.833 12.468 220.938 12.5906 220.805 12.4995C220.756 12.4645 220.777 12.4715 220.749 12.4365L220.728 12.412C220.651 12.3315 220.581 12.3525 220.458 12.3525C220.458 12.2439 220.497 12.1844 220.416 12.1529L220.182 12.0443C220.062 11.9638 220.182 11.9673 219.982 11.9708C219.901 11.9708 219.856 11.9113 219.761 11.9043V11.8658C219.761 11.8343 219.793 11.8378 219.737 11.8448C219.737 11.8448 219.737 11.8448 219.719 11.8448L219.338 11.7677L217.965 11.7887C217.934 11.9078 217.965 11.8273 217.881 11.8728L217.829 11.9148H217.811L217.52 11.9848L217.426 12.1494L217.163 12.1074C217.104 12.1074 216.705 12.377 216.6 12.44C215.518 13.0603 214.302 13.4087 213.056 13.4554C212.492 13.4807 211.926 13.4229 211.379 13.2839C211.729 13.2278 212.139 13.2173 212.513 13.1648C213.378 13.0465 214.227 12.834 215.045 12.5311C215.201 12.4762 215.346 12.3957 215.476 12.293C213.375 12.5521 212.177 11.0639 209.912 11.8903C209.17 12.1577 208.532 12.6544 208.091 13.3084C207.765 13.7881 207.23 14.9926 207.251 15.7349C207.342 15.7944 207.639 16.1481 207.751 16.2601L208.221 16.7013L208.256 16.7328C208.252 16.7223 208.192 16.6978 208.245 16.7083Z" fill="white"/>
<path fill-rule="evenodd" clip-rule="evenodd" d="M217.112 12.0654L217.136 12.0374C217.362 11.8611 217.626 11.7411 217.907 11.6873C218.388 11.5479 218.896 11.5276 219.387 11.6283C219.878 11.7289 220.338 11.9474 220.725 12.265C220.963 12.4377 221.168 12.651 221.331 12.8953C221.499 13.1396 221.632 13.4059 221.727 13.6866C222.217 15.1362 221.776 16.3162 221.268 17.6608C221.047 18.242 220.799 18.7917 220.54 19.338C220.165 20.1363 219.661 20.9521 219.293 21.712C219.148 21.979 219.025 22.2577 218.926 22.5453C218.593 22.471 218.265 22.3799 217.942 22.2722C218.096 21.8041 218.294 21.3515 218.533 20.9206C219.304 19.457 219.797 18.7077 220.396 16.964C220.606 16.4541 220.725 15.9113 220.746 15.3603C220.746 14.3099 220.277 13.3224 219.279 12.9478C218.824 12.7762 217.952 12.7692 217.63 12.9793C217.898 12.9808 218.163 13.0233 218.418 13.1054C218.635 13.1763 218.832 13.2961 218.996 13.4555C219.083 13.473 219.066 13.4905 219.139 13.5605C219.26 13.6741 219.368 13.801 219.461 13.9387C219.878 14.6144 220.01 15.4277 219.829 16.2007C219.705 16.7382 219.529 17.2624 219.304 17.7658C218.81 19.0543 217.655 20.8716 217.479 22.1146C217.241 22.05 217.007 21.9693 216.779 21.873C216.103 21.6209 215.512 21.3583 214.853 21.0607C213.96 20.658 213.299 20.2729 212.462 19.8072C211.965 19.527 211.264 19.0824 210.785 18.7567C210.217 18.3611 209.755 18.0249 209.216 17.5907L208.239 16.7329C208.187 16.7329 208.239 16.7329 208.201 16.7329L208.166 16.7014L207.696 16.2602C207.584 16.1481 207.287 15.7945 207.196 15.735C207.175 14.9926 207.71 13.7881 208.036 13.3084C208.477 12.6544 209.115 12.1578 209.857 11.8903C212.122 11.064 213.32 12.5521 215.421 12.293C215.291 12.3958 215.146 12.4763 214.99 12.5311C214.172 12.834 213.323 13.0465 212.458 13.1649C212.084 13.2174 211.688 13.2279 211.324 13.2839C211.872 13.4229 212.437 13.4807 213.001 13.4555C214.247 13.4088 215.463 13.0603 216.545 12.4401C216.65 12.377 217.049 12.1214 217.108 12.1074L217.112 12.0654ZM213.638 6.83423C213.382 6.883 213.122 6.90994 212.861 6.91476C212.63 6.93927 212.388 6.97079 212.161 7.0128C210.493 7.30499 208.908 7.95741 207.518 8.9246C207.038 9.26268 206.581 9.63109 206.149 10.0276C206.068 10.1011 206.019 10.1746 205.946 10.2447C205.599 10.5782 205.278 10.9363 204.983 11.3161C204.733 11.627 204.499 11.9507 204.282 12.286C204.114 12.6362 204.282 13.3365 204.38 13.6866C204.716 14.5245 205.196 15.2971 205.799 15.9696C205.832 16.0075 205.864 16.0472 205.893 16.0886L206.817 17.0095C206.92 17.1176 207.027 17.2205 207.14 17.3176C207.287 17.4717 207.507 17.6398 207.682 17.8008C207.857 17.9619 207.973 18.0459 208.127 18.172C211.004 20.4604 214.268 22.2154 217.763 23.3541C219.3 23.8514 221.706 24.4046 223.439 24.0299C223.857 23.9514 224.252 23.783 224.598 23.5362C224.765 23.4242 224.888 23.2587 224.948 23.067C225.199 22.4683 225.4 21.8499 225.55 21.2182C225.606 20.9907 225.771 19.8947 225.806 19.8177V17.4367C225.774 17.3386 225.746 16.964 225.725 16.8239C225.446 14.9203 224.699 13.1157 223.551 11.5717C223.299 11.2216 223.134 11.0745 222.945 10.8259C222.676 10.4758 222.322 10.1991 222.108 9.96104C222.049 9.89101 221.986 9.8595 221.923 9.79647C221.863 9.73946 221.8 9.6857 221.734 9.6354C221.671 9.57588 221.625 9.53736 221.559 9.48134C221.053 9.07174 220.516 8.70292 219.951 8.37837C218.702 7.66274 217.329 7.18767 215.904 6.97779L214.675 6.84823H213.624L213.638 6.83423ZM211.72 10.0941C211.954 10.0521 212.238 10.0451 212.374 9.90852C212.511 9.77196 212.511 9.49184 212.57 9.27125C212.668 9.97154 212.682 9.99605 213.39 10.1011C213.166 10.1536 212.886 10.1466 212.749 10.2867C212.612 10.4267 212.64 10.6893 212.553 10.9064C212.518 10.6578 212.5 10.3812 212.346 10.2622C212.155 10.154 211.939 10.0962 211.72 10.0941ZM207.997 10.0661C208.432 10.2306 209.125 9.98555 209.314 10.8714C209.332 11.0812 209.365 11.2895 209.412 11.4947C209.5 10.6858 209.542 10.3252 210.207 10.1781C210.389 10.1361 210.68 10.1361 210.83 10.0801C209.745 9.94703 209.556 9.8805 209.43 8.83357V8.73552C209.428 8.7286 209.428 8.72144 209.43 8.71452C209.428 8.70876 209.428 8.70277 209.43 8.69701C209.339 9.877 209.132 9.95403 208.029 10.0976L207.997 10.0661ZM213.404 8.72502C214.377 8.58496 214.426 8.57796 214.563 7.70959L214.598 7.59055C214.664 8.59547 214.857 8.59897 215.767 8.74253C214.395 8.81956 214.762 9.3833 214.566 9.89101C214.458 8.74253 214.272 8.88259 213.411 8.71101L213.404 8.72502Z" fill="#E3000F"/>
<path fill-rule="evenodd" clip-rule="evenodd" d="M213.036 30.1575H215.179C215.295 30.1225 215.708 30.098 215.879 30.07C217.298 29.8624 218.667 29.3947 219.916 28.6904C220.532 28.3398 221.117 27.9393 221.667 27.4929L221.979 27.2198C222.386 26.8494 222.769 26.4541 223.127 26.0363C223.184 25.9803 223.235 25.9181 223.278 25.8507C221.954 25.9191 220.628 25.7905 219.342 25.469L218.18 25.1819C218.134 25.2975 218.103 25.5321 218.071 25.6581C217.935 26.2359 217.627 27.2338 217.021 27.4754C215.792 27.9761 215.62 25.329 214.829 24.0754C214.731 23.9179 214.661 23.9249 214.479 23.8444C214.048 23.6553 213.943 23.4662 213.481 24.1455C212.928 24.9543 212.462 26.7261 211.786 27.0307C211.637 27.0744 211.479 27.082 211.326 27.0528C211.174 27.0235 211.03 26.9584 210.907 26.8626C210.252 26.4144 210.273 25.9732 210.172 25.3185C210.041 24.3823 209.817 23.4616 209.503 22.5698C209.245 21.8958 208.934 21.2436 208.572 20.6195L207.231 19.6706C206.8 19.352 205.718 18.4766 205.343 18.1265L204.475 17.2931C204.373 17.1881 204.289 17.1005 204.195 16.992L203.67 16.3967C203.58 16.3004 203.495 16.1987 203.418 16.0921L202.927 15.4443C202.782 15.8673 202.679 16.3036 202.619 16.7469C202.395 18.217 202.451 19.7163 202.784 21.1657C203.191 22.9393 204.011 24.5915 205.179 25.9872L205.55 26.4109C205.766 26.6614 206 26.8954 206.25 27.1112C206.289 27.1497 206.299 27.1707 206.338 27.2058C207.844 28.5607 209.677 29.4996 211.657 29.9299C212.105 30.0525 212.879 30.119 213.036 30.1575Z" fill="#448FFF"/>
</svg>
