<svg width="184" height="17" viewBox="0 0 184 17" fill="none" xmlns="http://www.w3.org/2000/svg">
<path d="M0 0.416504H5.93103L12.7816 6.76133L19.7701 0.416504H25.6552V16.3705H18.9425V7.45099L13.7931 12.4625H11.954L6.75862 7.40501V16.6004H0V0.416504Z" fill="white"/>
<path d="M27.5859 0.416504H45.1492V4.32455H34.2986V6.43949H43.494V10.1177H34.2986V12.4165H45.2871V16.3705H27.5859V0.416504Z" fill="white"/>
<path d="M51.0802 15.5892C49.3284 14.9572 47.7524 13.917 46.4825 12.5547C45.3733 11.4437 44.7457 9.9408 44.7354 8.37083C44.7064 6.80612 45.2829 5.29069 46.3446 4.14094C47.6421 2.81179 49.2101 1.77694 50.9423 1.10646C53.1107 0.336015 55.4001 -0.0377621 57.7009 0.00300962C59.5043 -0.00142239 61.2994 0.246183 63.0343 0.738642C64.6763 1.17623 66.2313 1.89153 67.632 2.85358C68.7962 3.60818 69.6334 4.77371 69.9768 6.11795H63.1722C62.5606 5.39946 61.7664 4.85939 60.8734 4.55473C59.7902 4.20168 58.6561 4.03078 57.517 4.04899C56.4526 4.02251 55.3924 4.19401 54.3906 4.55473C53.5235 4.83881 52.7465 5.34625 52.1377 6.026C51.5837 6.67969 51.2892 7.51418 51.3101 8.37083C51.2864 9.24184 51.5806 10.0917 52.1377 10.7616C52.7506 11.4365 53.5262 11.9431 54.3906 12.2329C55.3998 12.5593 56.4565 12.7147 57.517 12.6927C58.6042 12.7121 59.6885 12.5727 60.7354 12.2789C61.4954 12.0573 62.149 11.5671 62.5745 10.8996H57.2412V7.45129H70.1607C70.3293 9.20814 69.9087 10.9712 68.9653 12.4628C67.7988 13.9714 66.1921 15.0801 64.3676 15.6352C62.1547 16.4181 59.8178 16.792 57.4711 16.7386C55.2875 16.7604 53.1194 16.3705 51.0802 15.5892Z" fill="white"/>
<path d="M85.7959 16.3705L84.5085 14.2096H75.3131L74.0258 16.3705H66.9453L76.7844 0.416504H83.0373L92.9223 16.3705H85.7959ZM77.4281 10.5314H82.3936L80.1407 6.71535V6.11765V6.71535L77.4281 10.5314Z" fill="white"/>
<path d="M109.283 0.417283C111.607 0.370672 113.923 0.712541 116.134 1.42878C117.895 1.92231 119.487 2.89287 120.731 4.23338C121.8 5.34507 122.394 6.82927 122.387 8.37131C122.39 9.91771 121.816 11.4097 120.777 12.5552C119.5 13.8555 117.92 14.819 116.18 15.3598C113.963 16.0539 111.652 16.3952 109.329 16.3713H98.9844V0.417283H109.283ZM113.881 11.4058C114.395 11.0944 114.82 10.6558 115.115 10.1323C115.41 9.60883 115.564 9.01813 115.564 8.41728C115.564 7.81643 115.41 7.22574 115.115 6.70224C114.82 6.17874 114.395 5.74013 113.881 5.42878C112.425 4.61164 110.766 4.22871 109.099 4.32533H105.743V12.4633H109.191C110.836 12.5411 112.472 12.1759 113.927 11.4058H113.881Z" fill="white"/>
<path d="M122.898 0.416504H140.462V4.32455H129.611V6.43949H138.806V10.1177H129.611V12.4165H140.6V16.3705H122.898V0.416504Z" fill="white"/>
<path d="M141.336 0.416504H147.129L157.382 9.19811V0.416504H164.095V16.3705H158.255L148.049 7.54294V16.3705H141.336V0.416504Z" fill="white"/>
<path d="M170.852 4.32455H164.461V0.416504H183.909V4.32455H177.472V16.3705H170.852V4.32455Z" fill="white"/>
</svg>
