<svg width="249" height="43" viewBox="0 0 249 43" fill="none" xmlns="http://www.w3.org/2000/svg">
<path fill-rule="evenodd" clip-rule="evenodd" d="M17.7711 29.5152C16.2206 30.1407 14.569 30.4787 12.8974 30.5126C11.0755 30.5126 9.24037 29.9274 8.1333 28.8503C7.06945 27.8529 6.37129 26.1907 6.37129 24.3123C6.32471 22.5827 6.95719 20.9037 8.1333 19.6347C8.7146 19.0804 9.40075 18.6479 10.1515 18.3625C10.9022 18.077 11.7024 17.9444 12.5051 17.9724C14.2825 18.0143 16.0234 18.4866 17.5783 19.3488L17.9972 15.1166C16.1305 14.4755 14.1728 14.1388 12.1992 14.1193C9.00765 14.1193 6.17847 14.9304 4.30011 16.4996C2.36522 18.1154 0.992188 20.8315 0.992188 24.2691C0.992188 29.9806 4.54945 34.379 12.5051 34.379C14.3726 34.3809 16.2308 34.1167 18.0238 33.5944L17.7711 29.5052V29.5152ZM25.3677 34.0532H30.5773V18.3115H35.3945V14.4451H20.5505V18.3115H25.3677V34.0532ZM47.2232 14.106C45.561 14.106 42.3495 14.3287 39.9957 16.7124C37.6984 19.0396 37.4192 22.3142 37.4192 24.2458C37.4192 26.1774 37.6984 29.4554 39.9957 31.7825C42.3495 34.1629 45.5676 34.3857 47.2232 34.3857C48.8789 34.3857 52.097 34.1629 54.4475 31.7825C56.7447 29.4554 57.0273 26.1774 57.0273 24.2458C57.0273 22.3142 56.7447 19.0363 54.4475 16.7124C52.097 14.3287 48.8755 14.106 47.2232 14.106ZM47.2232 17.9724C47.8503 17.9509 48.473 18.0855 49.0352 18.364C49.5975 18.6425 50.0818 19.0563 50.4447 19.5682C51.5086 20.9977 51.6482 22.9858 51.6482 24.2458C51.6482 25.5058 51.5086 27.4939 50.4447 28.9234C50.0669 29.4196 49.5796 29.8217 49.0208 30.0985C48.462 30.3754 47.8468 30.5194 47.2232 30.5194C46.5996 30.5194 45.9845 30.3754 45.4257 30.0985C44.8669 29.8217 44.3796 29.4196 44.0018 28.9234C42.9346 27.4939 42.795 25.5058 42.795 24.2458C42.795 22.9858 42.9346 20.9977 44.0018 19.5682C44.3642 19.0559 44.8485 18.6418 45.4109 18.3632C45.9732 18.0846 46.5961 17.9503 47.2232 17.9724ZM61.0666 34.0499H66.1631L66.0501 18.9831H66.1166L70.8807 34.0532H75.668L80.6548 18.9831H80.7113L80.6282 34.0532H85.7314V14.4384H77.8157L73.4738 27.4706H73.4306L69.2716 14.4451H61.0666V34.0598V34.0499ZM88.3811 34.0499H93.677L95.2163 29.8776H102.557L104.016 34.0532H109.731L102.195 14.4384H95.8047L88.3811 34.0532V34.0499ZM101.323 26.1541H96.4231L98.9431 18.4777H98.9996L101.327 26.1541H101.323ZM114.216 34.0532V18.3115H109.395V14.4451H124.243V18.3115H119.426V34.0532H114.216ZM136.068 14.106C134.406 14.106 131.194 14.3287 128.841 16.7124C126.543 19.0396 126.264 22.3142 126.264 24.2458C126.264 26.1774 126.543 29.4554 128.841 31.7825C131.194 34.1629 134.416 34.3857 136.068 34.3857C137.721 34.3857 140.942 34.1629 143.296 31.7825C145.593 29.4554 145.872 26.1774 145.872 24.2458C145.872 22.3142 145.593 19.0363 143.296 16.7124C140.942 14.3287 137.721 14.106 136.068 14.106ZM136.068 17.9724C136.695 17.9503 137.318 18.0846 137.881 18.3632C138.443 18.6418 138.927 19.0559 139.29 19.5682C140.354 20.9977 140.497 22.9858 140.497 24.2458C140.497 25.5058 140.354 27.4972 139.29 28.9234C138.912 29.4196 138.425 29.8217 137.866 30.0985C137.307 30.3754 136.692 30.5194 136.068 30.5194C135.445 30.5194 134.829 30.3754 134.271 30.0985C133.712 29.8217 133.225 29.4196 132.847 28.9234C131.783 27.4939 131.643 25.5058 131.643 24.2458C131.643 22.9858 131.783 20.9977 132.847 19.5682C133.209 19.0561 133.694 18.6422 134.256 18.3636C134.818 18.0851 135.441 17.9506 136.068 17.9724ZM151.986 14.4417V17.999C151.986 19.2025 151.956 20.519 151.847 23.7405C151.835 25.1299 151.713 26.5163 151.481 27.8862C151.368 28.591 151.225 29.1229 150.696 29.5883C150.267 29.9735 149.703 30.1752 149.127 30.1502C148.778 30.1446 148.431 30.0977 148.093 30.0106V34.0432C148.815 34.1704 149.545 34.2459 150.277 34.2693C152.272 34.2693 153.934 33.6509 154.872 32.5871C156.075 31.2573 156.385 28.9999 156.534 26.9021C156.674 24.9074 156.76 22.0549 156.76 20.4857V18.1419H161.548V34.0532H166.76V14.4384L151.986 14.4417ZM180.62 14.1093C178.958 14.1093 175.743 14.332 173.393 16.7157C171.096 19.0429 170.816 22.3176 170.816 24.2491C170.816 26.1807 171.096 29.4587 173.393 31.7859C175.743 34.1662 178.965 34.389 180.62 34.389C182.276 34.389 185.494 34.1662 187.845 31.7859C190.142 29.4587 190.424 26.1807 190.424 24.2491C190.424 22.3176 190.142 19.0396 187.845 16.7157C185.494 14.332 182.273 14.1093 180.62 14.1093ZM180.62 17.9757C181.248 17.9542 181.87 18.0888 182.432 18.3673C182.995 18.6459 183.479 19.0596 183.842 19.5715C184.906 21.0011 185.045 22.9891 185.045 24.2491C185.045 25.5091 184.906 27.4972 183.842 28.9268C183.464 29.4229 182.977 29.825 182.418 30.1019C181.859 30.3787 181.244 30.5227 180.62 30.5227C179.997 30.5227 179.382 30.3787 178.823 30.1019C178.264 29.825 177.777 29.4229 177.399 28.9268C176.332 27.4972 176.192 25.5091 176.192 24.2491C176.192 22.9891 176.332 21.0011 177.399 19.5715C177.761 19.0592 178.246 18.6451 178.808 18.3665C179.37 18.088 179.993 17.9537 180.62 17.9757ZM194.46 34.0532H199.673V18.3115H207.652V14.4451H194.46V34.0598V34.0532ZM210.688 34.0532H216.934L222.985 20.8315H223.151L222.985 25.6488V34.0532H228.195V14.4384H221.948L215.897 27.6601H215.721L215.89 22.8428V14.4451H210.688V34.0598V34.0532ZM248.002 14.4384H241.785C237.463 14.4384 235.801 15.4358 235.173 15.9245C234.195 16.6526 233.019 18.1087 233.019 20.8814C233.019 22.0583 233.185 23.4014 234.249 24.5384C234.863 25.1895 235.651 25.651 236.519 25.8682L231.842 34.02H237.663L241.081 27.1581H242.789V34.02H248.002V14.4052V14.4384ZM242.793 18.1419V23.4945H241.463C240.844 23.4945 239.724 23.408 238.996 22.7664C238.74 22.5102 238.541 22.2033 238.411 21.8655C238.281 21.5277 238.223 21.1664 238.241 20.8049C238.209 20.4093 238.276 20.0118 238.438 19.6492C238.599 19.2866 238.85 18.9706 239.166 18.7304C239.92 18.1719 240.958 18.1419 241.463 18.1419H242.793Z" fill="#131313" stroke="#000003" stroke-width="0.0731399" stroke-miterlimit="22.93"/>
<path fill-rule="evenodd" clip-rule="evenodd" d="M178.917 11.4694H181.909V2.41671H184.682V0.192589H176.154V2.41671H178.924V11.4694H178.917ZM165.356 11.4694H168.348V6.64885H171.892V11.4694H174.884V0.192589H171.892V4.51449H168.351V0.192589H165.359V11.4694H165.356ZM153.999 11.1935C155.017 11.5275 156.084 11.686 157.154 11.6623C158.637 11.6623 160.539 11.4694 161.988 10.1163C162.548 9.55919 162.988 8.89262 163.279 8.15819C163.57 7.42376 163.707 6.63723 163.681 5.84763C163.681 3.85291 162.889 2.28705 161.779 1.35285C161.004 0.707892 159.638 -0.000234588 157.317 -0.000234588C156.179 -0.00890055 155.05 0.204528 153.993 0.628103L154.299 2.93201C155.126 2.40662 156.088 2.13182 157.068 2.14077C158.341 2.14077 159.146 2.54636 159.631 2.99518C160.086 3.42151 160.382 3.99037 160.469 4.60758H156.207V6.66879H160.492C160.442 7.39868 160.128 8.08527 159.608 8.60035C159.026 9.16552 158.062 9.51792 156.822 9.51792C155.881 9.49916 154.951 9.3029 154.083 8.93945L153.986 11.1935H153.999ZM148.717 2.32694V9.34172H144.754C145.115 8.68169 145.389 7.97767 145.568 7.24726C145.894 5.90388 146.041 4.52328 146.004 3.14146V2.32694H148.717ZM140.914 9.34172V11.4694H153.075V9.34172H151.722V0.192589H143.344V2.59291C143.344 4.70399 143.151 6.087 142.846 7.10431C142.59 7.87487 142.272 8.62318 141.895 9.34172H140.914Z" fill="#448FFF"/>
<path fill-rule="evenodd" clip-rule="evenodd" d="M135.511 6.92458H132.692L134.141 2.51291H134.175L135.505 6.92458H135.511ZM128.068 11.4692H131.113L131.997 9.06891H136.219L137.057 11.4692H140.342L136.01 0.192383H132.336L128.068 11.4692ZM121.884 11.4692V0.192383H129.47V2.4165H124.879V11.4692H121.884ZM111.96 11.4692H120.062V9.34152H114.956V6.78162H119.61V4.65392H114.956V2.32674H119.886V0.192383H111.96V11.4692ZM95.7031 11.4692H98.632L98.5689 2.80215H98.6021L101.338 11.4692H104.094L106.96 2.80215H106.993L106.947 11.4692H109.876V0.192383H105.324L102.828 7.68257H102.794L100.411 0.192383H95.7031V11.4692Z" fill="#E3000F"/>
<path d="M144.692 33.3866C149.542 28.5361 149.542 20.6719 144.692 15.8214C139.841 10.9709 131.977 10.9709 127.126 15.8214C122.276 20.6719 122.276 28.5361 127.126 33.3866C131.977 38.2371 139.841 38.2371 144.692 33.3866Z" fill="white" stroke="#000003" stroke-width="0.0731399" stroke-miterlimit="22.93"/>
<path fill-rule="evenodd" clip-rule="evenodd" d="M133.602 16.6226C133.81 16.6246 134.015 16.6795 134.197 16.7822C134.343 16.8952 134.36 17.1578 134.393 17.3939C134.476 17.1877 134.423 16.9617 134.579 16.8054C134.735 16.6492 134.975 16.6791 135.187 16.6292C134.522 16.5295 134.503 16.5095 134.409 15.8413C134.353 16.0508 134.356 16.3167 134.223 16.4464C134.09 16.576 133.831 16.5694 133.602 16.6226Z" fill="#FBFBFC"/>
<path fill-rule="evenodd" clip-rule="evenodd" d="M130.078 16.5829C130.49 16.7391 131.149 16.5064 131.328 17.3475C131.345 17.5467 131.376 17.7444 131.421 17.9393C131.504 17.1713 131.544 16.8289 132.176 16.6892C132.349 16.6493 132.625 16.6493 132.768 16.5962C131.737 16.4698 131.558 16.4067 131.438 15.4126V15.3195C131.436 15.313 131.436 15.3062 131.438 15.2996C131.437 15.2941 131.437 15.2884 131.438 15.283C131.331 16.3867 131.135 16.4598 130.078 16.5829Z" fill="#FDFCFC"/>
<path fill-rule="evenodd" clip-rule="evenodd" d="M135.211 15.3096C136.029 15.4725 136.208 15.3395 136.315 16.4166C136.501 15.9346 136.152 15.3993 137.455 15.3262C136.591 15.1899 136.408 15.1866 136.345 14.2324L136.311 14.3455C136.182 15.1699 136.135 15.1766 135.211 15.3096Z" fill="#FDFCFC"/>
<path fill-rule="evenodd" clip-rule="evenodd" d="M130.305 22.9028L131.232 23.7173C131.744 24.1296 132.183 24.4487 132.722 24.8244C133.177 25.1369 133.842 25.5591 134.314 25.8218C135.109 26.2639 135.737 26.6296 136.585 27.0119C137.21 27.2945 137.772 27.5439 138.413 27.7832C138.629 27.8747 138.852 27.9513 139.078 28.0126C139.244 26.8324 140.341 25.107 140.81 23.8836C141.024 23.4056 141.191 22.9079 141.309 22.3975C141.309 22.3676 141.309 22.3509 141.309 22.3144C141.276 22.2213 141.289 22.2612 141.249 22.2246C141.206 22.2712 141.249 22.2246 141.209 22.2745L141.163 22.444C141.16 22.4795 141.16 22.515 141.163 22.5504L141.116 22.8396L141.073 22.9128L140.966 22.9726L140.94 23.2851L140.744 23.5012C140.744 23.5012 131.405 23.4613 131.262 23.4314C131.023 23.3849 131.073 23.4713 130.93 23.3217C130.787 23.1721 130.857 23.2685 130.757 23.1854L130.657 23.1322C130.657 23.1322 130.69 23.222 130.657 23.099C130.624 22.976 130.561 23.0491 130.474 22.8862L130.305 22.9028Z" fill="white"/>
<path fill-rule="evenodd" clip-rule="evenodd" d="M138.727 18.4944L138.976 18.5343L139.066 18.3781L139.342 18.3116H139.358L139.408 18.2717C139.475 18.2285 139.458 18.3049 139.488 18.1919L140.791 18.172L141.153 18.2451C141.153 18.2451 141.153 18.2451 141.17 18.2451C141.223 18.2451 141.17 18.2451 141.193 18.265V18.3016C141.283 18.3016 141.326 18.3648 141.403 18.3648C141.606 18.3648 141.479 18.3648 141.592 18.4346L141.815 18.5377C141.892 18.5676 141.868 18.6241 141.855 18.7272C141.971 18.7272 142.038 18.7072 142.111 18.7837L142.131 18.8069C142.157 18.8402 142.131 18.8335 142.184 18.8668C142.3 18.9532 142.211 18.8369 142.31 18.9233L142.42 18.9964C142.377 19.0663 142.384 18.9067 142.384 19.0862C141.935 19.0862 140.834 19.1095 140.435 19.053C140.294 19.0635 140.151 19.0635 140.01 19.053L139.747 19.033C139.687 19.0233 139.625 19.0376 139.574 19.0729C139.528 19.1261 139.574 19.0729 139.548 19.1793C139.471 19.1793 139.378 19.1793 139.305 19.1793C139.232 19.1793 139.199 19.1992 139.106 19.1992C139.195 19.3223 139.165 19.2591 139.172 19.2425C139.112 19.2724 139.102 19.3289 139.036 19.3688L139.096 19.4087C139.139 19.4486 139.142 19.4818 139.212 19.4885C139.235 19.4353 139.195 19.4353 139.322 19.4419C139.439 19.4659 139.558 19.4792 139.677 19.4818L139.701 19.5915C139.83 19.5915 139.76 19.6281 139.81 19.535C139.787 19.5649 139.77 19.535 139.81 19.5583H139.837C139.967 19.5882 139.837 19.5151 139.903 19.5816L140.06 19.6181V19.7578C140.12 19.7513 140.182 19.7513 140.243 19.7578L140.379 19.7844C140.449 19.7844 140.495 19.8409 140.485 19.7677C140.33 19.6164 140.143 19.5027 139.937 19.4353C139.695 19.3574 139.443 19.317 139.189 19.3156C139.495 19.1161 140.322 19.1228 140.755 19.2857C141.702 19.6414 142.161 20.5889 142.148 21.5763C142.127 22.0994 142.014 22.6149 141.815 23.0989C141.247 24.7612 140.778 25.466 140.046 26.8557C139.819 27.2648 139.631 27.6944 139.485 28.1389C139.791 28.2412 140.103 28.3277 140.419 28.3982C140.513 28.1252 140.63 27.8605 140.768 27.607C141.117 26.8856 141.596 26.111 141.951 25.353C142.197 24.8343 142.433 24.3124 142.643 23.7605C143.125 22.4839 143.544 21.3635 143.078 19.9872C142.994 19.7383 142.878 19.5014 142.733 19.2824C142.586 19.0503 142.401 18.8456 142.184 18.6773C141.816 18.3758 141.38 18.1683 140.914 18.0727C140.447 17.9772 139.965 17.9964 139.508 18.1287C139.241 18.1799 138.99 18.2938 138.776 18.4612L138.727 18.4944Z" fill="white"/>
<path fill-rule="evenodd" clip-rule="evenodd" d="M130.304 22.9028H130.487C130.573 23.0657 130.65 23.0291 130.67 23.1155C130.69 23.202 130.67 23.1488 130.67 23.1488L130.77 23.202C130.869 23.2851 130.839 23.2252 130.942 23.3383C131.045 23.4513 131.026 23.4015 131.275 23.448C131.418 23.4779 140.756 23.5178 140.756 23.5178L140.953 23.3017L140.979 22.9892L141.086 22.9294L141.129 22.8562L141.175 22.567C141.173 22.5316 141.173 22.496 141.175 22.4606L141.222 22.2911C141.255 22.2412 141.222 22.2911 141.262 22.2412C141.302 22.2778 141.288 22.2412 141.322 22.3309C141.322 22.3675 141.322 22.3841 141.322 22.4141C141.494 21.6802 141.368 20.9079 140.973 20.2664C140.884 20.1356 140.782 20.0152 140.667 19.9074C140.597 19.8409 140.614 19.8242 140.53 19.8076C140.53 19.8808 140.494 19.8309 140.424 19.8242L140.288 19.7976C140.227 19.7911 140.166 19.7911 140.105 19.7976V19.658L139.949 19.6214C139.882 19.555 140.012 19.6214 139.882 19.5982H139.856C139.799 19.5716 139.816 19.5982 139.856 19.5749C139.806 19.668 139.875 19.6148 139.746 19.6314L139.723 19.5217C139.603 19.5191 139.484 19.5057 139.367 19.4818C139.24 19.4818 139.28 19.4818 139.257 19.5284C139.187 19.5284 139.184 19.4885 139.141 19.4486L139.081 19.4087C139.147 19.3688 139.157 19.3123 139.217 19.2823C139.217 19.2823 139.24 19.3621 139.151 19.2391C139.244 19.2391 139.264 19.2391 139.35 19.2192C139.437 19.1992 139.516 19.2192 139.593 19.2192C139.593 19.1194 139.573 19.166 139.619 19.1128C139.67 19.0775 139.732 19.0632 139.792 19.0729L140.055 19.0928C140.197 19.1034 140.339 19.1034 140.481 19.0928C140.879 19.1494 141.98 19.1228 142.429 19.1261C142.429 18.9466 142.429 19.1061 142.465 19.0363L142.356 18.9632C142.256 18.8768 142.356 18.9931 142.229 18.9067C142.183 18.8734 142.203 18.8801 142.176 18.8468L142.156 18.8236C142.083 18.7471 142.016 18.767 141.9 18.767C141.9 18.664 141.937 18.6075 141.86 18.5775L141.637 18.4745C141.524 18.398 141.637 18.4013 141.448 18.4047C141.372 18.4047 141.328 18.3481 141.239 18.3415V18.3049C141.239 18.275 141.268 18.2783 141.215 18.285C141.215 18.285 141.215 18.285 141.199 18.285L140.836 18.2118L139.533 18.2318C139.503 18.3448 139.533 18.2684 139.453 18.3116L139.403 18.3515H139.387L139.111 18.418L139.021 18.5742L138.772 18.5343C138.715 18.5343 138.336 18.7903 138.236 18.8502C137.21 19.4391 136.055 19.7699 134.872 19.8143C134.336 19.8382 133.8 19.7833 133.28 19.6514C133.612 19.5982 134.001 19.5882 134.357 19.5383C135.177 19.426 135.983 19.2242 136.76 18.9366C136.908 18.8845 137.047 18.8081 137.169 18.7105C135.175 18.9565 134.038 17.5436 131.887 18.3282C131.182 18.5821 130.577 19.0537 130.158 19.6746C129.849 20.1301 129.34 21.2737 129.36 21.9785C129.446 22.0351 129.729 22.3708 129.835 22.4772L130.281 22.8961L130.314 22.926C130.311 22.9161 130.254 22.8928 130.304 22.9028Z" fill="white"/>
<path fill-rule="evenodd" clip-rule="evenodd" d="M138.726 18.4947L138.749 18.4681C138.963 18.3007 139.213 18.1868 139.48 18.1356C139.937 18.0033 140.42 17.9841 140.886 18.0796C141.352 18.1752 141.788 18.3827 142.156 18.6842C142.382 18.8481 142.577 19.0507 142.732 19.2826C142.891 19.5146 143.017 19.7674 143.107 20.034C143.573 21.4103 143.154 22.5307 142.672 23.8073C142.462 24.3592 142.226 24.8811 141.98 25.3998C141.625 26.1578 141.146 26.9324 140.797 27.6538C140.659 27.9073 140.542 28.172 140.448 28.445C140.132 28.3745 139.82 28.288 139.513 28.1857C139.66 27.7412 139.848 27.3116 140.075 26.9025C140.807 25.5128 141.275 24.8013 141.844 23.1457C142.043 22.6617 142.156 22.1462 142.176 21.6231C142.176 20.6257 141.731 19.6882 140.783 19.3325C140.351 19.1696 139.523 19.1629 139.218 19.3624C139.472 19.3638 139.724 19.4042 139.966 19.4821C140.171 19.5495 140.359 19.6632 140.514 19.8145C140.597 19.8312 140.581 19.8478 140.65 19.9143C140.766 20.0221 140.868 20.1426 140.956 20.2733C141.352 20.9148 141.478 21.6871 141.305 22.421C141.188 22.9314 141.021 23.4291 140.807 23.907C140.338 25.1305 139.241 26.8559 139.075 28.0361C138.848 27.9748 138.626 27.8981 138.41 27.8067C137.768 27.5674 137.206 27.318 136.581 27.0354C135.733 26.6531 135.105 26.2874 134.311 25.8453C133.838 25.5793 133.174 25.1571 132.718 24.8479C132.18 24.4722 131.741 24.1531 131.229 23.7408L130.301 22.9263C130.251 22.9263 130.301 22.9263 130.265 22.9263L130.231 22.8964L129.786 22.4775C129.679 22.3711 129.397 22.0353 129.31 21.9788C129.291 21.274 129.799 20.1304 130.108 19.6749C130.527 19.0539 131.133 18.5824 131.837 18.3285C133.988 17.5439 135.125 18.9568 137.12 18.7108C136.997 18.8084 136.859 18.8848 136.711 18.9369C135.934 19.2245 135.128 19.4262 134.307 19.5386C133.952 19.5885 133.576 19.5984 133.23 19.6516C133.75 19.7836 134.287 19.8385 134.823 19.8145C136.006 19.7702 137.16 19.4393 138.187 18.8504C138.287 18.7906 138.666 18.5479 138.722 18.5346L138.726 18.4947ZM135.428 13.5278C135.184 13.5741 134.937 13.5997 134.69 13.6043C134.47 13.6276 134.241 13.6575 134.025 13.6974C132.441 13.9748 130.936 14.5943 129.616 15.5126C129.161 15.8336 128.727 16.1834 128.316 16.5598C128.24 16.6296 128.193 16.6994 128.124 16.7659C127.795 17.0826 127.489 17.4226 127.209 17.7832C126.972 18.0784 126.75 18.3858 126.544 18.7041C126.385 19.0366 126.544 19.7015 126.638 20.034C126.956 20.8295 127.412 21.5631 127.984 22.2016C128.016 22.2376 128.046 22.2753 128.074 22.3146L128.951 23.1889C129.048 23.2916 129.15 23.3893 129.257 23.4815C129.397 23.6278 129.606 23.7874 129.773 23.9403C129.939 24.0932 130.049 24.173 130.195 24.2927C132.927 26.4655 136.025 28.1318 139.344 29.213C140.803 29.6851 143.087 30.2104 144.733 29.8546C145.129 29.7801 145.505 29.6202 145.833 29.3859C145.992 29.2796 146.109 29.1224 146.166 28.9404C146.404 28.3719 146.595 27.7848 146.738 27.185C146.791 26.9689 146.947 25.9284 146.98 25.8552V23.5945C146.95 23.5015 146.924 23.1457 146.904 23.0127C146.639 21.2053 145.929 19.4919 144.839 18.0259C144.6 17.6935 144.444 17.5539 144.264 17.3178C144.008 16.9854 143.672 16.7227 143.47 16.4966C143.413 16.4302 143.353 16.4002 143.293 16.3404C143.236 16.2863 143.176 16.2352 143.114 16.1875C143.054 16.1309 143.011 16.0944 142.948 16.0412C142.468 15.6523 141.957 15.3021 141.422 14.994C140.235 14.3145 138.931 13.8634 137.579 13.6641L136.412 13.5411H135.414L135.428 13.5278ZM133.606 16.623C133.829 16.5831 134.098 16.5764 134.227 16.4468C134.357 16.3171 134.357 16.0512 134.414 15.8417C134.507 16.5066 134.52 16.5299 135.192 16.6296C134.979 16.6795 134.713 16.6728 134.583 16.8058C134.454 16.9388 134.48 17.1882 134.397 17.3943C134.364 17.1582 134.347 16.8956 134.201 16.7826C134.019 16.6799 133.814 16.625 133.606 16.623ZM130.072 16.5964C130.484 16.7526 131.142 16.5199 131.322 17.361C131.339 17.5602 131.37 17.758 131.415 17.9528C131.498 17.1848 131.538 16.8424 132.17 16.7028C132.342 16.6629 132.618 16.6629 132.761 16.6097C131.731 16.4833 131.551 16.4202 131.432 15.4261V15.3331C131.43 15.3265 131.43 15.3197 131.432 15.3131C131.43 15.3076 131.43 15.302 131.432 15.2965C131.345 16.4169 131.149 16.49 130.102 16.6263L130.072 16.5964ZM135.205 15.3231C136.129 15.1901 136.176 15.1835 136.305 14.359L136.339 14.2459C136.402 15.2001 136.585 15.2034 137.449 15.3397C136.146 15.4128 136.495 15.9481 136.309 16.4302C136.206 15.3397 136.029 15.4727 135.212 15.3098L135.205 15.3231Z" fill="#E3000F"/>
<path fill-rule="evenodd" clip-rule="evenodd" d="M134.854 35.6726H136.889C136.999 35.6394 137.391 35.6161 137.554 35.5895C138.901 35.3924 140.201 34.9483 141.387 34.2796C141.971 33.9468 142.527 33.5665 143.049 33.1426L143.345 32.8833C143.732 32.5317 144.096 32.1564 144.436 31.7596C144.49 31.7065 144.538 31.6474 144.579 31.5834C143.322 31.6484 142.063 31.5262 140.842 31.221L139.738 30.9484C139.695 31.0581 139.665 31.2809 139.635 31.4006C139.506 31.9491 139.213 32.8966 138.638 33.126C137.471 33.6014 137.308 31.0881 136.557 29.8979C136.464 29.7483 136.397 29.7549 136.224 29.6785C135.815 29.4989 135.716 29.3194 135.277 29.9644C134.751 30.7323 134.309 32.4145 133.668 32.7038C133.526 32.7453 133.376 32.7525 133.231 32.7247C133.086 32.697 132.95 32.6351 132.833 32.5442C132.211 32.1187 132.231 31.6998 132.135 31.0781C132.01 30.1893 131.798 29.315 131.5 28.4683C131.255 27.8284 130.96 27.2092 130.616 26.6166L129.342 25.7156C128.933 25.4131 127.906 24.5819 127.55 24.2495L126.726 23.4582C126.63 23.3585 126.55 23.2754 126.46 23.1723L125.961 22.6072C125.876 22.5157 125.796 22.4191 125.722 22.3179L125.257 21.7029C125.119 22.1045 125.021 22.5188 124.964 22.9396C124.751 24.3355 124.804 25.759 125.12 27.1352C125.506 28.8192 126.286 30.3879 127.394 31.7131L127.747 32.1153C127.951 32.3531 128.174 32.5754 128.412 32.7802C128.448 32.8168 128.458 32.8368 128.495 32.87C129.925 34.1565 131.665 35.048 133.545 35.4565C133.97 35.5729 134.705 35.636 134.854 35.6726Z" fill="#448FFF"/>
</svg>
