<svg width="309" height="36" viewBox="0 0 309 36" fill="none" xmlns="http://www.w3.org/2000/svg">
<rect x="193.784" y="4.74786" width="113.3" height="23.3" rx="4.65" transform="rotate(-1.97874 193.784 4.74786)" stroke="white" stroke-width="0.7"/>
<path d="M0.695312 15.4839L6.62281 15.2791L13.6884 21.3836L20.4536 14.8012L26.3352 14.598L26.886 30.5425L20.1774 30.7743L19.8694 21.8601L14.8961 27.0464L13.0581 27.1099L7.69119 22.2348L8.00868 31.4248L1.25409 31.6581L0.695312 15.4839Z" fill="white"/>
<path d="M28.2656 14.5317L45.8184 13.9253L45.9533 17.831L35.1092 18.2057L35.1822 20.3193L44.3721 20.0018L44.4991 23.6778L35.3092 23.9953L35.3886 26.2928L46.3705 25.9134L46.5071 29.865L28.8165 30.4763L28.2656 14.5317Z" fill="white"/>
<path d="M52.271 28.8842C50.4984 28.3131 48.8873 27.328 47.5712 26.0103C46.4243 24.9382 45.7452 23.4579 45.6807 21.8892C45.5977 20.3265 46.1215 18.792 47.1429 17.6063C48.3937 16.2331 49.925 15.1448 51.6331 14.4149C53.7736 13.57 56.0487 13.1174 58.3496 13.0787C60.1517 13.012 61.9543 13.1975 63.7051 13.6298C65.3612 14.0104 66.94 14.6716 68.3731 15.5847C69.5627 16.2986 70.4397 17.4346 70.8292 18.7661L64.0287 19.0011C63.3926 18.3042 62.5803 17.7918 61.6772 17.5182C60.5826 17.2027 59.4432 17.0711 58.3055 17.1286C57.2407 17.1389 56.1871 17.3469 55.1984 17.742C54.3416 18.0559 53.5825 18.5898 52.9976 19.2902C52.4665 19.9626 52.2009 20.8068 52.2515 21.6622C52.2578 22.5335 52.5812 23.3727 53.1611 24.023C53.7969 24.6764 54.5896 25.1558 55.4635 25.4156C56.4834 25.707 57.5448 25.8258 58.6039 25.7672C59.6912 25.749 60.7699 25.5723 61.8061 25.2425C62.558 24.9948 63.1943 24.4823 63.5965 23.8005L58.2663 23.9846L58.1472 20.5384L71.0591 20.0923C71.2882 21.8423 70.9288 23.6188 70.0374 25.1421C68.9237 26.6901 67.3562 27.8536 65.552 28.4714C63.3674 29.3303 61.0449 29.7847 58.6977 29.8123C56.5162 29.9095 54.3359 29.5946 52.271 28.8842Z" fill="white"/>
<path d="M86.984 28.4675L85.6228 26.3523L76.4329 26.6698L75.2209 28.8739L68.1447 29.1183L77.427 12.8341L83.6761 12.6182L94.1062 28.2214L86.984 28.4675ZM78.4195 22.9208L83.3821 22.7494L80.9988 19.0133L80.9781 18.416L80.9988 19.0133L78.4195 22.9208Z" fill="white"/>
<path d="M109.918 11.7121C112.239 11.5852 114.565 11.847 116.799 12.4864C118.577 12.9188 120.201 13.8339 121.491 15.1306C122.597 16.2047 123.242 17.6675 123.288 19.2089C123.345 20.7543 122.823 22.2652 121.824 23.4459C120.593 24.7895 119.047 25.807 117.326 26.4076C115.135 27.1777 112.837 27.5987 110.515 27.655L100.176 28.0122L99.6251 12.0677L109.918 11.7121ZM114.892 22.5353C115.395 22.2064 115.805 21.7533 116.081 21.22C116.358 20.6866 116.492 20.0909 116.472 19.4904C116.451 18.8899 116.276 18.3049 115.963 17.7919C115.65 17.2789 115.21 16.8552 114.686 16.5618C113.203 15.7954 111.531 15.47 109.869 15.6241L106.515 15.74L106.796 23.8731L110.242 23.754C111.888 23.7751 113.51 23.3536 114.938 22.5337L114.892 22.5353Z" fill="white"/>
<path d="M123.516 11.2407L141.068 10.6343L141.203 14.54L130.359 14.9146L130.432 17.0283L139.622 16.7108L139.749 20.3868L130.559 20.7043L130.639 23.0018L141.621 22.6223L141.757 26.574L124.066 27.1852L123.516 11.2407Z" fill="white"/>
<path d="M141.945 10.6045L147.735 10.4045L158.285 18.8268L157.982 10.0505L164.69 9.81869L165.241 25.7632L159.406 25.9648L148.9 17.4949L149.205 26.3172L142.496 26.549L141.945 10.6045Z" fill="white"/>
<path d="M171.577 13.4907L165.19 13.7114L165.055 9.80566L184.491 9.13411L184.626 13.0398L178.193 13.2621L178.609 25.3009L171.993 25.5295L171.577 13.4907Z" fill="white"/>
<path d="M206.57 20.0996C205.687 20.1301 204.925 19.9641 204.282 19.6017C203.639 19.2352 203.136 18.7124 202.773 18.0335C202.414 17.3544 202.219 16.5591 202.188 15.6478C202.156 14.7364 202.296 13.9296 202.607 13.2273C202.923 12.5249 203.388 11.9708 204.004 11.5649C204.62 11.1549 205.37 10.9346 206.253 10.9041C207.27 10.869 208.127 11.0951 208.823 11.5825C209.519 12.0658 210.019 12.7339 210.322 13.5868L208.847 14.049C208.655 13.4787 208.348 13.0392 207.924 12.7306C207.5 12.4179 206.959 12.273 206.301 12.2957C205.708 12.3162 205.218 12.4661 204.831 12.7454C204.448 13.0246 204.164 13.4088 203.981 13.898C203.801 14.3829 203.72 14.9483 203.739 15.5942C203.761 16.2399 203.878 16.8005 204.091 17.276C204.308 17.7472 204.619 18.1088 205.025 18.3608C205.43 18.6127 205.93 18.7284 206.522 18.708C207.18 18.6852 207.71 18.5033 208.111 18.1621C208.513 17.8209 208.79 17.3612 208.941 16.7831L210.445 17.1424C210.201 18.0142 209.749 18.7172 209.088 19.2515C208.427 19.7817 207.588 20.0644 206.57 20.0996ZM213.544 19.6745L213.36 14.3657L211.147 14.4421L211.102 13.1302L217.005 12.9263L217.051 14.2382L214.838 14.3146L215.021 19.6235L213.544 19.6745ZM221.206 19.5939C220.544 19.6168 219.961 19.4876 219.456 19.2063C218.951 18.925 218.553 18.5276 218.261 18.0139C217.973 17.496 217.817 16.8959 217.794 16.2133C217.77 15.5186 217.888 14.9048 218.148 14.3721C218.407 13.8394 218.779 13.4174 219.264 13.106C219.748 12.7947 220.315 12.6278 220.965 12.6053C221.631 12.5823 222.217 12.7115 222.722 12.9927C223.226 13.274 223.625 13.6735 223.917 14.1912C224.209 14.7049 224.366 15.3029 224.39 15.9855C224.414 16.672 224.296 17.2837 224.036 17.8206C223.78 18.3531 223.41 18.7771 222.926 19.0926C222.442 19.4039 221.869 19.571 221.206 19.5939ZM221.159 18.2084C221.747 18.1881 222.178 17.9768 222.45 17.5746C222.723 17.1724 222.848 16.6607 222.827 16.0395C222.805 15.3978 222.642 14.892 222.339 14.5219C222.035 14.1478 221.593 13.9707 221.013 13.9908C220.616 14.0045 220.293 14.1057 220.041 14.2944C219.794 14.4789 219.615 14.7327 219.503 15.0557C219.391 15.3746 219.343 15.7425 219.357 16.1593C219.379 16.801 219.542 17.3089 219.845 17.683C220.153 18.0529 220.591 18.2281 221.159 18.2084ZM225.843 19.2496L225.614 12.6289L226.828 12.5869L229.358 17.0781L231.579 12.4228L232.786 12.3811L233.015 19.0018L231.605 19.0505L231.479 15.403L229.723 19.1155L229.141 19.1356L227.133 15.5531L227.259 19.2006L225.843 19.2496ZM236.585 19.0626C236.107 19.0791 235.699 19.0031 235.362 18.8348C235.024 18.6623 234.765 18.4278 234.583 18.1313C234.405 17.8347 234.309 17.5045 234.297 17.1408C234.286 16.822 234.329 16.5341 234.426 16.277C234.524 16.0159 234.68 15.7895 234.894 15.598C235.108 15.4024 235.389 15.2392 235.736 15.1086C235.999 15.0136 236.307 14.9252 236.66 14.8434C237.017 14.7615 237.403 14.6848 237.818 14.6131C238.237 14.5373 238.674 14.4567 239.13 14.3714L238.613 14.69C238.601 14.2322 238.487 13.8985 238.271 13.6891C238.055 13.4797 237.7 13.3836 237.206 13.4007C236.907 13.411 236.622 13.4904 236.348 13.639C236.075 13.7875 235.889 14.0333 235.791 14.3763L234.428 13.9999C234.572 13.4344 234.867 12.9741 235.313 12.6191C235.763 12.2639 236.378 12.0728 237.159 12.0459C237.747 12.0255 238.268 12.1037 238.72 12.2804C239.176 12.457 239.52 12.7601 239.752 13.1899C239.878 13.4188 239.958 13.6554 239.991 13.8998C240.024 14.1401 240.045 14.4032 240.055 14.6893L240.195 18.7537L238.902 18.7984L238.852 17.3639L239.075 17.5894C238.793 18.0779 238.456 18.4414 238.063 18.6801C237.674 18.9144 237.182 19.0419 236.585 19.0626ZM236.838 17.8754C237.174 17.8638 237.458 17.7947 237.691 17.6679C237.924 17.5412 238.107 17.3897 238.24 17.2132C238.377 17.0366 238.467 16.8719 238.511 16.719C238.582 16.5283 238.618 16.3122 238.617 16.0708C238.621 15.8252 238.62 15.6268 238.615 15.4756L239.074 15.5948C238.631 15.6796 238.25 15.7541 237.934 15.8183C237.617 15.8824 237.345 15.943 237.117 15.9999C236.89 16.0528 236.69 16.1108 236.516 16.1741C236.346 16.2414 236.204 16.3179 236.088 16.4037C235.972 16.4896 235.884 16.5867 235.822 16.6953C235.764 16.8036 235.738 16.9293 235.743 17.0724C235.748 17.2359 235.794 17.3795 235.88 17.5034C235.966 17.6232 236.088 17.7172 236.246 17.7854C236.408 17.8534 236.606 17.8834 236.838 17.8754ZM243.453 18.6412L243.269 13.3323L241.056 13.4088L241.011 12.0969L246.914 11.8929L246.96 13.2048L244.747 13.2813L244.93 18.5901L243.453 18.6412ZM250.007 18.5988C249.529 18.6154 249.121 18.5394 248.784 18.371C248.446 18.1986 248.187 17.9641 248.005 17.6676C247.827 17.3709 247.731 17.0408 247.719 16.677C247.708 16.3583 247.751 16.0703 247.848 15.8133C247.946 15.5521 248.102 15.3258 248.316 15.1343C248.53 14.9387 248.811 14.7755 249.158 14.6448C249.421 14.5498 249.729 14.4615 250.082 14.3797C250.439 14.2978 250.825 14.221 251.24 14.1494C251.659 14.0736 252.096 13.993 252.551 13.9077L252.035 14.2263C252.023 13.7684 251.909 13.4348 251.693 13.2254C251.477 13.016 251.122 12.9198 250.628 12.9369C250.329 12.9472 250.043 13.0267 249.77 13.1752C249.497 13.3238 249.311 13.5696 249.213 13.9126L247.85 13.5362C247.994 12.9707 248.289 12.5104 248.735 12.1553C249.185 11.8002 249.8 11.6091 250.581 11.5821C251.169 11.5618 251.69 11.64 252.142 11.8167C252.598 11.9932 252.942 12.2964 253.174 12.7262C253.3 12.9551 253.38 13.1917 253.413 13.4361C253.446 13.6763 253.467 13.9395 253.477 14.2256L253.617 18.29L252.324 18.3347L252.274 16.9002L252.497 17.1257C252.215 17.6142 251.878 17.9777 251.485 18.2163C251.096 18.4507 250.604 18.5782 250.007 18.5988ZM250.26 17.4117C250.596 17.4001 250.88 17.3309 251.113 17.2042C251.346 17.0775 251.528 16.9259 251.662 16.7495C251.799 16.5729 251.889 16.4082 251.933 16.2552C252.004 16.0646 252.04 15.8485 252.039 15.6071C252.043 15.3615 252.042 15.1631 252.037 15.0118L252.496 15.131C252.052 15.2159 251.672 15.2904 251.356 15.3545C251.039 15.4187 250.767 15.4792 250.539 15.5362C250.312 15.5891 250.112 15.6471 249.938 15.7104C249.768 15.7776 249.626 15.8542 249.51 15.94C249.394 16.0258 249.306 16.123 249.244 16.2315C249.186 16.3399 249.16 16.4656 249.165 16.6087C249.17 16.7721 249.216 16.9158 249.302 17.0397C249.388 17.1595 249.51 17.2534 249.668 17.3216C249.83 17.3897 250.028 17.4197 250.26 17.4117ZM254.6 18.256L254.558 17.0177C254.8 17.0543 254.986 17.0438 255.115 16.9862C255.244 16.9244 255.338 16.8148 255.398 16.6572C255.458 16.4997 255.508 16.2913 255.548 16.0321C255.601 15.6661 255.644 15.2453 255.677 14.7695C255.713 14.2936 255.741 13.7853 255.759 13.2445C255.781 12.7036 255.799 12.1506 255.812 11.5855L260.686 11.4171L260.915 18.0379L259.443 18.0887L259.262 12.8534L257.16 12.9261C257.148 13.1924 257.134 13.4916 257.117 13.8236C257.1 14.1516 257.081 14.4837 257.059 14.8199C257.038 15.1562 257.013 15.4762 256.982 15.7801C256.956 16.0797 256.926 16.3364 256.892 16.5504C256.815 17.0318 256.693 17.4145 256.527 17.6984C256.365 17.9823 256.13 18.1684 255.822 18.2568C255.514 18.3492 255.107 18.349 254.6 18.256ZM265.567 18.0612C264.905 18.0841 264.322 17.9549 263.817 17.6737C263.312 17.3924 262.914 16.9949 262.622 16.4813C262.334 15.9634 262.178 15.3632 262.155 14.6807C262.131 13.9859 262.248 13.3722 262.508 12.8395C262.768 12.3068 263.14 11.8847 263.625 11.5734C264.109 11.2621 264.676 11.0952 265.326 11.0727C265.992 11.0497 266.577 11.1788 267.082 11.4601C267.587 11.7413 267.986 12.1408 268.278 12.6586C268.569 13.1722 268.727 13.7703 268.751 14.4528C268.774 15.1394 268.656 15.7511 268.397 16.2879C268.141 16.8205 267.771 17.2445 267.287 17.5599C266.803 17.8713 266.229 18.0384 265.567 18.0612ZM265.519 16.6758C266.108 16.6555 266.538 16.4442 266.811 16.042C267.083 15.6397 267.209 15.128 267.188 14.5068C267.165 13.8652 267.003 13.3593 266.699 12.9893C266.396 12.6151 265.954 12.4381 265.374 12.4582C264.977 12.4718 264.653 12.5731 264.402 12.7618C264.155 12.9463 263.975 13.2 263.864 13.523C263.752 13.8419 263.703 14.2098 263.718 14.6267C263.74 15.2683 263.903 15.7762 264.206 16.1504C264.514 16.5203 264.951 16.6954 265.519 16.6758ZM270.216 17.7165L269.987 11.0958L274.707 10.9327L274.755 12.3182L271.512 12.4302L271.693 17.6655L270.216 17.7165ZM278.917 17.6C278.255 17.6229 277.672 17.4937 277.167 17.2124C276.662 16.9312 276.264 16.5337 275.972 16.0201C275.684 15.5022 275.528 14.902 275.505 14.2195C275.481 13.5247 275.599 12.911 275.858 12.3782C276.118 11.8455 276.49 11.4235 276.975 11.1121C277.459 10.8008 278.026 10.6339 278.676 10.6115C279.342 10.5885 279.928 10.7176 280.432 10.9988C280.937 11.2801 281.336 11.6796 281.628 12.1973C281.92 12.711 282.077 13.3091 282.101 13.9916C282.125 14.6782 282.007 15.2899 281.747 15.8267C281.491 16.3592 281.121 16.7832 280.637 17.0987C280.153 17.41 279.579 17.5771 278.917 17.6ZM278.87 16.2145C279.458 16.1942 279.889 15.9829 280.161 15.5807C280.434 15.1785 280.559 14.6668 280.538 14.0456C280.516 13.4039 280.353 12.8981 280.049 12.528C279.746 12.1539 279.304 11.9769 278.724 11.9969C278.327 12.0106 278.004 12.1118 277.752 12.3005C277.505 12.485 277.326 12.7388 277.214 13.0618C277.102 13.3807 277.054 13.7486 277.068 14.1655C277.09 14.8071 277.253 15.315 277.556 15.6891C277.864 16.059 278.301 16.2342 278.87 16.2145ZM289.075 10.4363L289.304 17.057L287.888 17.1059L287.738 12.7841L284.737 17.2148L283.554 17.2557L283.325 10.635L284.741 10.586L284.887 14.7976L287.904 10.4768L289.075 10.4363ZM294.985 16.8607L294.909 14.6538L293.726 14.6947C293.575 14.6999 293.385 14.7024 293.155 14.7021C292.93 14.7017 292.719 14.6886 292.522 14.6626C292.008 14.5863 291.577 14.3782 291.23 14.0383C290.882 13.6943 290.698 13.2178 290.677 12.6089C290.657 12.0122 290.799 11.5265 291.106 11.1518C291.412 10.777 291.819 10.5297 292.326 10.4099C292.537 10.3576 292.755 10.3255 292.979 10.3137C293.208 10.2976 293.398 10.287 293.549 10.2817L296.234 10.189L296.463 16.8097L294.985 16.8607ZM290.657 17.0103L292.152 14.4238L293.69 14.3706L292.208 16.9567L290.657 17.0103ZM293.533 13.5414L294.869 13.4952L294.797 11.3986L293.46 11.4448C293.383 11.4475 293.289 11.4548 293.179 11.4668C293.069 11.4788 292.959 11.501 292.85 11.5334C292.732 11.5743 292.622 11.6415 292.519 11.7351C292.416 11.8287 292.332 11.9441 292.267 12.0814C292.202 12.2186 292.173 12.3731 292.179 12.5448C292.188 12.8022 292.269 13.0142 292.422 13.1808C292.579 13.3431 292.758 13.4495 292.961 13.4998C293.059 13.5209 293.16 13.5338 293.263 13.5384C293.369 13.5429 293.459 13.5439 293.533 13.5414Z" fill="white"/>
</svg>
